<?xml version="1.0" encoding="UTF-8" standalone="no"?>
<svg
   id="emoji"
   viewBox="0 0 51.342941 41.234291"
   version="1.1"
   sodipodi:docname="books.svg"
   width="51.342941"
   height="41.234291"
   inkscape:version="1.3.2 (091e20ef0f, 2023-11-25)"
   xmlns:inkscape="http://www.inkscape.org/namespaces/inkscape"
   xmlns:sodipodi="http://sodipodi.sourceforge.net/DTD/sodipodi-0.dtd"
   xmlns="http://www.w3.org/2000/svg"
   xmlns:svg="http://www.w3.org/2000/svg">
  <defs
     id="defs7" />
  <sodipodi:namedview
     id="namedview7"
     pagecolor="#ffffff"
     bordercolor="#999999"
     borderopacity="1"
     inkscape:showpageshadow="0"
     inkscape:pageopacity="0"
     inkscape:pagecheckerboard="0"
     inkscape:deskcolor="#d1d1d1"
     inkscape:zoom="25.430556"
     inkscape:cx="25.36319"
     inkscape:cy="21.018023"
     inkscape:window-width="3840"
     inkscape:window-height="2123"
     inkscape:window-x="0"
     inkscape:window-y="377"
     inkscape:window-maximized="1"
     inkscape:current-layer="emoji" />
  <g
     id="color"
     transform="translate(-10.601458,-15.000004)">
    <path
       fill="#ffffff"
       d="M 61.2167,21.6411 37.911,15.0386 a 1.0068,1.0068 0 0 0 -0.5537,0.0019 l -22.5947,6.627 a 0.9484,0.9484 0 0 0 -0.1365,0.0719 5.3829,5.3829 0 0 0 -1.8343,9.5426 5.3642,5.3642 0 0 0 0.0663,8.6968 5.3776,5.3776 0 0 0 1.4856,9.5022 l 23.0146,6.7128 a 1.0034,1.0034 0 0 0 0.5547,0.002 l 23.3057,-6.6514 a 1.0008,1.0008 0 0 0 0.7255,-0.9619 V 22.603 a 1,1 0 0 0 -0.7275,-0.9619 z"
       id="path1" />
    <polygon
       fill="#92d3f5"
       points="37.638,29.231 15.044,22.603 37.638,15.976 60.944,22.579 "
       id="polygon1" />
    <path
       fill="#61b2e4"
       d="m 15.0823,24.7275 21.9933,6.4465 a 2,2 0 0 0 1.1113,0.0039 l 23.2947,-6.7653 a 0.613,0.613 0 0 0 0.442,-0.5794 L 61.9425,22.5824 37.6381,29.2547 15.08,22.6425 a 4.4,4.4 0 0 0 -0.4554,8.4813 l 23.014,6.713 24.2115,-6.91 0.04,-1.2423 A 0.6255,0.6255 0 0 0 61.0933,29.063 l -23.4491,6.6922 -22.4226,-6.54 a 2.4,2.4 0 0 1 -0.1393,-4.4873"
       id="path2" />
    <path
       fill="#d22f27"
       d="m 15.0823,33.4092 21.9933,6.4465 a 1.9988,1.9988 0 0 0 1.1113,0.004 l 23.2947,-6.7653 a 0.6131,0.6131 0 0 0 0.442,-0.5794 L 61.9425,31.2642 37.6381,37.9365 15.08,31.3243 a 4.4,4.4 0 0 0 -0.4554,8.4813 l 23.014,6.713 24.2115,-6.91 0.04,-1.2424 A 0.6254,0.6254 0 0 0 61.0933,37.7448 L 37.6442,44.437 15.2216,37.897 a 2.4,2.4 0 0 1 -0.1393,-4.4873"
       id="path3" />
    <path
       fill="#5c9e31"
       d="m 15.0823,42.1549 21.9933,6.4465 a 2,2 0 0 0 1.1113,0.0039 L 61.4816,41.84 a 0.613,0.613 0 0 0 0.442,-0.5794 L 61.9425,40.0099 37.6381,46.6821 15.08,40.07 a 4.4,4.4 0 0 0 -0.4554,8.4813 l 23.014,6.713 24.2115,-6.91 0.04,-1.2424 a 0.6254,0.6254 0 0 0 -0.7968,-0.6214 l -23.4491,6.6922 -22.4226,-6.54 a 2.4,2.4 0 0 1 -0.1393,-4.4873"
       id="path4" />
    <polygon
       fill="#61b2e4"
       points="16,22.799 21.81,24.504 44.32,17.794 38.594,16.172 "
       id="polygon4" />
  </g>
  <g
     id="line"
     transform="translate(-10.601458,-15.000004)">
    <polygon
       fill="none"
       stroke="#000000"
       stroke-linecap="round"
       stroke-linejoin="round"
       stroke-width="2"
       points="37.638,29.255 15.044,22.627 37.638,16 60.944,22.603 "
       id="polygon5" />
    <path
       fill="none"
       stroke="#000000"
       stroke-linecap="round"
       stroke-linejoin="round"
       stroke-width="2"
       d="m 15.08,22.6425 a 4.4,4.4 0 0 0 -0.4554,8.4813 l 23.0141,6.713 23.3057,-6.6516"
       id="path5" />
    <path
       fill="none"
       stroke="#000000"
       stroke-linecap="round"
       stroke-linejoin="round"
       stroke-width="2"
       d="m 15.08,31.2942 a 4.4,4.4 0 0 0 -0.4554,8.4813 l 23.0141,6.713 23.3057,-6.6516"
       id="path6" />
    <path
       fill="none"
       stroke="#000000"
       stroke-linecap="round"
       stroke-linejoin="round"
       stroke-width="2"
       d="m 15.08,40.04 a 4.4,4.4 0 0 0 -0.4554,8.4813 l 23.0141,6.713 23.3057,-6.6516"
       id="path7" />
  </g>
</svg>
