<?xml version="1.0" encoding="UTF-8" standalone="no"?>
<svg
   id="emoji"
   viewBox="0 0 50 49.877602"
   version="1.1"
   sodipodi:docname="calendar.svg"
   width="50"
   height="49.877602"
   inkscape:version="1.3.2 (091e20ef0f, 2023-11-25)"
   xmlns:inkscape="http://www.inkscape.org/namespaces/inkscape"
   xmlns:sodipodi="http://sodipodi.sourceforge.net/DTD/sodipodi-0.dtd"
   xmlns="http://www.w3.org/2000/svg"
   xmlns:svg="http://www.w3.org/2000/svg">
  <defs
     id="defs13" />
  <sodipodi:namedview
     id="namedview13"
     pagecolor="#ffffff"
     bordercolor="#999999"
     borderopacity="1"
     inkscape:showpageshadow="0"
     inkscape:pageopacity="0"
     inkscape:pagecheckerboard="0"
     inkscape:deskcolor="#d1d1d1"
     inkscape:zoom="3.2777778"
     inkscape:cx="25.016949"
     inkscape:cy="24.559322"
     inkscape:window-width="3840"
     inkscape:window-height="2075"
     inkscape:window-x="1920"
     inkscape:window-y="48"
     inkscape:window-maximized="1"
     inkscape:current-layer="emoji" />
  <g
     id="color"
     transform="translate(-10.997,-11.2142)">
    <path
       fill="#ffffff"
       stroke="none"
       d="m 11.9726,28.2042 0.123,31.8059 31.6009,-0.082 L 59.9274,47.55 60.0503,28.0812 Z"
       id="path1" />
    <path
       fill="#ea5a47"
       stroke="none"
       d="m 12.1421,28.1401 h 47.71 V 12.2523 h -47.71 z M 49.9972,16.7595 c 0.0107,0 0.0207,0 0.0307,0 0.841,0.0081 1.6281,0.3433 2.2169,0.9435 0.5897,0.6004 0.9094,1.3941 0.901,2.2351 -0.0162,1.7261 -1.426,3.1186 -3.1479,3.1186 -0.0099,0 -0.0207,0 -0.0307,0 -1.7357,-0.017 -3.134,-1.4429 -3.1179,-3.1786 0.0162,-1.7261 1.426,-3.1186 3.1479,-3.1186 z m -30.2703,0.848 c 0.6109,-0.5985 1.4156,-0.9273 2.2694,-0.9273 0.0103,0 0.0206,0 0.0317,0 1.7866,0.0174 3.2267,1.4852 3.2101,3.2719 -0.0166,1.7768 -1.4678,3.2102 -3.2403,3.2102 -0.0102,0 -0.0213,0 -0.0316,0 -1.7867,-0.0175 -3.2267,-1.4852 -3.2101,-3.2719 0.0078,-0.8656 0.3528,-1.6763 0.9708,-2.2829 z"
       id="path2" />
    <path
       fill="#d0cfce"
       stroke="none"
       d="M 56.9559,49.0381 H 44.1387 v 4.4795 c 0,0.5527 -0.4473,1 -1,1 -0.502,0 -0.8992,-0.3752 -0.9712,-0.8569 v 5.4255 l 1.1596,-3e-4 z"
       id="path3" />
  </g>
  <g
     id="hair"
     transform="translate(-10.997,-11.2142)" />
  <g
     id="skin"
     transform="translate(-10.997,-11.2142)" />
  <g
     id="skin-shadow"
     transform="translate(-10.997,-11.2142)" />
  <g
     id="line"
     transform="translate(-10.997,-11.2142)">
    <circle
       cx="21.997"
       cy="19.9408"
       transform="matrix(0.0096,-1,1,0.0096,1.8467,41.746)"
       fill="none"
       fill-rule="evenodd"
       stroke="#000000"
       stroke-linecap="round"
       stroke-linejoin="round"
       stroke-miterlimit="10"
       stroke-width="2"
       clip-rule="evenodd"
       id="ellipse3"
       r="3" />
    <rect
       x="11.997"
       y="12.2142"
       width="48"
       height="16"
       fill="none"
       stroke="#000000"
       stroke-linecap="round"
       stroke-linejoin="round"
       stroke-miterlimit="10"
       stroke-width="2"
       id="rect3" />
    <circle
       cx="49.997601"
       cy="19.9408"
       transform="matrix(0.0096,-1,1,0.0096,29.5794,69.7454)"
       fill="none"
       fill-rule="evenodd"
       stroke="#000000"
       stroke-linecap="round"
       stroke-linejoin="round"
       stroke-miterlimit="10"
       stroke-width="2"
       clip-rule="evenodd"
       id="ellipse4"
       r="3" />
    <polyline
       fill="none"
       stroke="#000000"
       stroke-linecap="round"
       stroke-linejoin="round"
       stroke-miterlimit="10"
       stroke-width="2"
       points="11.997,28.0918 11.997,60.0918 43.6564,60.0864 59.997,48.0382 59.997,28.0918"
       id="polyline4" />
    <circle
       cx="18.2166"
       cy="33.6726"
       transform="matrix(0.0096,-1,1,0.0096,-15.6284,51.5668)"
       fill="#000000"
       stroke="none"
       id="ellipse5"
       r="2" />
    <circle
       cx="24.2166"
       cy="33.6726"
       transform="matrix(0.0096,-1,1,0.0096,-9.6857,57.5665)"
       fill="#000000"
       stroke="none"
       id="ellipse6"
       r="2" />
    <circle
       cx="30.2166"
       cy="33.6726"
       transform="matrix(0.0096,-1,1,0.0096,-3.743,63.5662)"
       fill="#000000"
       stroke="none"
       id="ellipse7"
       r="2" />
    <circle
       cx="36.216599"
       cy="33.6726"
       transform="matrix(0.0096,-1,1,0.0096,2.1997,69.566)"
       fill="#000000"
       stroke="none"
       id="ellipse8"
       r="2" />
    <circle
       cx="18.2166"
       cy="39.6726"
       transform="matrix(0.0096,-1,1,0.0096,-21.6282,57.5095)"
       fill="#000000"
       stroke="none"
       id="ellipse9"
       r="2" />
    <circle
       cx="24.2166"
       cy="39.6726"
       transform="matrix(0.0096,-1,1,0.0096,-15.6855,63.5092)"
       fill="#000000"
       stroke="none"
       id="ellipse10"
       r="2" />
    <circle
       cx="30.2166"
       cy="39.6726"
       transform="matrix(0.0096,-1,1,0.0096,-9.7428,69.5089)"
       fill="#000000"
       stroke="none"
       id="ellipse11"
       r="2" />
    <circle
       cx="36.216599"
       cy="39.6726"
       transform="matrix(0.0096,-1,1,0.0096,-3.8001,75.5087)"
       fill="#000000"
       stroke="none"
       id="ellipse12"
       r="2" />
    <circle
       cx="18.2166"
       cy="45.6726"
       transform="matrix(0.0096,-1,1,0.0096,-27.6279,63.4522)"
       fill="#000000"
       stroke="none"
       id="ellipse13"
       r="2" />
    <polyline
       fill="none"
       stroke="#000000"
       stroke-linecap="round"
       stroke-linejoin="round"
       stroke-miterlimit="10"
       stroke-width="2"
       points="59.8694,48.0382 43.1384,48.0382 43.1384,53.5175"
       id="polyline13" />
  </g>
</svg>
