<?xml version="1.0" encoding="UTF-8" standalone="no"?>
<svg
   id="emoji"
   viewBox="0 0 63.788601 28.18294"
   version="1.1"
   sodipodi:docname="hearthands.svg"
   width="63.788601"
   height="28.18294"
   inkscape:version="1.3.2 (091e20ef0f, 2023-11-25)"
   xmlns:inkscape="http://www.inkscape.org/namespaces/inkscape"
   xmlns:sodipodi="http://sodipodi.sourceforge.net/DTD/sodipodi-0.dtd"
   xmlns="http://www.w3.org/2000/svg"
   xmlns:svg="http://www.w3.org/2000/svg">
  <defs
     id="defs4" />
  <sodipodi:namedview
     id="namedview4"
     pagecolor="#ffffff"
     bordercolor="#999999"
     borderopacity="1"
     inkscape:showpageshadow="0"
     inkscape:pageopacity="0"
     inkscape:pagecheckerboard="0"
     inkscape:deskcolor="#d1d1d1"
     inkscape:zoom="12.097222"
     inkscape:cx="31.86682"
     inkscape:cy="14.094145"
     inkscape:window-width="1920"
     inkscape:window-height="1163"
     inkscape:window-x="0"
     inkscape:window-y="960"
     inkscape:window-maximized="1"
     inkscape:current-layer="emoji" />
  <g
     id="color"
     transform="translate(-4.1057,-21.90866)" />
  <g
     id="skin"
     transform="translate(-4.1057,-21.90866)">
    <g
       id="hearth-hands">
      <path
         fill="#fcea2b"
         d="M 67.78,41.1742 63.4004,49.7499 62.6175,49.0916 58.8191,46.31 c -1.8538,-1.3017 -4.2648,-1.5045 -6.31,-0.5307 -1.9675,0.6874 -4.0878,0.8116 -6.1221,0.3585 -2.1081,-0.3243 -7.41,1.8141 -8.7174,2.3879 -0.4024,0.1767 -1.6482,-1.0665 -1.673,-1.5052 C 35.918,45.6268 37.9417,43.32 42.8989,40.87 48.9498,37.88 49.2344,34.1781 48.0244,29.8357 46.8144,25.4933 41.4752,27.7 41.4752,27.7 l -4.5066,3.4628 c -0.2002,0.1099 -0.4443,0.1019 -0.6368,-0.0209 -0.2911,-0.1856 -0.3766,-0.572 -0.1911,-0.8631 0.8969,-1.389 2.1828,-4.1342 3.4128,-4.9279 1.2625,-0.7766 2.5778,-1.4638 3.9364,-2.0565 1.0489,-0.4723 2.2416,-0.5126 3.32,-0.1121 l 6.0945,2.2677 c 0.9389,0.3479 1.729,1.0091 2.237,1.8719 1.021,1.7335 2.8641,4.85 4.431,7.43 1.411,2.3236 7.1542,5.9107 7.3163,5.9648 z"
         id="path1" />
    </g>
    <g
       id="hearth-hands-2">
      <path
         fill="#fcea2b"
         d="m 5.1057,40.7167 c 0.1621,-0.0541 5.9053,-3.6412 7.3163,-5.9648 1.5669,-2.58 3.41,-5.6965 4.431,-7.43 0.508,-0.8628 1.2981,-1.524 2.237,-1.8719 l 6.0945,-2.2677 c 1.0784,-0.4005 2.2711,-0.3602 3.32,0.1121 1.3586,0.5927 2.6739,1.2799 3.9364,2.0565 1.23,0.7937 2.5159,3.5389 3.4128,4.9279 0.1856,0.2911 0.1,0.6775 -0.1911,0.8631 -0.1925,0.1227 -0.4367,0.1307 -0.6368,0.0209 L 30.5192,27.7 c 0,0 -5.3392,-2.2067 -6.5492,2.1357 -1.21,4.3424 -0.9254,8.0443 5.1255,11.0343 4.9572,2.45 6.9809,4.7568 6.9023,6.1505 -0.0248,0.4387 -1.2706,1.6819 -1.673,1.5052 -1.3074,-0.5738 -6.6093,-2.7122 -8.7174,-2.3879 -2.0343,0.4531 -4.1546,0.3289 -6.1221,-0.3585 -2.0452,-0.9738 -4.4562,-0.771 -6.31,0.5307 L 9.3769,49.0916 8.594,49.7499 4.2144,41.1742 Z"
         id="path2" />
    </g>
  </g>
  <g
     id="line"
     transform="translate(-4.1057,-21.90866)">
    <g
       id="line-2">
      <path
         fill="none"
         stroke="#000000"
         stroke-linecap="round"
         stroke-linejoin="round"
         stroke-width="2"
         d="m 66.8943,40.7167 c -0.1621,-0.0541 -5.9053,-3.6412 -7.3163,-5.9648 -1.5669,-2.58 -3.41,-5.6965 -4.431,-7.43 -0.508,-0.8628 -1.2981,-1.524 -2.237,-1.8719 l -6.0945,-2.2677 c -1.0784,-0.4005 -2.2711,-0.3602 -3.32,0.1121 -1.3586,0.5927 -2.6739,1.2799 -3.9364,2.0565 -1.23,0.7937 -2.5159,3.5389 -3.4128,4.9279 -0.1856,0.2911 -0.1,0.6775 0.1911,0.8631 0.1925,0.1227 0.4367,0.1307 0.6368,0.0209 L 41.4808,27.7 c 0,0 4.4922,-1.8756 6.5491,2.1356 2.2451,4.3781 0.9255,8.044 -5.1254,11.0338 -4.9572,2.45 -6.3787,4.4689 -6.3,5.8626 0.0248,0.4387 1.2707,1.6818 1.673,1.5052 1.3074,-0.5739 6.0071,-2.4243 8.1152,-2.1 2.0343,0.4531 4.1546,0.3289 6.1221,-0.3585 2.0452,-0.9738 4.4562,-0.771 6.31,0.5307 l 3.7986,2.7821"
         id="path3" />
      <path
         fill="none"
         stroke="#000000"
         stroke-linecap="round"
         stroke-linejoin="round"
         stroke-width="2"
         d="m 5.1057,40.7167 c 0.1621,-0.0541 5.9053,-3.6412 7.3163,-5.9648 1.5669,-2.58 3.41,-5.6965 4.431,-7.43 0.508,-0.8628 1.2981,-1.524 2.237,-1.8719 l 6.0945,-2.2677 c 1.0784,-0.4005 2.2711,-0.3602 3.32,0.1121 1.3586,0.5927 2.6739,1.2799 3.9364,2.0565 1.23,0.7937 2.5159,3.5389 3.4128,4.9279 0.1856,0.2911 0.1,0.6775 -0.1911,0.8631 -0.1925,0.1227 -0.4367,0.1307 -0.6368,0.0209 L 30.5192,27.7 c 0,0 -4.4922,-1.8755 -6.5492,2.1357 -2.2451,4.3781 -0.9255,8.044 5.1254,11.0338 4.9572,2.45 6.3787,4.4689 6.3,5.8626 -0.0248,0.4387 -1.2707,1.6818 -1.673,1.5052 -1.3074,-0.5739 -6.0071,-2.4243 -8.1152,-2.1 -2.0343,0.4531 -4.1546,0.3289 -6.1221,-0.3585 -2.0452,-0.9738 -4.4562,-0.771 -6.31,0.5307 l -3.7982,2.7821"
         id="path4" />
    </g>
  </g>
</svg>
