<?xml version="1.0" encoding="UTF-8" standalone="no"?>
<svg
   id="emoji"
   viewBox="0 0 40.208378 49.554001"
   version="1.1"
   sodipodi:docname="knot.svg"
   width="40.208378"
   height="49.554001"
   inkscape:version="1.3.2 (091e20ef0f, 2023-11-25)"
   xmlns:inkscape="http://www.inkscape.org/namespaces/inkscape"
   xmlns:sodipodi="http://sodipodi.sourceforge.net/DTD/sodipodi-0.dtd"
   xmlns="http://www.w3.org/2000/svg"
   xmlns:svg="http://www.w3.org/2000/svg">
  <defs
     id="defs34" />
  <sodipodi:namedview
     id="namedview34"
     pagecolor="#ffffff"
     bordercolor="#999999"
     borderopacity="1"
     inkscape:showpageshadow="0"
     inkscape:pageopacity="0"
     inkscape:pagecheckerboard="0"
     inkscape:deskcolor="#d1d1d1"
     inkscape:zoom="12.097222"
     inkscape:cx="20.128588"
     inkscape:cy="24.840413"
     inkscape:window-width="3840"
     inkscape:window-height="2075"
     inkscape:window-x="1920"
     inkscape:window-y="48"
     inkscape:window-maximized="1"
     inkscape:current-layer="emoji" />
  <g
     id="line-supplement"
     transform="translate(-15.895857,-11.1832)">
    <path
       fill="none"
       stroke="#000000"
       stroke-linecap="round"
       stroke-linejoin="round"
       stroke-width="2"
       d="m 18.2987,47.0371 c 0,0 0.17,2.1674 4.5371,2.8755"
       id="path1" />
    <path
       fill="none"
       stroke="#000000"
       stroke-linecap="round"
       stroke-linejoin="round"
       stroke-width="2"
       d="M 25.0343,35.4841 C 26.5451,34.9901 28.1962,35.1784 29.5569,36"
       id="path2" />
    <path
       fill="none"
       stroke="#000000"
       stroke-linecap="round"
       stroke-linejoin="round"
       stroke-width="2"
       d="m 26.8582,28.2336 c 1.6015,-0.8547 3.4582,-1.1009 5.2271,-0.6931"
       id="path3" />
    <path
       fill="none"
       stroke="#000000"
       stroke-linecap="round"
       stroke-linejoin="round"
       stroke-width="2"
       d="m 32.27,19.1212 c 0,0 3.0736,0.3742 2.6079,4.286"
       id="path4" />
    <path
       fill="none"
       stroke="#000000"
       stroke-linecap="round"
       stroke-linejoin="round"
       stroke-width="2"
       d="m 48.1464,34.9927 c 0,0 4.7358,1.001 5.6255,-3.3181"
       id="path5" />
    <path
       fill="none"
       stroke="#000000"
       stroke-linecap="round"
       stroke-linejoin="round"
       stroke-width="2"
       d="m 41.3957,40.6445 c 1.7015,1.8357 4.3638,2.4223 6.6792,1.4717"
       id="path6" />
    <path
       fill="none"
       stroke="#000000"
       stroke-linecap="round"
       stroke-linejoin="round"
       stroke-width="2"
       d="m 33.5978,45.2113 c 0,0 4.3436,-0.38 5.458,1.5936"
       id="path7" />
    <path
       fill="none"
       stroke="#000000"
       stroke-linecap="round"
       stroke-linejoin="round"
       stroke-width="2"
       d="m 23.7889,56.9573 c 0,0 2.5774,-2.8107 6.0761,-1.884"
       id="path8" />
    <path
       fill="none"
       stroke="#000000"
       stroke-linecap="round"
       stroke-linejoin="round"
       stroke-width="2"
       d="m 44.0919,14.609 c 0,0 2.3364,2.296 1.1682,7.1425"
       id="path9" />
    <path
       fill="none"
       stroke="#000000"
       stroke-linecap="round"
       stroke-linejoin="round"
       stroke-width="2"
       d="m 39.0558,20.6344 c 0,0 0.7182,2.9572 -1.898,6.6866"
       id="path10" />
    <path
       fill="none"
       stroke="#000000"
       stroke-linecap="round"
       stroke-linejoin="round"
       stroke-width="2"
       d="m 21.3668,32.03 c 0,0 -0.4284,5.567 3.1854,6.1831"
       id="path11" />
    <path
       fill="none"
       stroke="#000000"
       stroke-linecap="round"
       stroke-linejoin="round"
       stroke-width="2"
       d="m 21.9289,45.1819 c 0,0 3.7608,1.0774 4.49,-2.3129"
       id="path12" />
    <path
       fill="none"
       stroke="#000000"
       stroke-linecap="round"
       stroke-linejoin="round"
       stroke-width="2"
       d="m 31.0005,52.5446 c 0,0 6.3137,-0.9121 5.5583,-4.2323"
       id="path13" />
    <path
       fill="none"
       stroke="#000000"
       stroke-linecap="round"
       stroke-linejoin="round"
       stroke-width="2"
       d="m 44.4663,30.3446 c 0,0 0.7807,4.9488 3.0684,5.6554"
       id="path14" />
    <path
       fill="none"
       stroke="#000000"
       stroke-linecap="round"
       stroke-linejoin="round"
       stroke-width="2"
       d="m 48.4925,22.9816 c 0,0 -0.5088,3.9862 1.6566,6.1516"
       id="path15" />
  </g>
  <g
     id="color"
     transform="translate(-15.895857,-11.1832)">
    <polygon
       fill="#ffffff"
       points="38.4646,30.1899 40.7361,31.352 39.0985,37.8496 33.7631,41.4946 31.8085,40.5966 33.3933,33.6764 "
       id="polygon15" />
    <path
       fill="#5c9e31"
       d="m 24.5226,49.6863 c -1.594,1.7218 -3.6207,2.9846 -5.8688,3.6567 -0.528,0.1619 -1.0873,-0.135 -1.2492,-0.663 0,0 0,0 0,0 L 15.94,47.8994 c -0.1618,-0.528 0.1351,-1.0873 0.6631,-1.2491 1.4072,-0.4361 2.651,-1.2848 3.57,-2.4363 l 4.3495,5.4724 z m -0.93,-10.5711 c -0.3791,-1.9241 0.85,-5.3214 0.85,-5.3214 0.2027,-0.79 0.3949,-1.5933 0.5868,-2.3994 0.9789,-4.0965 1.99,-8.3311 4.54,-11.2018 2.7082,-3.1331 6.8758,-4.5934 10.9473,-3.8358 1.0815,0.225 2.1355,0.5667 3.1433,1.0191 -2.0262,2.5428 -4.5203,4.6742 -7.3478,6.2792 -0.5704,0.2994 -1.0812,0.7006 -1.5072,1.1839 -1.9008,2.1405 -2.9741,6.3152 -4.0114,10.352 -0.7778,3.5322 -1.9206,6.974 -3.41,10.27 0,0 -3.4119,-4.4217 -3.7909,-6.3458 v 0 z M 46.2251,28.3745 C 44.8817,26.4893 43.1075,24.9522 41.05,23.8912 l 1.0392,-0.71 c 1.6681,-1.1737 3.116,-2.6325 4.277,-4.3095 0.5019,0.3343 0.9947,0.6961 1.4783,1.0854 v 0 c 0.9684,0.7826 1.8676,1.6472 2.6876,2.5842 -1.5923,1.0502 -2.8537,2.5309 -3.6373,4.27 z M 31.8006,53.86 c -1.3242,1.7804 -2.1995,3.8539 -2.5515,6.0447 -0.0949,0.5441 -0.6129,0.9082 -1.157,0.8132 0,0 -10e-5,0 -2e-4,0 L 23.166,59.861 c -0.5441,-0.0949 -0.9082,-0.6129 -0.8132,-1.157 0,0 0,-1e-4 0,-2e-4 0.4875,-2.9048 1.6783,-5.6461 3.4686,-7.985 z m -2.4391,-6.8048 c 2.7725,-2.1858 5.74,-4.1123 8.8651,-5.7552 2.7785,-1.422 5.3956,-3.1394 7.8061,-5.1223 1.0117,-0.8708 1.6476,-2.0989 1.7747,-3.4277 0.6461,-3.0215 2.2471,-5.755 4.5664,-7.7965 0.2781,0.4206 0.5412,0.8498 0.7895,1.2877 2.8391,4.9751 1.8385,11.255 -2.406,15.1015 -1.977,1.6138 -4.1752,2.9356 -6.5276,3.925 -1.1274,0.5413 -2.192,1.0529 -3.1918,1.618 -1.6489,0.9151 -3.3701,1.6932 -5.1464,2.3265 -2.1387,0.6571 -6.53,-2.1568 -6.53,-2.1568 z"
       id="path16" />
    <path
       fill="#92d3f5"
       d="m 35.1731,22.0105 c 2.2642,-1.239 4.3086,-2.843 6.0509,-4.7473 v 0 c 1.3536,-1.4612 2.2496,-3.2869 2.5772,-5.2516 0.0956,-0.5437 0.6133,-0.9074 1.1572,-0.8132 l 4.9258,0.8571 c 0.5441,0.0949 0.9082,0.6128 0.8134,1.1569 0,0 0,2e-4 0,3e-4 -1.6129,9.27 -8.9133,12.9245 -15.3544,16.1492 -1.5385,0.7705 -3.03,1.5178 -4.4,2.3127 l 4.23,-9.6641 z m 12.9018,18.92 c -0.8671,3.4376 -2.0365,6.7351 -4.3373,9.3277 -2.7087,3.1326 -6.876,4.5929 -10.9476,3.8363 -2.6933,-0.6026 -5.2047,-1.8371 -7.327,-3.6015 -2.1497,-1.7443 -3.9539,-3.8758 -5.3192,-6.2841 -2.8384,-4.9745 -1.8385,-11.2533 2.4048,-15.1 1.8381,-1.5514 3.8805,-2.8431 6.07,-3.839 0,0 -0.9792,3.4859 -1.7137,6.6059 -0.8065,3.4258 -1.2924,5.4625 -1.2924,5.4625 -0.1882,1.1778 0.0311,2.3846 0.6217,3.4209 1.8268,3.2221 5.1124,5.8979 7.9561,6.4766 0.4964,0.0991 1.0071,0.1022 1.5047,0.0092 0,0 1.0426,-0.0662 4.8242,-2.0364 4.4819,-2.3348 7.5557,-4.2776 7.5557,-4.2776 z M 40.9031,40.644 c 0.434,-1.4833 0.79,-3.11 1.1547,-4.7768 1.406,-6.4238 3.1548,-14.4151 11.2878,-16.907 0.528,-0.1612 1.0868,0.1354 1.2491,0.6631 l 1.4656,4.78 c 0.1613,0.528 -0.1354,1.0869 -0.6631,1.2491 -3.1856,0.9767 -4.7535,3.7765 -5.7769,8.0184 z"
       id="path17" />
    <path
       fill="#b1cc33"
       d="m 22.8371,50.9126 c -0.054,0 -0.1079,-0.0042 -0.1612,-0.0127 -4.998,-0.8105 -5.35,-3.4824 -5.374,-3.7842 -0.044,-0.5505 0.3665,-1.0325 0.9171,-1.0766 0.5362,-0.0429 1.0102,0.346 1.0729,0.8803 0.02,0.0909 0.3935,1.47 3.7041,2.0059 0.5453,0.0877 0.9162,0.6009 0.8284,1.1462 -0.078,0.4849 -0.4965,0.8413 -0.9876,0.8411 z"
       id="path18" />
    <path
       fill="#b1cc33"
       d="m 29.5558,37.0005 c -0.1779,2e-4 -0.3526,-0.0474 -0.5058,-0.1377 -1.0953,-0.6698 -2.4268,-0.8329 -3.6514,-0.4473 -0.5136,0.2033 -1.0948,-0.0482 -1.2982,-0.5619 -0.2033,-0.5136 0.0482,-1.0948 0.5619,-1.2981 1.7989,-0.6066 3.7733,-0.3935 5.4013,0.583 0.4762,0.2797 0.6356,0.8925 0.3559,1.3687 -0.1798,0.3062 -0.5086,0.4941 -0.8637,0.4936 z"
       id="path19" />
    <path
       fill="#b1cc33"
       d="m 26.8615,29.2329 c -0.5523,7e-4 -1.0006,-0.4464 -1.0013,-0.9987 -5e-4,-0.3579 0.1903,-0.6887 0.5003,-0.8675 1.8341,-0.989 3.9676,-1.2698 5.9951,-0.7891 0.5318,0.1494 0.8418,0.7016 0.6924,1.2334 -0.1494,0.5318 -0.7016,0.8418 -1.2334,0.6924 -1.5111,-0.3346 -3.0919,-0.122 -4.4609,0.6 -0.1501,0.085 -0.3197,0.1296 -0.4922,0.1295 z"
       id="path20" />
    <path
       fill="#b1cc33"
       d="M 34.8791,24.4067 C 34.8393,24.4069 34.7995,24.4046 34.76,24.4 34.2116,24.3348 33.8198,23.8374 33.885,23.289 v -3e-4 c 0.3242,-2.7295 -1.3994,-3.124 -1.748,-3.1758 -0.5429,-0.0798 -0.9217,-0.5798 -0.8516,-1.124 0.0682,-0.5425 0.563,-0.9271 1.1055,-0.8594 1.4053,0.1709 3.9414,1.5185 3.48,5.3955 -0.0601,0.5024 -0.4858,0.8808 -0.9918,0.8817 z"
       id="path21" />
    <path
       fill="#b1cc33"
       d="m 49.29,36.0913 c -0.453,0.0031 -0.9052,-0.0371 -1.3506,-0.12 -0.5403,-0.1142 -0.8858,-0.6448 -0.7716,-1.1852 0,-10e-5 0,-3e-4 0,-4e-4 0.1076,-0.5357 0.629,-0.8827 1.1647,-0.7752 0.006,0.0012 0.0119,0.0025 0.0179,0.0038 0.39,0.0791 3.78,0.67 4.4415,-2.542 0.1116,-0.5409 0.6407,-0.8889 1.1816,-0.7773 0.5409,0.1116 0.8889,0.6407 0.7773,1.1816 -0.2247,1.3529 -0.9964,2.5537 -2.1338,3.32 -1.0001,0.6116 -2.1552,0.9222 -3.3271,0.8947 z"
       id="path22" />
    <path
       fill="#b1cc33"
       d="m 45.6984,43.5347 c -1.9419,0.0124 -3.7948,-0.8134 -5.084,-2.2657 -0.3463,-0.4304 -0.278,-1.06 0.1524,-1.4062 0.4304,-0.3462 1.06,-0.278 1.4062,0.1524 1.4396,1.5065 3.6606,1.9663 5.58,1.1553 0.5272,-0.1644 1.088,0.1297 1.2524,0.6569 0.1585,0.508 -0.1087,1.0512 -0.6079,1.2357 -0.8676,0.3049 -1.7796,0.4643 -2.6991,0.4717 z"
       id="path23" />
    <path
       fill="#b1cc33"
       d="m 39.0568,47.8052 c -0.3612,3e-4 -0.6946,-0.1942 -0.8721,-0.5088 -0.5986,-1.0606 -3.289,-1.19 -4.5009,-1.0889 -0.551,0.038 -1.0285,-0.3778 -1.0665,-0.9288 -0.0371,-0.5373 0.358,-1.0074 0.8936,-1.0634 0.5117,-0.0449 5.0244,-0.3662 6.416,2.0987 0.2713,0.4811 0.1012,1.091 -0.3798,1.3622 -0.1496,0.0844 -0.3184,0.1288 -0.4902,0.129 v 0 z"
       id="path24" />
    <path
       fill="#b1cc33"
       d="m 23.7892,57.9556 c -0.5523,-8e-4 -0.9993,-0.4492 -0.9985,-1.0015 4e-4,-0.2488 0.0935,-0.4886 0.2612,-0.6724 0.1221,-0.1328 3.0352,-3.2441 7.0694,-2.1748 0.5339,0.1413 0.8522,0.6888 0.7109,1.2227 -0.1413,0.5339 -0.6888,0.8522 -1.2227,0.7109 -1.857,-0.3794 -3.7785,0.2235 -5.0859,1.5957 -0.1897,0.204 -0.4558,0.3197 -0.7344,0.3194 z"
       id="path25" />
    <path
       fill="#61b2e4"
       d="m 45.2609,22.7515 c -0.0792,0 -0.1582,-0.0092 -0.2353,-0.0274 -0.537,-0.1297 -0.8674,-0.6699 -0.7383,-1.207 1.0068,-4.1738 -0.8262,-6.1221 -0.9043,-6.2031 -0.3849,-0.3961 -0.3758,-1.0292 0.0202,-1.4141 0.3865,-0.3756 1.0011,-0.3773 1.3898,-0.0039 0.1114,0.1094 2.7246,2.7539 1.4395,8.09 -0.1088,0.4485 -0.5101,0.7646 -0.9716,0.7655 z"
       id="path26" />
    <path
       fill="#61b2e4"
       d="m 37.1564,28.3208 c -0.5523,-7e-4 -0.9994,-0.449 -0.9987,-1.0013 3e-4,-0.205 0.0636,-0.405 0.1813,-0.5729 2.292,-3.2686 1.7666,-5.78 1.7432,-5.8848 -0.1215,-0.5387 0.2167,-1.074 0.7555,-1.1955 0.5294,-0.1194 1.0575,0.2053 1.1898,0.7316 0.0342,0.1387 0.792,3.4434 -2.0518,7.4971 -0.187,0.2674 -0.493,0.4264 -0.8193,0.4258 z"
       id="path27" />
    <path
       fill="#61b2e4"
       d="m 24.5529,39.2124 c -0.0566,0 -0.1131,-0.005 -0.1689,-0.0146 -4.461,-0.7608 -4.0352,-6.98 -4.0147,-7.2442 0.0488,-0.5501 0.5343,-0.9565 1.0844,-0.9078 0.5403,0.0479 0.9439,0.5178 0.9097,1.0592 -0.0029,0.0469 -0.3115,4.667 2.3565,5.1221 0.5442,0.0943 0.9088,0.6119 0.8145,1.1561 -0.0828,0.4778 -0.4966,0.8273 -0.9815,0.8292 z"
       id="path28" />
    <path
       fill="#61b2e4"
       d="m 23.2306,46.3481 c -0.5324,0.0013 -1.0627,-0.0676 -1.5771,-0.205 -0.5313,-0.1509 -0.8396,-0.7039 -0.6887,-1.2352 0.1509,-0.5313 0.7039,-0.8396 1.2352,-0.6887 v 0 c 0.7904,0.2191 1.6328,0.1513 2.3779,-0.1914 0.4698,-0.3123 0.7836,-0.8105 0.8623,-1.3691 0.1253,-0.5379 0.6629,-0.8724 1.2007,-0.7471 0.5249,0.1222 0.8585,0.6384 0.7544,1.1671 -0.1943,1.1031 -0.8466,2.0724 -1.7953,2.6679 -0.721,0.4107 -1.5398,0.6185 -2.3694,0.6015 z"
       id="path29" />
    <path
       fill="#61b2e4"
       d="m 30.9992,53.5444 c -0.5523,-0.0022 -0.9982,-0.4516 -0.9961,-1.0039 0.0019,-0.4942 0.3646,-0.9129 0.8535,-0.9853 0.91,-0.1338 3.6982,-0.79 4.54,-2.0186 0.211,-0.2887 0.2799,-0.6574 0.1875,-1.0029 -0.1062,-0.542 0.247,-1.0674 0.789,-1.1737 0.519,-0.1017 1.0275,0.2183 1.1603,0.7303 0.2141,0.89 0.0363,1.829 -0.4883,2.5791 -1.4912,2.1709 -5.4551,2.8 -5.9024,2.8643 -0.0475,0.0074 -0.0955,0.011 -0.1435,0.0107 z"
       id="path30" />
    <path
       fill="#61b2e4"
       d="m 47.5343,37.0005 c -0.1,-1e-4 -0.1994,-0.0153 -0.2949,-0.0449 -2.8017,-0.8662 -3.6709,-5.8858 -3.7607,-6.4551 -0.1019,-0.5428 0.2554,-1.0655 0.7982,-1.1674 0.5428,-0.1019 1.0655,0.2554 1.1674,0.7982 0.0035,0.0188 0.0065,0.0377 0.009,0.0567 0.2871,1.8008 1.2148,4.498 2.376,4.8574 0.5275,0.1636 0.8225,0.7239 0.6588,1.2514 -0.1297,0.418 -0.5161,0.7032 -0.9538,0.7037 z"
       id="path31" />
    <path
       fill="#61b2e4"
       d="m 50.15,30.1333 c -0.2653,3e-4 -0.5198,-0.1052 -0.7071,-0.293 -2.4843,-2.4834 -1.9658,-6.8027 -1.9423,-6.9853 0.0696,-0.5479 0.5701,-0.9358 1.1181,-0.8662 0.548,0.0696 0.9358,0.5702 0.8662,1.1181 -0.0039,0.0352 -0.414,3.5342 1.3721,5.3194 0.3905,0.3906 0.3904,1.0237 -2e-4,1.4142 -0.1875,0.1874 -0.4417,0.2927 -0.7068,0.2928 z"
       id="path32" />
  </g>
  <g
     id="line"
     transform="translate(-15.895857,-11.1832)">
    <path
       fill="none"
       stroke="#000000"
       stroke-linecap="round"
       stroke-miterlimit="10"
       stroke-width="2"
       d="m 41.9641,17.9355 c 1.4821,-1.6009 2.4632,-3.6005 2.8223,-5.7523 M 35.49,22.9816 c 2.4234,-1.3109 4.6115,-3.0162 6.4745,-5.0461 M 46.4366,43.06 c -0.6774,2.396 -1.8518,4.6225 -3.4466,6.5347 -2.4709,2.8661 -6.277,4.2061 -9.9985,3.52 -2.5371,-0.5704 -4.9023,-1.7358 -6.9005,-3.4 -2.0518,-1.6651 -3.7737,-3.6996 -5.0766,-5.9984 -2.6069,-4.5695 -1.688,-10.3369 2.21,-13.87 1.205,-1.0531 2.53,-1.9602 3.9477,-2.7025 m 27.9321,-2.447 c -3.7722,1.1558 -5.47,4.594 -6.4885,8.8732 m -6.5633,6.6843 c 0.36,-1.325 0.6684,-2.7358 0.9833,-4.1753 1.42,-6.488 3.0295,-13.8417 10.6029,-16.1625 M 24.6924,36.8211 c -0.333,1.5093 -0.0935,3.0885 0.6721,4.4312 0.9981,1.7545 2.3156,3.3068 3.8847,4.5766 1.3702,1.1583 2.9949,1.9761 4.7415,2.3868 1.2634,0.237 2.5699,0.0065 3.6759,-0.6485 M 49.7122,13.0413 c -1.5262,8.7724 -8.587,12.3075 -14.8169,15.4264 -1.3269,0.6645 -2.6225,1.3133 -3.8432,1.9941"
       id="path33" />
    <path
       fill="none"
       stroke="#000000"
       stroke-linecap="round"
       stroke-linejoin="round"
       stroke-width="2"
       d="m 46.5789,20.2442 c 0.2158,0.16 0.4297,0.3252 0.6416,0.4957 M 24.6568,36.8132 c 0.2582,-0.8744 0.5111,-1.7968 0.7587,-2.7671 1.2146,-4.7269 2.0418,-9.96 4.9058,-13.1862 2.4707,-2.8666 6.2771,-4.2066 9.9987,-3.5199 0.5921,0.1216 1.1755,0.2823 1.7463,0.4812 M 16.9,47.61 c 1.8163,-0.5665 3.3895,-1.7271 4.4667,-3.2954 m 3.0795,3.9176 c -1.5527,1.977 -3.6759,3.4286 -6.0816,4.1578 M 35.8519,22.774 c -0.6778,0.3552 -1.2848,0.8315 -1.7912,1.4052 -2.06,2.32 -3.1641,6.6137 -4.2316,10.7662 -0.687,2.9894 -1.6034,5.9214 -2.7411,8.77 m 18.9162,-17.231 c -0.594,-0.6732 -1.2436,-1.2951 -1.942,-1.8592 -0.3733,-0.3007 -0.7513,-0.5765 -1.1339,-0.8276 m -11.9278,23.24 c 2.4556,-1.803 5.0368,-3.4283 7.7239,-4.8637 2.8451,-1.4566 5.5233,-3.2184 7.9874,-5.2542 0.9749,-0.8864 1.6465,-2.0567 1.92,-3.3456 m -25.29,25.3051 c 0.5187,-3.0505 1.8528,-5.9039 3.861,-8.258 m 4.2586,2.0785 c -1.6646,2.0244 -2.7662,4.4517 -3.1937,7.0375 m 23.8477,-33.314 c 0.0617,0.1044 0.1224,0.2093 0.1821,0.3147 2.6072,4.5699 1.6879,10.3378 -2.2108,13.8707 -2.5466,2.3289 -6.4051,3.6411 -9.5366,5.41 -1.0044,0.5089 -1.963,1.03 -2.87,1.5721 m 9.5408,-26.85 v 0 c 0.6513,0.5257 1.2697,1.0909 1.8517,1.6924"
       id="path34" />
  </g>
</svg>
