<?xml version="1.0" encoding="UTF-8" standalone="no"?>
<svg
   id="emoji"
   viewBox="0 0 46.335537 53.204514"
   version="1.1"
   sodipodi:docname="lab.svg"
   width="46.335537"
   height="53.204514"
   inkscape:version="1.3.2 (091e20ef0f, 2023-11-25)"
   xmlns:inkscape="http://www.inkscape.org/namespaces/inkscape"
   xmlns:sodipodi="http://sodipodi.sourceforge.net/DTD/sodipodi-0.dtd"
   xmlns="http://www.w3.org/2000/svg"
   xmlns:svg="http://www.w3.org/2000/svg">
  <defs
     id="defs18" />
  <sodipodi:namedview
     id="namedview18"
     pagecolor="#ffffff"
     bordercolor="#999999"
     borderopacity="1"
     inkscape:showpageshadow="0"
     inkscape:pageopacity="0"
     inkscape:pagecheckerboard="0"
     inkscape:deskcolor="#d1d1d1"
     inkscape:zoom="12.097222"
     inkscape:cx="20.293915"
     inkscape:cy="28.394948"
     inkscape:window-width="1920"
     inkscape:window-height="1163"
     inkscape:window-x="0"
     inkscape:window-y="960"
     inkscape:window-maximized="1"
     inkscape:current-layer="emoji" />
  <g
     id="color"
     transform="translate(-15.703501,-7.5751849)">
    <path
       fill="#ffffff"
       d="m 16.4082,58.7958 c 0,0 -2,-13.5 10,-13.5 3.1919,2.1279 5.9264,3.5984 9,3.5921 h -0.125 c 3.0736,0.0063 5.5081,-2.1642 8.7,-4.2921 15.5705,-10e-5 10.7,14.2 10.7,14.2"
       id="path1" />
    <path
       fill="#d0cfce"
       d="m 45.2932,44.1229 c -3.17,2.1133 -3.075,3.7 -7.1375,4.2886 13.0625,0.4114 13.0625,5.4114 13.8246,9.4114 4.2379,0 5.1129,0 5.1129,0 0,0 0.2,-13.7 -11.8,-13.7 z"
       id="path2" />
    <path
       fill="#ffffff"
       d="m 58.4274,43.1684 h -1.1793 v 6.4783 l 3.8661,8.8386 c 0,0 0.3081,1.3804 -0.7928,1.3804 -0.5364,0 -9.8482,0.0117 -10.3846,0.0117 -1.1009,0 -0.7928,-1.3804 -0.7928,-1.3804 l 3.8661,-8.8286 v -6.5 h -1.0854"
       id="path3" />
    <line
       x1="53.010101"
       x2="57.2481"
       y1="43.1684"
       y2="43.1684"
       fill="none"
       id="line3" />
    <path
       fill="#b1cc33"
       d="m 57.0481,49.6467 3.8661,8.8386 c 0,0 0.3081,1.3804 -0.7928,1.3804 -0.5364,0 -9.8482,0.0117 -10.3846,0.0117 -1.1009,0 -0.7928,-1.3804 -0.7928,-1.3804 l 3.8661,-8.8286"
       id="path4" />
    <path
       fill="#92d3f5"
       d="m 22.8026,25.1725 c 0,0 12.7029,-7.0231 26.2497,0.8022 l -3.8831,6.0255 c 0,0 -6.7095,0.9322 -9.2418,-1.6 -2.5912,2.5912 -8.4903,1.6 -8.4903,1.6 z"
       id="path5" />
  </g>
  <g
     id="hair"
     transform="translate(-15.703501,-7.5751849)">
    <path
       fill="#e27022"
       d="m 52.1519,25.2249 c -0.7507,-5.994 -2.7826,-10.6506 -5.1433,-12.7278 -2.9246,-2.5738 -6.459,-0.514 -6.459,-0.514 0,0 -5.3405,-6.4837 -12.9044,-1.6624 -7.5638,4.8214 -8.3703,14.9042 -8.3703,14.9042 0,0 -0.7261,8.073 0.3152,16.5172 0.2071,1.6792 0.6382,3.3293 1.3223,4.8728 1.3883,-0.8123 3.1788,-1.3191 5.4958,-1.3191 3.1658,2.1105 5.8825,3.5701 8.9255,3.5878 3.0493,-0.0179 5.4755,-2.1718 8.6495,-4.2878 2.7432,0 4.8411,0.447 6.4537,1.1732 0.6005,-1.0406 1.0916,-2.1504 1.4464,-3.3234 0.3227,-1.0668 0.4429,-2.1835 0.4549,-3.298 0.0347,-3.2445 0.1754,-11.0359 -0.1863,-13.9227 z m -6.9827,6.7753 c 0,0 -6.7095,0.9322 -9.2418,-1.6 -2.5912,2.5912 -8.4904,1.6 -8.4904,1.6 l -4.6345,-6.8277 c 0,0 12.7029,-7.0231 26.2497,0.8022 z"
       id="path6" />
  </g>
  <g
     id="skin"
     transform="translate(-15.703501,-7.5751849)">
    <path
       fill="#fcea2b"
       d="m 47.4246,25.1099 -8.4968,-6.6935 c -2.4692,1.8462 -4.9036,3.1522 -7.0764,4.0812 4.339,-0.5405 9.8359,-0.2295 15.5732,2.6123 z"
       id="path7" />
    <path
       fill="#fcea2b"
       d="m 45.1692,32.0002 c 0,0 -6.7095,0.9322 -9.2418,-1.6 -2.5912,2.5912 -8.4904,1.6 -8.4904,1.6 l -2.4694,-3.638 c 0.1837,7.6266 5.1753,13.7426 11.3212,13.7426 6.1889,0 11.2108,-6.2008 11.3276,-13.902 z"
       id="path8" />
  </g>
  <g
     id="skin-shadow"
     transform="translate(-15.703501,-7.5751849)" />
  <g
     id="line"
     transform="translate(-15.703501,-7.5751849)">
    <line
       x1="33.026001"
       x2="33.026001"
       y1="54.891701"
       y2="56.660999"
       fill="none"
       stroke="#000000"
       stroke-linecap="round"
       stroke-linejoin="round"
       stroke-miterlimit="10"
       stroke-width="2"
       id="line8" />
    <path
       d="m 41.8917,27.0725 c 0,1.1045 -0.8965,2 -2,2 -1.1035,0 -2,-0.8955 -2,-2 0,-1.1035 0.8965,-2 2,-2 1.1035,0 2,0.8965 2,2"
       id="path9" />
    <path
       d="m 33.8917,27.0725 c 0,1.1045 -0.8965,2 -2,2 -1.1035,0 -2,-0.8955 -2,-2 0,-1.1035 0.8965,-2 2,-2 1.1035,0 2,0.8965 2,2"
       id="path10" />
    <path
       d="m 35.8915,37.0749 c -1.1518,0 -2.3037,-0.2861 -3.4472,-0.8579 -0.4942,-0.2471 -0.6944,-0.8477 -0.4473,-1.3418 0.2466,-0.4937 0.8462,-0.6944 1.3418,-0.4473 1.7178,0.8594 3.3877,0.8594 5.1055,0 0.4946,-0.2471 1.0947,-0.0464 1.3418,0.4473 0.247,0.4941 0.0468,1.0947 -0.4473,1.3418 -1.1436,0.5718 -2.2954,0.8579 -3.4473,0.8579 z"
       id="path11" />
    <path
       fill="none"
       stroke="#000000"
       stroke-linecap="round"
       stroke-linejoin="round"
       stroke-miterlimit="10"
       stroke-width="2"
       d="m 47.1732,29.8627 c -0.5734,7.1564 -5.4055,12.7438 -11.2817,12.7438 -6.2621,0 -11.3386,-6.3456 -11.3386,-14.1732 v -1.2531"
       id="path12" />
    <path
       fill="none"
       stroke="#000000"
       stroke-linecap="round"
       stroke-linejoin="round"
       stroke-miterlimit="10"
       stroke-width="2"
       d="m 16.8316,57.9252 c 0,0 -2,-13 10,-13 3.1919,2.128 5.9264,3.5985 9,3.5922 h -0.125 c 3.0736,0.0063 5.8081,-1.4642 9,-3.5922 1.8775,0 3.4123,0.3183 4.6656,0.8551"
       id="path13" />
    <path
       fill="none"
       stroke="#000000"
       stroke-linecap="round"
       stroke-linejoin="round"
       stroke-miterlimit="10"
       stroke-width="2"
       d="m 58.3099,43.0707 h -1.1793 v 6.4784 l 3.8661,8.8385 c 0,0 0.3081,1.3805 -0.7928,1.3805 -0.5364,0 -9.8482,0.0116 -10.3846,0.0116 -1.1009,0 -0.7928,-1.3804 -0.7928,-1.3804 l 3.8661,-8.8286 v -6.5 h -1.0854"
       id="path14" />
    <line
       x1="52.892601"
       x2="57.1306"
       y1="43.070702"
       y2="43.070702"
       fill="none"
       stroke="#000000"
       stroke-linecap="round"
       stroke-linejoin="round"
       stroke-miterlimit="10"
       stroke-width="2"
       id="line14" />
    <path
       fill="none"
       stroke="#000000"
       stroke-linecap="round"
       stroke-linejoin="round"
       stroke-miterlimit="10"
       stroke-width="2"
       d="m 32.2796,22.3852 c 4.2811,-1.6427 6.6482,-3.9688 6.6482,-3.9688 0,0 3.8316,3.9334 7.8297,6.0854"
       id="path15" />
    <path
       fill="none"
       stroke="#000000"
       stroke-linecap="round"
       stroke-linejoin="round"
       stroke-miterlimit="10"
       stroke-width="2"
       d="M 20.7138,42.7252 C 19.3296,33.863 20.3183,24.6743 20.3183,24.6743 c 0,0 0.7556,-9.7405 7.8405,-14.3982 7.0849,-4.6577 12.0875,1.6059 12.0875,1.6059 0,0 3.3103,-1.9898 6.05,0.4966 2.2111,2.0066 4.1143,6.5052 4.8177,12.2957 0.4325,3.5614 0.5575,9.7039 0.2505,14.8494"
       id="path16" />
    <path
       fill="none"
       stroke="#000000"
       stroke-linecap="round"
       stroke-linejoin="round"
       stroke-miterlimit="10"
       stroke-width="2"
       d="m 26.3376,44.9252 c 0,0 4.831,7.1009 11.0601,7.7101 v 5.2899"
       id="path17" />
    <line
       x1="33.026001"
       x2="33.026001"
       y1="56.134201"
       y2="57.903599"
       fill="none"
       stroke="#000000"
       stroke-linecap="round"
       stroke-linejoin="round"
       stroke-miterlimit="10"
       stroke-width="2"
       id="line17" />
    <path
       fill="none"
       stroke="#000000"
       stroke-linecap="round"
       stroke-linejoin="round"
       stroke-miterlimit="10"
       stroke-width="2"
       d="m 23.1223,25.0725 c 0,0 12.7029,-7.0231 26.2497,0.8022 l -3.8831,6.0255 c 0,0 -6.7095,0.9322 -9.2418,-1.6 -2.5912,2.5912 -8.4903,1.6 -8.4903,1.6 z"
       id="path18" />
  </g>
</svg>
