<?xml version="1.0" encoding="UTF-8" standalone="no"?>
<svg
   data-name="Layer 1"
   viewBox="0 0 94 68.25"
   x="0px"
   y="0px"
   version="1.1"
   id="svg2"
   sodipodi:docname="noun-image-6445152.svg"
   width="94"
   height="68.25"
   xmlns:inkscape="http://www.inkscape.org/namespaces/inkscape"
   xmlns:sodipodi="http://sodipodi.sourceforge.net/DTD/sodipodi-0.dtd"
   xmlns="http://www.w3.org/2000/svg"
   xmlns:svg="http://www.w3.org/2000/svg">
  <defs
     id="defs2" />
  <sodipodi:namedview
     id="namedview2"
     pagecolor="#ffffff"
     bordercolor="#999999"
     borderopacity="1"
     inkscape:showpageshadow="0"
     inkscape:pageopacity="0"
     inkscape:pagecheckerboard="0"
     inkscape:deskcolor="#d1d1d1" />
  <path
     d="M 87.621,0 H 6.379 A 6.387,6.387 0 0 0 0,6.379 V 61.871 A 6.387,6.387 0 0 0 6.379,68.25 H 87.621 A 6.387,6.387 0 0 0 94,61.871 V 6.379 A 6.387,6.387 0 0 0 87.621,0 Z M 6.379,3.4 H 87.621 A 2.984,2.984 0 0 1 90.6,6.379 V 50.797 L 77.655,37.85 a 12.756,12.756 0 0 0 -17.993,0 L 51.971,45.541 38.95,32.525 a 12.757,12.757 0 0 0 -17.994,0 L 3.4,50.079 V 6.379 A 2.984,2.984 0 0 1 6.379,3.398 Z M 3.4,61.871 V 54.884 L 23.359,34.925 a 9.358,9.358 0 0 1 13.188,0 l 29.93,29.929 H 6.379 A 2.984,2.984 0 0 1 3.4,61.871 Z m 84.223,2.981 H 71.282 L 54.373,47.944 62.065,40.252 a 9.358,9.358 0 0 1 13.188,0 L 90.6,55.602 v 6.269 a 2.984,2.984 0 0 1 -2.979,2.981 z m -19.8,-41.066 a 9.1,9.1 0 1 0 -9.1,-9.1 9.106,9.106 0 0 0 9.1,9.1 z m 0,-14.8 a 5.7,5.7 0 1 1 -5.7,5.7 5.705,5.705 0 0 1 5.7,-5.695 z"
     id="path1"
     style="fill:#cccccc" />
</svg>
