<svg width="127.93mm" height="95.302mm" version="1.1" viewBox="0 0 127.93 95.302" xml:space="preserve" xmlns="http://www.w3.org/2000/svg"><g transform="translate(-27.922 -99.95)"><g transform="matrix(-1 0 0 1 184.78 36.495)"><path transform="translate(-82.513 -370.55)" d="m134.88 487.93c1.5156 6.3098-0.45151 6.9634 0.69185 10.239 0.7542 2.1606 2.511 4.3685 8.0619 6.9731 2.8131 1.32 5.3386 2.8374 7.5752 4.2334 3.5916 2.1644 6.2816 3.8079 10.727 6.0368 4.4004 2.2061 9.0523 4.2508 16.308 7.5029h1e-5c3.8005 1.6648 8.1378 3.7026 13.203 6.3957-4.257-4.1955-8.1456-7.7038-12.723-11.805-4.1227-3.7616-8.5771-7.9197-11.699-11.698-3.2121-3.8875-5.5844-7.9961-5.5093-12.413 0.0824-4.8406 0.14596-11.759 5.258-12.603 0 0-3.1308 0.14874-7.4163 0.69834-4.5836 0.58781-9.4014 1.5049-14.285 2.8755-5.552 1.552-9.8922 3.3887-10.193 3.5649zm-2.4799-6.6938c-3.0146-5.7545-5.4084-4.6886-6.9359-7.8069-0.84252-1.7198-1.4882-5.3026 3.6223-11.332 2.7089-3.1958 5.4337-6.2008 8.3467-8.8729 4.1025-3.7499 9.2103-7.5077 16.556-10.812 7.1676-3.224 17.876-6.6062 32.103-7.8217 0 1e-5 1e-5 0 1e-5 0 7.5774-0.6468 16.452-0.83294 26.491-0.15702-9.148 1.0534-18.408 2.794-26.972 5.5665-17.648 5.68-28.697 15.243-26.698 23.985 1.113 4.8683 2.4287 11.33 7.6985 11.822 0 0-3.2639-0.0263-7.7851 0.29246-4.8475 0.34175-9.9614 1.0072-15.258 2.1338-6.0121 1.2855-10.805 2.9307-11.169 3.0014z" fill="#006d99"/><path transform="translate(-83.154 -370.7)" d="m181.42 472.28c0.62078 2e-3 1.2831 0.01 1.9828 0.0258 9.9756 0.22953 22.015 1.785 35.213 5.2002 11.98 3.1 21.437 6.8597 21.395 7.075-0.0556 0.28064-8.9914-2.57-19.23-4.7475-10.986-2.3363-20.986-3.3889-26.13-3.1869-2.5396 0.0997-5.2641 1.4887-5.4622 2.9714-0.19483 1.458 2.0222 3.5447 4.2308 4.4245 3.9068 1.5563 14.223 4.9398 23.179 8.8904 8.9678 3.9558 16.625 8.1533 16.47 8.3907-0.11947 0.18348-8.6794-3.8363-19.379-7.646-12.125-4.3173-22.137-6.6586-31.459-8.1695-0.62724-0.10198-1.2203-0.19525-1.7777-0.28164-10.526-1.6314-22.72-0.84729-34.029 2.1554-7.9092 2.0819-13.808 4.8075-17.177 6.041-1.9159 0.70138-3.5469 1.1437-4.9692 1.4061-4.4616 0.80424-6.6978-0.26149-6.6978-0.26149-0.51512 0.10345-1.0315 0.20528-1.5487 0.30438-0.7657 0.14707-1.5766 0.29731-2.3854 0.37723-0.48458 0.0479-1.5638 0.31027-1.5638 0.31027s0.81432-0.87365 1.2202-1.1696c0.56714-0.48292 1.0658-1.0288 1.603-1.5901 0.35563-0.37546 0.70882-0.75315 1.062-1.1328 0 0 8e-3 -2.5633 3.5171-5.9056 1.1313-1.0831 2.6457-2.2491 4.6354-3.3631 3.426-1.9182 10.448-4.8166 19.396-6.8724 13.491-3.0713 25.68-3.2801 37.905-3.2458z" fill="#003a4d" opacity=".99"/><path transform="translate(-83.344 -370.42)" d="m135.15 484.2c-0.70855-1.9551-0.88261-1.0989-2.3979-3.9818-0.55564-1.057-1.0399-3.3972-2.6137-4.2654-3.6898-2.0357-4.108-4.9057-3.1329-7.7808 0.98536-2.9053 3.2226-5.3569 4.2435-6.6162 2.2787-2.8108 4.7227-5.3423 7.2377-7.5965v-1e-5c9.4668-8.4538 18.849-12.399 21.306-12.591 1.613-0.1262 0.23158 3.3394-1.3228 7.2067-1.5834 3.9394-3.2518 8.1272-3.0704 9.6677 0.1715 1.4558 1.4826 5.1482 2.9594 8.4105 1.4851 3.2806 3.133 6.1921 4.4058 6.1023 5.6002-0.39518 11.215-0.40023 16.79-0.061 1.4306 0.22799 2.7348 0.61212 3.8825 1.09 3.717 1.5501 5.7227 4.0265 5.4616 5.4778-1.9581-0.25515-3.9219-0.47129-5.8909-0.64624-12.652-1.1242-25.511-0.47956-37.847 2.5469-3.389 0.83145-6.7306 1.8488-10.011 3.0375 0.70856 1.9551 0.0142 1.4142 0.78582 4.5739 0.29505 1.2084 1.3886 3.2104 0.9681 4.8859-0.94725 3.7744 0.87675 6.2454 2.8957 7.8716 1.9598 1.5786 4.5806 2.6882 5.4863 3.1691 2.4255 1.2877 4.5827 2.503 6.5488 3.6652 7.4714 4.2642 12.223 7.2127 13.522 7.1233 0.81592-0.0562-0.18568-3.3473-1.6093-6.9677-1.3752-3.4972-3.3253-7.6465-3.484-8.9937-0.17611-1.4949-0.0295-5.2833 0.54569-8.7952 0.57155-3.4898 1.5893-6.6353 2.7435-6.7153 5.0787-0.35185 10.204-0.35201 15.322-0.0464 1.328-0.0615 2.572-0.24871 3.7039-0.52376 3.6425-0.88436 6.1996-2.7024 6.3202-4.1853-1.9581-0.25515-3.9219-0.47129-5.8909-0.64624-12.652-1.1242-25.511-0.47956-37.847 2.5469-3.389 0.83145-6.7306 1.8488-10.011 3.0375z" fill="#59befe"/></g></g></svg>
