<?xml version="1.0" encoding="UTF-8" standalone="no"?>
<svg
   id="emoji"
   viewBox="0 0 55.291554 55.291554"
   version="1.1"
   sodipodi:docname="help.svg"
   width="55.291553"
   height="55.291553"
   inkscape:version="1.2.2 (b0a8486541, 2022-12-01)"
   xml:space="preserve"
   xmlns:inkscape="http://www.inkscape.org/namespaces/inkscape"
   xmlns:sodipodi="http://sodipodi.sourceforge.net/DTD/sodipodi-0.dtd"
   xmlns="http://www.w3.org/2000/svg"
   xmlns:svg="http://www.w3.org/2000/svg"><defs
     id="defs5277"><style
       id="style635">.cls-1{fill:#262f63;}</style></defs><sodipodi:namedview
     id="namedview5275"
     pagecolor="#ffffff"
     bordercolor="#000000"
     borderopacity="0.25"
     inkscape:showpageshadow="2"
     inkscape:pageopacity="0.0"
     inkscape:pagecheckerboard="0"
     inkscape:deskcolor="#d1d1d1"
     showgrid="false"
     inkscape:zoom="4.6390637"
     inkscape:cx="-20.047149"
     inkscape:cy="18.322663"
     inkscape:window-width="1920"
     inkscape:window-height="1131"
     inkscape:window-x="0"
     inkscape:window-y="32"
     inkscape:window-maximized="1"
     inkscape:current-layer="g8721" /><g
     id="color"
     transform="rotate(-30,20.314652,44.249501)" /><g
     id="hair"
     transform="rotate(-30,20.314652,44.249501)" /><rect
     style="fill:#bcd35f;fill-opacity:1;stroke:#447821;stroke-width:1.93414;stroke-linecap:round;stroke-linejoin:round;stroke-dasharray:none;stroke-opacity:1;paint-order:stroke fill markers"
     id="rect574"
     width="53.357414"
     height="53.357414"
     x="0.96706998"
     y="0.96706998"
     ry="8.7629442"
     rx="8.7960815" /><g
     id="g8721"
     transform="matrix(0.64789237,0,0,0.74351468,3.6527083,0.62034918)"
     style="fill:#dbe3de"><g
       aria-label="¿?"
       transform="scale(1.0712562,0.93348352)"
       id="text314"
       style="font-weight:bold;font-size:76.8427px;font-family:Cantarell;-inkscape-font-specification:'Cantarell Bold';stroke:#ffffff;stroke-width:22.7751;stroke-linecap:round;stroke-linejoin:round;paint-order:markers fill stroke"><path
         d="m 31.154824,66.441028 q -1.275709,1.088105 -2.776543,2.063647 -1.463313,0.975542 -3.226793,1.688438 -1.725959,0.750417 -3.752085,1.163146 -1.988605,0.412729 -4.314897,0.412729 -3.226793,0 -5.853253,-0.825458 Q 8.6047938,70.118071 6.7287514,68.542196 4.852709,66.96632 3.8021252,64.677548 2.7890623,62.426297 2.7890623,59.574713 q 0,-2.739022 0.7879378,-4.652585 0.7879379,-1.913564 1.988605,-3.264314 1.2006671,-1.350751 2.6264594,-2.251251 1.4257922,-0.938021 2.6639805,-1.76348 1.275709,-0.825459 2.176209,-1.650917 0.938021,-0.825459 1.163146,-1.988605 l 0.900501,-5.252919 h 6.491106 l 0.675376,5.890773 q 0.225125,1.876043 -0.487771,3.151751 -0.712897,1.238188 -1.913564,2.17621 -1.163146,0.9005 -2.588938,1.688438 -1.425792,0.750417 -2.701501,1.725959 -1.238188,0.938021 -2.101168,2.21373 -0.825458,1.238188 -0.825458,3.151751 0,1.238188 0.45025,2.21373 0.45025,1.013063 1.275709,1.725959 0.825458,0.712896 1.988604,1.088105 1.163147,0.375208 2.551418,0.375208 2.026126,0 3.414397,-0.45025 1.388272,-0.45025 2.363814,-1.013063 1.013063,-0.525292 1.688438,-0.975542 0.675375,-0.45025 1.275709,-0.45025 1.35075,0 1.988605,1.200667 z M 13.107296,26.969096 q 0,-1.163147 0.412729,-2.21373 0.45025,-1.050584 1.200667,-1.801001 0.787938,-0.750417 1.838522,-1.200667 1.050583,-0.45025 2.251251,-0.45025 1.200667,0 2.25125,0.45025 1.050584,0.45025 1.801001,1.200667 0.787938,0.750417 1.238188,1.801001 0.45025,1.050583 0.45025,2.21373 0,1.200667 -0.45025,2.251251 -0.45025,1.050583 -1.238188,1.801 -0.750417,0.750417 -1.801001,1.200667 -1.050583,0.41273 -2.25125,0.41273 -1.200668,0 -2.251251,-0.41273 -1.050584,-0.45025 -1.838522,-1.200667 -0.750417,-0.750417 -1.200667,-1.801 -0.412729,-1.050584 -0.412729,-2.251251 z"
         style="font-family:Carlito;-inkscape-font-specification:'Carlito Bold';stroke:none"
         id="path396" /><path
         d="m 37.983618,11.435465 q 1.275708,-1.088105 2.739021,-2.0636471 1.500834,-0.975542 3.226793,-1.6884382 1.76348,-0.7504169 3.752085,-1.1631463 2.026126,-0.4127293 4.352419,-0.4127293 3.226793,0 5.853252,0.9005004 2.626459,0.8629795 4.502502,2.5138968 1.876042,1.6133967 2.889105,3.9396887 1.050584,2.288772 1.050584,5.140357 0,2.776542 -0.787938,4.765147 -0.787938,1.988605 -1.988605,3.489439 -1.200667,1.463313 -2.626459,2.588939 -1.425793,1.088104 -2.701501,2.026126 -1.238188,0.938021 -2.17621,1.876042 -0.938021,0.9005 -1.125625,2.063647 l -0.9005,5.215397 h -6.491107 l -0.712896,-5.890773 q -0.225125,-1.725959 0.487771,-3.001668 0.712896,-1.275708 1.876042,-2.326292 1.200667,-1.088105 2.62646,-2.063647 1.463313,-1.013063 2.701501,-2.138688 1.275708,-1.163146 2.101167,-2.62646 0.86298,-1.463313 0.86298,-3.451918 0,-2.476376 -1.725959,-3.902168 -1.725959,-1.463313 -4.540023,-1.463313 -2.026126,0 -3.414397,0.45025 -1.388272,0.450251 -2.401335,0.975542 -0.975542,0.525292 -1.650917,0.975542 -0.675375,0.450251 -1.275709,0.450251 -1.275709,0 -1.988605,-1.163147 z m 6.64119,42.586162 q 0,-1.163146 0.412729,-2.21373 0.45025,-1.050584 1.200667,-1.801 0.787938,-0.750417 1.838522,-1.200668 1.050583,-0.45025 2.251251,-0.45025 1.200667,0 2.251251,0.45025 1.050583,0.450251 1.801,1.200668 0.787938,0.750416 1.238188,1.801 0.45025,1.050584 0.45025,2.21373 0,1.200667 -0.45025,2.251251 -0.45025,1.050584 -1.238188,1.801001 -0.750417,0.750417 -1.801,1.163146 -1.050584,0.45025 -2.251251,0.45025 -1.200668,0 -2.251251,-0.45025 -1.050584,-0.412729 -1.838522,-1.163146 -0.750417,-0.750417 -1.200667,-1.801001 -0.412729,-1.050584 -0.412729,-2.251251 z"
         style="font-family:Carlito;-inkscape-font-specification:'Carlito Bold';stroke:none"
         id="path398" /></g></g><g
     id="skin-shadow"
     transform="rotate(-30,20.314652,44.249501)" /></svg>
