<?xml version="1.0" encoding="UTF-8" standalone="no"?>
<!-- Created with Inkscape (http://www.inkscape.org/) -->

<svg
   width="33.411072mm"
   height="29.703007mm"
   viewBox="0 0 33.411071 29.703007"
   version="1.1"
   id="svg20731"
   xml:space="preserve"
   inkscape:version="1.2.2 (b0a8486541, 2022-12-01)"
   sodipodi:docname="path2.svg"
   xmlns:inkscape="http://www.inkscape.org/namespaces/inkscape"
   xmlns:sodipodi="http://sodipodi.sourceforge.net/DTD/sodipodi-0.dtd"
   xmlns="http://www.w3.org/2000/svg"
   xmlns:svg="http://www.w3.org/2000/svg"><sodipodi:namedview
     id="namedview20733"
     pagecolor="#ffffff"
     bordercolor="#000000"
     borderopacity="0.25"
     inkscape:showpageshadow="2"
     inkscape:pageopacity="0.0"
     inkscape:pagecheckerboard="0"
     inkscape:deskcolor="#d1d1d1"
     inkscape:document-units="mm"
     showgrid="false"
     inkscape:zoom="2.8578563"
     inkscape:cx="63.684098"
     inkscape:cy="94.826321"
     inkscape:window-width="1920"
     inkscape:window-height="1131"
     inkscape:window-x="0"
     inkscape:window-y="32"
     inkscape:window-maximized="1"
     inkscape:current-layer="layer1" /><defs
     id="defs20728"><inkscape:path-effect
       effect="perspective-envelope"
       up_left_point="25.197919,15.464361"
       up_right_point="41.261685,15.465363"
       down_left_point="22.153205,31.180095"
       down_right_point="49.61974,31.180095"
       id="path-effect2094"
       is_visible="true"
       lpeversion="1"
       deform_type="perspective"
       horizontal_mirror="false"
       vertical_mirror="false"
       overflow_perspective="false" /><inkscape:path-effect
       effect="perspective-envelope"
       up_left_point="14.733902,19.74099"
       up_right_point="38.342786,20.406393"
       down_left_point="11.28173,31.180095"
       down_right_point="43.220172,30.930096"
       id="path-effect1375"
       is_visible="true"
       lpeversion="1"
       deform_type="perspective"
       horizontal_mirror="false"
       vertical_mirror="false"
       overflow_perspective="false" /><inkscape:path-effect
       effect="perspective-envelope"
       up_left_point="10.530139,19.676942"
       up_right_point="19.469396,21.759171"
       down_left_point="10.842678,30.151266"
       down_right_point="19.932024,31.572355"
       id="path-effect1361"
       is_visible="true"
       lpeversion="1"
       deform_type="perspective"
       horizontal_mirror="false"
       vertical_mirror="false"
       overflow_perspective="false" /><inkscape:path-effect
       effect="perspective-envelope"
       up_left_point="14.106132,12.941021"
       up_right_point="21.254012,12.941021"
       down_left_point="14.106132,31.060008"
       down_right_point="21.254012,31.060008"
       id="path-effect1355"
       is_visible="true"
       lpeversion="1"
       deform_type="perspective"
       horizontal_mirror="false"
       vertical_mirror="false"
       overflow_perspective="false" /><inkscape:path-effect
       effect="perspective-envelope"
       up_left_point="24.303153,35.332381"
       up_right_point="52.951108,41.046102"
       down_left_point="24.303153,51.965026"
       down_right_point="67.136339,52.235208"
       id="path-effect1169"
       is_visible="true"
       lpeversion="1"
       deform_type="perspective"
       horizontal_mirror="false"
       vertical_mirror="false"
       overflow_perspective="false" /></defs><g
     inkscape:label="Layer 1"
     inkscape:groupmode="layer"
     id="layer1"
     transform="translate(-13.699194,-1.4770883)"><g
       id="g1180"
       transform="translate(-25.37639)"><path
         style="fill:#ffcc00;fill-opacity:1;stroke:none;stroke-width:0.499999;stroke-linecap:round;stroke-linejoin:round;stroke-dasharray:none;paint-order:normal"
         d="m 46.383715,1.7550994 -1.576043,-4e-7 v 29.174997 h 1.576043 z"
         id="path22996-1"
         inkscape:export-filename="stop.svg"
         inkscape:export-xdpi="96"
         inkscape:export-ydpi="96" /><path
         style="fill:none;stroke:#1a1a1a;stroke-width:0.5;stroke-linecap:round;stroke-linejoin:round;stroke-dasharray:none;paint-order:normal"
         d="m 44.807672,1.755099 1.576043,4e-7 V 22.436257 m 0,2.39558 v 6.098258 H 44.807672 V 6.7561455"
         id="path20826-2"
         sodipodi:nodetypes="ccccccc" /><path
         style="fill:#ffcc00;fill-opacity:1;stroke:#1a1a1a;stroke-width:0.476775;stroke-linecap:round;stroke-linejoin:round;stroke-dasharray:none;paint-order:normal"
         d="m 48.459378,11.936018 h -5.727369 v 10.561408 h 5.727369 z"
         id="path21266-7"
         sodipodi:nodetypes="ccccc" /><path
         style="fill:#000000;fill-opacity:1;stroke:#1a1a1a;stroke-width:0.5;stroke-linecap:round;stroke-linejoin:round;stroke-dasharray:none;paint-order:normal"
         d="m 44.807675,5.3743173 h -3.955772 c -2.037992,0 -2.037992,-3.647229 0.01746,-3.647229 l 3.938311,0.028011 z"
         id="path21994-0"
         sodipodi:nodetypes="ccccc" /><rect
         style="fill:#800000;fill-opacity:1;stroke:none;stroke-width:0.356053;stroke-linecap:round;stroke-linejoin:round;stroke-dasharray:none;paint-order:normal"
         id="rect22882-9"
         width="1.9504328"
         height="0.82337338"
         x="39.930286"
         y="2.0632818"
         ry="0.41168669" /><rect
         style="fill:#800000;fill-opacity:1;stroke:none;stroke-width:0.356053;stroke-linecap:round;stroke-linejoin:round;stroke-dasharray:none;paint-order:normal"
         id="rect22936-3"
         width="1.9504328"
         height="0.82337338"
         x="42.077019"
         y="2.0632818"
         ry="0.41168669" /><rect
         style="fill:#800000;fill-opacity:1;stroke:none;stroke-width:0.356053;stroke-linecap:round;stroke-linejoin:round;stroke-dasharray:none;paint-order:normal"
         id="rect22938-6"
         width="1.9504328"
         height="0.82337338"
         x="39.930286"
         y="3.0640488"
         ry="0.41168669" /><rect
         style="fill:#0044aa;fill-opacity:1;stroke:none;stroke-width:0.356053;stroke-linecap:round;stroke-linejoin:round;stroke-dasharray:none;paint-order:normal"
         id="rect22940-0"
         width="1.9504328"
         height="0.82337338"
         x="42.077019"
         y="3.0640488"
         ry="0.41168669" /><rect
         style="fill:#ffffff;fill-opacity:1;stroke:none;stroke-width:0.499999;stroke-linecap:round;stroke-linejoin:round;stroke-dasharray:none;paint-order:normal"
         id="rect35046-6"
         width="4.4203029"
         height="6.7967844"
         x="43.385532"
         y="12.944205"
         ry="0.63916832" /></g><g
       id="g2026"
       transform="matrix(0.33042836,0,0,0.33042836,25.632424,-3.6602797)"><g
         id="color"><rect
           x="37.075298"
           y="36.0532"
           width="26.8836"
           height="18.113899"
           fill="#ffffff"
           id="rect1969" /><polygon
           fill="#ea5a47"
           stroke="#ea5a47"
           stroke-linecap="round"
           stroke-linejoin="round"
           stroke-miterlimit="10"
           stroke-width="2"
           points="63.5,36 50.2353,23.2 38.1,36 "
           id="polygon1971" /><path
           fill="#ea5a47"
           d="m 47.3,26 -6.4,6.0595 v -8.5733 c 0,-0.9313 0.7549,-1.4162 1.6862,-1.4162 h 3.0276 c 0.9313,0 1.6862,0.4849 1.6862,1.4162 0,0 0,2.5138 0,2.5138 z"
           id="path1973" /><rect
           x="43"
           y="42"
           width="6"
           height="12"
           fill="#a57939"
           id="rect1975" /><rect
           x="54"
           y="42"
           width="6"
           height="5"
           fill="#92d3f5"
           id="rect1977" /><path
           fill="#b1cc33"
           d="m 41.0059,28.3393 c 0,-3.3123 -3.4447,-6.0025 -7.6937,-6.0025 -0.3549,0.0029 -0.7095,0.025 -1.0622,0.0662 -1.7995,-3.4553 -5.7065,-5.8554 -10.2499,-5.8554 -6.2478,0 -11.3122,4.5286 -11.3122,10.1144 0.0012,0.3692 0.0247,0.738 0.0704,1.1043 C 7.9656,28.6665 6,30.8102 6,33.3136 c 0,3.3123 3.4446,6.0025 7.6936,6.0025 1.6151,0.0139 3.2056,-0.4022 4.6137,-1.207 1.8177,1.4766 4.7264,2.4385 8.0154,2.4385 5.5105,0 9.9776,-2.6875 9.9776,-6.0025 -9e-4,-0.2191 -0.0214,-0.4377 -0.0612,-0.6531 2.7966,-0.9016 4.7668,-3.0467 4.7668,-5.5527 z"
           id="path1979" /></g><g
         id="hair" /><g
         id="skin" /><g
         id="skin-shadow" /><g
         id="line"><polyline
           fill="none"
           stroke="#000000"
           stroke-linecap="round"
           stroke-linejoin="round"
           stroke-miterlimit="10"
           stroke-width="2"
           points="46,27 50.2353,23 64,35.0976 64,54 38,54 38,41.5482"
           id="polyline1985" /><rect
           x="43"
           y="42"
           width="6"
           height="12"
           fill="none"
           stroke="#000000"
           stroke-linecap="round"
           stroke-linejoin="round"
           stroke-miterlimit="10"
           stroke-width="2"
           id="rect1987" /><rect
           x="54"
           y="42"
           width="6"
           height="5"
           fill="none"
           stroke="#000000"
           stroke-linecap="round"
           stroke-linejoin="round"
           stroke-miterlimit="10"
           stroke-width="2"
           id="rect1989" /><polyline
           fill="none"
           stroke="#000000"
           stroke-linecap="round"
           stroke-linejoin="round"
           stroke-miterlimit="10"
           stroke-width="2"
           points="43.5,23 46.5,23 46.5,26"
           id="polyline1991" /><polyline
           fill="none"
           stroke="#000000"
           stroke-linecap="round"
           stroke-linejoin="round"
           stroke-width="2"
           points="22.5,54 22.5,46.8269 17.5,42"
           id="polyline1993" /><line
           x1="23.0408"
           x2="25.885"
           y1="46.726501"
           y2="43.765701"
           fill="none"
           stroke="#000000"
           stroke-linecap="round"
           stroke-linejoin="round"
           stroke-width="2"
           id="line1995" /><path
           fill="none"
           stroke="#000000"
           stroke-linecap="round"
           stroke-miterlimit="10"
           stroke-width="2"
           d="m 41.0059,28.3393 c 0,-3.3123 -3.4447,-6.0025 -7.6937,-6.0025 -0.3549,0.0029 -0.7095,0.025 -1.0622,0.0662 -1.7995,-3.4553 -5.7065,-5.8554 -10.2499,-5.8554 -6.2478,0 -11.3122,4.5286 -11.3122,10.1144 0.0012,0.3692 0.0247,0.738 0.0704,1.1043 C 7.9656,28.6665 6,30.8102 6,33.3136 c 0,3.3123 3.4446,6.0025 7.6936,6.0025 1.6151,0.0139 3.2056,-0.4022 4.6137,-1.207 1.8177,1.4766 4.7264,2.4385 8.0154,2.4385 5.5105,0 9.9776,-2.6875 9.9776,-6.0025 -9e-4,-0.2191 -0.0214,-0.4377 -0.0612,-0.6531 2.7966,-0.9016 4.7668,-3.0467 4.7668,-5.5527 z"
           id="path1997" /><line
           x1="63.5"
           x2="42.5"
           y1="36"
           y2="36"
           fill="none"
           stroke="#000000"
           stroke-linecap="round"
           stroke-linejoin="round"
           stroke-miterlimit="10"
           stroke-width="2"
           id="line1999" /></g></g><path
       style="color:#000000;fill:#677821;stroke-linecap:round;stroke-dasharray:2, 6;-inkscape-stroke:none"
       d="m 40.623148,15.467372 c -0.405452,-0.01985 -0.704077,0.10508 -0.666849,0.281385 l 0.0089,0.04052 0.0062,0.04703 0.0031,0.04659 -1.08e-4,0.04614 -0.0044,0.04633 -0.0062,0.04587 -0.01055,0.04606 -0.01379,0.04559 -0.01705,0.04512 -0.02148,0.0453 -0.02332,0.04482 -0.01746,0.02909 c -0.101172,0.170367 0.15216,0.377376 0.569927,0.460634 0.420422,0.08391 0.838723,0.009 0.930696,-0.165486 l 0.02044,-0.03797 0.02894,-0.06413 0.02403,-0.06445 0.01916,-0.06476 0.01544,-0.06572 0.01064,-0.06601 0.0059,-0.06628 0.0012,-0.06655 -0.0038,-0.06746 -0.0085,-0.0677 -0.01307,-0.06794 -0.01421,-0.051 c -0.04864,-0.177437 -0.417543,-0.335337 -0.823671,-0.355022 z m -2.565247,2.141391 c -0.212633,-0.01773 -0.417709,0.0046 -0.570869,0.06239 l -0.04418,0.0164 -0.229336,0.08307 -0.235817,0.08289 -0.242342,0.08269 -0.245987,0.08171 -0.184257,0.06068 c -0.349663,0.114297 -0.406129,0.361696 -0.119266,0.554301 0.291178,0.195059 0.819256,0.257022 1.173603,0.136838 l 0.19267,-0.06573 0.262332,-0.09033 0.256449,-0.09208 0.25403,-0.093 0.248408,-0.09389 0.05296,-0.02042 c 0.321836,-0.125826 0.318784,-0.371519 2.86e-4,-0.547335 -0.151277,-0.08357 -0.355667,-0.14032 -0.568683,-0.158178 z m -5.786967,1.780894 -0.07811,0.02992 -0.222173,0.0893 -0.210409,0.08905 -0.0049,0.0017 c -0.168951,0.07371 -0.338674,0.153507 -0.503642,0.239901 -0.09246,0.04844 -0.183331,0.09868 -0.273017,0.15285 l -0.005,0.0027 -0.08212,0.05105 -0.01804,0.01257 c -0.299499,0.196654 -0.236329,0.494147 0.149417,0.663767 0.390634,0.171711 0.953955,0.143535 1.249784,-0.06208 l 0.0032,-0.0028 0.05692,-0.03751 0.0064,-0.0047 c 0.05827,-0.03693 0.121537,-0.07281 0.187366,-0.109077 0.119512,-0.06582 0.248248,-0.129899 0.385178,-0.192691 l 0.005,-0.0018 c 0.0018,-8.43e-4 0.0029,-0.0019 0.0048,-0.0028 l 0.181383,-0.08029 0.193824,-0.08072 0.06457,-0.02529 c 0.368952,-0.147234 0.41407,-0.42956 0.108684,-0.629313 -0.300382,-0.19701 -0.83393,-0.242887 -1.199176,-0.103788 z m 0.117373,3.188455 c -0.247282,0.02188 -0.465033,0.100337 -0.606111,0.218877 -0.297406,0.25081 -0.179812,0.611153 0.272386,0.803008 l 0.02196,0.0092 0.105862,0.04272 0.0079,0.0023 c 0.269372,0.104001 0.547863,0.188972 0.828335,0.258891 l 0.01003,0.0023 0.234268,0.0542 0.248454,0.05203 0.250263,0.04508 0.25243,0.04164 0.254148,0.03578 0.06795,0.0084 c 0.554684,0.07017 1.048178,-0.140604 1.098834,-0.464678 0.04979,-0.317278 -0.345634,-0.622552 -0.880037,-0.68746 l -0.04038,-0.0044 -0.191114,-0.02654 -0.18153,-0.0276 -0.172284,-0.03084 -0.16661,-0.03297 -0.157161,-0.03509 c -0.174205,-0.0417 -0.334936,-0.08935 -0.479626,-0.142788 l -0.05686,-0.02168 c -0.214719,-0.08676 -0.473682,-0.122742 -0.721113,-0.100399 z m 8.245662,1.067139 c -0.549194,-0.119241 -1.070628,0.02982 -1.170244,0.337611 -0.101795,0.314068 0.271661,0.676733 0.840149,0.805029 0.118611,0.02683 0.241294,0.05797 0.371279,0.0936 0.184247,0.05065 0.365526,0.106401 0.541434,0.16736 0.107646,0.0373 0.212541,0.07675 0.316987,0.118083 l 0.105136,0.04211 0.106399,0.04479 0.105155,0.0462 0.101896,0.04762 c 0.529722,0.243317 1.182876,0.216982 1.446915,-0.05786 0.259426,-0.26947 0.04021,-0.672138 -0.479097,-0.901057 l -0.126605,-0.05569 -0.148906,-0.06272 -0.151727,-0.06126 -0.143255,-0.05625 -0.0069,-0.0024 c -0.148668,-0.05639 -0.297683,-0.109049 -0.448575,-0.159218 -0.246574,-0.08199 -0.495274,-0.155053 -0.74358,-0.220633 l -4.57e-4,-0.0012 c -0.16456,-0.04333 -0.337229,-0.08526 -0.515988,-0.124129 z m 3.363617,3.961105 c -0.307163,-0.05081 -0.59949,-0.02272 -0.814457,0.07845 l -0.112149,0.0535 -0.115856,0.05068 -0.124976,0.05083 -0.12974,0.05098 -0.1395,0.04962 -0.152,0.05279 c -0.150819,0.04948 -0.30706,0.09477 -0.468096,0.139532 -0.137088,0.03763 -0.267171,0.07234 -0.391798,0.102324 -0.552895,0.133544 -0.738209,0.584107 -0.403046,1.015156 0.343359,0.442134 1.096508,0.69017 1.670319,0.545098 0.1722,-0.04367 0.332112,-0.08962 0.482702,-0.13325 l 0.0024,0 0.0024,0 c 0.199798,-0.05862 0.397521,-0.122146 0.592039,-0.18985 l 0.0039,-0.0017 0.182616,-0.06557 0.17833,-0.06859 0.174693,-0.06995 0.168089,-0.07291 0.161479,-0.07584 0.137007,-0.0675 c 0.454029,-0.227281 0.418221,-0.717808 -0.06522,-1.090182 -0.2286,-0.176187 -0.530095,-0.302992 -0.839006,-0.353692 z m -8.764327,1.496812 -0.344199,0.02576 -0.54822,0.03709 -0.547464,0.03394 -0.548675,0.03238 -0.28172,0.01459 c -0.642274,0.03288 -1.101365,0.436208 -1.022015,0.911371 0.08176,0.487094 0.695202,0.861492 1.367221,0.824665 l 0.304757,-0.01604 0.591546,-0.03558 0.594701,-0.03907 0.592909,-0.04252 0.369591,-0.03006 c 0.660455,-0.05188 1.05954,-0.48993 0.897232,-0.967459 -0.158788,-0.465315 -0.794564,-0.795859 -1.425663,-0.749058 z m -11.533225,0.300074 c -0.646892,-0.01097 -1.256605,0.358895 -1.364416,0.837052 -0.110927,0.490198 0.345219,0.907204 1.022434,0.919963 l 0.309552,0.0054 0.867312,0.0108 0.618217,0.0036 0.695719,0 c 0.68064,9.96e-4 1.259456,-0.406685 1.291997,-0.898594 0.03174,-0.479805 -0.470683,-0.8602 -1.120669,-0.860204 l -0.656506,-5e-6 -0.571151,-0.0033 -0.806446,-0.0098 z"
       id="path2088"
       inkscape:path-effect="#path-effect2094"
       inkscape:original-d="m 41.40625,2.8203125 a 1,1 0 0 0 -1.107422,0.8808594 l -0.01367,0.125 -0.02148,0.1445312 -0.02539,0.1425781 -0.0293,0.140625 -0.03516,0.140625 -0.03711,0.1386719 -0.04297,0.1386719 -0.04687,0.1367187 -0.05078,0.1347657 -0.05664,0.1347656 -0.05859,0.1328125 -0.04102,0.085937 A 1,1 0 0 0 40.314453,6.6289062 1,1 0 0 0 41.646484,6.15625 l 0.05273,-0.109375 0.08203,-0.1855469 0.07617,-0.1875 0.07031,-0.1894531 0.06641,-0.1933594 0.06055,-0.1953125 0.05469,-0.1972656 0.04883,-0.1992188 0.04297,-0.203125 0.03711,-0.2050781 0.03125,-0.2070312 0.01758,-0.15625 A 1,1 0 0 0 41.40625,2.8203125 Z m -4.607422,6.1894531 a 1,1 0 0 0 -0.748047,0.1640625 l -0.0625,0.042969 -0.322265,0.2167969 -0.328125,0.2148437 -0.333985,0.2128906 -0.335937,0.2089847 -0.25,0.154296 a 1,1 0 0 0 -0.330078,1.375 1,1 0 0 0 1.373046,0.330079 l 0.257813,-0.158204 0.353516,-0.21875 0.349609,-0.224609 0.349609,-0.228516 0.345703,-0.232421 0.07422,-0.05078 A 1,1 0 0 0 37.443359,9.4238281 1,1 0 0 0 36.798828,9.0097656 Z m -7.560547,4.3730474 -0.0957,0.06836 -0.271484,0.203125 -0.25586,0.201172 -0.0059,0.0039 c -0.20437,0.165468 -0.409013,0.343555 -0.607422,0.535156 -0.110645,0.106886 -0.219167,0.217318 -0.326172,0.335938 l -0.0059,0.0059 -0.09766,0.111328 -0.02148,0.02734 a 1,1 0 0 0 0.128906,1.408203 1,1 0 0 0 1.408204,-0.128906 l 0.0039,-0.0059 0.06836,-0.07813 0.0078,-0.0098 c 0.07002,-0.07717 0.145743,-0.152329 0.224609,-0.228516 0.143717,-0.138785 0.298367,-0.274542 0.462891,-0.408203 l 0.0059,-0.0039 c 0.0022,-0.0018 0.0036,-0.0041 0.0059,-0.0059 l 0.21875,-0.171875 0.234375,-0.173829 0.07813,-0.05469 a 1,1 0 0 0 0.234375,-1.394531 1,1 0 0 0 -1.394531,-0.236328 z m -0.234375,6.498046 a 1,1 0 0 0 -0.654297,0.394532 1,1 0 0 0 0.212891,1.398437 l 0.02148,0.01563 0.103516,0.07227 0.0078,0.0039 c 0.262508,0.175071 0.534439,0.31722 0.808594,0.433594 l 0.0098,0.0039 0.228515,0.08984 0.242188,0.08594 0.244141,0.07422 0.246093,0.06836 0.248047,0.05859 0.06641,0.01367 a 1,1 0 0 0 1.185547,-0.771484 1,1 0 0 0 -0.771484,-1.185547 l -0.04102,-0.0078 -0.193359,-0.04687 -0.183594,-0.04883 -0.173828,-0.05469 -0.167969,-0.05859 -0.158203,-0.0625 c -0.175405,-0.07446 -0.33644,-0.159804 -0.480469,-0.25586 L 29.748047,20.0625 A 1,1 0 0 0 29.003906,19.880859 Z M 37.25,21.75 a 1,1 0 0 0 -1.296875,0.564453 1,1 0 0 0 0.564453,1.296875 c 0.106704,0.04207 0.215719,0.09082 0.330078,0.146484 0.161607,0.0789 0.31801,0.165466 0.466797,0.259766 0.09077,0.05752 0.177889,0.118213 0.263672,0.181641 l 0.08594,0.06445 0.08594,0.06836 0.08398,0.07031 0.08008,0.07227 a 1,1 0 0 0 1.41211,-0.08789 1,1 0 0 0 -0.08594,-1.410157 l -0.101562,-0.08984 -0.121094,-0.101563 -0.125,-0.09961 -0.119141,-0.0918 -0.0059,-0.0039 c -0.124942,-0.09238 -0.252213,-0.17896 -0.382812,-0.261719 -0.21433,-0.135841 -0.435466,-0.257494 -0.660157,-0.367188 v -0.002 C 37.575069,21.886198 37.41641,21.815604 37.25,21.75 Z m 1.708984,5.921875 a 1,1 0 0 0 -0.757812,0.103516 l -0.119141,0.07031 -0.121094,0.06641 -0.128906,0.06641 -0.132812,0.06641 -0.140625,0.06445 -0.152344,0.06836 c -0.149757,0.06388 -0.302538,0.122201 -0.458984,0.179688 -0.132717,0.04822 -0.258077,0.09259 -0.376954,0.130859 a 1,1 0 0 0 -0.644531,1.257813 1,1 0 0 0 1.257813,0.646484 c 0.158669,-0.05108 0.308066,-0.104957 0.449218,-0.15625 h 0.002 0.002 c 0.188044,-0.0691 0.376571,-0.144239 0.564453,-0.224609 l 0.0039,-0.002 0.177734,-0.07813 0.175782,-0.08203 0.173828,-0.08398 0.169922,-0.08789 0.166015,-0.0918 0.142578,-0.08203 a 1,1 0 0 0 0.359375,-1.36914 1,1 0 0 0 -0.611328,-0.462891 z m -8.068359,1.896484 -0.298828,0.03125 -0.47461,0.04492 -0.472656,0.04102 -0.472656,0.03906 -0.242188,0.01758 a 1,1 0 0 0 -0.925781,1.070313 1,1 0 0 0 1.070313,0.923828 l 0.25,-0.01758 0.486328,-0.03906 0.490234,-0.04297 0.490235,-0.04687 0.30664,-0.0332 a 1,1 0 0 0 0.890625,-1.097657 1,1 0 0 0 -1.097656,-0.890625 z m -9.859375,0.361328 a 1,1 0 0 0 -1.023438,0.976563 1,1 0 0 0 0.97461,1.023437 l 0.251953,0.0059 0.705078,0.01172 0.501953,0.0039 h 0.564453 a 1,1 0 0 0 1.001953,-0.998047 1,1 0 0 0 -1,-1.001953 h -0.558593 l -0.486328,-0.0039 -0.6875,-0.01172 z" /></g><style
     type="text/css"
     id="style3760">
	.st0{fill-rule:evenodd;clip-rule:evenodd;fill:#388344;}
	.st1{fill-rule:evenodd;clip-rule:evenodd;fill:#1F1D21;}
</style></svg>
