<?xml version="1.0" encoding="UTF-8" standalone="no"?>
<!-- Created with Inkscape (http://www.inkscape.org/) -->

<svg
   width="22.257547mm"
   height="29.703009mm"
   viewBox="0 0 22.257547 29.703009"
   version="1.1"
   id="svg20731"
   xml:space="preserve"
   inkscape:version="1.2.2 (b0a8486541, 2022-12-01)"
   sodipodi:docname="stop-info.svg"
   xmlns:inkscape="http://www.inkscape.org/namespaces/inkscape"
   xmlns:sodipodi="http://sodipodi.sourceforge.net/DTD/sodipodi-0.dtd"
   xmlns="http://www.w3.org/2000/svg"
   xmlns:svg="http://www.w3.org/2000/svg"><sodipodi:namedview
     id="namedview20733"
     pagecolor="#ffffff"
     bordercolor="#000000"
     borderopacity="0.25"
     inkscape:showpageshadow="2"
     inkscape:pageopacity="0.0"
     inkscape:pagecheckerboard="0"
     inkscape:deskcolor="#d1d1d1"
     inkscape:document-units="mm"
     showgrid="false"
     inkscape:zoom="2.0208096"
     inkscape:cx="-22.020878"
     inkscape:cy="101.44449"
     inkscape:window-width="1920"
     inkscape:window-height="1131"
     inkscape:window-x="0"
     inkscape:window-y="32"
     inkscape:window-maximized="1"
     inkscape:current-layer="layer1" /><defs
     id="defs20728" /><g
     inkscape:label="Layer 1"
     inkscape:groupmode="layer"
     id="layer1"
     transform="translate(-9.0968884,-1.4770883)"><g
       id="g1739"><path
         style="fill:#ffcc00;fill-opacity:1;stroke:none;stroke-width:0.499999;stroke-linecap:round;stroke-linejoin:round;stroke-dasharray:none;paint-order:normal"
         d="m 18.337866,1.7550994 -1.576043,-4e-7 v 29.174997 h 1.576043 z"
         id="path22996"
         inkscape:export-filename="stop.svg"
         inkscape:export-xdpi="96"
         inkscape:export-ydpi="96" /><path
         style="fill:none;stroke:#1a1a1a;stroke-width:0.5;stroke-linecap:round;stroke-linejoin:round;stroke-dasharray:none;paint-order:normal"
         d="m 16.761823,1.755099 1.576043,4e-7 V 22.436257 m 0,2.39558 v 6.098258 H 16.761823 V 6.7561455"
         id="path20826"
         sodipodi:nodetypes="ccccccc" /><path
         style="fill:#ffcc00;fill-opacity:1;stroke:#1a1a1a;stroke-width:0.476775;stroke-linecap:round;stroke-linejoin:round;stroke-dasharray:none;paint-order:normal"
         d="M 20.413529,11.936018 H 14.68616 v 10.561408 h 5.727369 z"
         id="path21266"
         sodipodi:nodetypes="ccccc" /><path
         style="fill:#000000;fill-opacity:1;stroke:#1a1a1a;stroke-width:0.5;stroke-linecap:round;stroke-linejoin:round;stroke-dasharray:none;paint-order:normal"
         d="m 16.761826,5.3743173 h -3.955772 c -2.037992,0 -2.037992,-3.647229 0.01746,-3.647229 l 3.938311,0.028011 z"
         id="path21994"
         sodipodi:nodetypes="ccccc" /><rect
         style="fill:#800000;fill-opacity:1;stroke:none;stroke-width:0.356053;stroke-linecap:round;stroke-linejoin:round;stroke-dasharray:none;paint-order:normal"
         id="rect22882"
         width="1.9504328"
         height="0.82337338"
         x="11.884446"
         y="2.0632818"
         ry="0.41168669" /><rect
         style="fill:#800000;fill-opacity:1;stroke:none;stroke-width:0.356053;stroke-linecap:round;stroke-linejoin:round;stroke-dasharray:none;paint-order:normal"
         id="rect22936"
         width="1.9504328"
         height="0.82337338"
         x="14.03118"
         y="2.0632818"
         ry="0.41168669" /><rect
         style="fill:#800000;fill-opacity:1;stroke:none;stroke-width:0.356053;stroke-linecap:round;stroke-linejoin:round;stroke-dasharray:none;paint-order:normal"
         id="rect22938"
         width="1.9504328"
         height="0.82337338"
         x="11.884446"
         y="3.0640488"
         ry="0.41168669" /><rect
         style="fill:#0044aa;fill-opacity:1;stroke:none;stroke-width:0.356053;stroke-linecap:round;stroke-linejoin:round;stroke-dasharray:none;paint-order:normal"
         id="rect22940"
         width="1.9504328"
         height="0.82337338"
         x="14.03118"
         y="3.0640488"
         ry="0.41168669" /><rect
         style="opacity:1;fill:#ffffff;fill-opacity:1;stroke:none;stroke-width:0.499999;stroke-linecap:round;stroke-linejoin:round;stroke-dasharray:none;paint-order:normal"
         id="rect35046"
         width="4.4203029"
         height="6.7967844"
         x="15.339693"
         y="12.944205"
         ry="0.63916832" /></g><g
       id="g1759"
       transform="matrix(1.4017482,0,0,1.4017482,-6.8931894,-6.6349767)"><path
         id="path1741"
         style="fill:#ffcc00;fill-opacity:1;stroke:none;stroke-width:0.499999;stroke-linecap:round;stroke-linejoin:round;stroke-dasharray:none;paint-order:normal"
         d="m 16.76172,8.6534342 v 9.8711408 h 1.576009 V 8.6534342 Z"
         sodipodi:nodetypes="ccccc" /><path
         style="fill:none;stroke:#1a1a1a;stroke-width:0.5;stroke-linecap:round;stroke-linejoin:round;stroke-dasharray:none;paint-order:normal"
         d="m 18.337866,8.598197 v 10.190698 m -1.576043,-0.26432 V 8.4654023"
         id="path1743"
         sodipodi:nodetypes="cccc" /><path
         style="fill:#ffcc00;fill-opacity:1;stroke:#1a1a1a;stroke-width:0.476775;stroke-linecap:round;stroke-linejoin:round;stroke-dasharray:none;paint-order:normal"
         d="M 20.413529,11.936018 H 14.68616 v 6.355454 h 5.727369 z"
         id="path1745"
         sodipodi:nodetypes="ccccc" /><rect
         style="opacity:1;fill:#ffffff;fill-opacity:1;stroke:none;stroke-width:0.499999;stroke-linecap:round;stroke-linejoin:round;stroke-dasharray:none;paint-order:normal"
         id="rect1757"
         width="4.4203033"
         height="5.3472667"
         x="15.339693"
         y="12.944205"
         ry="0.63916832" /></g><g
       id="g1728"
       transform="matrix(0.52882752,0,0,0.52882752,1.7180438,-0.22927931)"><g
         id="color"><ellipse
           cx="29.5854"
           cy="24.8305"
           rx="11.1656"
           ry="11.1657"
           transform="rotate(-36.812602,29.583841,24.829803)"
           fill="#ffffff"
           stroke="none"
           id="ellipse1692"
           style="opacity:0.3" /><path
           fill="#92d3f5"
           stroke="none"
           d="m 39,19 c -1.6269,-2.1743 -5.3114,-4.6131 -8,-5 -1.841,-0.2648 -5,0 -5.3126,1.4508 2.432,0.2232 6.261,1.3933 9.4483,6.0391 2.7047,3.9427 2.9098,7.2606 2.5092,9.5215 C 40,31 41.7867,22.7243 39,19 Z"
           id="path1694"
           style="opacity:0.3" /><path
           fill="#d0cfce"
           stroke="none"
           d="m 20.717,13.2532 c -3.1395,2.3517 -5.1766,5.7832 -5.7372,9.6663 -0.5584,3.883 0.4286,7.7514 2.7785,10.8927 4.8528,6.4827 14.0758,7.8101 20.5595,2.9577 6.4832,-4.8514 7.8112,-14.073 2.9587,-20.5591 -2.3504,-3.1402 -5.7839,-5.1778 -9.6668,-5.7362 -3.883,-0.5585 -7.751,0.4276 -10.8927,2.7786 z m 17.4763,5.1351 c 2.2813,3.0482 2.696,6.924 1.4434,10.248 -0.6965,1.8514 -1.9113,3.5306 -3.6095,4.8016 -4.7463,3.5525 -11.498,2.58 -15.0496,-2.166 -1.7206,-2.2992 -2.4437,-5.1309 -2.0341,-7.9731 0.41,-2.8429 1.8999,-5.3554 4.2002,-7.0765 2.2984,-1.721 5.1298,-2.4433 7.9731,-2.0341 2.8424,0.4087 5.3551,1.9007 7.0765,4.2001 z"
           id="path1696" /><path
           fill="#3f3f3f"
           stroke="none"
           d="m 39,42 10,14 c 0,0 3,4 5,2 2,-2 0,-5 0,-5 L 43,39 Z"
           id="path1698" /></g><g
         id="hair" /><g
         id="skin" /><g
         id="skin-shadow" /><g
         id="line"><circle
           cx="29.5854"
           cy="24.8305"
           transform="rotate(-36.812602,29.583991,24.829853)"
           fill="none"
           stroke="#000000"
           stroke-linecap="round"
           stroke-linejoin="round"
           stroke-miterlimit="10"
           stroke-width="2"
           id="ellipse1704"
           r="14.6372" /><ellipse
           cx="29.5854"
           cy="24.8305"
           rx="11.1656"
           ry="11.1657"
           transform="rotate(-36.812602,29.583841,24.829803)"
           fill="none"
           stroke="#000000"
           stroke-linecap="round"
           stroke-linejoin="round"
           stroke-miterlimit="10"
           stroke-width="2"
           id="ellipse1706" /><path
           fill="none"
           stroke="#000000"
           stroke-linecap="round"
           stroke-linejoin="round"
           stroke-miterlimit="10"
           stroke-width="2"
           d="m 38.6805,41.7876 4.1839,-3.1316 11.6927,15.622 c 0.8354,1.1162 0.5758,2.7219 -0.5795,3.5867 v 0 c -1.1554,0.8647 -2.7691,0.661 -3.6045,-0.4551 z"
           id="path1708" /></g></g></g><style
     type="text/css"
     id="style3760">
	.st0{fill-rule:evenodd;clip-rule:evenodd;fill:#388344;}
	.st1{fill-rule:evenodd;clip-rule:evenodd;fill:#1F1D21;}
</style></svg>
