<?xml version="1.0" encoding="UTF-8" standalone="no"?>
<svg
   id="emoji"
   viewBox="0 0 55.930542 55.174351"
   version="1.1"
   sodipodi:docname="region-select.svg"
   width="55.930542"
   height="55.174351"
   inkscape:version="1.2.1 (9c6d41e410, 2022-07-14)"
   xmlns:inkscape="http://www.inkscape.org/namespaces/inkscape"
   xmlns:sodipodi="http://sodipodi.sourceforge.net/DTD/sodipodi-0.dtd"
   xmlns="http://www.w3.org/2000/svg"
   xmlns:svg="http://www.w3.org/2000/svg">
  <defs
     id="defs5277" />
  <sodipodi:namedview
     id="namedview5275"
     pagecolor="#ffffff"
     bordercolor="#000000"
     borderopacity="0.25"
     inkscape:showpageshadow="2"
     inkscape:pageopacity="0.0"
     inkscape:pagecheckerboard="0"
     inkscape:deskcolor="#d1d1d1"
     showgrid="false"
     inkscape:zoom="4.2524616"
     inkscape:cx="66.784847"
     inkscape:cy="35.273687"
     inkscape:window-width="1920"
     inkscape:window-height="1011"
     inkscape:window-x="1920"
     inkscape:window-y="32"
     inkscape:window-maximized="1"
     inkscape:current-layer="emoji" />
  <g
     id="color"
     transform="rotate(-30,20.226391,43.704069)" />
  <g
     id="hair"
     transform="rotate(-30,20.226391,43.704069)" />
  <path
     style="fill:#bcd35f;stroke:#447821;stroke-width:1;stroke-linecap:round;stroke-linejoin:round;stroke-dasharray:none"
     d="m 1.2352659,0.5 0.9087969,7.626365 -1.64406731,3.49015 2.87959321,7.184813 1.580288,10.153759 -1.456537,8.434724 4.113557,15.473773 10.1590023,-1.90255 7.543154,2.419707 L 45.94211,36.366282 34.852749,10.636729 27.70098,0.5 Z"
     id="path5861"
     sodipodi:nodetypes="ccccccccccccc" />
  <g
     id="g5805"
     transform="rotate(-30,21.381777,43.394485)">
    <circle
       style="fill:none;stroke:#0066ff;stroke-width:1.88976;stroke-linecap:round;stroke-linejoin:round"
       id="path4397"
       cx="30.9524"
       cy="11.340873"
       r="5.0851893" />
    <circle
       style="fill:none;stroke:#2a7fff;stroke-width:1;stroke-linecap:round;stroke-linejoin:round;stroke-dasharray:none"
       id="circle5438"
       cx="30.9524"
       cy="10.971846"
       r="8" />
  </g>
  <g
     id="skin"
     style="fill:#ffffff"
     transform="rotate(-30,20.226391,43.704069)">
    <path
       fill="#FCEA2B"
       d="m 55.36,33.7297 c -0.571007,-2.687217 -4.469532,-3.534103 -6.092712,-1.308386 -0.652495,1.161473 -0.888397,2.04211 -1.311507,0.133955 C 46.657833,30.196294 42.813064,30.4476 41.80875,32.9323 41.312961,34.915038 41.025973,30.685168 39.409219,30.809019 37.350894,29.740544 34.401904,31.402509 34.54,33.7798 34.329662,33.044884 34.51025,31.960073 34.45,31.090823 34.43669,24.89078 34.476637,18.689173 34.43,12.49011 34.309646,9.6453214 30.382077,8.2424514 28.47625,10.35261 c -1.569769,1.600234 -0.868298,3.956891 -1.02625,5.960171 -0.0014,6.877484 0.002,13.769692 0,20.637019 0.127601,-0.870518 -0.06584,-1.635351 -0.716096,-2.249811 -0.522633,-0.560698 -0.959197,-1.597112 -1.536101,-1.856917 -1.575504,0.612359 -3.223218,-2.224566 -5.211963,-2.087889 -3.001098,-1.164477 -3.656081,2.628537 -2.20947,4.488158 1.248786,2.572763 2.956366,4.885016 4.66363,7.166659 0.382369,5.651769 0.800254,11.795314 4.343037,16.481883 2.930332,3.757522 7.971826,4.092504 12.236963,5.208117 6.718048,0.602016 12.760113,-4.549396 14.907519,-10.65233 1.023358,-2.318389 1.121446,-5.242584 1.47643,-7.48767 0.177825,-0.919116 0.02507,-2.168811 0.07605,-3.214773 -0.01896,-2.859008 0.0386,-5.720549 -0.03,-8.577915 z m -13.86,0.38 c -0.155997,0.01321 0.20017,-0.558813 0,0 z"
       id="path5243"
       style="fill:#ffffff"
       sodipodi:nodetypes="ccccccccccccccccccscccccsccccccccscssccccccccccccccsccccc" />
  </g>
  <g
     id="skin-shadow"
     transform="rotate(-30,20.226391,43.704069)" />
  <g
     id="line"
     transform="rotate(-30,20.226391,43.704069)">
    <path
       fill="none"
       stroke="#000000"
       stroke-linecap="round"
       stroke-linejoin="round"
       stroke-miterlimit="10"
       stroke-width="2"
       d="m 55.4792,47.6473 c 0,9.0883 -7.3675,16.4558 -16.4558,16.4558 -9.0883,0 -16.4558,-7.3675 -16.4558,-16.4558"
       id="path5247" />
    <line
       x1="55.479198"
       x2="55.479198"
       y1="46.7738"
       y2="34.7738"
       fill="none"
       stroke="#000000"
       stroke-linecap="round"
       stroke-linejoin="round"
       stroke-miterlimit="10"
       stroke-width="2"
       id="line5249" />
    <path
       fill="none"
       stroke="#000000"
       stroke-linecap="round"
       stroke-linejoin="round"
       stroke-miterlimit="10"
       stroke-width="2"
       d="m 48.4869,34.4804 c 0.081,-1.9313 1.7123,-3.4313 3.6436,-3.3502 1.9313,0.081 3.4312,1.7123 3.3502,3.6436"
       id="path5251" />
    <path
       fill="none"
       stroke="#000000"
       stroke-linecap="round"
       stroke-linejoin="round"
       stroke-miterlimit="10"
       stroke-width="2"
       d="m 41.49,34.2475 c 0.081,-1.9313 1.7123,-3.4312 3.6436,-3.3502 1.9313,0.081 3.4313,1.7123 3.3502,3.6436"
       id="path5253" />
    <path
       fill="none"
       stroke="#000000"
       stroke-linecap="round"
       stroke-linejoin="round"
       stroke-miterlimit="10"
       stroke-width="2"
       d="m 41.494,34.1136 c 0.155,-1.9268 1.8426,-3.3631 3.7694,-3.2081 1.9268,0.155 3.3631,1.8426 3.2081,3.7694"
       id="path5255" />
    <path
       fill="none"
       stroke="#000000"
       stroke-linecap="round"
       stroke-linejoin="round"
       stroke-miterlimit="10"
       stroke-width="2"
       d="m 34.4524,33.7692 c 0.1237,-1.929 1.7878,-3.3925 3.7168,-3.2688 1.929,0.1237 3.3925,1.7878 3.2688,3.7168"
       id="path5257" />
    <path
       fill="none"
       stroke="#000000"
       stroke-linecap="round"
       stroke-linejoin="round"
       stroke-miterlimit="10"
       stroke-width="2"
       d="m 17.4986,35.9928 c -1.3429,-1.3904 -1.3044,-3.6061 0.086,-4.949 1.3904,-1.3429 3.6061,-1.3044 4.949,0.086"
       id="path5259" />
    <path
       fill="none"
       stroke="#000000"
       stroke-linecap="round"
       stroke-linejoin="round"
       stroke-miterlimit="10"
       stroke-width="2"
       d="m 27.4524,12.721846 c 0,-1.933 1.567,-3.4999999 3.5,-3.4999999 1.933,0 3.5,1.5669999 3.5,3.4999999"
       id="path5261"
       sodipodi:nodetypes="csc" />
    <path
       id="line5263"
       style="fill:none;stroke:#000000;stroke-width:2;stroke-linecap:round;stroke-linejoin:round;stroke-miterlimit:10"
       d="M 34.4524,33.732101 34.45,12.591015"
       sodipodi:nodetypes="cc" />
    <path
       id="line5265"
       style="fill:none;stroke:#000000;stroke-width:2;stroke-linecap:round;stroke-linejoin:round;stroke-miterlimit:10"
       d="M 27.4524,12.721846 V 39.1875"
       sodipodi:nodetypes="cc" />
    <line
       x1="24.4916"
       x2="22.5336"
       y1="33.343498"
       y2="31.129801"
       fill="none"
       stroke="#000000"
       stroke-linecap="round"
       stroke-linejoin="round"
       stroke-miterlimit="10"
       stroke-width="2"
       id="line5267" />
    <path
       fill="none"
       stroke="#000000"
       stroke-linecap="round"
       stroke-linejoin="round"
       stroke-miterlimit="10"
       stroke-width="2"
       d="m 19.2663,38.3125 c 1.9526,2.1439 3.3734,5.1677 3.3013,9.5218"
       id="path5269" />
    <line
       x1="17.4986"
       x2="19.32"
       y1="35.992802"
       y2="38.373001"
       fill="none"
       stroke="#000000"
       stroke-linecap="round"
       stroke-linejoin="round"
       stroke-miterlimit="10"
       stroke-width="2"
       id="line5271" />
  </g>
</svg>
