<?xml version="1.0" encoding="UTF-8" standalone="no"?>
<svg
   id="emoji"
   viewBox="0 0 54.924889 61.870243"
   version="1.1"
   sodipodi:docname="zoom.svg"
   width="54.924889"
   height="61.870243"
   inkscape:version="1.2.1 (9c6d41e410, 2022-07-14)"
   xmlns:inkscape="http://www.inkscape.org/namespaces/inkscape"
   xmlns:sodipodi="http://sodipodi.sourceforge.net/DTD/sodipodi-0.dtd"
   xmlns="http://www.w3.org/2000/svg"
   xmlns:svg="http://www.w3.org/2000/svg">
  <defs
     id="defs4217" />
  <sodipodi:namedview
     id="namedview4215"
     pagecolor="#ffffff"
     bordercolor="#000000"
     borderopacity="0.25"
     inkscape:showpageshadow="2"
     inkscape:pageopacity="0.0"
     inkscape:pagecheckerboard="0"
     inkscape:deskcolor="#d1d1d1"
     showgrid="false"
     inkscape:zoom="6.0138889"
     inkscape:cx="9.7274827"
     inkscape:cy="29.099307"
     inkscape:window-width="1920"
     inkscape:window-height="1011"
     inkscape:window-x="1920"
     inkscape:window-y="32"
     inkscape:window-maximized="1"
     inkscape:current-layer="emoji" />
  <circle
     style="fill:none;stroke:#0066ff;stroke-width:1.88976;stroke-linecap:round;stroke-linejoin:round"
     id="path4397"
     cx="12.372895"
     cy="28.315962"
     r="5.0851893" />
  <circle
     style="fill:none;stroke:#0066ff;stroke-width:1.88976;stroke-linecap:round;stroke-linejoin:round"
     id="circle4919"
     cx="10.718724"
     cy="39.254833"
     r="5.0851893" />
  <path
     style="fill:#ffffff;stroke:none;stroke-width:1.88976;stroke-linecap:round;stroke-linejoin:round"
     d="m 9.225587,39.254832 0.6993,-1.477469 4.421847,0.283919 5.726853,2.417181 7.603663,1.432959 2.983237,-6.591759 -7.2314,-6.4493 -10.192555,2.217964 -2.745745,-2.218064 1.8585,-3.39 12.5518,-3.583 7.998784,5.8734 -9.964984,-23.1780697 2.9662,-1.9243151 11.377622,16.4023648 -1.080636,-17.0388039 3.961714,-0.801382 4.26415,13.9942879 3.206693,-6.9644387 3.286366,0.686747 3.007891,29.7021097 -2.762917,7.393101 -6.733102,8.211045 -7.913921,3.780164 -9.403411,-1.892801 -5.753657,-5.026554 -10.446691,-8.328781 z"
     id="path5077" />
  <g
     id="line"
     transform="translate(-1.075113,-6.8231367)">
    <g
       id="Pinching_Hand-2">
      <path
         fill="none"
         stroke="#000000"
         stroke-linecap="round"
         stroke-linejoin="round"
         stroke-width="2"
         d="m 31.7356,42.1428 c -0.869,2.5155 -1.12,4.3475 -1.7985,5.5912 a 2.1933,2.1933 0 0 1 -2.582,1.0226 47.1968,47.1968 0 0 0 -6.2064,-1.455 2.15,2.15 0 0 1 -0.6908,-0.2417 C 16.3628,44.8164 11.9489,43.6516 11,44.6005 a 2.3467,2.3467 0 0 0 -0.7764,2.9644 c 0.7646,2.2938 7.2284,5.2139 8.5651,6.728 l 5.849,5.8491 c 0,0 6.9723,4.9163 10.7973,4.8952 C 47.4984,64.9708 54.9871,49.2418 55,45.4723 A 21.652,21.652 0 0 0 54.7207,42.1851 19.0358,19.0358 0 0 0 53.943,39.1788"
         id="path4196" />
      <path
         fill="none"
         stroke="#000000"
         stroke-linecap="round"
         stroke-linejoin="round"
         stroke-width="2"
         d="m 24.5042,35.6935 -8.5093,2.0318 a 3.4311,3.4311 0 0 1 -4.429,-2.0319 c -0.1935,-1.8834 0.4621,-2.4049 1.8585,-3.39 a 6.0112,6.0112 0 0 1 1.1023,-0.4777 l 9.6243,-3.05 a 3.6991,3.6991 0 0 1 1.8252,-0.0553"
         id="path4198" />
      <line
         x1="31.7356"
         x2="24.637699"
         y1="42.142799"
         y2="35.770901"
         fill="none"
         stroke="#000000"
         stroke-linecap="round"
         stroke-linejoin="round"
         stroke-width="2"
         id="line4200" />
      <path
         fill="none"
         stroke="#000000"
         stroke-linecap="round"
         stroke-linejoin="round"
         stroke-width="2"
         d="m 25.01,28.6125 a 4.3334,4.3334 0 0 1 2.349,0.6306 3.4038,3.4038 0 0 1 0.787,0.6513 l 8.3294,6.694"
         id="path4202" />
      <path
         fill="none"
         stroke="#000000"
         stroke-linecap="round"
         stroke-linejoin="round"
         stroke-width="2"
         d="M 32.4365,29.9218 25.01,15.2084 c -0.875,-2.0782 -1.511,-3.5464 0,-4.687 1.511,-1.15 2.9907,-0.3613 4.141,1.15 0.156,0.2047 8.5493,13.0158 11.0839,17.2661 v 0.01"
         id="path4204" />
      <path
         fill="none"
         stroke="#000000"
         stroke-linecap="round"
         stroke-linejoin="round"
         stroke-width="2"
         d="M 48.0929,31.395 C 46.7086,25.8774 42.0178,10.1967 41.93,9.9724 A 2.7784,2.7784 0 0 0 38.4958,7.9192 c -1.7839,0.6727 -2.02,2.6907 -1.7391,4.4594 l 0.9758,6.6879"
         id="path4206" />
      <path
         fill="none"
         stroke="#000000"
         stroke-linecap="round"
         stroke-linejoin="round"
         stroke-width="2"
         d="m 47.4,18.5064 c 0.1188,-1.9068 0.6442,-3.596 2.2763,-3.7827 a 2.4638,2.4638 0 0 1 2.5623,1.4977 5.272,5.272 0 0 1 0.5568,2.1762 c 0.2324,3.92 1.1653,20.2393 1.1653,20.2393 a 3.2433,3.2433 0 0 1 -0.0292,0.5362"
         id="path4208" />
      <line
         x1="39.675098"
         x2="43.165699"
         y1="28.0814"
         y2="33.5938"
         fill="none"
         stroke="#000000"
         stroke-linecap="round"
         stroke-linejoin="round"
         stroke-width="2"
         id="line4210" />
    </g>
  </g>
  <g
     id="g5067"
     transform="rotate(-75,40.150508,88.460493)">
    <path
       style="fill:#00ccff;stroke:#0066ff;stroke-width:1.88976;stroke-linecap:round;stroke-linejoin:round"
       d="M 98.281343,46.077969 H 113.49533"
       id="path5061"
       sodipodi:nodetypes="cc" />
    <path
       style="fill:#00ccff;stroke:#0066ff;stroke-width:1.88976;stroke-linecap:round;stroke-linejoin:round"
       d="m 113.49533,46.077969 -5.58837,-5.588365"
       id="path5063"
       sodipodi:nodetypes="cc" />
    <path
       style="fill:#00ccff;stroke:#0066ff;stroke-width:1.88976;stroke-linecap:round;stroke-linejoin:round"
       d="m 113.49533,46.077969 -5.58837,5.588365"
       id="path5065"
       sodipodi:nodetypes="cc" />
  </g>
  <g
     id="g5075"
     transform="rotate(105,53.499486,11.836241)">
    <path
       style="fill:#00ccff;stroke:#0066ff;stroke-width:1.88976;stroke-linecap:round;stroke-linejoin:round"
       d="M 98.281343,46.077969 H 113.49533"
       id="path5069"
       sodipodi:nodetypes="cc" />
    <path
       style="fill:#00ccff;stroke:#0066ff;stroke-width:1.88976;stroke-linecap:round;stroke-linejoin:round"
       d="m 113.49533,46.077969 -5.58837,-5.588365"
       id="path5071"
       sodipodi:nodetypes="cc" />
    <path
       style="fill:#00ccff;stroke:#0066ff;stroke-width:1.88976;stroke-linecap:round;stroke-linejoin:round"
       d="m 113.49533,46.077969 -5.58837,5.588365"
       id="path5073"
       sodipodi:nodetypes="cc" />
  </g>
</svg>
