<?xml version="1.0" encoding="UTF-8" standalone="no"?>
<!-- Created with Inkscape (http://www.inkscape.org/) -->

<svg
   width="37.431606mm"
   height="14.999937mm"
   viewBox="0 0 37.431606 14.999937"
   version="1.1"
   id="svg1"
   xmlns:inkscape="http://www.inkscape.org/namespaces/inkscape"
   xmlns:sodipodi="http://sodipodi.sourceforge.net/DTD/sodipodi-0.dtd"
   xmlns="http://www.w3.org/2000/svg"
   xmlns:svg="http://www.w3.org/2000/svg">
  <sodipodi:namedview
     id="namedview1"
     pagecolor="#ffffff"
     bordercolor="#000000"
     borderopacity="0.25"
     inkscape:showpageshadow="2"
     inkscape:pageopacity="0.0"
     inkscape:pagecheckerboard="0"
     inkscape:deskcolor="#d1d1d1"
     inkscape:document-units="mm"
     inkscape:zoom="15.077298"
     inkscape:cx="78.694474"
     inkscape:cy="517.40042"
     inkscape:window-width="2880"
     inkscape:window-height="1723"
     inkscape:window-x="0"
     inkscape:window-y="0"
     inkscape:window-maximized="1"
     inkscape:current-layer="layer1" />
  <defs
     id="defs1" />
  <g
     inkscape:label="Layer 1"
     inkscape:groupmode="layer"
     id="layer1"
     transform="translate(-110.95817,-34.252952)">
    <g
       id="g7"
       transform="matrix(0.26458333,0,0,0.26458333,110.9581,34.252776)"
       inkscape:export-filename="bar.svg"
       inkscape:export-xdpi="96"
       inkscape:export-ydpi="96">
      <path
         id="path1-60"
         d="m 139.23644,33.529871 c 0,3.604345 -2.1219,6.626606 -4.68049,6.626606 -1.39516,0 -2.32518,-1.482683 -2.32518,-3.690903 0,-1.337284 0.40751,-2.848415 1.16271,-4.12783 0.90133,-1.540551 2.15108,-2.440908 3.37166,-2.440908 1.59842,0 2.4713,1.278443 2.4713,3.633035 m 2.23764,0 c 0,-3.342237 -1.68571,-5.407246 -4.41839,-5.407246 -3.86548,0 -7.03387,3.837275 -7.03387,8.517768 0,3.196838 1.74455,5.294939 4.3897,5.294939 3.8363,0 7.06256,-3.841919 7.06256,-8.405461 z m -11.07441,-4.941628 c -0.52324,-0.320219 -0.90133,-0.407507 -1.51113,-0.407507 -1.48244,0 -2.73244,1.105569 -4.33086,3.866452 l 0.78438,-3.837032 -2.23764,0.378087 -2.06477,12.963386 h 2.18075 l 0.52324,-3.284369 c 0.1454,-0.987645 0.58135,-2.703015 0.87191,-3.487636 0.49382,-1.365732 1.24999,-2.557616 2.26706,-3.516814 0.63922,-0.639221 1.19213,-0.901329 1.80193,-0.901329 0.3494,0 0.55266,0.05787 0.84322,0.231715 z m -11.80093,-0.378087 -2.23861,0.378087 -2.06379,12.963386 h 2.18074 z m 1.16247,-5.318742 c 0,-0.959197 -0.43596,-1.715371 -0.9592,-1.715371 -0.72651,0 -1.3667,0.668642 -1.56997,1.627839 -0.0294,0.116952 -0.0294,0.232931 -0.0294,0.348667 0,0.959197 0.43693,1.71537 0.96017,1.71537 0.72651,0 1.36573,-0.668642 1.56997,-1.628082 0.0285,-0.116708 0.0285,-0.232687 0.0285,-0.348423 z m -9.79597,7.905779 c 0,0.115979 -0.0284,0.290798 -0.11574,0.523485 l -5.49356,3.458946 c 0.61077,-2.935703 2.47033,-5.174316 4.30241,-5.174316 0.66767,0 1.30689,0.582326 1.30689,1.191885 z m 2.03534,-0.377844 c 0,-1.511131 -1.19188,-2.470328 -3.0811,-2.470328 -3.83703,0 -7.15082,4.418386 -7.15082,9.504198 0,2.877835 1.16271,4.335839 3.45919,4.335839 2.00593,0 4.27299,-1.458004 6.74331,-4.248308 l -1.24975,-1.279416 c -1.77324,2.296481 -3.72032,3.691876 -5.14514,3.691876 -1.01706,0 -1.569,-0.871909 -1.569,-2.470328 0,-0.320218 0,-0.407507 0.0581,-0.668642 l 6.13254,-3.778191 c 1.27942,-0.785594 1.80266,-1.540551 1.80266,-2.6167 z m -9.70843,-1.831106 c -0.52349,-0.320219 -0.90133,-0.407507 -1.51113,-0.407507 -1.482686,0 -2.732439,1.105569 -4.332073,3.866452 l 0.785593,-3.837032 -2.238613,0.378087 -2.063064,12.963386 h 2.179772 l 0.522514,-3.284369 c 0.145156,-0.987645 0.582083,-2.703015 0.872881,-3.487636 0.493823,-1.365732 1.249753,-2.557616 2.267061,-3.516814 0.639222,-0.639221 1.191885,-0.901329 1.801689,-0.901329 0.34939,0 0.55266,0.05787 0.84346,0.231715 z m -9.040041,0 c -0.523243,-0.320219 -0.901329,-0.407507 -1.511131,-0.407507 -1.482683,0 -2.732435,1.105569 -4.330854,3.866452 l 0.78535,-3.837032 -2.238613,0.378087 -2.063794,12.963386 h 2.179773 l 0.523243,-3.284369 c 0.145399,-0.987645 0.581353,-2.703015 0.871909,-3.487636 0.493822,-1.365732 1.249995,-2.557616 2.26706,-3.516814 0.640195,-0.639221 1.191885,-0.901329 1.801686,-0.901329 0.349639,0 0.552907,0.05787 0.843462,0.231715 z m -14.330334,1.453019 -0.232687,1.454236 c -0.493822,3.109549 -1.220332,4.476254 -3.574924,6.684474 -1.249753,1.162464 -2.093214,1.686679 -2.615484,1.686679 -0.552906,0 -0.843462,-0.61053 -0.843462,-1.773238 0,-2.993571 1.249753,-6.33678 2.907255,-7.674064 0.69709,-0.551933 1.162465,-0.697089 2.267061,-0.697089 0.639222,0 0.987888,0.02942 2.092241,0.319002 z m 2.41246,-1.278443 c -1.626866,-0.435954 -2.151081,-0.552663 -2.877834,-0.698062 -0.551691,-0.115736 -1.074933,-0.145156 -1.568999,-0.145156 -4.301434,0 -7.615223,4.389695 -7.615223,10.086524 0,2.499748 0.814041,3.899763 2.179772,3.899763 2.005926,0 4.360275,-1.662122 6.510627,-4.568405 l -0.842489,4.214146 h 2.180746 z m -17.149084,6.918134 c 0,1.365975 -0.523243,2.499019 -1.45302,3.139213 -0.842489,0.581111 -1.453263,0.72651 -3.226501,0.72651 h -3.284369 l 1.045756,-6.772978 h 3.285342 c 2.470327,0 3.632792,0.93002 3.632792,2.907255 z m 0.698062,-9.156747 c 0,2.41246 -1.685707,4.06899 -4.157008,4.06899 h -3.110522 l 0.98959,-6.219099 h 3.284369 c 1.685707,0 2.179773,0.145156 2.586064,0.697089 0.290799,0.406535 0.407507,0.843219 0.407507,1.45302 z m 2.586307,-0.231715 c 0,-1.134016 -0.348666,-2.093214 -1.045756,-2.790303 -0.814041,-0.843462 -1.773238,-1.134017 -3.663185,-1.134017 h -6.220072 l -3.023234,19.183458 h 7.121401 c 3.633765,0 6.104336,-2.440908 6.104336,-6.074672 0,-2.179773 -1.307864,-3.720324 -3.430741,-3.981459 2.500721,-0.669615 4.157251,-2.790547 4.157251,-5.203007"
         style="fill:#231f20;fill-opacity:1;fill-rule:evenodd;stroke:none;stroke-width:0.243143" />
      <path
         id="path3-2"
         d="m 304.098,148.906 c 0,-1.48 -0.739,-2.215 -1.481,-2.957 0,0.742 0,1.477 0.742,1.477 0,0.742 -0.742,0.742 -1.48,0.742 -1.477,-0.742 -2.215,-2.219 -2.957,-2.957 2.219,1.48 2.219,7.394 5.918,5.914 0,-0.738 -0.742,-1.477 -0.742,-2.219 m 19.222,19.965 c -3.527,-5.293 -8.132,-5.914 -14.047,-6.656 0.739,8.871 6.653,16.265 14.047,21.441 0.739,0 1.477,0 1.477,-0.738 1.48,-4.438 1.48,-9.613 -1.477,-14.047 z M 59.3906,180.695 c 2.75,-1.832 2.2188,-4.433 2.2188,-7.39 0,-0.739 -1.4766,-0.739 -1.4766,-0.739 -0.7422,3.696 -5.1758,4.434 -5.918,6.653 -1.4804,3.699 2.9571,2.957 5.1758,1.476 z m -6.6562,125.684 c -0.5196,-0.52 0,-1.477 -0.7383,-1.477 -0.7383,0 -1.4766,0 -2.2148,0 -1.4805,2.953 2.2148,5.172 4.4335,4.434 0.7422,-0.742 -0.7382,-2.219 -1.4804,-2.957 z m -7.3906,-39.922 c -3.1368,-4.184 -6.6524,-7.394 -11.0899,-9.609 -1.4805,-0.743 -3.6953,0 -5.1758,0 0.7422,7.39 6.6563,12.566 12.5703,14.785 2.2149,0.738 6.6524,6.652 9.6094,5.176 4.4336,-2.219 -3.6992,-7.395 -5.914,-10.352 z m -20.6993,17.742 c 3.9961,7.992 5.1758,17.742 14.0469,22.18 1.4805,0.738 3.6953,0.738 5.1719,0 0.7422,-0.742 0,-2.957 0,-4.438 -6.6524,-14.046 -18.4805,-22.918 -22.918,-39.179 -0.7383,-2.957 -2.957,-6.657 -5.9101,-8.875 -1.4805,7.394 1.4765,14.789 3.6953,22.179 1.4765,2.957 4.4336,5.176 5.914,8.133 z m 14.7852,-53.23 c 0.4687,-0.934 1.4766,-2.215 2.2187,-2.957 2.2149,-0.739 5.9102,3.699 6.6524,0.742 1.4805,-5.176 -0.7422,-10.352 -3.6953,-14.789 -2.9571,4.437 2.2187,12.57 -2.9571,13.308 -1.4765,0.739 -1.4765,-3.695 -1.4765,-5.175 -0.7422,-5.172 2.2148,-10.348 3.6914,-16.262 0.7422,-4.438 -0.7383,-8.871 0.7422,-13.309 1.4765,-2.218 2.2187,-5.175 2.9531,-7.394 0.7422,-2.215 -0.7344,-5.176 -0.7344,-7.395 0.7344,-13.304 13.3086,-22.914 24.3946,-30.312 -0.7383,-1.477 -2.9571,-2.215 -2.2188,-3.692 1.4805,-2.218 4.4375,-3.695 6.6563,-2.961 1.4765,0.743 2.2148,3.7 3.6953,2.961 2.2187,0 4.4336,-0.742 5.914,-2.961 2.2149,1.481 4.4375,0.743 6.6524,0 5.1758,-2.214 8.133,-7.39 13.309,-9.609 0.738,0 0,-2.215 -1.477,-2.957 1.477,-2.219 4.434,-2.219 5.172,-3.695 2.219,-2.219 4.437,-3.699 6.656,-4.438 4.438,-2.219 8.871,-3.695 14.047,-4.433 2.215,-0.739 2.953,-2.957 4.434,-3.7 8.871,-2.957 17.004,-6.652 25.879,-6.652 14.785,-0.738 29.57,-2.215 44.355,-0.738 14.785,1.476 28.832,5.914 44.355,3.695 1.481,0 2.219,-0.742 2.961,-1.476 0.739,0 0.739,1.476 0.739,2.214 -5.18,3.7 -3.7,11.09 2.218,12.571 3.696,0.738 6.653,-4.438 10.348,-3.7 2.957,0.743 6.652,2.219 7.395,5.18 0.738,1.477 -2.219,0 -2.219,0.738 -0.738,2.957 1.476,6.653 4.437,8.129 0.739,0 1.477,0 1.477,-0.738 0.738,-2.957 -2.215,-6.652 0.738,-6.652 4.438,0 6.656,5.914 8.875,10.351 0,0.735 4.434,0.735 4.434,-0.742 2.215,-5.914 -8.133,-8.871 -5.176,-14.785 8.133,4.437 11.828,14.785 21.441,17.746 0.739,-5.18 -1.476,-9.617 -4.437,-12.57 -4.438,-6.657 -8.133,-14.047 -14.785,-17.742 -1.477,-1.481 -4.438,-0.743 -6.653,-1.481 -15.527,-9.6132 -28.832,-21.4413 -45.101,-28.0937 -12.567,-5.1758 -26.613,0 -39.918,-0.7383 -0.738,0 -2.219,-1.4765 -2.961,-2.2187 -8.871,-2.957 -18.481,0.7422 -27.348,-2.2188 -3.699,-1.4765 -8.136,0 -12.57,1.4805 -0.742,0 -1.48,-0.7383 -0.742,-1.4805 1.48,-1.4765 3.695,-2.2187 5.176,-3.6953 -1.481,0.7383 -2.215,-0.7383 -2.957,-0.7383 -1.477,0.7383 -2.957,2.2149 -4.434,2.2149 C 128.883,73.5 111.879,81.6328 92.6563,89.0234 81.5703,92.7227 71.2188,99.375 60.8672,106.77 c -13.3086,10.347 -23.6563,21.437 -32.5274,35.484 1.4805,0 2.2188,1.48 2.2188,1.48 -2.2188,8.129 -11.0898,10.348 -15.5234,17.743 -0.7422,1.48 -1.4805,2.957 -1.4805,5.175 -0.7422,0.735 -2.2188,2.957 -3.69532,2.219 -1.48047,-0.742 -2.95704,-2.961 -4.4375,-2.219 -11.08985,13.305 -1.48047,29.571 -2.95704,44.356 -0.73828,1.48 -1.480465,2.957 -1.480465,4.437 0.742185,1.481 2.957035,2.957 3.699215,4.438 1.47657,6.652 2.95313,13.305 5.17579,19.961 0.73442,2.215 0.73442,6.652 2.95312,8.871 1.4805,-2.219 3.6992,-3.695 4.4375,-5.176 1.4805,-2.219 2.2188,-4.437 3.6953,-4.437 2.2188,-0.739 3.6992,2.218 5.1758,4.437 1.4766,3.695 4.4375,8.871 8.1328,6.652 1.4805,-0.738 -2.2148,-4.433 0,-6.652 2.2188,2.219 3.6953,4.434 6.6524,3.695 2.957,-1.476 3.6992,-5.914 8.1328,-5.175 -2.2149,-2.215 -2.9571,-5.172 -5.1758,-6.653 0.7422,2.219 1.4805,4.438 0.7422,6.653 0,0.742 -0.7422,1.48 -1.4805,0.742 -2.9531,-2.957 -5.9141,-7.395 -3.6953,-11.832"
         style="fill:#0272a6;fill-opacity:1;fill-rule:evenodd;stroke:none"
         transform="matrix(0.13333333,0,0,-0.13333333,0,56.693333)" />
      <path
         id="path4-76"
         d="m 174.25,122.602 c 0,0 0.512,-0.555 2.078,-0.973 1.574,-0.414 2.012,0.07 2.496,-0.414 0.489,-0.485 1.477,-1.02 0.489,-1.25 -0.997,-0.227 -1.551,-0.414 -2.938,0.277 -1.387,0.696 -2.219,1.156 -2.219,1.621 0,0.461 0.094,0.739 0.094,0.739 m 34.887,15.617 c 0,0 -1.293,-0.414 -1.848,-1.848 -0.555,-1.43 -0.742,-0.414 -1.156,-0.414 -0.414,0 -2.797,-3.074 -3.188,-3.469 -0.39,-0.39 -0.047,-1.062 0.879,-1.062 0.922,0 1.684,0.715 2.539,1.574 0.856,0.855 3.067,4.617 3.067,4.617 z m -5.129,-0.739 c -1.192,-2.386 -2.863,-3.789 -4.344,-5.265 2.637,4.25 3.926,14.598 5.313,10.348 0,-1.481 -0.231,-3.606 -0.969,-5.083 z m -0.692,17.325 -1.156,0.785 c 0,-1.016 0,-1.383 0.738,-2.121 0,0.738 0.418,0.597 0.418,1.336 z m 1.571,-6.512 -0.879,-2.035 c -0.738,-0.738 -1.801,1.109 -1.801,1.851 0,0.739 0.231,1.106 0.231,1.844 0,0.742 0.785,1.848 1.523,1.848 1.48,-0.738 0.926,-3.508 0.926,-3.508 z m -13.852,21 c -0.359,-0.359 -2.461,-0.277 -1.722,-1.02 0.742,-0.738 2.738,-0.332 3.48,-0.332 0.242,1.047 -1.398,1.711 -1.758,1.352 z m -2.461,-1.965 c 1.051,-0.375 3.227,-2.449 4.114,-2.637 0.183,-0.035 0.261,1.305 0.445,1.278 0.285,-0.031 -0.606,0.297 -0.305,0.308 0.52,0.016 2.496,-0.441 3.094,-0.242 0.215,-0.863 0.328,-2.512 0.758,-3.051 0.351,-0.441 0.457,-0.492 0.906,-0.785 0.891,-0.582 1.016,1.895 2.98,-0.945 -0.742,0 -1.734,-0.07 -1.734,-0.813 0.738,-0.734 2.172,-0.414 2.566,-1.5 0,0 -0.023,-1.339 -0.878,-1.339 l -2.153,1.363 c 1.297,-1.801 2.531,-4.192 1.852,-4.481 -0.973,-0.418 -5.571,4.133 -7.785,5.614 -1.383,0.832 -2.403,0.179 -4.047,0.207 -2.746,0.043 -5.149,0.156 -7.438,-0.418 -1.547,-0.391 -5.75,-5.52 -7.82,-11.039 -1.785,-4.774 0.73,-10.821 3.848,-15.711 0.574,-0.903 0.558,-1.969 1.25,-2.774 0.738,0 2.98,-0.48 4.433,-0.738 1.293,-0.234 1.504,0.523 1.504,1.262 1.934,-0.547 3.656,-0.969 5.332,-1.125 2.797,-0.258 6.145,-0.047 9.383,2.078 0,-0.738 -0.695,-2.262 0.047,-3 1.48,-0.742 3.281,2.262 4.758,1.523 -1.477,-2.218 1.894,-2.218 0.414,-3.695 -0.739,0 -0.739,0 -1.477,-0.742 -0.738,0 -0.57,-0.723 -0.57,0.015 -0.742,-0.738 0.48,-0.617 -1.184,-0.843 -1.637,-0.231 -0.832,-2.266 0.926,-2.008 -0.301,-1.211 -1.586,-1.817 -3.148,-2.164 -1.165,-0.258 -1.93,-0.922 -3.118,-1.031 -0.433,-0.04 -0.933,0.007 -1.418,0.066 -0.359,0.039 5.125,2.844 4.817,2.871 -0.352,0.027 -6.481,-2.727 -6.684,-2.793 -4.437,0 -7.664,-1.066 -12.101,1.152 -4.438,2.954 -8.434,4.735 -11.387,9.911 -0.274,1.089 -1.234,1.527 -2.641,1.527 -1.414,0.996 -2.332,2.519 -2.8,4.391 -1.477,8.871 1.41,17.195 7.328,23.847 4.433,4.438 12.578,8.375 17.933,6.461"
         style="fill:#e22739;fill-opacity:1;fill-rule:evenodd;stroke:none"
         transform="matrix(0.13333333,0,0,-0.13333333,0,56.693333)" />
      <path
         id="path5-13"
         d="m 226.078,123.203 c 0,0 0.387,-0.426 1.598,-0.746 1.207,-0.316 1.543,0.055 1.914,-0.316 0.371,-0.379 1.133,-0.786 0.371,-0.961 -0.758,-0.176 -1.188,-0.321 -2.25,0.215 -1.066,0.531 -1.707,0.886 -1.707,1.242 0,0.351 0.074,0.566 0.074,0.566 m 26.789,11.992 c 0,0 -0.992,-0.32 -1.422,-1.418 -0.425,-1.101 -0.566,-0.32 -0.882,-0.32 -0.321,0 -2.149,-2.359 -2.45,-2.66 -0.3,-0.301 -0.035,-0.817 0.672,-0.817 0.711,0 1.297,0.551 1.953,1.204 0.657,0.656 2.356,3.55 2.356,3.55 z m -3.941,-0.566 c -0.914,-1.828 -2.196,-2.91 -3.332,-4.043 2.023,3.262 3.015,11.211 4.082,7.945 0,-1.136 -0.18,-2.769 -0.75,-3.902 z m -0.531,13.305 -0.887,0.601 c 0,-0.777 0,-1.062 0.57,-1.629 0,0.567 0.317,0.461 0.317,1.028 z m 1.207,-5.004 -0.676,-1.563 c -0.567,-0.566 -1.383,0.852 -1.383,1.422 0,0.57 0.18,0.852 0.18,1.418 0,0.566 0.601,1.418 1.172,1.418 1.132,-0.566 0.707,-2.695 0.707,-2.695 z m -10.637,16.125 c -0.277,-0.274 -1.887,-0.211 -1.32,-0.778 0.566,-0.566 2.101,-0.257 2.668,-0.257 0.187,0.808 -1.071,1.312 -1.348,1.035 z m -1.887,-1.504 c 0.809,-0.289 2.477,-1.883 3.156,-2.024 0.141,-0.031 0.204,0.996 0.34,0.977 0.223,-0.027 -0.461,0.23 -0.234,0.238 0.398,0.016 1.922,-0.34 2.379,-0.187 0.164,-0.66 0.25,-1.926 0.582,-2.34 0.269,-0.336 0.351,-0.383 0.695,-0.606 0.684,-0.445 0.781,1.457 2.289,-0.726 -0.566,0 -1.328,-0.051 -1.328,-0.621 0.566,-0.571 1.664,-0.321 1.965,-1.153 0,0 -0.016,-1.027 -0.672,-1.027 l -1.652,1.043 c 0.996,-1.379 1.941,-3.215 1.422,-3.441 -0.747,-0.317 -4.278,3.175 -5.981,4.312 -1.062,0.637 -1.84,0.141 -3.105,0.156 -2.11,0.036 -3.957,0.125 -5.715,-0.316 -1.184,-0.297 -4.414,-4.238 -6.004,-8.477 -1.367,-3.668 0.562,-8.308 2.957,-12.066 0.441,-0.691 0.43,-1.512 0.957,-2.125 0.566,0 2.293,-0.375 3.406,-0.57 0.996,-0.18 1.156,0.402 1.156,0.968 1.485,-0.425 2.809,-0.746 4.09,-0.863 2.153,-0.199 4.719,-0.035 7.207,1.598 0,-0.571 -0.535,-1.742 0.039,-2.309 1.133,-0.566 2.516,1.738 3.653,1.176 -1.137,-1.707 1.453,-1.707 0.32,-2.84 -0.566,0 -0.566,0 -1.137,-0.57 -0.57,0 -0.437,-0.559 -0.437,0.012 -0.571,-0.571 0.367,-0.473 -0.91,-0.649 -1.258,-0.176 -0.641,-1.742 0.711,-1.543 -0.235,-0.93 -1.215,-1.394 -2.414,-1.66 -0.899,-0.199 -1.485,-0.707 -2.395,-0.793 -0.332,-0.031 -0.719,0.008 -1.094,0.051 -0.269,0.031 3.938,2.183 3.703,2.203 -0.273,0.023 -4.98,-2.09 -5.136,-2.145 -3.407,0 -5.887,-0.816 -9.289,0.887 -3.407,2.27 -6.477,3.637 -8.747,7.609 -0.207,0.836 -0.945,1.172 -2.023,1.172 -1.086,0.766 -1.797,1.938 -2.156,3.371 -1.133,6.813 1.09,13.207 5.629,18.317 3.406,3.406 9.66,6.426 13.773,4.961"
         style="fill:#e22739;fill-opacity:1;fill-rule:evenodd;stroke:none"
         transform="matrix(0.13333333,0,0,-0.13333333,0,56.693333)" />
      <path
         id="path6-2"
         d="m 151.484,254.09 c -4.164,-11.254 -8.964,-21.297 -13.043,-32.313 -13.043,-33.047 -26.089,-63.89 -34.242,-98.406 -0.816,-0.73 0,-2.203 0,-2.937 -3.261,-8.809 -8.156,-16.887 -9.7849,-26.4379 -2.4453,-10.2813 -6.5235,-19.8242 -10.5977,-30.1055 0,-0.7343 0.8125,2.9375 -0.8164,2.2032 -3.2578,-3.6719 -3.2578,-8.0821 -4.8906,-12.4844 0,1.4687 2.4453,2.9375 0,3.6679 -0.8164,0 -0.8164,-0.7304 -0.8164,-1.4648 -0.8125,2.1992 -0.8125,3.6719 0,5.875 l 0.8164,-0.7383 c 0.8164,0 0.8164,0.7383 0.8164,1.4727 -0.8164,0.7344 -0.8164,0.7344 -0.8164,1.4687 l 0.8164,-0.7343 c 1.6289,3.6718 3.2617,7.3437 2.4414,11.0156 l -0.8125,-0.7344 c 4.8906,16.1563 10.5976,31.5745 16.3086,47.7305 5.7027,18.359 13.8557,35.25 17.9337,54.344 0.816,7.343 7.34,13.953 4.891,21.297 0,-0.735 0,-1.469 0.816,-1.469 2.445,0.734 0,2.203 0,3.672 0,-0.735 0,-1.469 0.816,-1.469 2.446,0.734 0,2.203 0,3.672 0,-0.735 0,-1.469 0.817,-1.469 4.074,11.016 9.781,21.301 13.859,32.313 5.707,16.89 13.043,33.046 20.383,49.937 8.969,19.828 15.488,41.125 28.531,59.484 -1.629,0.735 -0.812,2.204 -0.812,2.938 1.629,4.402 5.707,8.074 7.336,11.75 2.449,3.672 3.261,8.078 4.89,11.75 0,-0.734 0.821,-1.469 0.821,-1.469 3.261,2.938 2.441,7.344 5.707,10.281 -1.633,-0.734 -1.633,-2.207 0,-2.937 2.441,2.937 2.441,6.605 5.703,8.812 -20.383,-39.656 -39.95,-78.578 -55.438,-120.437 0,-0.734 0.817,-0.734 1.629,-0.734 -2.445,-2.204 -2.445,-5.141 -3.262,-7.344 m 75.825,168.906 v -0.738 c -0.817,1.472 0.816,2.203 0.816,2.937 0,-0.734 -0.816,-1.465 -0.816,-2.199 z m -17.121,-33.781 c -0.817,-0.735 -0.817,-0.735 -0.817,-1.469 0,1.469 1.633,2.203 1.633,3.672 0,-0.734 0,-1.469 -0.816,-2.203 z m 11.414,18.355 c -0.938,-1.406 -2.446,-2.933 -4.079,-4.406 2.446,5.879 6.524,10.285 9.786,16.16 -0.817,-4.41 -3.262,-8.082 -5.707,-11.754 z M 67.5078,2.19922 c 0,1.64844 1.6328,2.20703 0,3.67578 C 66.6953,3.67188 64.25,1.47266 66.6953,0 c 0.8125,0 0.8125,1.47266 0.8125,2.19922 z M 71.5859,30.1094 C 70.9453,28.5742 69.957,27.1719 69.957,24.9688 72.4023,33.0469 74.8477,41.125 77.293,49.2031 75.6641,42.5938 74.0313,35.9844 71.5859,30.1094 Z m 3.2618,-5.875 c 1.1289,8.1484 4.8945,14.6875 5.707,22.7617 0.8125,3.6758 4.0742,6.6133 1.6328,10.2812 C 75.6641,41.125 73.2188,24.9688 68.3281,8.07813 c 0,-0.73438 0.8125,-1.46875 1.6289,-0.73438 4.0743,5.14065 4.0743,11.01565 4.8907,16.89065"
         style="fill:#d3d2d2;fill-opacity:1;fill-rule:evenodd;stroke:none"
         transform="matrix(0.13333333,0,0,-0.13333333,0,56.693333)" />
      <path
         id="path7-1"
         d="m 102.898,142.602 1.211,0.472 c 0.739,0 0.879,-1.824 0.879,-1.824 -2.957,-0.738 -6.5271,0.613 -8.0036,3.57 2.2187,-0.738 3.6956,-1.48 5.9136,-2.218 m 20.7,70.234 c 0.738,-0.738 1.48,0 1.48,0.738 0,0.742 0.664,1.953 -0.742,1.496 -2.215,-0.722 -3.633,0.723 -3.633,-0.754 -0.738,-2.218 1.418,0 2.895,-1.48 z m 20.699,-34.75 c 2.047,-4.09 0.742,13.414 0.742,2.961 0.738,-1.481 -0.742,-2.219 -0.742,-2.961 z m 2.644,-15.945 c -1.308,-1.633 -2.941,-2.973 -4.421,-3.715 -0.739,0 -2.332,0.57 -1.918,1.179 2.726,4.02 5.914,5.915 8.871,8.872 0,-2.215 1.898,-0.789 -2.532,-6.336 z m -6.339,10.773 c 0.242,1.457 0,2.219 0.742,3.695 h 1.476 c 2.957,-5.175 -2.957,-9.613 -4.437,-14.785 -0.738,-0.738 -1.477,-1.48 -2.953,-1.48 1.476,4.437 4.433,8.133 5.172,12.57 z m 2.468,9.613 c -0.234,-0.703 -0.988,-2.089 -1.726,-2.089 -2.961,1.476 -0.676,9.722 0.89,8.156 0.743,-0.739 1.575,-3.852 0.836,-6.067 z m -37.957,17.739 c -1.402,-2.805 -4.433,-3.696 -5.9099,-6.653 0,0 4.4299,-0.679 2.5509,-1.476 -2.5079,-1.071 -6.9884,-8.133 -7.7267,-12.571 0,-3.695 0.7383,-7.39 2.2188,-11.089 2.2148,-4.434 5.1759,-8.133 8.1289,-11.09 1.48,-1.477 4.438,-2.219 6.656,-2.219 0.739,0 0.739,1.48 0.739,2.219 3.695,1.48 6.656,-3.696 10.351,-2.219 2.215,1.48 2.957,0 5.176,0.742 2.215,0.738 4.433,1.477 6.652,2.957 0,-1.48 -0.738,-2.957 0,-3.699 2.219,-2.215 4.434,2.219 6.653,1.48 0.742,-0.738 0,-1.48 -0.739,-1.48 2.219,-0.738 2.957,-1.477 3.7,-3.695 0,-0.739 -2.219,-2.215 -3.7,-2.215 0.739,0.734 1.481,0.734 1.481,1.476 0,0.739 -0.742,0.739 -1.481,0.739 -1.48,-1.481 -3.695,-2.215 -4.433,-3.696 -0.742,-1.48 2.953,-2.218 2.215,-2.957 -2.957,-1.48 -5.915,-2.957 -9.61,-2.957 0,0.739 0,1.477 -0.738,1.477 -5.914,-2.215 -11.832,-2.215 -17.004,-0.738 -8.133,2.218 -15.5274,8.132 -22.1797,14.785 0.7383,0 1.4765,0 1.4765,0.742 -0.7382,1.476 -2.9531,2.215 -4.4335,2.957 -4.4375,2.957 -6.3125,8.527 -4.0938,13.707 1.4766,4.434 0.3984,9.211 1.875,13.645 0.7383,2.218 2.832,3.699 3.5664,5.917 5.1758,9.61 12.6992,15.657 23.7891,17.875 4.434,0.739 12.02,0.301 14.727,-4.312 0.835,-1.43 0.871,5.586 4.492,1.961 1.656,-1.652 0.742,-4.438 2.957,-5.914 0.742,0 0.742,0.738 0.742,1.476 1.477,0 2.957,-0.738 2.957,-2.218 -0.738,0 -2.219,0 -2.219,-0.739 0.739,-0.738 1.481,-2.218 2.957,-2.218 0,-0.735 0,-2.219 -0.738,-2.219 -0.738,0 -1.48,1.484 -2.219,2.219 -0.738,0 -1.48,-0.735 -1.48,-0.735 1.48,-1.484 3.699,-3.699 2.961,-5.918 -4.438,1.481 -5.918,5.918 -9.614,7.395 -5.175,2.957 -10.23,1.476 -16.14,0.738 -0.742,0 -3.821,0 -4.563,-1.48"
         style="fill:#fab217;fill-opacity:1;fill-rule:evenodd;stroke:none"
         transform="matrix(0.13333333,0,0,-0.13333333,0,56.693333)" />
    </g>
  </g>
</svg>
