<?xml version="1.0" encoding="UTF-8" standalone="no"?>
<!-- Created with Inkscape (http://www.inkscape.org/) -->

<svg
   width="41.064903mm"
   height="6.4484682mm"
   viewBox="0 0 41.064903 6.4484682"
   version="1.1"
   id="svg1"
   xmlns:inkscape="http://www.inkscape.org/namespaces/inkscape"
   xmlns:sodipodi="http://sodipodi.sourceforge.net/DTD/sodipodi-0.dtd"
   xmlns="http://www.w3.org/2000/svg"
   xmlns:svg="http://www.w3.org/2000/svg">
  <sodipodi:namedview
     id="namedview1"
     pagecolor="#ffffff"
     bordercolor="#000000"
     borderopacity="0.25"
     inkscape:showpageshadow="2"
     inkscape:pageopacity="0.0"
     inkscape:pagecheckerboard="0"
     inkscape:deskcolor="#d1d1d1"
     inkscape:document-units="mm"
     inkscape:zoom="15.077298"
     inkscape:cx="78.694474"
     inkscape:cy="517.40042"
     inkscape:window-width="2880"
     inkscape:window-height="1723"
     inkscape:window-x="0"
     inkscape:window-y="0"
     inkscape:window-maximized="1"
     inkscape:current-layer="layer1" />
  <defs
     id="defs1" />
  <g
     inkscape:label="Layer 1"
     inkscape:groupmode="layer"
     id="layer1"
     transform="translate(-109.14154,-103.32637)">
    <g
       id="g9"
       transform="matrix(0.36216775,0,0,0.36216775,109.14153,103.32826)"
       inkscape:export-filename="ses.svg"
       inkscape:export-xdpi="96"
       inkscape:export-ydpi="96">
      <path
         id="path1-4"
         d="M 345.457,2.46875 H 319.672 V 28.2539 h 25.785 V 2.46875"
         style="fill:#1b4a54;fill-opacity:1;fill-rule:nonzero;stroke:none"
         transform="matrix(0.13333333,0,0,-0.13333333,0,17.8)" />
      <path
         id="path2-62"
         d="M 798.457,52.0313 785.012,80.7656 770.457,52.0313 Z M 810.613,26.2461 H 757.195 L 745.039,2.30078 H 716.121 L 781.883,131.418 h 7.551 L 850.398,2.30078 h -28.55 L 810.613,26.2461"
         style="fill:#1b4a54;fill-opacity:1;fill-rule:nonzero;stroke:none"
         transform="matrix(0.13333333,0,0,-0.13333333,0,17.8)" />
      <path
         id="path3-58"
         d="M 44.7578,57.2852 C 40.5234,58.3945 32.6055,60.4141 25.2344,65.3945 14.9219,72.2188 9.21094,82.1484 8.66016,94.4922 8.10547,104.809 11.4258,113.832 18.0508,120.832 c 9.5781,9.949 23.3945,12.707 30.0234,12.707 18.793,0 29.2891,-6.809 38.6758,-12.891 l 4.2383,-2.761 -13.4414,-21.9182 -4.6055,2.9492 c -8.2851,5.336 -13.6328,8.836 -24.8672,8.836 -1.6562,0 -8.1015,-1.289 -11.4179,-4.789 -1.1016,-1.106 -2.3907,-3.1291 -2.211,-7.3634 C 34.625,88.9688 39.2383,85.2852 51.0195,82.3398 52.5,81.9805 53.6055,81.6016 54.707,81.2305 67.0508,77 76.625,71.2813 83.2539,64.1016 89.8867,56.7383 93.3828,48.082 93.3828,38.8711 93.3828,29.8516 89.5195,20.4492 83.0664,13.2656 75.5195,4.79688 65.0195,0.0078125 53.418,0.0078125 47.707,0.0078125 39.9727,0.375 30.7695,3.14453 19.1602,6.83203 8.84766,13.2656 0,22.668 L 18.7891,40.3398 C 32.4219,25.793 47.707,25.793 53.418,25.793 c 10.6797,0 14.1797,9.7578 14.1797,13.0781 0,6.9922 -7.918,13.4453 -21.3633,18.0469 l -0.5547,0.1875 -0.9219,0.1797"
         style="fill:#1b4a54;fill-opacity:1;fill-rule:nonzero;stroke:none"
         transform="matrix(0.13333333,0,0,-0.13333333,0,17.8)" />
      <path
         id="path4-62"
         d="M 108.109,28.0117 H 193.57 V 2.22266 h -85.461 z m 0,53.5977 h 71.278 V 55.8242 h -71.278 z m 86.012,23.9456 h -86.012 v 25.785 h 86.012 v -25.785"
         style="fill:#1b4a54;fill-opacity:1;fill-rule:nonzero;stroke:none"
         transform="matrix(0.13333333,0,0,-0.13333333,0,17.8)" />
      <path
         id="path5-8"
         d="m 551.828,80.3164 h -11.246 v 29.4726 h 11.246 c 7.176,0 14.914,-5.531 14.914,-14.5507 0,-9.0313 -7.738,-14.9219 -14.914,-14.9219 m 32.227,-7.9141 c 4.234,6.0782 6.625,13.2618 6.625,21.1797 0,20.813 -16.942,37.758 -37.75,37.758 H 517.75 V 55.4531 h 42.18 c 8.652,0 15.843,-7.0039 15.843,-15.6601 0,-8.6524 -7.191,-15.4649 -15.843,-15.4649 h -8.84 V 2.40234 h 9.207 c 21.547,0 39.047,17.31646 39.047,39.05856 0,12.5196 -5.899,23.75 -15.289,30.9414"
         style="fill:#1b4a54;fill-opacity:1;fill-rule:nonzero;stroke:none"
         transform="matrix(0.13333333,0,0,-0.13333333,0,17.8)" />
      <path
         id="path6-4"
         d="m 668.223,79.7617 h -22.844 v 25.9763 h 22.844 c 7.187,0 12.894,-5.8982 12.894,-13.0817 0,-7.1758 -5.707,-12.8946 -12.894,-12.8946 m 16.023,-22.2812 c 13.449,6.0742 22.656,19.5234 22.656,35.1758 0,21.3667 -17.32,38.8667 -38.679,38.8667 H 619.602 V 2.40234 h 25.777 V 53.9805 h 12.898 L 682.402,2.21875 h 27.45 L 684.246,57.4805"
         style="fill:#1b4a54;fill-opacity:1;fill-rule:nonzero;stroke:none"
         transform="matrix(0.13333333,0,0,-0.13333333,0,17.8)" />
      <path
         id="path7-7"
         d="m 319.719,131.41 h 25.789 V 44.7109 H 319.719 V 131.41"
         style="fill:#368f95;fill-opacity:1;fill-rule:nonzero;stroke:none"
         transform="matrix(0.13333333,0,0,-0.13333333,0,17.8)" />
      <path
         id="path8-24"
         d="m 251.008,57.2852 c -4.238,1.1093 -12.153,3.125 -19.524,8.1015 -10.312,6.8242 -16.023,16.7578 -16.574,29.1016 -0.555,10.3207 2.766,19.3397 9.391,26.3437 9.578,9.941 23.394,12.707 30.023,12.707 18.793,0 29.289,-6.816 38.676,-12.894 l 4.238,-2.762 -13.441,-21.9221 -4.606,2.9493 c -8.285,5.3398 -13.632,8.8438 -24.867,8.8438 -1.656,0 -8.101,-1.297 -11.418,-4.793 -1.101,-1.102 -2.39,-3.129 -2.211,-7.3712 0.18,-6.625 4.793,-10.3046 16.575,-13.2617 1.484,-0.3593 2.582,-0.7343 3.687,-1.1015 12.34,-4.2305 21.918,-9.9493 28.547,-17.1328 6.629,-7.3672 10.129,-16.0157 10.129,-25.2305 0,-9.0195 -3.863,-18.4258 -10.313,-25.5977 C 281.77,4.78906 271.27,0 259.668,0 253.965,0 246.223,0.371094 237.02,3.13672 225.41,6.82031 215.098,13.2656 206.25,22.6602 l 18.789,17.6796 c 13.633,-14.5507 28.926,-14.5507 34.629,-14.5507 10.68,0 14.18,9.7617 14.18,13.0742 0,6.9922 -7.918,13.4453 -21.364,18.0547 l -0.554,0.1797 -0.922,0.1875"
         style="fill:#368f95;fill-opacity:1;fill-rule:nonzero;stroke:none"
         transform="matrix(0.13333333,0,0,-0.13333333,0,17.8)" />
      <path
         id="path9-0"
         d="M 469.441,2.21484 V 81.2344 L 432.414,47.5352 395.395,81.2344 V 2.21484 H 369.602 V 131.332 h 8.847 l 53.965,-48.9843 53.781,48.9843 h 9.032 V 2.21484 h -25.786"
         style="fill:#368f95;fill-opacity:1;fill-rule:nonzero;stroke:none"
         transform="matrix(0.13333333,0,0,-0.13333333,0,17.8)" />
    </g>
  </g>
</svg>
