<svg width="353.41mm" height="276.59mm" version="1.1" viewBox="0 0 353.41 276.59" xml:space="preserve" xmlns="http://www.w3.org/2000/svg" xmlns:xlink="http://www.w3.org/1999/xlink"><defs><linearGradient id="a"><stop stop-color="#f78457" offset="0"/><stop stop-color="#ffb55c" offset=".34714"/><stop stop-color="#eb766c" offset=".67937"/><stop stop-color="#e37077" offset="1"/></linearGradient><style>.cls-1{fill:#006d99;}.cls-2{fill:#59befe;}</style><linearGradient id="i" x1="251.9" x2="-49.021" y1="-267.69" y2="-298.51" gradientTransform="matrix(1 0 0 1.6729 0 106.07)" gradientUnits="userSpaceOnUse" xlink:href="#a"/><linearGradient id="h" x1="190.6" x2="194.77" y1="-167.19" y2="-166.84" gradientTransform="translate(399.28)" gradientUnits="userSpaceOnUse"><stop stop-color="#a16e68" offset="0"/><stop stop-color="#724737" offset="1"/></linearGradient><linearGradient id="g" x1="204.7" x2="212.05" y1="-167.87" y2="-167.87" gradientTransform="translate(399.28)" gradientUnits="userSpaceOnUse"><stop stop-color="#734838" offset="0"/><stop stop-color="#80534d" offset="1"/></linearGradient><radialGradient id="d" cx="150" cy="-245.47" r="23.75" gradientTransform="matrix(.78556 0 0 .83607 424.19 -37.541)" gradientUnits="userSpaceOnUse"><stop stop-color="#fff74f" stop-opacity=".2846" offset=".29717"/><stop stop-color="#fff055" stop-opacity=".12549" offset=".6438"/><stop stop-color="#fff" stop-opacity="0" offset="1"/></radialGradient><radialGradient id="c" cx="150" cy="-245.47" r="23.75" gradientTransform="matrix(1.2563 0 0 1.0596 353.58 22.154)" gradientUnits="userSpaceOnUse"><stop stop-color="#fff74f" stop-opacity=".2846" offset=".29717"/><stop stop-color="#fff055" stop-opacity=".12549" offset=".78974"/><stop stop-color="#fff" stop-opacity="0" offset="1"/></radialGradient><radialGradient id="b" cx="44.377" cy="-271.63" r="44.378" gradientTransform="matrix(1 0 0 .2978 498.06 -163.05)" gradientUnits="userSpaceOnUse"><stop stop-color="#e9ea15" stop-opacity="0" offset=".16924"/><stop stop-color="#e9ea15" stop-opacity=".14757" offset=".28536"/><stop stop-color="#fff" stop-opacity="0" offset=".94993"/></radialGradient><linearGradient id="f" x1="131.41" x2="105.21" y1="-213.21" y2="-129.05" gradientTransform="translate(399.28)" gradientUnits="userSpaceOnUse"><stop stop-color="#ffab6f" offset="0"/><stop stop-color="#ffe09f" offset="1"/></linearGradient><linearGradient id="e" x1="251.9" x2="-49.021" y1="-267.69" y2="-298.51" gradientTransform="translate(399.28)" gradientUnits="userSpaceOnUse" xlink:href="#a"/></defs><g transform="translate(-327.64 431.71)"><path d="m649.58-391.42c-26.338-0.19205-31.504 22.929-22.44 49.307 10.641 30.966-81.697 51.628-194.53 30.81-87.146-16.079-104.96 13.048-104.96 13.048v69.951h353.28v-105.25c-1.1856-4.8346-2.9377-9.8616-5.5304-14.901-5.9942-11.65 18.979-34.207-13.212-41.393-4.647-1.0375-8.8413-1.541-12.604-1.5684z" fill="url(#e)" style="paint-order:markers fill stroke"/><path d="m327.64-228.3v73.159h353.28v-73.159z" fill="url(#f)" style="paint-order:markers fill stroke"/><ellipse cx="542.43" cy="-243.94" rx="44.378" ry="30.73" fill="url(#b)" style="paint-order:markers fill stroke"/><ellipse cx="542.03" cy="-237.94" rx="29.836" ry="25.165" fill="url(#c)" style="paint-order:markers fill stroke"/><g><ellipse cx="542.42" cy="-242.77" rx="8.9068" ry="8.6741" fill="#fff" style="paint-order:markers fill stroke"/><path d="m557.59-222.79-36.445-3.6837-17.321 0.2868-20.967-1.321 9.4598-2.8046 6.0884-3.8865 6.4761-1.2382 12.575-3.2591 9.73 0.89105 15.895-0.27876 8.7872-5.2079 8.3313-5.022 15.957-0.47954 7.7152-4.4609 17.369-3.8099 12.64-3.1196 18.172 0.059 16.756-2.5038 19.865 3.1584 12.25-0.49642-4e-5 46.613z" fill="#8f4e79"/><path d="m644.83-253.73-12.64 3.1197-17.369 3.8101-7.7148 4.4607-15.957 0.47956-8.3313 5.0219-8.7876 5.208-19.5-2.6784-2.128 4.0618-16.572 1.2635-7.998-1.7859-6.6869 4.2969-8.262 3.2804 15.187 1.4678 6.7017 1.9909 11.126 1.6334 42.64 1.7638 83.26 9.4361 9.1245-13.961v-6.7758l-11.94-20.141-9.0888-5.7345z" fill="#804e89"/><path d="m668.98-247.78-12.64 3.1192-17.369 3.8101-7.7153 4.4612-15.957 0.47904-8.3313 5.0224-8.7876 5.208-19.5-2.6784-2.128 4.0618-13.326-0.24753-9.7452 2.2298-8.1861 1.7921-8.2615 3.2799 13.061 1.6481 11.892 1.4215 14.258 0.10287 36.445 3.6835 68.23 7.7334v-44.955z" fill="#503361"/><path d="m500.39-212.33-7.7125 2.7228-10.398-1.5801-4.9796 2.7306-18.914 2.3426-130.75 3.3546v-60.627l22.006 5.3532s6.3845 5.1156 7.471 5.1156 18.203 2.2705 18.203 2.2705l8.498-0.2683 8.3411 1.75 8.7522 2.2997 11.843-2.2364 11.188 0.91281 3.9217 2.6756 20.745 0.48621 2.6482 2.2217 5.1584 4.6582 10.977 0.3572 10.286 3.2144 6.2779 3.7234 9.1787 3.9965 6.2436 5.8889 6.8169 4.5375 5.1157 1.7706z" fill="#743e7c"/><path d="m327.64-249.67v58.909l119.56-3.2308 18.914-2.3425 4.9795-2.7306 10.398 1.5798 7.7127-2.7228 10.919-2.3291-5.1154-1.7704-6.3247-6.2332-5.8224-1.8717-5.8028-9.5038-10.567-0.53795-10.286-3.2143-10.977-0.35709-5.1584-4.6581-2.6484-2.2216-20.744-0.48627-3.9217-2.6758-11.188-0.91261-11.843 2.236-8.7524-2.2996-8.3411-1.7498-8.4977 0.2682s-17.116-2.2707-18.203-2.2707-7.4709-5.1154-7.4709-5.1154z" fill="#513565"/><path d="m680.92-235.6-37.844 8.1861-50.301 12.882-43.807 18.64-19.501 14.922-20.481 1.8572-25.872 10.13 6.5567 5.379 191.25-0.10273z" fill="#412e70"/><path d="m340.05-236.62-12.41 3.222v78.249h67.712l10.554-7.0652 12.263-2.5848 16.433-9.695 16.18-9.9312 14.139-2.434-5.7382-5.7025-15.533-4.6188-14.024-6.4668-19.693-4.007-19.2-11.416-8.6698-2.3244-8.879-4.1414-1.4474-3.0505-16.501-1.557-7.7618 1.404z" fill="#412e70"/><path d="m327.64-203.36v45.853h95.402l-6.6254-2.0257-8.9767-6.8694-14.743-5.1537-10.909-6.488-5.334-8.9659-16.876-2.1875-2.0655-3.793z" fill="#491d52"/></g><ellipse cx="542.03" cy="-242.77" rx="18.657" ry="19.857" fill="url(#d)" style="paint-order:markers fill stroke"/><path d="m542.42-251.45a8.9068 8.6741 0 0 0-8.907 8.6739 8.9068 8.6741 0 0 0 1.5214 4.8292l8.0512-0.14108 8.2362-4.8814a8.9068 8.6741 0 0 0-8.9018-8.4806z" fill="#fff" style="paint-order:markers fill stroke"/><g fill="#f9f9f9"><path d="m327.64-287.72 58.962 0.81508-17.362 3.3441 49.489-0.0844 23.668 2.9336-114.76 9.4915z" opacity=".2"/><path d="m437.74-263.28 19.931-3.0204 25.151 0.52734z" opacity=".2"/><path d="m680.92-295.26-154.89 5.4558 154.89 8.7432z" opacity=".2"/><path d="m681.06-274.67-63.325 1.2776 63.193 5.7091z" opacity=".2"/></g><path d="m327.64-164.65v9.5085h353.28v-9.5085z" fill="#44382f" style="paint-order:markers fill stroke"/><path d="m608.55-176.23c0.51592 6.1715 0.21361 12.679-0.18775 15.504-0.30231 2.1281-3.2684 1.8419-1.091-2.8815" fill="none" stroke="url(#g)" stroke-linecap="round" stroke-width="5"/><path d="m592.39-175.46c0.95181 11.386-1.0868 22.792 6.0937 12.623" fill="none" stroke="url(#h)" stroke-linecap="round" stroke-width="5"/><path d="m596.47-182.4s-0.54614 4.96-1.032 5.8224c-0.48589 0.86242 6.7403 0.925 6.7403 0.925l-0.23392-8.2916z" fill="#694640"/><path d="m602.38-179.97c-0.27906-5.7e-4 -0.56978 2e-3 -0.87281 8e-3 -0.64648 0.0126-1.3486 0.0404-2.111 0.0837-4.3005 0.24452-7.8786 2.0149-7.8786 2.0149s0.85838 3.4786 1.1074 6.149c0.44158 4.7298 0.83937 10.911 1.3384 16.567h16.242c-0.0157-0.16792-0.0321-0.32672-0.0475-0.49661-0.506-5.5537-0.91427-12.108-1.4144-17.465-0.35008-3.7451 2.287-6.8434-6.364-6.8611z" color="#000000" fill="#494c53" stroke-linecap="round" style="-inkscape-stroke:none"/><path d="m500.83-159.24-3.268 1.4175 1.1741 2.7037h3.883z" color="#000000" fill="#666" style="-inkscape-stroke:none"/><path d="m489.74-161.27s12.45 0.37261 20.589 0.13255c0.7497-0.0221 3.6915 0.95771 0.8811 2.0704-2.8104 1.1127-10.187 2.5518-12.188 2.7629-2.0012 0.2111-4.3559 0.48616-6.3051 0.20735-1.9493-0.2788-4.3247-2.0674-4.3698-3.2575-0.0399-1.0521 0.40761-1.5594 1.3931-1.9156z" fill="#664631"/><path d="m549.98-173.65c-0.58494-0.0181-1.1219 6e-3 -1.5782 0.046-0.91253 0.0803-1.5017 0.22479-1.5017 0.22479l0.49196 2.08s1.9983-0.45215 4.039-0.0491c1.0204 0.20152 2.0146 0.60593 2.8029 1.3364 0.78836 0.73043 1.4188 1.7938 1.666 3.5367 0.52255 3.6837 1.0692 7.6056 1.5896 11.356h2.1575c-0.53242-3.8368-1.0944-7.8654-1.6319-11.655-0.30401-2.1432-1.1755-3.7367-2.3301-4.8064-1.1546-1.0698-2.5454-1.6078-3.8401-1.8635-0.64732-0.12784-1.2801-0.18807-1.865-0.20619z" color="#000000" fill="#4d4d4d" style="-inkscape-stroke:none"/><path d="m542.98-172.03 4.1646-0.30975" fill="none" stroke="#80552b" stroke-linecap="round" stroke-width="3.5608"/><path d="m557.68-162.89 4.229-3.5382" fill="none" stroke="#4d4d4d" stroke-width="2"/><path d="m552.67-172.34c-0.14889 4e-3 -0.29579 0.0128-0.43977 0.0269-2.3036 0.22486-4.209 1.5529-4.209 1.5529l1.1834 1.7772s1.6649-1.05 3.2324-1.203c0.7837-0.0765 1.4596 0.0414 2.0355 0.50798 0.57597 0.46659 1.1523 1.3794 1.4273 3.2107 0.55214 3.6763 1.1059 7.5963 1.6257 11.346h2.1559c-0.53198-3.8406-1.1008-7.8732-1.6702-11.664-0.32581-2.1693-1.0922-3.6608-2.1932-4.5527-0.96338-0.78044-2.1059-1.0273-3.1481-1.0015z" color="#000000" fill="#666" style="-inkscape-stroke:none"/><path d="m544.47-168.13 4.1424-1.7443" fill="none" stroke="#963" stroke-linecap="round" stroke-width="3.5608"/><path d="m574.06-168.66c-0.19049-9e-3 -0.3945 5e-3 -0.59945 0.0207l-14.522 0.80615 3.546 12.709h9.5514c0.2548-0.16701 0.43502-0.35936 0.46405-0.55139 0.62524-4.137 2.5874-11.753 2.5874-11.753-4e-3 -0.97955-0.45585-1.2063-1.0273-1.232z" fill="#a68059"/><path d="m558.08-159.82s-0.90761 0.0639-2.0407 0.50229c-1.1331 0.43835-2.6166 1.2636-4.1134 2.7673-0.42013 0.42202-0.98115 0.91511-1.5973 1.4263h4.4793c0.89248-0.74063 1.7028-1.1578 2.3151-1.3948 0.78192-0.30251 1.1172-0.30489 1.1172-0.30489a1.5 1.5 0 0 0 1.418-1.5798 1.5 1.5 0 0 0-1.5782-1.4164z" color="#000000" fill="#9dac93" stroke-linecap="round" style="-inkscape-stroke:none"/><path d="m601.38-196.32c-0.8472-0.0165-7.9383 0.79076-7.9079 7.5673 0.0377 8.3938 7.3605 9.6619 7.3605 9.6619 3.6912 0.3598 5.3702 2.3732 7.3508 4.2622 2.3568 2.2477 3.4049 5.1102 3.4049 5.1102s0.37299-6.8283-1.0161-8.6486c-0.71521-0.93723-0.68771-0.65334-1.595-4.9166-0.49522-2.327-0.35033-3.7982-0.7938-6.4751s-2.1352-6.4706-6.8034-6.5612z" fill="#201401"/><g transform="translate(399.28 47.545)"><path d="m258.51-479.25c-3.5814 0.0331-7.2853 0.90824-10.595 2.8277-9.6288 5.584-14.527 15.877-10.941 22.99 3.586 7.1131 23.603 7.4573 33.232 1.8733 9.6288-5.584 7.4726-12.968 3.8866-20.081-2.3533-4.668-8.7448-7.6737-15.582-7.6104z" fill="url(#i)" style="paint-order:markers fill stroke"/></g></g><style type="text/css">
	.st0{fill-rule:evenodd;clip-rule:evenodd;fill:#388344;}
	.st1{fill-rule:evenodd;clip-rule:evenodd;fill:#1F1D21;}
</style><style type="text/css">
	.st0{fill-rule:evenodd;clip-rule:evenodd;fill:#388344;}
	.st1{fill-rule:evenodd;clip-rule:evenodd;fill:#1F1D21;}
</style></svg>
