<?xml version="1.0" encoding="UTF-8" standalone="no"?>
<!-- Created with Inkscape (http://www.inkscape.org/) -->

<svg
   width="353.2818mm"
   height="96.448242mm"
   viewBox="0 0 353.2818 96.448242"
   version="1.1"
   id="svg1"
   xml:space="preserve"
   xmlns:xlink="http://www.w3.org/1999/xlink"
   xmlns="http://www.w3.org/2000/svg"
   xmlns:svg="http://www.w3.org/2000/svg"><defs
     id="defs1"><linearGradient
       id="linearGradient114"><stop
         style="stop-color:#264898;stop-opacity:1;"
         offset="0"
         id="stop113" /><stop
         style="stop-color:#49a3ca;stop-opacity:1;"
         offset="1"
         id="stop114" /></linearGradient><linearGradient
       id="linearGradient111"><stop
         style="stop-color:#4fabce;stop-opacity:1;"
         offset="0"
         id="stop112" /><stop
         style="stop-color:#4fabce;stop-opacity:0;"
         offset="1"
         id="stop111" /></linearGradient><style
       id="style1">.cls-1{fill:#006d99;}.cls-2{fill:#59befe;}</style><radialGradient
       xlink:href="#linearGradient111"
       id="radialGradient217"
       gradientUnits="userSpaceOnUse"
       gradientTransform="matrix(1.675295,-0.0941243,0.11567754,0.85672154,644.54788,-378.23551)"
       cx="53.483738"
       cy="-483.66769"
       fx="53.483738"
       fy="-483.66769"
       r="176.64113"
       spreadMethod="pad" /><radialGradient
       xlink:href="#linearGradient114"
       id="radialGradient218"
       gradientUnits="userSpaceOnUse"
       gradientTransform="matrix(-2,-4.7005024e-8,3.386214e-8,-1.3181359,1135.7798,-2047.5047)"
       cx="104.41035"
       cy="-825.79846"
       fx="104.41035"
       fy="-825.79846"
       r="176.64113" /></defs><g
     id="layer1"
     transform="translate(-573.6771,958.99014)"><path
       id="path89"
       style="opacity:1;fill:url(#radialGradient218);fill-opacity:1;stroke:none;stroke-width:3.80631;stroke-linecap:round;stroke-linejoin:round;stroke-dasharray:none;stroke-opacity:1;paint-order:markers fill stroke"
       d="m 573.67713,-958.99018 v 96.44371 c 0,0 25.39902,1.21265 75.65481,-35.93364 25.9557,-19.18501 140.15698,-16.9554 170.15396,-8.7117 35.8159,9.84283 63.6816,15.53496 96.4954,9.12232 4.29729,-0.83981 7.90198,-1.68444 10.97762,-2.51957 v -58.40112 z" /><path
       id="path98"
       style="opacity:1;fill:url(#radialGradient217);fill-opacity:1;stroke:none;stroke-width:3.80631;stroke-linecap:round;stroke-linejoin:round;stroke-dasharray:none;stroke-opacity:1;paint-order:markers fill stroke"
       d="m 573.67713,-958.99018 v 96.44371 c 0,0 25.39902,1.21265 75.65481,-35.93364 25.9557,-19.18501 140.15698,-16.9554 170.15396,-8.7117 35.8159,9.84283 63.6816,15.53496 96.4954,9.12232 4.29729,-0.8398 7.90198,-1.68444 10.97762,-2.51957 v -58.40112 z" /><circle
       style="opacity:1;fill:#ffffff;fill-opacity:1;stroke:none;stroke-width:1.5;stroke-linecap:round;stroke-linejoin:round;stroke-dasharray:none;stroke-opacity:1;paint-order:markers fill stroke"
       id="circle98"
       cx="920.44269"
       cy="-954.45276"
       r="0.75" /><circle
       style="opacity:0.5;fill:#ffffff;fill-opacity:1;stroke:none;stroke-width:0.999997;stroke-linecap:round;stroke-linejoin:round;stroke-dasharray:none;stroke-opacity:1;paint-order:markers fill stroke"
       id="circle99"
       cx="881.58624"
       cy="-904.06598"
       r="0.5" /><circle
       style="opacity:0.5;fill:#ffffff;fill-opacity:1;stroke:none;stroke-width:2;stroke-linecap:round;stroke-linejoin:round;stroke-dasharray:none;stroke-opacity:1;paint-order:markers fill stroke"
       id="circle100"
       cx="857.96912"
       cy="-944.81683"
       r="1" /><circle
       style="opacity:0.7;fill:#ffffff;fill-opacity:1;stroke:none;stroke-width:2.5;stroke-linecap:round;stroke-linejoin:round;stroke-dasharray:none;stroke-opacity:1;paint-order:markers fill stroke"
       id="circle101"
       cx="915.54718"
       cy="-917.86084"
       r="1.25" /><circle
       style="opacity:0.9;fill:#ffffff;fill-opacity:1;stroke:none;stroke-width:0.999997;stroke-linecap:round;stroke-linejoin:round;stroke-dasharray:none;stroke-opacity:1;paint-order:markers fill stroke"
       id="circle102"
       cx="893.13281"
       cy="-955.70276"
       r="0.5" /><circle
       style="opacity:0.7;fill:#ffffff;fill-opacity:1;stroke:none;stroke-width:2.5;stroke-linecap:round;stroke-linejoin:round;stroke-dasharray:none;stroke-opacity:1;paint-order:markers fill stroke"
       id="circle103"
       cx="891.16473"
       cy="-935.90289"
       r="1.25" /><path
       style="opacity:0.5;fill:#ffffff;stroke:none;stroke-width:0.264583px;stroke-linecap:butt;stroke-linejoin:miter;stroke-opacity:1"
       d="m 757.84104,-925.93954 -42.99495,-1.72829 -17.97435,3.02915 z"
       id="path103" /><path
       style="opacity:0.5;fill:#ffffff;stroke:none;stroke-width:0.264583px;stroke-linecap:butt;stroke-linejoin:miter;stroke-opacity:1"
       d="m 708.96998,-921.07462 -10.18729,2.74999 -17.26652,-1.11831 z"
       id="path104" /><path
       style="opacity:0.5;fill:#ffffff;stroke:none;stroke-width:0.264583px;stroke-linecap:butt;stroke-linejoin:miter;stroke-opacity:1"
       d="m 683.31397,-925.51839 -15.12175,-3.0711 -14.22213,3.14322 z"
       id="path105" /><path
       style="opacity:0.5;fill:#ffffff;stroke:none;stroke-width:0.264583px;stroke-linecap:butt;stroke-linejoin:miter;stroke-opacity:1"
       d="m 669.31398,-919.69962 -24.62834,-3.17812 -15.21748,4.55311 z"
       id="path106" /><g
       id="g117"
       transform="matrix(0.5789401,0,0,0.5789401,603.76693,-517.39989)"><path
         style="opacity:1;fill:#cccccc;stroke:#cccccc;stroke-width:0.264583px;stroke-linecap:butt;stroke-linejoin:miter;stroke-opacity:1"
         d="m -30.91956,-660.13411 -1.366583,-25.37685 6.196618,-24.60091 9.52458,-11.20589 9.7278302,14.41381 -6.5117472,6.30237 z"
         id="path107" /><path
         style="opacity:1;fill:#cccccc;stroke:#cccccc;stroke-width:0.264583px;stroke-linecap:butt;stroke-linejoin:miter;stroke-opacity:1"
         d="m -13.488227,-724.28266 5.0911945,-8.8792 23.7548805,-10.52103 29.617796,-1.49309 -22.225128,12.25489 -20.7305166,18.87201 z"
         id="path108" /><path
         style="opacity:1;fill:#4d4d4d;stroke:none;stroke-width:0.264583px;stroke-linecap:butt;stroke-linejoin:miter;stroke-opacity:1"
         d="m -19.93646,-717.35108 -9.33333,-11.08747 5.928127,-1.89973 10.563304,4.81761 14.7983584,11.47159 33.1320916,26.01944 -13.864566,-6.57992 9.58745,9.8225 -37.7120898,-22.11689 z"
         id="path109" /><path
         style="fill:#333333;stroke:none;stroke-width:0.264583px;stroke-linecap:butt;stroke-linejoin:miter;stroke-opacity:1"
         d="m -23.341663,-730.33828 3.405203,12.9872 -9.33333,-11.08747 z"
         id="path110" /><path
         style="fill:#333333;stroke:none;stroke-width:0.264583px;stroke-linecap:butt;stroke-linejoin:miter;stroke-opacity:1"
         d="m 21.287525,-694.60956 -8.792723,-11.21338 22.657289,17.7933 z"
         id="path111" /><path
         style="fill:#333333;stroke:none;stroke-width:0.264583px;stroke-linecap:butt;stroke-linejoin:miter;stroke-opacity:1"
         d="m 30.874975,-684.78706 -23.6410218,-13.86467 14.0535718,4.04217 z"
         id="path112" /><path
         style="fill:#e6e6e6;stroke:none;stroke-width:0.264583px;stroke-linecap:butt;stroke-linejoin:miter;stroke-opacity:1"
         d="m -32.286143,-685.51096 18.937281,-15.09062 -17.570698,40.46747 z"
         id="path113" /><path
         style="fill:#e6e6e6;stroke:none;stroke-width:0.264583px;stroke-linecap:butt;stroke-linejoin:miter;stroke-opacity:1"
         d="m -26.089525,-710.11187 19.2524102,3.20792 -13.0993452,-10.44713 z"
         id="path114" /><path
         style="fill:#e6e6e6;stroke:none;stroke-width:0.264583px;stroke-linecap:butt;stroke-linejoin:miter;stroke-opacity:1"
         d="m -12.778359,-725.52067 4.3813265,-7.64119 10.4170319,19.11278 z"
         id="path116" /><path
         style="fill:#e6e6e6;stroke:none;stroke-width:0.264583px;stroke-linecap:butt;stroke-linejoin:miter;stroke-opacity:1"
         d="m 15.357848,-743.68289 7.392668,10.7618 22.225128,-12.25489 z"
         id="path117" /></g><g
       id="g217"
       transform="translate(0,-164.01261)"><path
         style="fill:#cccccc;stroke:none;stroke-width:0.410306px;stroke-linecap:butt;stroke-linejoin:miter;stroke-opacity:1"
         d="m 594.22312,-706.72159 10.27757,-6.42825 -2.88621,7.15821 z"
         id="path118" /><path
         style="fill:#e6e6e6;stroke:none;stroke-width:0.410306px;stroke-linecap:butt;stroke-linejoin:miter;stroke-opacity:1"
         d="m 604.50069,-713.14984 2.78184,4.53056 10.81656,-6.39545 z"
         id="path133" /><path
         style="fill:#999999;stroke:none;stroke-width:0.410306px;stroke-linecap:butt;stroke-linejoin:miter;stroke-opacity:1"
         d="m 607.28253,-708.61928 9.29545,-2.55513 1.52111,-3.84032 z"
         id="path158" /><path
         style="fill:#999999;stroke:none;stroke-width:0.410306px;stroke-linecap:butt;stroke-linejoin:miter;stroke-opacity:1"
         d="m 638.45774,-721.8541 -1.46712,-2.14221 1.85027,1.97299 z"
         id="path159" /><path
         style="fill:#cccccc;stroke:none;stroke-width:0.410306px;stroke-linecap:butt;stroke-linejoin:miter;stroke-opacity:1"
         d="m 639.74793,-720.83833 1.10525,-2.6403 -4.66013,3.14943 z"
         id="path160" /><g
         id="g162"
         transform="matrix(1.3860121,-0.69559104,0.69559104,1.3860121,1149.3823,290.58318)"><path
           style="fill:#008000;stroke:none;stroke-width:0.264583px;stroke-linecap:butt;stroke-linejoin:miter;stroke-opacity:1"
           d="m 0.21366691,-731.53273 -0.5866,-1.18205 1.059214,-1.23777 z"
           id="path161" /><path
           style="fill:#71c837;stroke:none;stroke-width:0.264583px;stroke-linecap:butt;stroke-linejoin:miter;stroke-opacity:1"
           d="m 0.21366691,-731.53275 0.92119699,-0.93046 -0.44858299,-1.48934 z"
           id="path162" /></g><path
         style="fill:#b3b3b3;stroke:none;stroke-width:0.410306px;stroke-linecap:butt;stroke-linejoin:miter;stroke-opacity:1"
         d="m 629.84212,-715.3449 -11.74303,0.33017 c 0,0 -1.52113,3.84032 -1.52111,3.84032 z"
         id="path200" /><path
         style="fill:#999999;stroke:none;stroke-width:0.410306px;stroke-linecap:butt;stroke-linejoin:miter;stroke-opacity:1"
         d="m 618.09909,-715.01473 20.22051,-4.05731 -8.47748,3.72714 z"
         id="path202" /><path
         style="fill:#999999;stroke:none;stroke-width:0.410306px;stroke-linecap:butt;stroke-linejoin:miter;stroke-opacity:1"
         d="m 574.1719,-701.24036 30.32879,-11.90948 -10.27757,6.42828 z"
         id="path203" /><path
         style="fill:#b3b3b3;stroke:none;stroke-width:0.410306px;stroke-linecap:butt;stroke-linejoin:miter;stroke-opacity:1"
         d="m 574.1719,-701.24036 7.4519,-8.94973 22.87689,-2.95975 z"
         id="path204" /><path
         id="path205"
         style="fill:#b3b3b3;stroke:none;stroke-width:0.410306px;stroke-linecap:butt;stroke-linejoin:miter;stroke-opacity:1"
         d="m 581.62393,-710.19024 -7.9468,3.61786 v 3.24787 z" /><path
         id="path206"
         style="fill:#cccccc;stroke:none;stroke-width:0.410306px;stroke-linecap:butt;stroke-linejoin:miter;stroke-opacity:1"
         d="m 581.62393,-710.19024 -7.9468,6.86573 v 2.39727 l 0.49454,-0.31316 z" /><path
         style="fill:#999999;stroke:none;stroke-width:0.410306px;stroke-linecap:butt;stroke-linejoin:miter;stroke-opacity:1"
         d="m 601.61448,-705.99163 5.66805,-2.62765 -2.81912,-4.50722 z"
         id="path207" /><path
         style="fill:#e6e6e6;stroke:none;stroke-width:0.410306px;stroke-linecap:butt;stroke-linejoin:miter;stroke-opacity:1"
         d="m 618.09909,-715.01473 18.09396,-5.31445 3.55488,-0.50915 -1.42833,1.76629 z"
         id="path208" /><g
         id="g210"
         transform="matrix(1.022438,1.1659747,-1.1659747,1.022438,-212.33631,24.219015)"><path
           style="fill:#008000;stroke:none;stroke-width:0.264583px;stroke-linecap:butt;stroke-linejoin:miter;stroke-opacity:1"
           d="m 0.21366691,-731.53273 -0.5866,-1.18205 1.059214,-1.23777 z"
           id="path209" /><path
           style="fill:#71c837;stroke:none;stroke-width:0.264583px;stroke-linecap:butt;stroke-linejoin:miter;stroke-opacity:1"
           d="m 0.21366691,-731.53275 0.92119699,-0.93046 -0.44858299,-1.48934 z"
           id="path210" /></g><g
         id="g212"
         transform="matrix(1.3860121,-0.69559104,0.69559104,1.3860121,1145.5421,290.0655)"><path
           style="fill:#008000;stroke:none;stroke-width:0.264583px;stroke-linecap:butt;stroke-linejoin:miter;stroke-opacity:1"
           d="m 0.21366691,-731.53273 -0.5866,-1.18205 1.059214,-1.23777 z"
           id="path211" /><path
           style="fill:#71c837;stroke:none;stroke-width:0.264583px;stroke-linecap:butt;stroke-linejoin:miter;stroke-opacity:1"
           d="m 0.21366691,-731.53275 0.92119699,-0.93046 -0.44858299,-1.48934 z"
           id="path212" /></g><g
         id="g214"
         transform="matrix(0.32190993,-1.5169872,-1.5169872,-0.32190993,-476.00702,-958.288)"><path
           style="fill:#008000;stroke:none;stroke-width:0.264583px;stroke-linecap:butt;stroke-linejoin:miter;stroke-opacity:1"
           d="m 0.21366691,-731.53273 -0.5866,-1.18205 1.059214,-1.23777 z"
           id="path213" /><path
           style="fill:#71c837;stroke:none;stroke-width:0.264583px;stroke-linecap:butt;stroke-linejoin:miter;stroke-opacity:1"
           d="m 0.21366691,-731.53275 0.92119699,-0.93046 -0.44858299,-1.48934 z"
           id="path214" /></g><g
         id="g216"
         transform="matrix(1.3860121,-0.69559104,0.69559104,1.3860121,1111.1941,311.75283)"><path
           style="fill:#008000;stroke:none;stroke-width:0.264583px;stroke-linecap:butt;stroke-linejoin:miter;stroke-opacity:1"
           d="m 0.21366691,-731.53273 -0.5866,-1.18205 1.059214,-1.23777 z"
           id="path215" /><path
           style="fill:#71c837;stroke:none;stroke-width:0.264583px;stroke-linecap:butt;stroke-linejoin:miter;stroke-opacity:1"
           d="m 0.21366691,-731.53275 0.92119699,-0.93046 -0.44858299,-1.48934 z"
           id="path216" /></g></g></g><style
     type="text/css"
     id="style3760">
	.st0{fill-rule:evenodd;clip-rule:evenodd;fill:#388344;}
	.st1{fill-rule:evenodd;clip-rule:evenodd;fill:#1F1D21;}
</style><style
     type="text/css"
     id="style3760-5">
	.st0{fill-rule:evenodd;clip-rule:evenodd;fill:#388344;}
	.st1{fill-rule:evenodd;clip-rule:evenodd;fill:#1F1D21;}
</style></svg>
