<?xml version="1.0" encoding="UTF-8" standalone="no"?>
<!-- Created with Inkscape (http://www.inkscape.org/) -->

<svg
   width="461.66748mm"
   height="185.23907mm"
   viewBox="0 0 461.66748 185.23907"
   version="1.1"
   id="svg5"
   xml:space="preserve"
   xmlns="http://www.w3.org/2000/svg"
   xmlns:svg="http://www.w3.org/2000/svg"><defs
     id="defs2" /><g
     id="layer1"
     transform="translate(-1987.2891,-1014.597)"><g
       id="g4004"
       transform="matrix(3.2554777,0,0,3.2554777,1922.7078,1025.5863)"><rect
         style="fill:#aa0000;stroke:none;stroke-width:2;stroke-dasharray:16, 4, 2, 4"
         id="rect3980"
         width="2.886857"
         height="48.489044"
         x="48.254776"
         y="0.25404915" /><rect
         style="fill:#aa0000;stroke:none;stroke-width:2;stroke-dasharray:16, 4, 2, 4"
         id="rect3982"
         width="2.886857"
         height="48.489044"
         x="106.82462"
         y="0.25404915" /><g
         id="g3992"
         transform="translate(57.632531,-109.10025)"><rect
           style="fill:#000080;stroke:none;stroke-width:2;stroke-dasharray:16, 4, 2, 4"
           id="rect3984"
           width="18.294416"
           height="3.5147078"
           x="19.367216"
           y="134.45248" /><rect
           style="fill:#000080;stroke:none;stroke-width:2;stroke-dasharray:16, 4, 2, 4"
           id="rect3986"
           width="18.294416"
           height="3.5147078"
           x="1.110223e-16"
           y="134.45248" /><rect
           style="fill:#000080;stroke:none;stroke-width:2;stroke-dasharray:16, 4, 2, 4"
           id="rect3988"
           width="18.294416"
           height="3.5147078"
           x="38.734432"
           y="134.45248" /><rect
           style="fill:#000080;stroke:none;stroke-width:2;stroke-dasharray:16, 4, 2, 4"
           id="rect3990"
           width="18.294416"
           height="3.5147078"
           x="58.10165"
           y="134.45248" /></g><path
         style="fill:none;stroke:#aa0000;stroke-width:1;stroke-dasharray:none"
         d="m 51.141631,0.254049 c 19.216764,34.137501 37.707332,30.471326 55.682979,0"
         id="path3994" /><path
         style="fill:none;stroke:#aa0000;stroke-width:1;stroke-dasharray:none"
         d="M 20.416858,24.498571 H 137.53438"
         id="path3996" /><path
         style="fill:none;stroke:#aa0000;stroke-width:1;stroke-dasharray:none"
         d="M 20.416858,28.86694 H 137.53438"
         id="path3998" /><path
         id="path4000"
         style="fill:none;stroke:#aa0000;stroke-width:1;stroke-dasharray:none"
         d="M 20.410938,24.498691 C 29.843816,24.309238 39.115789,15.745977 48.254716,0.254176 M 19.845597,24.498691 c 0.178816,0.0028 0.357702,0.0033 0.536402,0 z" /><path
         id="path4002"
         style="fill:none;stroke:#aa0000;stroke-width:1;stroke-dasharray:none"
         d="M 137.5553,24.499005 C 128.12242,24.309552 118.85045,15.746291 109.71152,0.25449 m 28.40912,24.244515 c -0.17881,0.0028 -0.3577,0.0033 -0.5364,0 z" /></g><g
       id="g360239"
       transform="matrix(1.2666923,0,0,1.2666923,620.83242,862.53598)"><g
         id="g2448"
         transform="translate(19.455693,-83.907474)"><path
           id="path1873"
           style="fill:#b3b3b3;stroke:#4d4d4d;stroke-width:0.789458"
           d="m 1347.4921,316.92009 -8.1975,32.83331 -6.6217,0.0404 8.1743,-32.8737 z" /><path
           id="path5229"
           style="fill:#b3b3b3;stroke:#4d4d4d;stroke-width:0.789458"
           d="m 1401.6099,316.92009 8.1975,32.83331 6.6217,0.0404 -8.1743,-32.8737 z" /><rect
           style="fill:#4d4d4d;fill-opacity:1;stroke:#808080;stroke-width:1;stroke-linecap:butt;stroke-linejoin:miter;stroke-dasharray:none;stroke-opacity:1;paint-order:fill markers stroke"
           id="rect340964-0"
           width="5.6863985"
           height="19.291151"
           x="1406.941"
           y="319.44592"
           ry="2.4173601" /><rect
           style="fill:#4d4d4d;fill-opacity:1;stroke:#808080;stroke-width:1;stroke-linecap:butt;stroke-linejoin:miter;stroke-dasharray:none;stroke-opacity:1;paint-order:fill markers stroke"
           id="rect341008-3"
           width="5.6863985"
           height="19.291151"
           x="1336.459"
           y="319.44592"
           ry="2.4173601" /><path
           id="path340966-0"
           style="fill:#ffffff;stroke:#4d4d4d;stroke-width:0.764984;stroke-linecap:square;stroke-dasharray:none;paint-order:normal"
           class="UnoptimicedTransforms"
           d="m 409.8425,-47.098265 c -18.23022,0.02528 -37.56047,4.418214 -41.71314,15.07303 l -2.36732,10.569521 0.0287,82.66566 c -0.25253,7.369944 3.25085,8.107149 8.33159,9.197538 l 37.48069,-0.01917 37.48031,0.01917 c 5.08074,-1.090389 8.58412,-1.827594 8.33159,-9.197538 l 0.0287,-82.66566 -2.36732,-10.569521 c -4.28662,-10.99852 -24.74577,-15.324746 -43.47331,-15.062015 -0.58523,-0.0082 -1.17248,-0.01183 -1.76055,-0.01102 z"
           transform="matrix(1.065007,0,0,1,936.18312,255.04928)" /><rect
           style="fill:#666666;fill-opacity:1;stroke:none;stroke-width:1;stroke-linecap:butt;stroke-linejoin:miter;stroke-dasharray:none;stroke-opacity:1;paint-order:fill markers stroke"
           id="rect341998-4"
           width="48.495144"
           height="28.304449"
           x="1350.2957"
           y="297.13315"
           ry="2.4173601" /><path
           id="path340968-4"
           style="fill:#4d4d4d;stroke:#4d4d4d;stroke-width:12.4033;paint-order:fill markers stroke"
           d="m 365.75811,-38.984591 c 1.12159,-4.474187 27.11721,-10.86161 45.84477,-10.598879 v 83.281307 c -20.1412,-0.02504 -45.88744,-1.328563 -45.81593,-8.898237 z m 91.68954,0 c -1.12159,-4.474187 -27.11721,-10.86161 -45.84477,-10.598879 v 83.281307 c 20.1412,-0.02504 45.88744,-1.328563 45.81593,-8.898237 z"
           class="UnoptimicedTransforms"
           transform="matrix(0.78032442,0,0,0.84955453,1053.3594,251.35263)" /><rect
           style="opacity:0.97;fill:#808080;fill-opacity:1;stroke:#000000;stroke-width:1;stroke-linecap:butt;stroke-linejoin:miter;stroke-dasharray:none;stroke-opacity:1;paint-order:fill markers stroke"
           id="rect340972-4"
           width="72.130562"
           height="28.773445"
           x="1338.4779"
           y="241.76031" /><rect
           style="opacity:0.68;fill:#808080;fill-opacity:1;stroke:#999999;stroke-width:1;stroke-linecap:butt;stroke-linejoin:miter;stroke-dasharray:none;stroke-opacity:1;paint-order:fill markers stroke"
           id="rect340978-6"
           width="22.211941"
           height="10.005433"
           x="1340.6064"
           y="285.75598"
           ry="3.4688358" /><ellipse
           style="opacity:0.68;fill:#ffcc00;fill-opacity:1;stroke:#cccccc;stroke-width:0.394729;stroke-linecap:butt;stroke-linejoin:miter;stroke-dasharray:none;stroke-opacity:1;paint-order:fill markers stroke"
           id="ellipse340980-3"
           cx="1346.2697"
           cy="290.7587"
           rx="2.8184719"
           ry="2.8902509" /><ellipse
           style="opacity:0.68;fill:#ff0000;fill-opacity:1;stroke:#cccccc;stroke-width:0.394729;stroke-linecap:butt;stroke-linejoin:miter;stroke-dasharray:none;stroke-opacity:1;paint-order:fill markers stroke"
           id="ellipse340982-1"
           cx="1352.5653"
           cy="291.21335"
           rx="2.5155723"
           ry="2.4150488" /><ellipse
           style="opacity:0.68;fill:#ff6600;fill-opacity:1;stroke:#cccccc;stroke-width:0.394729;stroke-linecap:butt;stroke-linejoin:miter;stroke-dasharray:none;stroke-opacity:1;paint-order:fill markers stroke"
           id="ellipse340984-7"
           cx="1358.5712"
           cy="291.21335"
           rx="2.5155723"
           ry="2.4150488" /><rect
           style="opacity:0.68;fill:#808080;fill-opacity:1;stroke:#b3b3b3;stroke-width:1;stroke-linecap:butt;stroke-linejoin:miter;stroke-dasharray:none;stroke-opacity:1;paint-order:fill markers stroke"
           id="rect340988-9"
           width="22.211941"
           height="10.005433"
           x="-1408.4797"
           y="285.75598"
           ry="3.4688358"
           transform="scale(-1,1)" /><ellipse
           style="opacity:0.68;fill:#ffcc00;fill-opacity:1;stroke:#cccccc;stroke-width:0.394729;stroke-linecap:butt;stroke-linejoin:miter;stroke-dasharray:none;stroke-opacity:1;paint-order:fill markers stroke"
           id="ellipse340990-6"
           cx="-1402.8167"
           cy="290.7587"
           rx="2.8184719"
           ry="2.8902509"
           transform="scale(-1,1)" /><ellipse
           style="opacity:0.68;fill:#ff0000;fill-opacity:1;stroke:#cccccc;stroke-width:0.394729;stroke-linecap:butt;stroke-linejoin:miter;stroke-dasharray:none;stroke-opacity:1;paint-order:fill markers stroke"
           id="ellipse340992-2"
           cx="-1396.5209"
           cy="291.21335"
           rx="2.5155723"
           ry="2.4150488"
           transform="scale(-1,1)" /><ellipse
           style="opacity:0.68;fill:#ff6600;fill-opacity:1;stroke:#cccccc;stroke-width:0.394729;stroke-linecap:butt;stroke-linejoin:miter;stroke-dasharray:none;stroke-opacity:1;paint-order:fill markers stroke"
           id="ellipse340994-1"
           cx="-1390.5151"
           cy="291.21335"
           rx="2.5155723"
           ry="2.4150488"
           transform="scale(-1,1)" /><rect
           style="opacity:0.68;fill:#4d4d4d;fill-opacity:1;stroke:#333333;stroke-width:1.29931;stroke-linecap:butt;stroke-linejoin:miter;stroke-dasharray:none;stroke-opacity:1;paint-order:fill markers stroke"
           id="rect340998-7"
           width="19.834955"
           height="13.289149"
           x="1364.6257"
           y="306.40353"
           ry="4.9854054" /><path
           style="opacity:0.68;fill:#4d4d4d;fill-opacity:1;stroke:#808080;stroke-width:1;stroke-linecap:butt;stroke-linejoin:miter;stroke-dasharray:none;stroke-opacity:1;paint-order:fill markers stroke"
           d="m 1334.9421,223.94595 c 28.211,-2.20602 54.275,-1.79416 79.2052,0 z"
           id="path341944-8" /><rect
           style="fill:#333333;fill-opacity:1;stroke:#565656;stroke-width:1;stroke-linecap:butt;stroke-linejoin:miter;stroke-dasharray:none;stroke-opacity:1;paint-order:fill markers stroke"
           id="rect342790-5"
           width="51.209015"
           height="7.1104865"
           x="1348.9387"
           y="233.06235"
           ry="1.1778303" /></g></g></g><style
     type="text/css"
     id="style3760">
	.st0{fill-rule:evenodd;clip-rule:evenodd;fill:#388344;}
	.st1{fill-rule:evenodd;clip-rule:evenodd;fill:#1F1D21;}
</style></svg>
