<?xml version="1.0" encoding="UTF-8" standalone="no"?>
<!-- Created with Inkscape (http://www.inkscape.org/) -->

<svg
   width="590.19983mm"
   height="195.97827mm"
   viewBox="0 0 590.19983 195.97827"
   version="1.1"
   id="svg5"
   inkscape:version="1.2 (dc2aedaf03, 2022-05-15)"
   sodipodi:docname="transportes.svg.2022_07_08_01_54_01.1.svg"
   xml:space="preserve"
   xmlns:inkscape="http://www.inkscape.org/namespaces/inkscape"
   xmlns:sodipodi="http://sodipodi.sourceforge.net/DTD/sodipodi-0.dtd"
   xmlns="http://www.w3.org/2000/svg"
   xmlns:svg="http://www.w3.org/2000/svg"><sodipodi:namedview
     id="namedview7"
     pagecolor="#ffffff"
     bordercolor="#000000"
     borderopacity="0.25"
     inkscape:showpageshadow="2"
     inkscape:pageopacity="0.0"
     inkscape:pagecheckerboard="0"
     inkscape:deskcolor="#d1d1d1"
     inkscape:document-units="mm"
     showgrid="false"
     inkscape:zoom="0.79350089"
     inkscape:cx="-451.16521"
     inkscape:cy="350.34617"
     inkscape:window-width="1920"
     inkscape:window-height="1011"
     inkscape:window-x="0"
     inkscape:window-y="32"
     inkscape:window-maximized="1"
     inkscape:current-layer="layer1" /><defs
     id="defs2" /><g
     inkscape:label="Layer 1"
     inkscape:groupmode="layer"
     id="layer1"
     transform="translate(-1033.4542,-964.11826)"><g
       id="g3940"
       transform="matrix(1.4545263,0,0,1.4545263,-528.26256,490.03345)"><path
         style="fill:#ffffff;stroke:#999999;stroke-width:0.5;stroke-dasharray:none;paint-order:fill markers stroke"
         d="m 1479.055,429.54012 -17.1849,-9.9217 -113.5476,-6.67265 h -102.5007 l -12.4273,-5.50428 h -56.2975 l -49.1515,9.19876 9.9276,2.76512 v 10.40574 h -9.744 v 4.15632 l 331.4954,15.00321 z"
         id="path3864"
         sodipodi:nodetypes="ccccccccccccc" /><path
         style="fill:#1b0d7f;fill-opacity:1;stroke-width:5.65278;paint-order:fill markers stroke"
         d="m 1074.5328,448.97064 h 385.0917 l 19.4305,-19.43052 -129.5868,4.42731 h -263.4715 l -9.4934,5.48099 z"
         id="path3866" /><path
         style="fill:#ffffff;stroke:#999999;stroke-width:0.5;stroke-dasharray:none;paint-order:fill markers stroke"
         d="m 1161.0312,380.58305 h 14.0809 l 22.8161,8.61484 56.7028,2.00136 84.7054,8.59533 55.6519,11.3215 -4.4067,1.18081 v 3.1322 l -42.2591,-2.48332 h -102.5007 l -12.4273,-5.50428 h -56.2975 l -3.3943,0.63526 v -10.11746 h -8.4922 v -3.2175 h 8.6423 l 6.0489,-2.22606 z"
         id="path3868" /><path
         style="fill:#ffffff;stroke-width:5.65278;paint-order:fill markers stroke"
         d="m 1254.631,391.19925 20.7074,-6.68379 15.158,-2.87472 h 16.7847 l 6.6166,2.87817 -4.4472,1.56712 h -16.3011 l -23.3207,2.92661 v 2.09385 l 59.3488,2.80197 10.2147,5.89748 z"
         id="path3870" /><path
         style="fill:#ffffff;stroke:#999999;stroke-width:0.5;stroke-dasharray:none;paint-order:fill markers stroke"
         d="m 1074.5328,448.97064 8.1334,5.32418 c 114.3486,7.3373 238.5195,7.61768 364.2084,3.32411 l 12.7499,-8.64829 z"
         id="path3872"
         sodipodi:nodetypes="ccccc" /><path
         style="fill:#808080;stroke-width:5.65278;paint-order:fill markers stroke"
         d="m 1269.8287,391.10649 v -2.09385 l 23.3207,-2.92661 h 16.3011 l 4.4472,-1.56712 15.2798,9.38955 z"
         id="path3874" /><path
         style="fill:#808080;stroke-width:5.65278;paint-order:fill markers stroke"
         d="m 1137.8731,419.40537 v 10.40574 h 198.1666 l 42.818,-1.60166 v -7.5356 l -41.6013,-1.26848 z"
         id="path3876"
         sodipodi:nodetypes="ccccccc" /><path
         style="fill:#808080;stroke-width:5.65278;paint-order:fill markers stroke"
         d="m 1233.3945,407.44149 h 54.7839 l 72.9498,2.21951 -0.034,-2.3753 -27.9253,-5.03708 -43.3346,-4.28933 h -116.1298 v 10.11746 l 3.3944,-0.63526 z"
         id="path3878"
         sodipodi:nodetypes="cccccccccc" /><path
         style="fill:#808080;stroke-width:5.65278;paint-order:fill markers stroke"
         d="m 1275.3384,384.51546 v -11.95087 l 1.8956,-2.68535 V 325.9376 h 1.1954 v 46.56221 h 7.6844 v -1.7704 h -5.5658 v -1.96377 h 17.8736 v 1.83817 h -6.8115 v 3.51235 h -4.302 v 4.14795 h -2.4847 v 4.45253 l -1.906,0.36177 z"
         id="path3880" /><path
         style="fill:#ffffff;stroke:#cccccc;stroke-width:0.5;stroke-dasharray:none;paint-order:fill markers stroke"
         d="m 1228.7319,433.96743 v -18.54501 h 16.0843 v 18.54501 z"
         id="path3882" /><path
         style="fill:#ffffff;stroke:#cccccc;stroke-width:0.5;stroke-dasharray:none;paint-order:fill markers stroke"
         d="m 1306.3669,433.96743 v -18.54501 h 16.0844 v 18.54501 z"
         id="path3884" /><path
         style="fill:#ffffff;stroke:#cccccc;stroke-width:0.5;stroke-dasharray:none;paint-order:fill markers stroke"
         d="m 1228.7319,415.42242 h -9.4604 v 18.54501 h 9.4604 z"
         id="path3886" /><path
         style="fill:#ffffff;stroke:#cccccc;stroke-width:0.5;stroke-dasharray:none;paint-order:fill markers stroke"
         d="m 1331.9117,415.42242 h -9.4604 v 18.54501 h 9.4604 z"
         id="path3888" /><path
         style="fill:#b3b3b3;stroke:#808080;stroke-width:1;stroke-dasharray:none;paint-order:fill markers stroke"
         d="m 1391.2152,432.54112 v -12.20819 l 30.3227,1.42348 11.0522,9.37118 z"
         id="path3890" /><rect
         style="fill:#aaeeff;stroke:none;stroke-width:5.10744;paint-order:fill markers stroke"
         id="rect3892"
         width="9.8988733"
         height="6.294867"
         x="1186.8079"
         y="399.25388"
         ry="0" /><rect
         style="fill:#aaeeff;stroke:none;stroke-width:5.10744;paint-order:fill markers stroke"
         id="rect3894"
         width="9.8988733"
         height="6.294867"
         x="1197.6891"
         y="399.25388"
         ry="0" /><rect
         style="fill:#aaeeff;stroke:none;stroke-width:5.10744;paint-order:fill markers stroke"
         id="rect3896"
         width="9.8988733"
         height="6.294867"
         x="1208.5702"
         y="399.25388"
         ry="0" /><rect
         style="fill:#aaeeff;stroke:none;stroke-width:5.10744;paint-order:fill markers stroke"
         id="rect3898"
         width="9.8988733"
         height="6.294867"
         x="1219.4512"
         y="399.25388"
         ry="0" /><rect
         style="fill:#aaeeff;stroke:none;stroke-width:5.10744;paint-order:fill markers stroke"
         id="rect3900"
         width="9.8988733"
         height="6.294867"
         x="1230.3324"
         y="399.25388"
         ry="0" /><rect
         style="fill:#aaeeff;stroke:none;stroke-width:5.10744;paint-order:fill markers stroke"
         id="rect3902"
         width="9.8988733"
         height="6.294867"
         x="1241.2136"
         y="399.25388"
         ry="0" /><rect
         style="fill:#aaeeff;stroke:none;stroke-width:5.10744;paint-order:fill markers stroke"
         id="rect3904"
         width="9.8988733"
         height="6.294867"
         x="1252.0946"
         y="399.25388"
         ry="0" /><rect
         style="fill:#aaeeff;stroke:none;stroke-width:5.10744;paint-order:fill markers stroke"
         id="rect3906"
         width="9.8988733"
         height="6.294867"
         x="1262.9758"
         y="399.25388"
         ry="0" /><rect
         style="fill:#aaeeff;stroke:none;stroke-width:5.10744;paint-order:fill markers stroke"
         id="rect3908"
         width="9.8988733"
         height="6.294867"
         x="1273.8569"
         y="399.25388"
         ry="0" /><path
         style="fill:#aaeeff;stroke:none;stroke-width:5.65278;paint-order:fill markers stroke"
         d="m 1296.2515,387.46576 h 14.3849 l 4.6803,-2.07479 11.4989,7.06608 -29.804,-1.73371 z"
         id="path3910" /><rect
         style="fill:#aaeeff;stroke:none;stroke-width:4.81876;paint-order:fill markers stroke"
         id="rect3912"
         width="8.0219393"
         height="6.9144449"
         x="1187.3944"
         y="421.43259"
         ry="0" /><rect
         style="fill:#aaeeff;stroke:none;stroke-width:4.81876;paint-order:fill markers stroke"
         id="rect3914"
         width="8.0219393"
         height="6.9144449"
         x="1197.8601"
         y="421.43259"
         ry="0" /><rect
         style="fill:#aaeeff;stroke:none;stroke-width:4.81876;paint-order:fill markers stroke"
         id="rect3916"
         width="8.0219393"
         height="6.9144449"
         x="1208.3258"
         y="421.43259"
         ry="0" /><rect
         style="fill:#aaeeff;stroke:none;stroke-width:4.81876;paint-order:fill markers stroke"
         id="rect3918"
         width="8.0219393"
         height="6.9144449"
         x="1253.2361"
         y="421.43259"
         ry="0" /><rect
         style="fill:#aaeeff;stroke:none;stroke-width:4.81876;paint-order:fill markers stroke"
         id="rect3920"
         width="8.0219393"
         height="6.9144449"
         x="1263.7017"
         y="421.43259"
         ry="0" /><rect
         style="fill:#aaeeff;stroke:none;stroke-width:4.81876;paint-order:fill markers stroke"
         id="rect3922"
         width="8.0219393"
         height="6.9144449"
         x="1274.1675"
         y="421.43259"
         ry="0" /><rect
         style="fill:#aaeeff;stroke:none;stroke-width:4.81876;paint-order:fill markers stroke"
         id="rect3924"
         width="8.0219393"
         height="6.9144449"
         x="1284.6331"
         y="421.43259"
         ry="0" /><rect
         style="fill:#aaeeff;stroke:none;stroke-width:4.81876;paint-order:fill markers stroke"
         id="rect3926"
         width="8.0219393"
         height="6.9144449"
         x="1295.0989"
         y="421.43259"
         ry="0" /><rect
         style="fill:#aaeeff;stroke:none;stroke-width:4.81876;paint-order:fill markers stroke"
         id="rect3928"
         width="8.0219393"
         height="6.9144449"
         x="1339.7948"
         y="421.43259"
         ry="0" /><rect
         style="fill:#aaeeff;stroke:none;stroke-width:4.62935;paint-order:fill markers stroke"
         id="rect3930"
         width="8.0219393"
         height="6.381546"
         x="1350.2604"
         y="421.64096"
         ry="0" /><rect
         style="fill:#aaeeff;stroke:none;stroke-width:4.558;paint-order:fill markers stroke"
         id="rect3932"
         width="8.0219393"
         height="6.1863685"
         x="1360.7262"
         y="421.71817"
         ry="0" /><path
         style="fill:#ff6600;stroke:none;stroke-width:5.65278;paint-order:fill markers stroke"
         d="m 1171.6018,383.0138 4.444,0.21707 c 0,0 14.0511,6.99328 21.2738,9.3805 1.1656,0.38552 2.3888,0.66058 3.6158,0.69948 l 68.9244,2.18677 c 0,0 -48.8382,0.57263 -69.5988,-0.62926 -1.7982,-0.10402 -3.6407,-0.0865 -5.372,-0.58348 -8.2892,-2.37892 -23.2872,-11.27108 -23.2872,-11.27108 z"
         id="path3934"
         sodipodi:nodetypes="ccsscssc" /><path
         style="opacity:0.8;fill:#808080;fill-opacity:1;stroke:none;stroke-width:0.499999;stroke-linecap:butt;stroke-linejoin:miter;stroke-dasharray:none;stroke-opacity:1;paint-order:fill markers stroke"
         d="m 1219.2715,419.40537 h 25.5447 v 10.40574 h -25.5447 z"
         id="path3936" /><path
         style="opacity:0.8;fill:#808080;fill-opacity:1;stroke:none;stroke-width:0.499999;stroke-linecap:butt;stroke-linejoin:miter;stroke-dasharray:none;stroke-opacity:1;paint-order:fill markers stroke"
         d="m 1306.3669,419.40537 h 25.5448 v 10.40574 h -25.5448 z"
         id="path3938" /></g></g><style
     type="text/css"
     id="style3760">
	.st0{fill-rule:evenodd;clip-rule:evenodd;fill:#388344;}
	.st1{fill-rule:evenodd;clip-rule:evenodd;fill:#1F1D21;}
</style></svg>
