<?xml version="1.0" encoding="UTF-8" standalone="no"?>
<!-- Created with Inkscape (http://www.inkscape.org/) -->

<svg
   width="50.634975mm"
   height="37.448479mm"
   viewBox="0 0 50.634975 37.448479"
   version="1.1"
   id="svg1"
   xmlns="http://www.w3.org/2000/svg"
   xmlns:svg="http://www.w3.org/2000/svg">
  <defs
     id="defs1" />
  <g
     id="layer1"
     transform="translate(-45.45147,-5.542847)">
    <g
       id="g1">
      <path
         style="fill:#a05a2c;stroke:none;stroke-width:1;stroke-linecap:round;stroke-linejoin:round;stroke-dasharray:none"
         d="m 45.451471,35.313297 h 50.634974 c -11.05963,-4.34102 -37.290927,-4.21496 -50.634974,0 z"
         id="path313" />
      <path
         style="fill:#784421;stroke:none;stroke-width:1;stroke-linecap:round;stroke-linejoin:round;stroke-dasharray:none"
         d="M 96.086445,35.313297 H 45.451471 c 0,0 29.095255,17.27556 50.634974,0 z"
         id="path311" />
      <path
         style="fill:#483e37;stroke:none;stroke-width:1;stroke-linecap:round;stroke-linejoin:round;stroke-dasharray:none"
         d="m 81.409979,35.297547 8.149965,-0.003 c 0,0 -2.081828,5.05889 -8.149965,0.003 z"
         id="path310" />
      <g
         id="g309"
         transform="matrix(0.20731303,0,0,0.20731303,59.195512,23.078897)">
        <path
           style="fill:#784421;stroke-width:0.264583"
           id="path208"
           d="m 119.62807,15.009608 c 0.10615,0.383445 0.20956,0.766985 0.32135,1.149357 0.18756,0.541621 0.26616,1.11189 0.36123,1.675231 0.12262,0.732108 0.32316,1.447236 0.50422,2.166125 0.21545,0.838218 0.42646,1.677589 0.64553,2.514873 0.27696,1.012838 0.44917,2.049048 0.64002,3.080264 0.20202,1.114803 0.40036,2.230191 0.61443,3.342759 0.19458,1.17303 0.47287,2.329386 0.72456,3.490828 0.27337,1.206315 0.49344,2.421691 0.68778,3.642802 0.17737,1.225311 0.30985,2.455219 0.38348,3.691006 0.0979,1.287253 0.19502,2.573533 0.23275,3.864165 0.0541,1.440889 -0.028,2.881167 -0.12254,4.318379 -0.10109,1.350227 -0.23661,2.697525 -0.35489,4.046344 -0.0896,1.077534 -0.19326,2.153991 -0.26204,3.233124 -0.0293,0.75452 -0.10473,1.506579 -0.13501,2.260856 0.0153,0.628925 -0.0941,1.246182 -0.22072,1.859087 -0.0914,0.378505 -0.12009,0.763236 -0.14857,1.149704 0.005,0.138208 0.0435,0.653654 0.0985,0.739863 0.0974,0.152672 0.85075,0.91172 0.9695,1.033489 0,0 0.0715,0.03584 0.0715,0.03584 v 0 c 0.0828,-0.0057 0.79178,-0.03491 0.88267,-0.115737 0.0272,-0.02416 -0.0399,-0.573447 -0.0397,-0.665903 0.0108,-0.165929 0.0522,-0.313614 0.083,-0.47656 0.0396,-0.209693 0.0576,-0.422884 0.0967,-0.632677 0.0814,-0.640064 0.13279,-1.28347 0.15658,-1.92827 0.004,-0.762566 0.0603,-1.52174 0.0781,-2.283963 0.0349,-1.093602 0.1104,-2.184963 0.16517,-3.277666 0.0763,-1.371161 0.16009,-2.741906 0.23078,-4.113387 0.075,-1.444813 0.16158,-2.89129 0.12438,-4.338706 -0.0718,-1.31214 -0.165,-2.624902 -0.33594,-3.928258 -0.18431,-1.261071 -0.30328,-2.531769 -0.5476,-3.783431 -0.21784,-1.237903 -0.45654,-2.473531 -0.76708,-3.691937 -0.29254,-1.17029 -0.56308,-2.34518 -0.80865,-3.52629 -0.22979,-1.113473 -0.43464,-2.231163 -0.634,-3.350447 -0.19577,-1.035712 -0.38375,-2.074451 -0.64786,-3.095449 -0.23158,-0.850649 -0.48525,-1.695193 -0.71237,-2.547115 -0.21339,-0.743406 -0.4482,-1.480501 -0.64569,-2.228339 -0.0666,-0.240462 -0.12121,-0.451731 -0.2023,-0.687731 -0.13894,-0.404429 -0.33842,-0.783096 -0.5154,-1.171396 -0.20787,-0.432855 -0.39906,-0.873451 -0.63046,-1.294743 z" />
        <path
           style="fill:#784421;stroke-width:0.264583"
           id="path209"
           d="m 125.57429,60.426859 c 0.34657,-0.346925 0.71314,-0.673696 1.0322,-1.047184 0.12537,-0.146757 0.24329,-0.299718 0.36494,-0.449575 1.1712,-1.319239 2.33227,-2.648408 3.53233,-3.941532 0.85301,-0.880131 1.74118,-1.725343 2.63148,-2.567398 0.31313,-0.296158 0.64163,-0.576572 0.94237,-0.885304 0.29442,-0.302238 0.61482,-0.589769 0.84129,-0.945771 0.21267,-0.334307 0.30541,-0.731221 0.45812,-1.096833 0,0 -0.0677,-0.04261 -0.0677,-0.04261 v 0 c -0.50098,0.148709 -1.02757,0.229071 -1.50295,0.44613 -0.76034,0.347176 -1.51394,1.074232 -2.10548,1.643547 -0.87899,0.845965 -1.6898,1.76004 -2.54755,2.626836 -0.47144,0.499631 -0.9904,1.03651 -1.43807,1.560264 -0.68236,0.798327 -1.28701,1.662141 -1.88947,2.520815 -0.11305,0.154911 -0.22995,0.307091 -0.33916,0.464735 -0.29084,0.419812 -0.19838,0.312208 -0.43315,0.7034 -0.10695,0.178197 -0.23372,0.345432 -0.2832,0.551802 z" />
        <path
           style="fill:#784421;stroke-width:0.264583"
           id="path210"
           d="m 125.86584,59.402191 c -0.0781,-0.482092 -0.35562,-0.881433 -0.64362,-1.261933 -0.40243,-0.550524 -0.8807,-1.025845 -1.3932,-1.4717 -0.57292,-0.519795 -1.2043,-0.968081 -1.80919,-1.448805 -0.13542,-0.115935 -0.27162,-0.230955 -0.40625,-0.347806 -0.42892,-0.372295 -0.35788,-0.324855 -0.79402,-0.684789 -0.42143,-0.347803 -0.85974,-0.673756 -1.2949,-1.003975 -0.86977,-0.702442 -1.78399,-1.345303 -2.689,-2.000549 -1.12817,-0.824296 -2.13598,-1.795155 -3.17683,-2.723364 -0.86136,-0.730834 -1.70298,-1.519698 -2.70489,-2.061117 -0.48782,-0.263612 -0.99539,-0.488902 -1.49309,-0.733354 0,0 -0.0745,-0.02913 -0.0745,-0.02913 v 0 c -0.13844,-0.0065 -0.4036,-0.157528 -0.4153,-0.01945 -0.0143,0.169228 0.25733,0.221777 0.38905,0.32898 0.61061,0.496959 1.24185,0.9696 1.82183,1.503498 1.00929,0.914556 1.97817,1.877372 3.06187,2.706079 0.90374,0.674518 1.8393,1.306036 2.72213,2.008669 0.8759,0.669158 1.76819,1.319207 2.58464,2.062131 0.61302,0.517255 1.27386,0.96992 1.89485,1.477184 0.54719,0.461063 1.10648,0.91617 1.55239,1.481029 0.26241,0.341202 0.53739,0.690139 0.64149,1.116822 z" />
        <path
           style="fill:#008000;stroke-width:0.264583"
           id="path211"
           d="m 120.70575,16.182473 c 0.39953,-0.626784 0.94035,-1.133022 1.4978,-1.615751 0,0 -0.32493,-0.329678 -0.32493,-0.329678 v 0 c -0.56112,0.484322 -1.1058,0.989775 -1.52744,1.605083 z" />
        <path
           style="fill:#008000;stroke-width:0.264583"
           id="path212"
           d="m 120.93592,16.992084 c 0.79734,-0.776345 1.73052,-1.399395 2.65228,-2.016665 0,0 -0.3175,-0.329945 -0.3175,-0.329945 v 0 c -0.92221,0.625954 -1.85544,1.250754 -2.68362,1.999719 z" />
        <path
           style="fill:#008000;stroke-width:0.264583"
           id="path213"
           d="m 121.08626,17.953553 c 0.89112,-0.599615 1.78703,-1.192048 2.69655,-1.763397 0.6824,-0.400526 0.34742,-0.212653 1.00369,-0.565845 0,0 -0.31889,-0.337756 -0.31889,-0.337756 v 0 c -0.65367,0.359284 -0.31967,0.168902 -1.00085,0.57313 -0.90989,0.575393 -1.80491,1.174079 -2.72299,1.736507 z" />
        <path
           style="fill:#008000;stroke-width:0.264583"
           id="path214"
           d="m 121.34734,19.208301 c 0.89065,-0.720049 1.91691,-1.251288 2.92419,-1.786544 0.6024,-0.315337 1.2127,-0.614987 1.82395,-0.912641 0,0 -0.31525,-0.336581 -0.31525,-0.336581 v 0 c -0.60747,0.303611 -1.21438,0.608356 -1.81647,0.922563 -1.01493,0.537503 -2.04223,1.072482 -2.96444,1.761931 z" />
        <path
           style="fill:#008000;stroke-width:0.264583"
           id="path215"
           d="m 121.7584,20.62272 c 0.9293,-0.822121 1.97676,-1.497014 3.00925,-2.179796 0.92629,-0.590969 0.47694,-0.308879 1.34724,-0.847574 0,0 -0.31203,-0.326475 -0.31203,-0.326475 v 0 c -0.86401,0.546785 -0.4169,0.261767 -1.34088,0.855738 -1.03871,0.682654 -2.0895,1.35551 -3.05028,2.14694 z" />
        <path
           style="fill:#008000;stroke-width:0.264583"
           id="path216"
           d="m 122.83671,22.08831 c 0.80507,-0.998088 1.85296,-1.7647 2.86844,-2.532412 0.72981,-0.539114 1.48456,-1.042579 2.2406,-1.543653 0,0 -0.31234,-0.324635 -0.31234,-0.324635 v 0 c -0.74843,0.511783 -1.4965,1.024278 -2.22863,1.55931 -1.0252,0.764778 -2.0826,1.521697 -2.92112,2.49779 z" />
        <path
           style="fill:#008000;stroke-width:0.264583"
           id="path217"
           d="m 122.85762,24.059706 c 1.07846,-1.070938 2.34653,-1.934564 3.58079,-2.813722 0.90044,-0.641768 1.82675,-1.245171 2.78153,-1.802439 0,0 -0.31807,-0.334217 -0.31807,-0.334217 v 0 c -0.94303,0.57491 -1.86125,1.188586 -2.76176,1.828184 -1.24182,0.880468 -2.51259,1.74202 -3.63256,2.777133 z" />
        <path
           style="fill:#008000;stroke-width:0.264583"
           id="path218"
           d="m 123.26748,25.641407 c 0.84302,-0.899551 1.77945,-1.705589 2.76774,-2.441273 0.32529,-0.242149 0.6605,-0.470673 0.99076,-0.70601 0.78782,-0.545325 1.60039,-1.052816 2.41515,-1.556352 0,0 -0.31092,-0.325132 -0.31092,-0.325132 v 0 c -0.80514,0.516758 -1.60888,1.035858 -2.39637,1.579382 -0.33145,0.234894 -0.66703,0.464065 -0.99435,0.704682 -0.99581,0.732027 -1.94519,1.525348 -2.82063,2.398415 z" />
        <path
           style="fill:#008000;stroke-width:0.264583"
           id="path219"
           d="m 123.53126,27.198433 c 0.0515,-0.05242 0.0998,-0.108233 0.15453,-0.157276 0.21049,-0.188579 0.67053,-0.548338 0.85515,-0.691565 0.56401,-0.437555 1.01211,-0.778952 1.60824,-1.188578 0.32877,-0.22591 0.66584,-0.439497 0.99875,-0.659246 1.3938,-0.849861 0.69679,-0.438235 2.09048,-1.235834 0,0 -0.29025,-0.306015 -0.29025,-0.306015 v 0 c -1.3927,0.801449 -0.69515,0.389151 -2.09213,1.23774 -0.33492,0.218414 -0.67346,0.431392 -1.00477,0.655242 -0.59915,0.404809 -1.05585,0.743788 -1.62847,1.170273 -0.17094,0.127321 -0.67286,0.501252 -0.87966,0.674456 -0.0591,0.04949 -0.11255,0.105339 -0.16883,0.158009 z" />
        <path
           style="fill:#008000;stroke-width:0.264583"
           id="path220"
           d="m 124.47283,29.188052 c 0.0592,-0.06446 0.11402,-0.133119 0.17744,-0.193386 0.28969,-0.275318 0.66771,-0.567918 0.97667,-0.798031 0.88022,-0.655601 1.80275,-1.241123 2.73162,-1.82419 1.16873,-0.673275 2.30368,-1.416862 3.51236,-2.019018 0,0 -0.32927,-0.350233 -0.32927,-0.350233 v 0 c -1.18746,0.636146 -2.31209,1.38573 -3.47558,2.06323 -0.93232,0.582314 -1.85801,1.168279 -2.75188,1.808872 -0.33291,0.238577 -0.69598,0.501864 -1.00603,0.778975 -0.0669,0.05976 -0.12586,0.127781 -0.18879,0.19167 z" />
        <path
           style="fill:#008000;stroke-width:0.264583"
           id="path221"
           d="m 123.86309,28.213375 c 0.94296,-0.853535 2.05375,-1.508614 3.1287,-2.180185 1.05394,-0.632787 0.54157,-0.330967 1.53615,-0.90708 0,0 -0.30689,-0.323001 -0.30689,-0.323001 v 0 c -0.988,0.584762 -0.47807,0.279744 -1.52919,0.91609 -1.08518,0.67184 -2.20169,1.322718 -3.18055,2.146257 z" />
        <path
           style="fill:#008000;stroke-width:0.264583"
           id="path222"
           d="m 124.10074,31.193266 c 0.22997,-0.138673 0.29409,-0.173358 0.55252,-0.35678 0.21462,-0.152323 0.42441,-0.311335 0.63661,-0.467003 0.2807,-0.203475 0.55898,-0.410329 0.8421,-0.610428 0.98393,-0.695415 1.00702,-0.69528 2.02996,-1.35718 0.84426,-0.540171 1.72468,-1.017387 2.61205,-1.481355 0,0 -0.3055,-0.324191 -0.3055,-0.324191 v 0 c -0.88,0.475626 -1.75332,0.963451 -2.59619,1.503347 -1.06336,0.685051 -1.01126,0.639614 -2.04055,1.34902 -0.35373,0.243798 -1.11028,0.785326 -1.50463,1.047443 -0.27468,0.182579 -0.32306,0.204348 -0.56384,0.33592 z" />
        <path
           style="fill:#008000;stroke-width:0.264583"
           id="path223"
           d="m 124.96002,32.913555 c 1.12139,-0.908465 2.37159,-1.646095 3.60608,-2.387864 0.76654,-0.452941 1.54477,-0.885482 2.32272,-1.318335 0,0 -0.31053,-0.327805 -0.31053,-0.327805 v 0 c -0.7706,0.443108 -1.54235,0.884259 -2.30875,1.334638 -1.2431,0.742383 -2.49906,1.476999 -3.65694,2.349306 z" />
        <path
           style="fill:#008000;stroke-width:0.264583"
           id="path224"
           d="m 125.36657,35.132539 c 0.60303,-0.528318 1.29646,-0.944954 1.98047,-1.357868 0.52362,-0.31609 1.47129,-0.866783 1.98795,-1.168509 1.34437,-0.782211 0.68561,-0.39923 1.97624,-1.149001 0,0 -0.29497,-0.310499 -0.29497,-0.310499 v 0 c -1.28515,0.756068 -0.62808,0.371311 -1.97141,1.153917 -0.14466,0.08353 -1.81673,1.048586 -2.0005,1.156552 -0.69488,0.408236 -1.3977,0.817065 -2.02543,1.325838 z" />
        <path
           style="fill:#008000;stroke-width:0.264583"
           id="path225"
           d="m 124.54288,32.23927 c 1.02787,-0.760122 2.01666,-1.570167 3.00889,-2.375649 0.96007,-0.797015 1.97221,-1.525632 3.04277,-2.165834 0,0 -0.32024,-0.33596 -0.32024,-0.33596 v 0 c -1.06193,0.655113 -2.06881,1.391544 -3.02922,2.188546 -0.9971,0.802 -1.99018,1.611349 -3.0463,2.335641 z" />
        <path
           style="fill:#008000;stroke-width:0.264583"
           id="path226"
           d="m 124.91971,34.369134 c 1.21097,-0.910286 2.48781,-1.72293 3.78197,-2.508216 0.95039,-0.568359 1.92472,-1.094758 2.9043,-1.610563 0,0 -0.31524,-0.334241 -0.31524,-0.334241 v 0 c -0.9695,0.531233 -1.93759,1.065538 -2.88706,1.632106 -1.29913,0.786252 -2.58006,1.59928 -3.82635,2.467264 z" />
        <path
           style="fill:#008000;stroke-width:0.264583"
           id="path227"
           d="m 125.62608,36.560214 c 1.24496,-1.024289 2.64786,-1.843428 4.01899,-2.685115 0.93392,-0.545767 1.83194,-1.155166 2.78914,-1.660475 0,0 -0.32812,-0.347448 -0.32812,-0.347448 v 0 c -0.94046,0.529717 -1.82742,1.148887 -2.7559,1.698884 -1.37722,0.847587 -2.78415,1.664531 -4.07189,2.645484 z" />
        <path
           style="fill:#008000;stroke-width:0.264583"
           id="path228"
           d="m 125.61244,37.980889 c 1.2968,-0.697415 2.57716,-1.42476 3.86576,-2.137137 1.17428,-0.635516 2.35434,-1.262102 3.55831,-1.839886 0,0 -0.32158,-0.343257 -0.32158,-0.343257 v 0 c -1.18643,0.605231 -2.35568,1.243687 -3.52888,1.873991 -1.2969,0.708781 -2.58595,1.434412 -3.9126,2.086758 z" />
        <path
           style="fill:#008000;stroke-width:0.264583"
           id="path229"
           d="m 125.88611,39.287555 c 1.24442,-0.6243 2.49519,-1.235789 3.74319,-1.852853 1.32941,-0.642347 2.62233,-1.357492 3.94647,-2.010042 0.0672,-0.02808 0.13433,-0.05616 0.20149,-0.08424 0,0 -0.33056,-0.35587 -0.33056,-0.35587 v 0 c -0.0658,0.03082 -0.13166,0.06164 -0.19749,0.09246 -1.30014,0.689833 -2.58896,1.401813 -3.91425,2.043338 -1.25609,0.61315 -2.51333,1.224901 -3.78524,1.80467 z" />
        <path
           style="fill:#008000;stroke-width:0.264583"
           id="path230"
           d="m 126.03973,41.197585 c 0.93611,-0.572053 1.8999,-1.097365 2.85354,-1.639334 1.65906,-0.949614 3.33547,-1.86807 5.03607,-2.741057 0.13473,-0.06806 0.26946,-0.136115 0.40419,-0.204174 0,0 -0.3224,-0.342619 -0.3224,-0.342619 v 0 c -0.13182,0.07118 -0.26364,0.142364 -0.39545,0.213547 -1.68394,0.901089 -3.35612,1.823575 -5.02173,2.758115 -0.96401,0.534289 -1.93731,1.051705 -2.89506,1.597149 z" />
        <path
           style="fill:#008000;stroke-width:0.264583"
           id="path231"
           d="m 125.81715,42.572085 c 1.49588,-1.03786 3.14802,-1.826511 4.7829,-2.616854 1.59474,-0.753245 3.1932,-1.499467 4.80908,-2.206498 0,0 -0.32153,-0.34545 -0.32153,-0.34545 v 0 c -1.58981,0.751541 -3.18432,1.493081 -4.77334,2.246294 -1.64483,0.792197 -3.30097,1.580845 -4.83804,2.571699 z" />
        <path
           style="fill:#008000;stroke-width:0.264583"
           id="path232"
           d="m 126.03675,43.867741 c 1.37993,-0.677775 2.77769,-1.319069 4.1621,-1.98806 1.78449,-0.867659 3.57433,-1.726398 5.39807,-2.509039 0,0 -0.31568,-0.339812 -0.31568,-0.339812 v 0 c -1.80033,0.824942 -3.58521,1.683136 -5.36994,2.541127 -1.39653,0.662908 -2.80416,1.300626 -4.21243,1.937864 z" />
        <path
           style="fill:#008000;stroke-width:0.264583"
           id="path233"
           d="m 126.46855,45.848666 c 1.5676,-0.932296 3.17529,-1.797534 4.78732,-2.650281 1.49811,-0.774078 3.01948,-1.503047 4.5621,-2.184048 0.1601,-0.03362 0.37021,-0.224639 0.54549,-0.165507 0,0 -0.31657,-0.382323 -0.31657,-0.382323 v 0 c -0.19802,-0.0021 -0.37328,0.136358 -0.55278,0.200022 -1.5189,0.719508 -3.02688,1.462202 -4.5214,2.231123 -1.62248,0.850231 -3.23935,1.712222 -4.84255,2.5982 z" />
        <path
           style="fill:#008000;stroke-width:0.264583"
           id="path234"
           d="m 126.33543,46.407554 c 1.5807,-0.372166 3.12863,-0.862801 4.66765,-1.377241 2.00438,-0.680993 4.00619,-1.369502 6.00246,-2.073926 0.17692,-0.06137 0.35385,-0.122738 0.53077,-0.184108 0,0 -0.31275,-0.341834 -0.31275,-0.341834 v 0 c -0.17491,0.06367 -0.34982,0.127334 -0.52473,0.191001 -1.98248,0.727842 -3.97272,1.434745 -5.97729,2.099706 -1.55182,0.503145 -3.11125,0.992908 -4.71119,1.321838 z" />
        <path
           style="fill:#008000;stroke-width:0.264583"
           id="path235"
           d="m 126.52383,47.71904 c 1.83078,-0.770681 3.74644,-1.324999 5.64633,-1.896933 1.50636,-0.385079 2.98435,-0.95781 4.53658,-1.138097 0,0 -0.3148,-0.359113 -0.3148,-0.359113 v 0 c -1.52907,0.218574 -3.00744,0.809156 -4.49842,1.191805 -1.91307,0.572661 -3.83683,1.128432 -5.70174,1.845841 z" />
        <path
           style="fill:#008000;stroke-width:0.264583"
           id="path236"
           d="m 125.90732,48.920815 c 1.47622,-0.57853 3.01266,-0.99464 4.52908,-1.453989 1.69868,-0.526253 3.40388,-1.032433 5.1349,-1.441622 0,0 -0.31159,-0.347474 -0.31159,-0.347474 v 0 c -1.7168,0.440369 -3.41237,0.95563 -5.10608,1.476986 -1.52994,0.458004 -3.07789,0.867389 -4.5818,1.406072 z" />
        <path
           style="fill:#008000;stroke-width:0.264583"
           id="path237"
           d="m 125.91354,49.741939 c 1.20867,-0.399976 2.46947,-0.61898 3.71823,-0.852321 1.40624,-0.23703 0.71252,-0.125468 2.081,-0.335585 0,0 -0.28631,-0.324937 -0.28631,-0.324937 v 0 c -1.36651,0.215048 -0.67286,0.102727 -2.08082,0.337561 -1.26241,0.227401 -2.53376,0.440531 -3.7642,0.810217 z" />
        <path
           style="fill:#008000;stroke-width:0.264583"
           id="path238"
           d="m 126.15476,50.623872 c 1.17515,-0.297411 2.37235,-0.492917 3.56812,-0.685303 0,0 -0.28809,-0.326771 -0.28809,-0.326771 v 0 c -1.20738,0.188328 -2.41561,0.379235 -3.60901,0.644498 z" />
        <path
           style="fill:#008000;stroke-width:0.264583"
           id="path239"
           d="m 126.65389,51.793801 c 0.85966,-0.159943 1.72081,-0.310433 2.58339,-0.45375 0,0 -0.29222,-0.331121 -0.29222,-0.331121 v 0 c -0.87097,0.140142 -1.74063,0.290314 -2.61408,0.414171 z" />
        <path
           style="fill:#008000;stroke-width:0.264583"
           id="path240"
           d="m 126.20494,53.531685 c 0.40993,-0.10481 0.831,-0.154858 1.24925,-0.21259 0,0 -0.30759,-0.350475 -0.30759,-0.350475 v 0 c -0.42493,0.05648 -0.85158,0.107182 -1.27111,0.197384 z" />
        <path
           style="fill:#008000;stroke-width:0.264583"
           id="path241"
           d="m 135.14249,50.033689 c 0.97835,-0.353904 2.00485,-0.545444 3.02136,-0.752446 0,0 -0.29021,-0.326424 -0.29021,-0.326424 v 0 c -1.0276,0.204793 -2.06343,0.39075 -3.06255,0.713108 z" />
        <path
           style="fill:#008000;stroke-width:0.264583"
           id="path242"
           d="m 134.73354,50.883184 c 0.69588,-0.140163 1.40515,-0.197313 2.11091,-0.262548 0,0 -0.29862,-0.343295 -0.29862,-0.343295 v 0 c -0.71454,0.06382 -1.43141,0.120031 -2.13937,0.239541 z" />
        <path
           style="fill:#008000;stroke-width:0.264583"
           id="path243"
           d="m 133.71842,51.901632 c 1.11062,-0.04417 2.2207,-0.100807 3.33107,-0.151154 0,0 -0.29336,-0.34032 -0.29336,-0.34032 v 0 c -1.12012,0.05173 -2.24034,0.104211 -3.36173,0.117078 z" />
        <path
           style="fill:#008000;stroke-width:0.264583"
           id="path244"
           d="m 132.6849,53.209041 c 0.99691,-0.107362 1.9988,-0.08356 2.99811,-0.03645 0,0 -0.28936,-0.342016 -0.28936,-0.342016 v 0 c -1.01044,-0.04685 -2.02198,-0.06961 -3.03195,0.0066 z" />
        <path
           style="fill:#008000;stroke-width:0.264583"
           id="path245"
           d="m 131.58936,53.590621 c 1.1675,0.04512 2.33047,0.163658 3.49761,0.222771 0.24544,0.0088 0.49087,0.01752 0.7363,0.0263 0,0 -0.29228,-0.34459 -0.29228,-0.34459 v 0 c -0.24442,-0.008 -0.48884,-0.01595 -0.73326,-0.02392 -1.17829,-0.06228 -2.35126,-0.183417 -3.52862,-0.25551 z" />
        <path
           style="fill:#008000;stroke-width:0.264583"
           id="path246"
           d="m 130.64941,54.621001 c 1.15574,0.0409 2.30639,0.160266 3.45825,0.256955 0.21398,0.01582 0.42796,0.03164 0.64195,0.04746 0,0 -0.2949,-0.350353 -0.2949,-0.350353 v 0 c -0.21299,-0.01492 -0.42598,-0.02983 -0.63897,-0.04475 -1.16086,-0.09726 -2.32036,-0.210563 -3.48286,-0.287435 z" />
        <path
           style="fill:#008000;stroke-width:0.264583"
           id="path247"
           d="m 129.92442,55.765863 c 1.25794,0.06101 2.50602,0.244719 3.75218,0.418449 0.23277,0.03241 0.46553,0.06482 0.6983,0.09723 0,0 -0.29013,-0.349168 -0.29013,-0.349168 v 0 c -0.23142,-0.03083 -0.46284,-0.06167 -0.69426,-0.0925 -1.25844,-0.172546 -2.51689,-0.357164 -3.78438,-0.449914 z" />
        <path
           style="fill:#008000;stroke-width:0.264583"
           id="path248"
           d="m 128.64424,56.79469 c 1.23802,0.1972 2.4811,0.358622 3.71867,0.558933 0,0 -0.2882,-0.348449 -0.2882,-0.348449 v 0 c -1.24797,-0.195937 -2.50108,-0.360518 -3.74384,-0.58833 z" />
        <path
           style="fill:#008000;stroke-width:0.264583"
           id="path249"
           d="m 127.73501,58.134363 c 1.08602,-0.176197 2.18931,-0.181419 3.28636,-0.167648 0,0 -0.29415,-0.345167 -0.29415,-0.345167 v 0 c -1.10764,-0.01029 -2.21926,-0.0024 -3.31944,0.14215 z" />
        <path
           style="fill:#008000;stroke-width:0.264583"
           id="path250"
           d="m 128.56486,58.774686 c 0.39868,0.0437 0.79516,0.105051 1.19185,0.163497 0,0 -0.29577,-0.357124 -0.29577,-0.357124 v 0 c -0.40341,-0.06381 -0.80668,-0.128582 -1.2111,-0.185774 z" />
        <path
           style="fill:#008000;stroke-width:0.264583"
           id="path251"
           d="m 134.87018,50.060981 c 0.0276,-0.431051 0.15043,-0.848696 0.23079,-1.271275 0.0891,-0.468395 0.11074,-0.65958 0.17895,-1.136026 0,0 -0.34659,-0.304697 -0.34659,-0.304697 v 0 c -0.0714,0.493985 -0.0862,0.644486 -0.18296,1.128057 -0.0841,0.420566 -0.21042,0.834318 -0.25474,1.262157 z" />
        <path
           style="fill:#008000;stroke-width:0.264583"
           id="path252"
           d="m 133.8166,50.438028 c 0.0939,-0.826534 0.26175,-1.64329 0.42326,-2.458765 0,0 -0.34663,-0.307869 -0.34663,-0.307869 v 0 c -0.15818,0.813073 -0.32153,1.625928 -0.448,2.444602 z" />
        <path
           style="fill:#008000;stroke-width:0.264583"
           id="path253"
           d="m 133.03659,51.147797 c -0.2232,-0.458348 -0.21203,-0.983491 -0.1907,-1.480915 0.0196,-0.456457 0.0578,-0.750054 0.1058,-1.203492 0,0 -0.34704,-0.302816 -0.34704,-0.302816 v 0 c -0.0475,0.444894 -0.0867,0.756904 -0.11095,1.204254 -0.0268,0.495419 -0.049,1.016474 0.15106,1.482145 z" />
        <path
           style="fill:#008000;stroke-width:0.264583"
           id="path254"
           d="m 131.86394,52.105403 c -0.30967,-0.811284 -0.37052,-1.71305 -0.31728,-2.574406 0.0128,-0.207814 0.044,-0.414097 0.0659,-0.621144 0,0 -0.3458,-0.301749 -0.3458,-0.301749 v 0 c -0.0223,0.208489 -0.0534,0.416221 -0.0668,0.625464 -0.055,0.857546 -0.001,1.751007 0.27559,2.56871 z" />
        <path
           style="fill:#008000;stroke-width:0.264583"
           id="path255"
           d="m 130.86965,53.120993 c -0.35325,-0.916977 -0.31449,-1.917486 -0.28791,-2.881704 0,0 -0.33732,-0.289893 -0.33732,-0.289893 v 0 c -0.0323,0.958127 -0.0773,1.945293 0.23528,2.86748 z" />
        <path
           style="fill:#008000;stroke-width:0.264583"
           id="path256"
           d="m 129.92463,54.380484 c -0.48267,-1.216308 -0.35006,-2.686751 -0.28738,-3.965289 0.0225,-0.289798 0.0449,-0.579597 0.0674,-0.869397 0,0 -0.3345,-0.290029 -0.3345,-0.290029 v 0 c -0.021,0.2916 -0.0419,0.583198 -0.0628,0.874797 -0.0353,0.705819 -0.0747,1.254038 -0.0626,1.961306 0.0114,0.663777 0.0498,1.357543 0.28895,1.98464 z" />
        <path
           style="fill:#008000;stroke-width:0.264583"
           id="path257"
           d="m 128.51747,55.26678 c -0.0914,-1.421919 0.0958,-2.841445 0.27977,-4.248089 0,0 -0.3165,-0.277604 -0.3165,-0.277604 v 0 c -0.18676,1.394484 -0.38134,2.7984 -0.33833,4.209164 z" />
        <path
           style="fill:#008000;stroke-width:0.264583"
           id="path258"
           d="m 127.59077,56.336607 c -0.22218,-0.825479 -0.28146,-1.683936 -0.2689,-2.536169 0.005,-0.330541 0.0316,-0.660398 0.0474,-0.990595 0,0 -0.3294,-0.284244 -0.3294,-0.284244 v 0 c -0.0178,0.329768 -0.046,0.659143 -0.0534,0.989308 -0.0191,0.842307 0.0239,1.692421 0.2252,2.513145 z" />
        <path
           style="fill:#008000;stroke-width:0.264583"
           id="path259"
           d="m 109.9994,46.056909 c -0.18808,-0.501086 -0.31821,-1.025422 -0.33551,-1.562526 -0.005,-0.154776 0.005,-0.309676 0.007,-0.464513 0,0 -0.35637,-0.305673 -0.35637,-0.305673 v 0 c -0.004,0.155501 -0.0156,0.310983 -0.0123,0.466505 0.0113,0.5347 0.13393,1.056651 0.30981,1.55933 z" />
        <path
           style="fill:#008000;stroke-width:0.264583"
           id="path260"
           d="m 110.84083,46.576019 c -0.0285,-0.894736 -0.0337,-1.789898 -0.0615,-2.684656 -0.006,-0.13834 -0.0114,-0.27668 -0.0171,-0.415022 0,0 -0.36085,-0.305314 -0.36085,-0.305314 v 0 c 0.007,0.139378 0.0144,0.278755 0.0216,0.418132 0.0327,0.888968 0.0362,1.778352 0.0434,2.667823 z" />
        <path
           style="fill:#008000;stroke-width:0.264583"
           id="path261"
           d="m 112.01403,47.214019 c -0.0701,-0.920866 -0.0882,-1.8431 -0.0695,-2.766097 0.0317,-0.69769 0.0135,-0.363688 0.0533,-1.002082 0,0 -0.35554,-0.307235 -0.35554,-0.307235 v 0 c -0.0344,0.643803 -0.0183,0.30729 -0.0473,1.009595 -0.0188,0.916165 -0.003,1.831372 0.0405,2.746737 z" />
        <path
           style="fill:#008000;stroke-width:0.264583"
           id="path262"
           d="m 112.81409,47.934758 c 0.1798,-0.956903 0.41818,-1.90295 0.67597,-2.841594 0.23712,-0.731697 0.10932,-0.384587 0.37745,-1.0435 0,0 -0.34275,-0.31618 -0.34275,-0.31618 v 0 c -0.26515,0.66679 -0.13863,0.316193 -0.374,1.053782 -0.25696,0.935292 -0.49667,1.875944 -0.70809,2.822589 z" />
        <path
           style="fill:#008000;stroke-width:0.264583"
           id="path263"
           d="m 114.10035,48.780808 c 0.1375,-1.037381 0.26632,-2.075696 0.41322,-3.111881 0.0307,-0.210233 0.0614,-0.420468 0.0921,-0.630701 0,0 -0.34415,-0.302418 -0.34415,-0.302418 v 0 c -0.0291,0.211642 -0.0583,0.423288 -0.0874,0.634931 -0.14391,1.02806 -0.2788,2.057823 -0.44445,3.082599 z" />
        <path
           style="fill:#008000;stroke-width:0.264583"
           id="path264"
           d="m 115.21952,50.253283 c 0.12886,-1.077233 0.32582,-2.144004 0.52604,-3.209748 0.0462,-0.256363 0.0924,-0.512723 0.13859,-0.769085 0,0 -0.33606,-0.297432 -0.33606,-0.297432 v 0 c -0.0453,0.256948 -0.0906,0.513895 -0.13583,0.770843 -0.20351,1.057679 -0.40547,2.115515 -0.56491,3.180945 z" />
        <path
           style="fill:#008000;stroke-width:0.264583"
           id="path265"
           d="m 116.75626,50.832445 c -0.0956,-0.874651 -0.0129,-1.758143 0.0361,-2.633255 0.0449,-0.620403 0.0686,-1.241803 0.0853,-1.863471 0,0 -0.35398,-0.303575 -0.35398,-0.303575 v 0 c -0.009,0.62439 -0.0251,1.248638 -0.0733,1.871517 -0.0543,0.868027 -0.1451,1.741964 -0.0743,2.611464 z" />
        <path
           style="fill:#008000;stroke-width:0.264583"
           id="path266"
           d="m 118.09732,52.070587 c 0.16635,-1.183405 0.29898,-2.370106 0.41424,-3.55972 0.10701,-1.104532 0.0573,-0.574472 0.14986,-1.590112 0,0 -0.34114,-0.296463 -0.34114,-0.296463 v 0 c -0.0829,1.022049 -0.0368,0.489329 -0.13994,1.59802 -0.11784,1.179661 -0.25332,2.356564 -0.45722,3.524856 z" />
        <path
           style="fill:#008000;stroke-width:0.264583"
           id="path267"
           d="m 119.18466,52.816435 c 0.19482,-1.328489 0.42877,-2.649824 0.5977,-3.982292 0,0 -0.33707,-0.295238 -0.33707,-0.295238 v 0 c -0.16454,1.325716 -0.39371,2.639709 -0.6286,3.954476 z" />
        <path
           style="fill:#008000;stroke-width:0.264583"
           id="path268"
           d="m 119.96023,15.966198 c -0.42666,-0.16706 -0.89146,-0.185749 -1.33735,-0.271081 -0.47019,-0.08998 -0.56481,-0.127211 -1.02639,-0.256963 -0.15436,-0.0499 -0.30872,-0.09979 -0.46308,-0.149684 0,0 0.2929,0.365243 0.2929,0.365243 v 0 c 0.15416,0.04873 0.30833,0.09746 0.4625,0.146198 0.47654,0.13207 0.54756,0.16172 1.03253,0.256426 0.44777,0.08744 0.91816,0.111441 1.33946,0.300742 z" />
        <path
           style="fill:#008000;stroke-width:0.264583"
           id="path269"
           d="m 119.91275,16.699461 c -0.84323,-0.05886 -1.68695,-0.09104 -2.52853,-0.173089 0,0 0.29604,0.353336 0.29604,0.353336 v 0 c 0.84865,0.07817 1.70057,0.109062 2.54801,0.198811 z" />
        <path
           style="fill:#008000;stroke-width:0.264583"
           id="path270"
           d="m 120.19825,18.126626 c -0.57596,-0.07613 -1.15826,-0.127854 -1.71766,-0.294746 -0.16704,-0.04984 -0.32787,-0.118498 -0.49181,-0.177746 0,0 0.29018,0.364265 0.29018,0.364265 v 0 c 0.16484,0.05772 0.32685,0.124267 0.49452,0.17317 0.56764,0.165564 1.15672,0.219337 1.73785,0.31464 z" />
        <path
           style="fill:#008000;stroke-width:0.264583"
           id="path271"
           d="m 120.56373,19.768427 c -0.78407,-0.182023 -1.5987,-0.163219 -2.39332,-0.285076 -0.23577,-0.03616 -0.4688,-0.08838 -0.70321,-0.132567 -0.21335,-0.06592 -0.42671,-0.131837 -0.64007,-0.197756 0,0 0.28586,0.35543 0.28586,0.35543 v 0 c 0.21401,0.06407 0.42801,0.128143 0.64202,0.192215 0.23535,0.04377 0.46944,0.09492 0.70605,0.131296 0.45673,0.07022 0.87362,0.09877 1.33133,0.145165 0.28371,0.02876 0.58809,0.05487 0.86934,0.116942 0.0702,0.01549 0.13738,0.04212 0.20607,0.06319 z" />
        <path
           style="fill:#008000;stroke-width:0.264583"
           id="path272"
           d="m 120.78373,21.559727 c -0.65606,-0.153739 -1.31709,-0.289382 -1.96533,-0.474826 -0.49842,-0.142587 -0.64075,-0.200832 -1.11685,-0.369493 0,0 0.28907,0.362513 0.28907,0.362513 v 0 c 0.4771,0.165388 0.61755,0.221107 1.11669,0.36344 0.65615,0.187105 1.32475,0.325574 1.98435,0.499252 z" />
        <path
           style="fill:#008000;stroke-width:0.264583"
           id="path273"
           d="m 121.28404,23.349599 c -0.7994,-0.132343 -1.60459,-0.263049 -2.38857,-0.471573 -0.27796,-0.07393 -0.55048,-0.166941 -0.82572,-0.250412 -0.24402,-0.103534 -0.48803,-0.207067 -0.73204,-0.3106 0,0 0.27718,0.351935 0.27718,0.351935 v 0 c 0.24426,0.101375 0.48853,0.202751 0.73279,0.304126 0.2764,0.08334 0.55037,0.17525 0.82921,0.250026 0.79704,0.213739 1.61358,0.361469 2.42549,0.504839 z" />
        <path
           style="fill:#008000;stroke-width:0.264583"
           id="path274"
           d="m 121.47404,25.325139 c -0.61634,-0.06582 -1.20215,-0.319343 -1.77842,-0.531988 -0.85546,-0.315666 -0.74578,-0.278013 -1.59071,-0.612946 0,0 0.27569,0.348571 0.27569,0.348571 v 0 c 0.89796,0.35476 0.68515,0.275244 1.59465,0.616126 0.58994,0.221111 1.19066,0.495999 1.82558,0.550491 z" />
        <path
           style="fill:#008000;stroke-width:0.264583"
           id="path275"
           d="m 122.28036,27.686849 c -1.23153,-0.257273 -2.39448,-0.748117 -3.55608,-1.217718 -0.29173,-0.119989 -0.58347,-0.239979 -0.8752,-0.359969 0,0 0.27133,0.343952 0.27133,0.343952 v 0 c 0.29128,0.119318 0.58256,0.238634 0.87384,0.357951 1.17665,0.478761 2.35352,0.974201 3.59602,1.258543 z" />
        <path
           style="fill:#008000;stroke-width:0.264583"
           id="path276"
           d="m 122.60468,28.773651 c -0.87085,-0.0087 -1.72315,-0.188256 -2.53589,-0.498292 -0.2676,-0.102082 -0.52742,-0.223507 -0.79112,-0.335259 -0.9738,-0.46723 -0.50663,-0.233198 -1.40299,-0.699098 0,0 0.27702,0.357521 0.27702,0.357521 v 0 c 0.89366,0.457973 0.42739,0.226981 1.40025,0.690089 0.26584,0.112596 0.52778,0.234897 0.79752,0.337791 0.82545,0.314867 1.6901,0.492979 2.57298,0.5227 z" />
        <path
           style="fill:#008000;stroke-width:0.264583"
           id="path277"
           d="m 122.40226,26.968558 c -0.93011,-0.275426 -1.80575,-0.691808 -2.68915,-1.085897 -0.19123,-0.0803 -0.38246,-0.16061 -0.57369,-0.240914 0,0 0.28423,0.360867 0.28423,0.360867 v 0 c 0.19028,0.07967 0.38055,0.159341 0.57083,0.239012 0.5665,0.253937 1.12786,0.52356 1.70587,0.750837 0.37482,0.147381 0.43369,0.154443 0.78667,0.281334 0.0734,0.02641 0.14583,0.05555 0.21874,0.08332 z" />
        <path
           style="fill:#008000;stroke-width:0.264583"
           id="path278"
           d="m 123.00128,30.401388 c -0.9843,-0.03777 -1.99376,-0.08558 -2.94228,-0.377579 -0.26746,-0.08233 -0.52087,-0.204788 -0.78131,-0.307179 0,0 0.27624,0.348832 0.27624,0.348832 v 0 c 0.2617,0.100518 0.51681,0.220253 0.7851,0.301554 0.96327,0.291904 1.98479,0.348369 2.98276,0.408273 z" />
        <path
           style="fill:#008000;stroke-width:0.264583"
           id="path279"
           d="m 123.1125,31.897569 c -1.43551,0.27356 -2.8767,-0.265436 -4.2158,-0.723676 -0.27917,-0.108473 -0.55835,-0.21695 -0.83752,-0.325424 0,0 0.2741,0.345906 0.2741,0.345906 v 0 c 0.27806,0.106167 0.55613,0.212336 0.83419,0.318505 1.36157,0.462709 2.81486,1.000258 4.27443,0.749636 z" />
        <path
           style="fill:#008000;stroke-width:0.264583"
           id="path280"
           d="m 123.72343,33.584899 c -0.63768,0.08431 -1.29387,0.05208 -1.93289,6.7e-5 -0.31963,-0.02601 -0.63964,-0.05328 -0.95672,-0.101264 -0.32705,-0.0495 -0.64919,-0.12727 -0.97378,-0.190905 -1.09525,-0.332523 -0.58236,-0.15099 -1.54322,-0.531633 0,0 0.28073,0.354534 0.28073,0.354534 v 0 c 0.95719,0.366093 0.44579,0.190786 1.5385,0.513173 0.32592,0.06332 0.64958,0.139686 0.97778,0.189954 0.3199,0.049 0.64258,0.07864 0.96492,0.107601 0.65241,0.05862 1.32055,0.102293 1.97347,0.02757 z" />
        <path
           style="fill:#008000;stroke-width:0.264583"
           id="path281"
           d="m 123.79937,35.076769 c -1.34011,-0.0024 -2.62587,-0.475826 -3.89428,-0.860983 0,0 0.28099,0.349226 0.28099,0.349226 v 0 c 1.28482,0.385297 2.57554,0.853107 3.93025,0.886116 z" />
        <path
           style="fill:#008000;stroke-width:0.264583"
           id="path282"
           d="m 124.0801,36.76599 c -1.44506,-0.02888 -2.77957,-0.628883 -4.06894,-1.22229 -0.20692,-0.102616 -0.41384,-0.205235 -0.62076,-0.307851 0,0 0.27933,0.359024 0.27933,0.359024 v 0 c 0.20525,0.0998 0.4105,0.199599 0.61575,0.2994 1.30754,0.594111 2.65617,1.189789 4.11483,1.243361 z" />
        <path
           style="fill:#008000;stroke-width:0.264583"
           id="path283"
           d="m 124.60048,38.074702 c -1.5861,0.126751 -3.15769,-0.169675 -4.70437,-0.483828 -0.30978,-0.07822 -0.61956,-0.156435 -0.92934,-0.234651 0,0 0.27585,0.339426 0.27585,0.339426 v 0 c 0.3087,0.07587 0.61741,0.151752 0.92611,0.227626 1.56475,0.314883 3.14877,0.607658 4.753,0.524447 z" />
        <path
           style="fill:#008000;stroke-width:0.264583"
           id="path284"
           d="m 124.59327,39.558046 c -1.2209,0.278992 -2.44772,-0.05101 -3.62827,-0.356497 -0.28781,-0.08139 -0.57562,-0.162769 -0.86343,-0.244152 0,0 0.27725,0.343278 0.27725,0.343278 v 0 c 0.28774,0.0808 0.57547,0.161597 0.86321,0.242393 1.19903,0.311086 2.43562,0.636325 3.67858,0.383349 z" />
        <path
           style="fill:#008000;stroke-width:0.264583"
           id="path285"
           d="m 124.66408,41.940189 c -1.1926,0.117996 -2.37136,0.16387 -3.56601,0.01966 -0.33427,-0.04035 -0.66483,-0.107066 -0.99725,-0.160599 0,0 0.27656,0.334309 0.27656,0.334309 v 0 c 0.33243,0.05188 0.66317,0.116004 0.99728,0.155636 0.74695,0.08861 1.32366,0.111834 2.07175,0.100796 0.58169,-0.0086 0.74675,-0.04446 1.26561,-0.06785 0.0904,-0.0041 0.18096,-0.0027 0.27143,-0.004 z" />
        <path
           style="fill:#008000;stroke-width:0.264583"
           id="path286"
           d="m 124.6921,41.144276 c -1.12553,-0.239377 -2.2605,-0.439338 -3.39305,-0.644316 -1.01242,-0.174236 -0.52271,-0.09299 -1.46892,-0.244888 0,0 0.28993,0.350409 0.28993,0.350409 v 0 c 0.94101,0.14532 0.45342,0.06628 1.46247,0.238815 1.14201,0.21099 2.28912,0.410874 3.41806,0.683133 z" />
        <path
           style="fill:#008000;stroke-width:0.264583"
           id="path287"
           d="m 124.57746,43.695339 c -0.52291,0.257435 -1.09813,0.385292 -1.68251,0.363387 -0.2082,-0.0078 -0.41443,-0.04337 -0.62165,-0.06506 -0.96697,-0.191018 -1.9181,-0.45263 -2.87677,-0.680744 0,0 0.29795,0.365459 0.29795,0.365459 v 0 c 0.95884,0.218217 1.90759,0.480017 2.87317,0.667215 0.20997,0.02156 0.41898,0.05687 0.62991,0.06471 0.59491,0.02212 1.17784,-0.105849 1.71666,-0.352893 z" />
        <path
           style="fill:#008000;stroke-width:0.264583"
           id="path288"
           d="m 124.70449,42.853985 c -1.03886,0.238935 -2.10101,0.129202 -3.14622,0.0035 -0.21561,-0.03354 -0.43123,-0.06709 -0.64684,-0.100632 0,0 0.29165,0.352116 0.29165,0.352116 v 0 c 0.21495,0.03197 0.4299,0.06395 0.64485,0.09592 1.05833,0.125126 2.12819,0.229772 3.18407,0.02019 z" />
        <path
           style="fill:#008000;stroke-width:0.264583"
           id="path289"
           d="m 124.64987,44.875785 c -1.00884,0.247555 -2.05484,0.194824 -3.08081,0.120584 -0.91798,-0.10796 -0.47629,-0.04214 -1.32586,-0.192169 0,0 0.29227,0.354227 0.29227,0.354227 v 0 c 0.84791,0.141454 0.40679,0.07881 1.32404,0.183009 1.03905,0.07469 2.0945,0.127373 3.12033,-0.09832 z" />
        <path
           style="fill:#008000;stroke-width:0.264583"
           id="path290"
           d="m 124.42932,46.149243 c -0.93315,0.140899 -1.84719,-0.146817 -2.7344,-0.400558 -0.91687,-0.309297 -0.47297,-0.147634 -1.33274,-0.482084 0,0 0.28312,0.357323 0.28312,0.357323 v 0 c 0.85961,0.328488 0.41538,0.1686 1.3337,0.476845 0.90231,0.260146 1.8246,0.544523 2.7748,0.420645 z" />
        <path
           style="fill:#008000;stroke-width:0.264583"
           id="path291"
           d="m 124.75755,48.450888 c -0.0712,-0.0382 -0.14083,-0.0794 -0.21354,-0.114604 -0.30156,-0.146018 -0.61026,-0.276823 -0.91466,-0.416822 -0.55877,-0.256987 -0.98399,-0.462941 -1.56123,-0.698788 -0.30055,-0.122799 -0.60626,-0.232582 -0.90939,-0.348874 -1.10848,-0.375455 -0.57361,-0.202235 -1.60356,-0.522899 0,0 0.28159,0.350409 0.28159,0.350409 v 0 c 1.02233,0.312298 0.49097,0.14216 1.59284,0.514347 0.30321,0.117457 0.60917,0.228026 0.90962,0.352372 0.56464,0.233685 1.02568,0.458859 1.57383,0.71633 0.0273,0.01283 0.81304,0.378913 0.92596,0.437587 0.0732,0.03805 0.14204,0.08408 0.21306,0.126124 z" />
        <path
           style="fill:#008000;stroke-width:0.264583"
           id="path292"
           d="m 124.50904,49.40363 c -0.95687,-0.02487 -1.90131,-0.1861 -2.83658,-0.377688 0,0 0.28514,0.347769 0.28514,0.347769 v 0 c 0.94752,0.191979 1.90242,0.354875 2.86953,0.406103 z" />
        <path
           style="fill:#008000;stroke-width:0.264583"
           id="path293"
           d="m 124.04531,50.961672 c -0.59715,-0.230587 -1.2298,-0.348538 -1.84339,-0.525658 -0.25762,-0.07437 -0.51248,-0.157972 -0.76872,-0.236956 0,0 0.28007,0.348573 0.28007,0.348573 v 0 c 0.25768,0.07994 0.5142,0.163719 0.77304,0.239829 0.62138,0.182713 1.26355,0.309801 1.86204,0.562906 z" />
        <path
           style="fill:#008000;stroke-width:0.264583"
           id="path294"
           d="m 120.36895,54.095591 c -0.08,-0.975439 0.16535,-1.934035 0.43518,-2.862022 0,0 -0.34037,-0.3079 -0.34037,-0.3079 v 0 c -0.2733,0.926359 -0.51891,1.878793 -0.47286,2.853663 z" />
        <path
           style="fill:#008000;stroke-width:0.264583"
           id="path295"
           d="m 121.47425,54.844383 c 0.0633,-0.686414 0.20001,-1.362583 0.3855,-2.02547 0,0 -0.3479,-0.314005 -0.3479,-0.314005 v 0 c -0.18636,0.661406 -0.3221,1.335199 -0.40904,2.017263 z" />
        <path
           style="fill:#008000;stroke-width:0.264583"
           id="path296"
           d="m 109.69753,45.848476 c -0.53225,0.113675 -1.07895,0.135234 -1.61999,0.17817 0,0 0.30351,0.350004 0.30351,0.350004 v 0 c 0.549,-0.03913 1.10211,-0.05987 1.64437,-0.160591 z" />
        <path
           style="fill:#008000;stroke-width:0.264583"
           id="path297"
           d="m 110.37128,46.507765 c -0.65795,0.210452 -1.34364,0.272579 -2.02866,0.318701 0,0 0.30415,0.351253 0.30415,0.351253 v 0 c 0.69214,-0.04771 1.3828,-0.11334 2.05366,-0.301139 z" />
        <path
           style="fill:#008000;stroke-width:0.264583"
           id="path298"
           d="m 111.43826,47.201132 c -0.91108,0.394935 -1.91048,0.506912 -2.8862,0.631864 0,0 0.3015,0.343919 0.3015,0.343919 v 0 c 0.98585,-0.129813 1.99068,-0.240493 2.92086,-0.613868 z" />
        <path
           style="fill:#008000;stroke-width:0.264583"
           id="path299"
           d="m 112.56421,48.244947 c -0.79538,0.319889 -1.64699,0.426067 -2.49957,0.433221 -0.2273,0.0019 -0.45445,-0.01225 -0.68167,-0.01836 0,0 0.29492,0.346943 0.29492,0.346943 v 0 c 1.11503,0.02207 2.15908,-0.0037 3.21808,-0.396465 z" />
        <path
           style="fill:#008000;stroke-width:0.264583"
           id="path300"
           d="m 113.32081,49.524361 c -0.82114,0.301239 -1.72174,0.272465 -2.58403,0.285067 0,0 0.29805,0.347801 0.29805,0.347801 v 0 c 0.87598,-0.01617 1.78633,0.01132 2.62562,-0.274889 z" />
        <path
           style="fill:#008000;stroke-width:0.264583"
           id="path301"
           d="m 115.34485,50.297183 c -1.1708,0.451746 -2.41994,0.636375 -3.65154,0.84088 0,0 0.29967,0.339198 0.29967,0.339198 v 0 c 1.23965,-0.213233 2.49282,-0.401899 3.68482,-0.817864 z" />
        <path
           style="fill:#008000;stroke-width:0.264583"
           id="path302"
           d="m 116.1733,51.447945 c -0.90109,0.333936 -1.82866,0.579282 -2.76195,0.803148 0,0 0.29771,0.332457 0.29771,0.332457 v 0 c 0.94172,-0.224123 1.87728,-0.469259 2.79776,-0.770403 z" />
        <path
           style="fill:#008000;stroke-width:0.264583"
           id="path303"
           d="m 117.4192,52.372786 c -0.89261,0.42369 -1.87179,0.611092 -2.83157,0.815282 0,0 0.29905,0.335618 0.29905,0.335618 v 0 c 0.96947,-0.206663 1.95505,-0.394345 2.86864,-0.792242 z" />
        <path
           style="fill:#008000;stroke-width:0.264583"
           id="path304"
           d="m 118.55695,53.30455 c -0.811,0.504676 -1.73161,0.7762 -2.64427,1.028805 0,0 0.30188,0.334661 0.30188,0.334661 v 0 c 0.92096,-0.256347 1.84711,-0.528941 2.68248,-1.006456 z" />
        <path
           style="fill:#008000;stroke-width:0.264583"
           id="path305"
           d="m 119.51458,54.283584 c -0.65671,0.437917 -1.443,0.552209 -2.20828,0.649306 0,0 0.30455,0.347379 0.30455,0.347379 v 0 c 0.7756,-0.103338 1.56897,-0.222374 2.24749,-0.641569 z" />
        <path
           style="fill:#008000;stroke-width:0.264583"
           id="path306"
           d="m 120.46107,54.889738 c -0.46492,0.328567 -0.99456,0.55309 -1.54378,0.699257 -0.22935,0.06104 -0.46452,0.09768 -0.69678,0.146523 0,0 0.30136,0.338439 0.30136,0.338439 v 0 c 0.23435,-0.04893 0.47137,-0.08647 0.70305,-0.146804 0.55862,-0.145478 1.09838,-0.364093 1.58023,-0.683527 z" />
        <path
           style="fill:#008000;stroke-width:0.264583"
           id="path307"
           d="m 124.00043,52.872708 c -0.42525,-0.238919 -0.86454,-0.455964 -1.24351,-0.767882 -0.009,-0.0077 0.007,-0.02561 0.002,-0.03639 -0.0711,-0.136107 -0.15291,-0.266327 -0.22936,-0.399492 0,0 -0.37224,-0.286356 -0.37224,-0.286356 v 0 c 0.0748,0.136287 0.12696,0.287679 0.22434,0.408858 0.19855,0.247092 0.42377,0.47279 0.65678,0.687692 0.36574,0.337312 0.84948,0.519819 1.2639,0.784421 z" />
        <path
           style="fill:#008000;stroke-width:0.264583"
           id="path308"
           d="m 123.55181,53.915233 c -0.17871,-0.146103 -0.26054,-0.207383 -0.43884,-0.385236 -0.004,-0.0035 0.0152,-0.0047 0.0122,-0.0087 -0.92793,-1.189892 0.25241,0.388313 -0.65956,-0.843513 0,0 -0.3717,-0.278693 -0.3717,-0.278693 v 0 c 0.51243,0.698987 1.06532,1.374373 1.75276,1.911194 z" />
        <path
           style="fill:#008000;stroke-width:0.264583"
           id="path309"
           d="m 123.78488,55.211998 c -0.18314,-0.127244 -0.22032,-0.147492 -0.40628,-0.305464 -0.0207,-0.01757 0.0806,0.06896 0.0678,0.04503 -0.0821,-0.153819 -0.18651,-0.294675 -0.27977,-0.442013 -0.085,-0.166995 -0.16992,-0.333989 -0.25489,-0.500984 0,0 -0.36586,-0.284083 -0.36586,-0.284083 v 0 c 0.10805,0.216951 0.35636,0.749036 0.51786,0.946862 0.29958,0.366974 0.6298,0.675608 1.02063,0.932156 z" />
      </g>
      <g
         id="g545"
         transform="translate(0,-90.83501)">
        <path
           style="fill:none;stroke:#000000;stroke-width:1;stroke-linecap:round;stroke-linejoin:round;stroke-dasharray:none"
           d="m 51.335888,125.44737 7.404869,0.42613 4.997753,-11.92788 2.689241,11.50175 -9.845197,-1.41053"
           id="path205" />
        <path
           style="fill:none;stroke:#000000;stroke-width:1;stroke-linecap:round;stroke-dasharray:none"
           d="m 63.819713,113.87747 14.241862,-6.18276 1.734513,-1.67996"
           id="path206" />
        <path
           style="fill:none;stroke:#000000;stroke-width:1;stroke-linecap:round;stroke-dasharray:none"
           d="m 76.409737,108.6619 0.18349,9.47984 4.316752,7.70585"
           id="path207" />
        <ellipse
           style="fill:none;stroke:#000000;stroke-width:1;stroke-linecap:round;stroke-linejoin:round;stroke-dasharray:none"
           id="path312"
           cx="82.75592"
           cy="101.91245"
           rx="4.7203417"
           ry="5.034596" />
      </g>
    </g>
  </g>
</svg>
