<?xml version="1.0" encoding="UTF-8" standalone="no"?>
<!-- Created with Inkscape (http://www.inkscape.org/) -->

<svg
   width="65.662674mm"
   height="43.761364mm"
   viewBox="0 0 65.662674 43.761364"
   version="1.1"
   id="svg1"
   xmlns="http://www.w3.org/2000/svg"
   xmlns:svg="http://www.w3.org/2000/svg">
  <defs
     id="defs1" />
  <g
     id="layer1"
     transform="translate(-140.52271,-145.47105)">
    <g
       id="g5">
      <g
         id="g1681"
         transform="translate(12.382173,-101.40826)">
        <path
           style="fill:none;stroke:#000000;stroke-width:1;stroke-linecap:round;stroke-dasharray:none"
           d="m 189.08286,290.14067 -0.5,-12.10022 v -3.66876"
           id="path424-2" />
        <path
           style="fill:none;stroke:#000000;stroke-width:1;stroke-linecap:round;stroke-dasharray:none"
           d="m 188.58286,278.34634 c 0,0 -3.50995,5.63042 -3.45814,3.8159 0.0373,-1.30508 0.36756,-4.89258 0.65942,-6.44086 0.11392,-0.60437 1.46351,-0.42276 1.46351,-0.42276"
           id="path425-9" />
        <ellipse
           style="fill:none;stroke:#000000;stroke-width:1;stroke-linecap:round;stroke-linejoin:round;stroke-dasharray:none"
           id="ellipse425-1"
           cx="188.58287"
           cy="269.3371"
           rx="4.7203417"
           ry="5.034596" />
      </g>
      <g
         id="g1639"
         transform="translate(18.269578,-16.885129)">
        <g
           id="g1638"
           transform="translate(0,43.351855)">
          <path
             style="fill:none;stroke:#000000;stroke-width:1;stroke-linecap:round;stroke-dasharray:none"
             d="m 147.84191,151.87809 v -2.47553"
             id="path1637" />
          <ellipse
             style="fill:none;stroke:#000000;stroke-width:1;stroke-linecap:round;stroke-linejoin:round;stroke-dasharray:none"
             id="ellipse1638"
             cx="147.8419"
             cy="144.36797"
             rx="4.7203417"
             ry="5.034596" />
        </g>
        <path
           style="fill:#ffcc00;fill-opacity:1;stroke:#ffcc00;stroke-width:1;stroke-linecap:round;stroke-linejoin:round;stroke-dasharray:none"
           d="m 143.36368,192.93831 c 0.19484,-0.616 -1.61633,-5.83402 1.05075,-8.83833 1.94606,-2.19213 5.49455,-1.81955 7.06208,0.19308 2.0843,2.67615 1.73084,5.49031 1.17086,8.65465 0,0 -1.21575,0.62715 -2.28737,0.002 -0.6226,-0.36316 -1.88027,0.0144 -2.729,0.0314 -0.45255,0.009 -1.43308,-0.44388 -2.29901,-0.0325 -0.4966,0.23593 -1.96831,-0.0104 -1.96831,-0.0104 z"
           id="path1638" />
      </g>
      <g
         id="g1641"
         transform="translate(21.587425,-16.885129)">
        <g
           id="g1640"
           transform="translate(20.182976,43.351855)">
          <path
             style="fill:none;stroke:#000000;stroke-width:1;stroke-linecap:round;stroke-dasharray:none"
             d="m 147.84193,151.87809 v -2.47553"
             id="path1639" />
          <ellipse
             style="fill:none;stroke:#000000;stroke-width:1;stroke-linecap:round;stroke-linejoin:round;stroke-dasharray:none"
             id="ellipse1639"
             cx="147.8419"
             cy="144.36797"
             rx="4.7203417"
             ry="5.034596" />
        </g>
        <path
           style="fill:#000000;fill-opacity:1;stroke:#000000;stroke-width:1;stroke-linecap:round;stroke-linejoin:round;stroke-dasharray:none"
           d="m 161.65255,184.29627 h 11.10678"
           id="path1640" />
        <path
           style="fill:#000000;fill-opacity:1;stroke:#000000;stroke-width:1;stroke-linecap:round;stroke-linejoin:round;stroke-dasharray:none"
           d="m 164.56389,184.29627 c 0.33561,-4.89795 6.83833,-4.89795 6.85561,0 z"
           id="path1641" />
      </g>
      <path
         id="ellipse1642"
         style="fill:none;stroke:#000000;stroke-width:0.670206;stroke-linecap:round;stroke-linejoin:round"
         d="m 178.2253,173.07963 a 3.1636023,3.3742175 0 0 0 -3.16363,3.37396 3.1636023,3.3742175 0 0 0 0.5488,1.89136 h 5.22914 a 3.1636023,3.3742175 0 0 0 0.5488,-1.89136 3.1636023,3.3742175 0 0 0 -3.16311,-3.37396 z" />
      <path
         style="fill:#000000;fill-opacity:1;stroke:#ff0000;stroke-width:0.670206;stroke-linecap:round;stroke-linejoin:round;stroke-dasharray:none"
         d="m 175.175,174.56407 h 7.73804"
         id="path1643" />
      <path
         style="fill:#000000;fill-opacity:1;stroke:#ff0000;stroke-width:0.670206;stroke-linecap:round;stroke-linejoin:round;stroke-dasharray:none"
         d="m 175.175,174.56407 c 0.22493,-3.28263 5.96182,-3.28263 5.9734,0 z"
         id="path1644" />
      <g
         id="g1654"
         transform="translate(-14.732316,-56.019783)">
        <g
           id="g1650"
           transform="translate(14.630094,-12.732781)">
          <rect
             style="fill:#502d16;fill-opacity:1;stroke:none;stroke-width:0.75076;stroke-linecap:round;stroke-linejoin:round;stroke-dasharray:none"
             id="rect1647"
             width="4.754528"
             height="13.399219"
             x="154.30219"
             y="224.23393" />
          <path
             id="path1648"
             style="fill:#2d5016;fill-opacity:1;stroke:none;stroke-width:1;stroke-linecap:round;stroke-linejoin:round;stroke-dasharray:none"
             d="m 156.83271,216.40274 -15.70757,13.7542 v 0.7767 h 31.99598 z" />
          <path
             id="path1649"
             style="fill:#3a671c;fill-opacity:1;stroke:none;stroke-width:0.759521;stroke-linecap:round;stroke-linejoin:round;stroke-dasharray:none"
             d="m 152.41127,214.72377 -8.21965,7.19698 h 24.97573 l -8.06772,-7.19698 z" />
        </g>
        <g
           id="g1653">
          <path
             id="rect1650"
             style="fill:#502d16;fill-opacity:1;stroke:none;stroke-width:0.75076;stroke-linecap:round;stroke-linejoin:round;stroke-dasharray:none"
             d="m 155.79606,224.23408 v 10.13065 h 3.26078 v -10.13065 z" />
          <path
             id="path1651"
             style="fill:#2d5016;fill-opacity:1;stroke:none;stroke-width:1;stroke-linecap:round;stroke-linejoin:round;stroke-dasharray:none"
             d="m 156.83269,216.40303 -1.03663,0.90744 v 13.62294 h 17.32504 z" />
          <path
             id="path1652"
             style="fill:#3a671c;fill-opacity:1;stroke:none;stroke-width:0.759521;stroke-linecap:round;stroke-linejoin:round;stroke-dasharray:none"
             d="m 156.796,210.8845 -0.99994,0.8754 v 10.16114 h 13.37127 z" />
          <path
             id="path1653"
             style="fill:#447821;fill-opacity:1;stroke:none;stroke-width:0.568781;stroke-linecap:round;stroke-linejoin:round;stroke-dasharray:none"
             d="m 156.76654,206.75194 -0.97048,0.84956 v 7.41557 h 10.23503 z" />
        </g>
      </g>
      <ellipse
         style="fill:#ffffff;fill-opacity:1;stroke:#000000;stroke-width:0.2;stroke-linecap:round;stroke-linejoin:round;stroke-dasharray:none"
         id="ellipse1654"
         cx="178.85414"
         cy="159.32526"
         rx="2.9010675"
         ry="2.0214677" />
      <ellipse
         style="fill:#ffffff;fill-opacity:1;stroke:#000000;stroke-width:0.2;stroke-linecap:round;stroke-linejoin:round;stroke-dasharray:none"
         id="ellipse1655"
         cx="172.16991"
         cy="168.47241"
         rx="0.75655538"
         ry="0.63470322" />
      <path
         id="ellipse1656"
         style="fill:#ffffff;fill-opacity:1;stroke:#000000;stroke-width:0.3;stroke-linecap:round;stroke-linejoin:round;stroke-dasharray:none"
         d="m 172.93931,145.97121 a 8.8601589,7.433126 0 0 0 -0.59789,2.63033 8.8601589,7.433126 0 0 0 8.86044,7.43314 8.8601589,7.433126 0 0 0 8.85992,-7.43314 8.8601589,7.433126 0 0 0 -0.57567,-2.63033 z" />
      <path
         id="path1656"
         style="fill:#ff0000;stroke:none;stroke-width:4.23759;stroke-linecap:round;stroke-linejoin:round;stroke-dasharray:none"
         d="m 175.81459,145.97121 c -0.0536,0.36966 -0.0751,0.75984 -0.0558,1.16634 0.17422,3.68368 4.86534,7.14892 4.86534,7.14892 0,0 5.27171,-4.35083 5.95726,-7.22592 0.0867,-0.36362 0.09,-0.73134 0.0269,-1.08934 z" />
      <ellipse
         style="fill:#ffffff;fill-opacity:1;stroke:#000000;stroke-width:0.2;stroke-linecap:round;stroke-linejoin:round;stroke-dasharray:none"
         id="ellipse1657"
         cx="177.04836"
         cy="165.39075"
         rx="1.8728429"
         ry="1.3975805" />
      <ellipse
         style="fill:#ffffff;fill-opacity:1;stroke:#000000;stroke-width:0.2;stroke-linecap:round;stroke-linejoin:round;stroke-dasharray:none"
         id="ellipse1658"
         cx="178.19513"
         cy="169.67923"
         rx="0.75655538"
         ry="0.63470322" />
      <ellipse
         style="fill:#ffffff;fill-opacity:1;stroke:#000000;stroke-width:0.2;stroke-linecap:round;stroke-linejoin:round;stroke-dasharray:none"
         id="ellipse1659"
         cx="181.71799"
         cy="169.19943"
         rx="0.75655538"
         ry="0.63470322" />
      <rect
         style="fill:none;fill-opacity:1;stroke:#000000;stroke-width:1;stroke-linecap:round;stroke-linejoin:round;stroke-dasharray:none"
         id="rect1681"
         width="53.324051"
         height="32.373779"
         x="141.02271"
         y="145.97104" />
    </g>
  </g>
</svg>
