<?xml version="1.0" encoding="UTF-8" standalone="no"?>
<!-- Created with Inkscape (http://www.inkscape.org/) -->

<svg
   width="110.91115mm"
   height="86.590919mm"
   viewBox="0 0 110.91115 86.590919"
   version="1.1"
   id="svg1"
   xmlns="http://www.w3.org/2000/svg"
   xmlns:svg="http://www.w3.org/2000/svg">
  <defs
     id="defs1" />
  <g
     id="layer1"
     transform="translate(-50.054715,-260.18981)">
    <g
       id="g9">
      <rect
         style="fill:#373e48;stroke:none;stroke-width:3;stroke-linecap:round;stroke-linejoin:round;paint-order:markers fill stroke"
         id="rect7"
         width="110.91115"
         height="86.590935"
         x="50.054718"
         y="260.18982"
         ry="6.9337568" />
      <circle
         style="opacity:1;fill:#338000;fill-opacity:1;stroke:#008000;stroke-width:1;stroke-linecap:round;stroke-linejoin:round;stroke-dasharray:none"
         id="path3575"
         cx="82.352722"
         cy="316.19403"
         r="26.115149" />
      <path
         style="opacity:1;fill:#2a7fff;fill-opacity:1;stroke:#0066ff;stroke-width:0.499999;stroke-linecap:round;stroke-linejoin:round;stroke-dasharray:none"
         d="m 65.498368,296.24578 c 0,0 -4.303728,5.82594 -1.468025,10.90774 2.835704,5.08177 0.437494,4.11522 -0.109746,8.08736 -0.547238,3.97211 -2.906374,5.28396 0.359161,8.30127 3.265535,3.01731 5.980573,0.63916 6.614723,4.60158 0.634151,3.9624 -0.759203,5.21772 1.670037,7.64027 2.42924,2.42255 4.08301,2.96913 7.511177,1.02637 3.428166,-1.94276 5.848149,-4.46606 3.436308,-7.0603 -2.411841,-2.59424 -5.771706,-4.55393 -5.829226,-6.49118 -0.05752,-1.93725 -0.04596,-4.07601 1.34036,-6.38236 1.386317,-2.30632 2.152105,-6.35598 0.673278,-8.36059 -1.478825,-2.00459 -3.693721,-0.32928 -3.413943,-5.47897 0.279781,-5.14969 2.424674,-7.58489 0.746085,-8.41383 -1.678588,-0.82897 -9.385757,-0.49017 -11.709701,1.7757"
         id="path3576" />
      <path
         id="path3577"
         style="opacity:1;fill:#2a7fff;fill-opacity:1;stroke:#0066ff;stroke-width:0.499999;stroke-linecap:round;stroke-linejoin:round;stroke-dasharray:none"
         d="m 105.70803,306.61707 c -0.98466,-0.0548 -1.57208,1.25035 -2.98844,1.88102 -1.88849,0.84093 -1.07704,1.12899 -2.760559,2.41174 -1.683515,1.28277 -3.164174,0.18258 -5.406905,-1.34823 -2.242728,-1.53085 -3.955225,-1.4969 -5.861141,-1.22629 -1.905916,0.27062 -3.251534,2.60327 -3.955831,4.43591 -0.704298,1.83266 4.68e-4,3.90862 1.420585,6.64714 1.420121,2.73849 4.125159,2.58961 5.628597,4.29276 1.503438,1.70315 2.049408,3.99537 1.05575,6.45594 -0.993658,2.46056 -1.397788,4.72718 -0.757577,7.07502 0.595795,2.18493 5.425725,-0.0422 6.11694,-0.37207 a 26.115149,26.115149 0 0 0 10.268621,-20.67574 26.115149,26.115149 0 0 0 -1.60403,-8.99894 c -0.45876,-0.39161 -0.82937,-0.56008 -1.15601,-0.57826 z" />
      <path
         style="fill:none;stroke:#000000;stroke-width:1;stroke-linecap:round;stroke-dasharray:none"
         d="m 85.227395,289.34316 2.278993,-9.09567 0.682867,-2.39152"
         id="path3578" />
      <ellipse
         style="fill:none;stroke:#000000;stroke-width:1;stroke-linecap:round;stroke-linejoin:round;stroke-dasharray:none"
         id="ellipse3578"
         cx="88.689255"
         cy="272.80893"
         rx="4.7203417"
         ry="5.034596" />
      <path
         style="fill:none;stroke:#000000;stroke-width:1;stroke-linecap:round;stroke-dasharray:none"
         d="m 87.506388,280.24749 5.989399,1.48127 5.722456,-1.99702"
         id="path3579" />
      <path
         style="fill:none;fill-opacity:1;stroke:#000000;stroke-width:1;stroke-linecap:round;stroke-linejoin:round;stroke-dasharray:none"
         d="m 81.763028,295.62352 0.212112,-5.54191 3.252255,-0.73845 2.631621,1.32281 -0.852628,5.35058"
         id="path3580" />
      <circle
         style="opacity:1;fill:#c87137;fill-opacity:1;stroke:#784421;stroke-width:1;stroke-linecap:round;stroke-linejoin:round;stroke-dasharray:none"
         id="circle3580"
         cx="133.54176"
         cy="285.7973"
         r="17.54093" />
      <ellipse
         style="fill:#784421;fill-opacity:1;stroke:none;stroke-width:3;stroke-linecap:round;stroke-linejoin:round;paint-order:markers fill stroke"
         id="path7"
         cx="125.06786"
         cy="283.05695"
         rx="2.766506"
         ry="2.7403464" />
      <ellipse
         style="fill:#784421;fill-opacity:1;stroke:none;stroke-width:3;stroke-linecap:round;stroke-linejoin:round;paint-order:markers fill stroke"
         id="path8"
         cx="140.70125"
         cy="276.17584"
         rx="2.6148436"
         ry="2.2409878" />
      <ellipse
         style="fill:#784421;fill-opacity:1;stroke:none;stroke-width:3;stroke-linecap:round;stroke-linejoin:round;paint-order:markers fill stroke"
         id="path9"
         cx="136.84155"
         cy="292.00922"
         rx="4.1016712"
         ry="3.9501467" />
    </g>
  </g>
</svg>
