<?xml version="1.0" encoding="UTF-8" standalone="no"?>
<!-- Created with Inkscape (http://www.inkscape.org/) -->

<svg
   width="33.988853mm"
   height="29.703007mm"
   viewBox="0 0 33.988853 29.703007"
   version="1.1"
   id="svg20731"
   xml:space="preserve"
   inkscape:version="1.2.2 (b0a8486541, 2022-12-01)"
   sodipodi:docname="path.svg"
   xmlns:inkscape="http://www.inkscape.org/namespaces/inkscape"
   xmlns:sodipodi="http://sodipodi.sourceforge.net/DTD/sodipodi-0.dtd"
   xmlns="http://www.w3.org/2000/svg"
   xmlns:svg="http://www.w3.org/2000/svg"><sodipodi:namedview
     id="namedview20733"
     pagecolor="#ffffff"
     bordercolor="#000000"
     borderopacity="0.25"
     inkscape:showpageshadow="2"
     inkscape:pageopacity="0.0"
     inkscape:pagecheckerboard="0"
     inkscape:deskcolor="#d1d1d1"
     inkscape:document-units="mm"
     showgrid="false"
     inkscape:zoom="4.0416191"
     inkscape:cx="102.68162"
     inkscape:cy="93.032022"
     inkscape:window-width="1920"
     inkscape:window-height="1131"
     inkscape:window-x="0"
     inkscape:window-y="32"
     inkscape:window-maximized="1"
     inkscape:current-layer="layer1" /><defs
     id="defs20728"><inkscape:path-effect
       effect="perspective-envelope"
       up_left_point="14.733902,19.74099"
       up_right_point="38.342786,20.406393"
       down_left_point="11.28173,31.180095"
       down_right_point="43.220172,30.930096"
       id="path-effect1375"
       is_visible="true"
       lpeversion="1"
       deform_type="perspective"
       horizontal_mirror="false"
       vertical_mirror="false"
       overflow_perspective="false" /><inkscape:path-effect
       effect="perspective-envelope"
       up_left_point="10.530139,19.676942"
       up_right_point="19.469396,21.759171"
       down_left_point="10.842678,30.151266"
       down_right_point="19.932024,31.572355"
       id="path-effect1361"
       is_visible="true"
       lpeversion="1"
       deform_type="perspective"
       horizontal_mirror="false"
       vertical_mirror="false"
       overflow_perspective="false" /><inkscape:path-effect
       effect="perspective-envelope"
       up_left_point="14.106132,12.941021"
       up_right_point="21.254012,12.941021"
       down_left_point="14.106132,31.060008"
       down_right_point="21.254012,31.060008"
       id="path-effect1355"
       is_visible="true"
       lpeversion="1"
       deform_type="perspective"
       horizontal_mirror="false"
       vertical_mirror="false"
       overflow_perspective="false" /><inkscape:path-effect
       effect="perspective-envelope"
       up_left_point="24.303153,35.332381"
       up_right_point="52.951108,41.046102"
       down_left_point="24.303153,51.965026"
       down_right_point="67.136339,52.235208"
       id="path-effect1169"
       is_visible="true"
       lpeversion="1"
       deform_type="perspective"
       horizontal_mirror="false"
       vertical_mirror="false"
       overflow_perspective="false" /></defs><g
     inkscape:label="Layer 1"
     inkscape:groupmode="layer"
     id="layer1"
     transform="translate(-13.121414,-1.4770883)"><g
       id="g1180"
       transform="translate(-1.5875)"><path
         style="fill:#ffcc00;fill-opacity:1;stroke:none;stroke-width:0.499999;stroke-linecap:round;stroke-linejoin:round;stroke-dasharray:none;paint-order:normal"
         d="m 46.383715,1.7550994 -1.576043,-4e-7 v 29.174997 h 1.576043 z"
         id="path22996-1"
         inkscape:export-filename="stop.svg"
         inkscape:export-xdpi="96"
         inkscape:export-ydpi="96" /><path
         style="fill:none;stroke:#1a1a1a;stroke-width:0.5;stroke-linecap:round;stroke-linejoin:round;stroke-dasharray:none;paint-order:normal"
         d="m 44.807672,1.755099 1.576043,4e-7 V 22.436257 m 0,2.39558 v 6.098258 H 44.807672 V 6.7561455"
         id="path20826-2"
         sodipodi:nodetypes="ccccccc" /><path
         style="fill:#ffcc00;fill-opacity:1;stroke:#1a1a1a;stroke-width:0.476775;stroke-linecap:round;stroke-linejoin:round;stroke-dasharray:none;paint-order:normal"
         d="m 48.459378,11.936018 h -5.727369 v 10.561408 h 5.727369 z"
         id="path21266-7"
         sodipodi:nodetypes="ccccc" /><path
         style="fill:#000000;fill-opacity:1;stroke:#1a1a1a;stroke-width:0.5;stroke-linecap:round;stroke-linejoin:round;stroke-dasharray:none;paint-order:normal"
         d="m 44.807675,5.3743173 h -3.955772 c -2.037992,0 -2.037992,-3.647229 0.01746,-3.647229 l 3.938311,0.028011 z"
         id="path21994-0"
         sodipodi:nodetypes="ccccc" /><rect
         style="fill:#800000;fill-opacity:1;stroke:none;stroke-width:0.356053;stroke-linecap:round;stroke-linejoin:round;stroke-dasharray:none;paint-order:normal"
         id="rect22882-9"
         width="1.9504328"
         height="0.82337338"
         x="39.930286"
         y="2.0632818"
         ry="0.41168669" /><rect
         style="fill:#800000;fill-opacity:1;stroke:none;stroke-width:0.356053;stroke-linecap:round;stroke-linejoin:round;stroke-dasharray:none;paint-order:normal"
         id="rect22936-3"
         width="1.9504328"
         height="0.82337338"
         x="42.077019"
         y="2.0632818"
         ry="0.41168669" /><rect
         style="fill:#800000;fill-opacity:1;stroke:none;stroke-width:0.356053;stroke-linecap:round;stroke-linejoin:round;stroke-dasharray:none;paint-order:normal"
         id="rect22938-6"
         width="1.9504328"
         height="0.82337338"
         x="39.930286"
         y="3.0640488"
         ry="0.41168669" /><rect
         style="fill:#0044aa;fill-opacity:1;stroke:none;stroke-width:0.356053;stroke-linecap:round;stroke-linejoin:round;stroke-dasharray:none;paint-order:normal"
         id="rect22940-0"
         width="1.9504328"
         height="0.82337338"
         x="42.077019"
         y="3.0640488"
         ry="0.41168669" /><rect
         style="fill:#ffffff;fill-opacity:1;stroke:none;stroke-width:0.499999;stroke-linecap:round;stroke-linejoin:round;stroke-dasharray:none;paint-order:normal"
         id="rect35046-6"
         width="4.4203029"
         height="6.7967844"
         x="43.385532"
         y="12.944205"
         ry="0.63916832" /></g><path
       style="color:#000000;fill:#0088aa;stroke-linecap:round;stroke-dasharray:2.5, 7.5;-inkscape-stroke:none"
       d="m 26.903298,20.085877 -0.294901,-0.0037 -0.303967,1.05e-4 -0.306067,0.0021 -0.309661,0.0047 -0.07573,0.0012 c -0.513313,0.0106 -0.881822,0.213748 -0.819859,0.45697 0.0628,0.246955 0.543674,0.439216 1.070648,0.426003 l 0.0658,-0.0012 0.291057,-0.0061 0.28159,-0.0028 0.273639,-8.36e-4 0.26586,0.0018 c 0.199697,0.0027 0.392747,0.008 0.578858,0.01677 0.523737,0.02475 0.937325,-0.154987 0.925034,-0.397816 -0.01179,-0.239049 -0.433128,-0.450494 -0.942271,-0.475568 -0.238098,-0.01179 -0.469475,-0.01778 -0.694245,-0.02155 z m -7.222308,0.212386 c -0.107924,0.01454 -0.2141,0.03128 -0.318948,0.04891 l -0.011,0.0011 -0.199203,0.03621 -0.20542,0.04115 -0.200781,0.04573 -0.199056,0.04886 -0.192675,0.05214 -0.189556,0.05609 -0.186333,0.05936 -0.182989,0.06196 -0.178206,0.06535 -0.06232,0.02471 c -0.438866,0.171476 -0.508521,0.472345 -0.14695,0.671511 0.365016,0.200998 1.022188,0.217978 1.459129,0.03856 l 0.0362,-0.01509 0.124784,-0.04781 0.123856,-0.04462 0.126264,-0.04214 0.126987,-0.03897 0.127839,-0.03657 0.128615,-0.03345 0.129421,-0.03036 0.130349,-0.02802 0.132785,-0.02492 c 0.06552,-0.01161 0.132188,-0.02201 0.197861,-0.03138 0.530073,-0.07573 0.821721,-0.334559 0.657763,-0.575707 -0.161128,-0.238093 -0.708556,-0.372539 -1.228408,-0.302602 z m 11.492764,1.665791 c -0.526196,-0.0077 -0.90629,0.199774 -0.846228,0.467294 l 0.01811,0.08565 0.01582,0.08988 0.01165,0.09183 0.0074,0.09381 0.0047,0.09585 0.0018,0.09714 -0.0026,0.09922 -0.0054,0.101362 -0.0086,0.101935 -0.0046,0.05762 c -0.02901,0.282587 0.403296,0.557779 0.96534,0.610099 0.561913,0.05232 1.026267,-0.139315 1.036991,-0.423274 l 0.0013,-0.06344 0.0022,-0.115012 -0.001,-0.115064 -0.0043,-0.115111 -0.0073,-0.114368 -0.01201,-0.114444 -0.01646,-0.113746 -0.02105,-0.113824 -0.02691,-0.11317 -0.02764,-0.09811 c -0.07484,-0.2656 -0.557365,-0.484112 -1.081096,-0.492133 z m -15.977149,1.38875 c -0.588544,-0.06689 -1.230133,0.118237 -1.436241,0.418474 l -0.01791,0.02445 -0.07202,0.110587 -0.06865,0.11049 -0.06526,0.11038 -0.06181,0.110258 -0.05806,0.109213 -0.05426,0.108137 -0.05068,0.107951 -0.04708,0.10775 -0.04106,0.105695 -0.03915,0.105422 -0.03306,0.103292 -0.01708,0.05661 c -0.09662,0.337209 0.361614,0.618168 1.022557,0.62172 0.658834,0.0036 1.251656,-0.270169 1.324633,-0.60531 l 0.01017,-0.0431 0.02081,-0.08028 0.02498,-0.08266 0.02727,-0.08502 0.03118,-0.0864 0.03526,-0.08867 0.03929,-0.0909 0.04286,-0.09128 0.04483,-0.09257 0.05032,-0.09378 0.05201,-0.09412 0.05566,-0.09531 0.0107,-0.01581 c 0.187225,-0.302528 -0.141159,-0.598285 -0.730206,-0.665192 z m 15.88267,2.8634 c -0.5348,0.117517 -0.750845,0.47272 -0.473862,0.797233 0.06828,0.08001 0.142472,0.154657 0.218819,0.223921 l 0.0062,0.005 0.06442,0.05741 0.07386,0.06062 0.07911,0.0598 0.0807,0.05795 0.08614,0.05811 0.08947,0.05624 0.08498,0.05023 0.0041,0.0031 c 0.240385,0.138908 0.417514,0.213295 0.483334,0.249833 l 0.01796,0.01037 0.329323,0.168728 0.31026,0.161447 c 0.504559,0.26243 1.220262,0.260002 1.588322,-0.0039 0.361989,-0.259695 0.244882,-0.671734 -0.251702,-0.921862 l -0.31304,-0.156885 -0.308871,-0.153922 0.03717,0.01979 c -0.224268,-0.120349 -0.369409,-0.182359 -0.424692,-0.212119 l -0.002,-0.001 c -0.0013,-6.54e-4 -0.0085,-0.0043 -0.0097,-0.0049 l -0.03728,-0.02156 -0.03171,-0.01956 -0.02999,-0.01954 -0.03019,-0.02049 -0.02846,-0.02046 -0.02698,-0.02139 -0.02526,-0.02136 c -0.03518,-0.03033 -0.06415,-0.05759 -0.08661,-0.08225 -0.287086,-0.315849 -0.943372,-0.475006 -1.473925,-0.3586 z m -13.361053,1.724011 c -0.466053,-0.255672 -1.25224,-0.233554 -1.767896,0.05163 -0.523923,0.28997 -0.577351,0.744692 -0.10646,1.013921 l 0.03572,0.02185 0.232206,0.125697 0.227011,0.116981 0.219623,0.108138 0.211848,0.100356 0.196449,0.08896 0.0038,0.0012 c 0.169045,0.075 0.344588,0.148744 0.523768,0.219945 l 0.0057,0.0024 0.254123,0.09808 0.17686,0.06393 0.06359,0.02252 c 0.597866,0.204978 1.402705,0.06812 1.786784,-0.299931 0.377016,-0.360279 0.204332,-0.805176 -0.375792,-0.999132 l -0.04129,-0.01344 -0.121543,-0.04253 -0.21592,-0.08042 C 18.893719,28.4888 18.762003,28.434794 18.631856,28.37905 l -0.0073,-0.0033 -0.163048,-0.07088 -0.173002,-0.07951 -0.179433,-0.08477 -0.185433,-0.09216 -0.189548,-0.09836 z m 21.741275,1.307853 c -0.629498,-0.09129 -1.152057,0.136212 -1.167699,0.514756 -0.01606,0.386136 0.499491,0.781901 1.152086,0.87688 l 0.190361,0.02776 0.437711,0.05863 0.460086,0.05614 0.485014,0.05594 0.509312,0.05457 0.364034,0.03695 c 0.64908,0.06486 1.110113,-0.210233 1.031989,-0.607277 -0.07681,-0.38892 -0.644192,-0.750016 -1.270034,-0.814019 l -0.338707,-0.03493 -0.465852,-0.04982 -0.435474,-0.051 -0.409227,-0.04999 -0.380282,-0.05114 z"
       id="path1363"
       inkscape:path-effect="#path-effect1375"
       inkscape:original-d="m 28.238281,8.4628906 -0.398437,0.013672 -0.410157,0.025391 -0.412109,0.03125 -0.416016,0.039063 L 26.5,8.5820313 a 1.25,1.25 0 0 0 -1.111328,1.375 1.25,1.25 0 0 0 1.375,1.1113277 l 0.08594,-0.0078 0.38086,-0.03711 0.36914,-0.02734 0.359375,-0.02149 0.34961,-0.01367 c 0.262889,-0.0065 0.51701,-0.0055 0.761718,0.0059 A 1.25,1.25 0 0 0 30.376953,9.7753906 1.25,1.25 0 0 0 29.185547,8.46875 C 28.863552,8.453788 28.550251,8.455369 28.246094,8.46289 Z M 18.783203,9.640625 c -0.134108,0.048688 -0.265366,0.1032835 -0.394531,0.1601563 l -0.01367,0.00391 -0.244141,0.1152344 -0.25,0.1289063 -0.242187,0.140625 -0.238281,0.148438 -0.228516,0.15625 -0.222656,0.166015 -0.216797,0.173828 -0.210938,0.179688 -0.203125,0.1875 -0.07031,0.07031 a 1.25,1.25 0 0 0 -0.01367,1.767579 1.25,1.25 0 0 0 1.767578,0.01367 l 0.04102,-0.04101 0.142578,-0.13086 0.142578,-0.123046 0.146484,-0.117188 0.148438,-0.109375 0.15039,-0.103516 0.152344,-0.0957 0.154297,-0.08789 0.15625,-0.08203 0.160156,-0.07422 c 0.07928,-0.03487 0.160252,-0.06667 0.240235,-0.0957 a 1.25,1.25 0 0 0 0.748047,-1.601563 1.25,1.25 0 0 0 -1.601563,-0.7500002 z m 14.759766,3.769531 A 1.25,1.25 0 0 0 32.3125,14.679688 l 0.002,0.21875 -0.002,0.228515 -0.0078,0.232422 -0.01367,0.236328 -0.01758,0.240235 -0.02148,0.242187 -0.02734,0.246094 -0.03125,0.25 -0.03516,0.25 -0.01953,0.140625 a 1.25,1.25 0 0 0 1.050781,1.421875 1.25,1.25 0 0 0 1.421875,-1.052735 l 0.02148,-0.154297 0.03906,-0.28125 0.03516,-0.283203 0.03125,-0.285156 0.02734,-0.285156 0.02148,-0.287109 0.01563,-0.28711 0.0098,-0.289062 0.002,-0.289063 -0.0039,-0.251953 a 1.25,1.25 0 0 0 -1.267578,-1.230469 z m -19.38086,4.1875 a 1.25,1.25 0 0 0 -1.46289,0.992188 l -0.01172,0.05469 -0.04297,0.246094 -0.03906,0.244141 -0.03516,0.242187 -0.03125,0.240234 -0.02734,0.236329 -0.02344,0.232421 -0.01953,0.230469 -0.01563,0.228516 -0.0098,0.222656 -0.0078,0.220703 -0.002,0.214844 v 0.117187 a 1.25,1.25 0 0 0 1.259765,1.240235 1.25,1.25 0 0 0 1.240235,-1.261719 v -0.08984 l 0.002,-0.167968 0.0059,-0.173829 0.0078,-0.179687 0.01172,-0.183594 0.01563,-0.189453 0.01953,-0.195312 0.02344,-0.197266 0.02539,-0.201172 0.03125,-0.205078 0.0332,-0.207031 0.03711,-0.210938 0.0078,-0.03516 a 1.25,1.25 0 0 0 -0.992188,-1.464844 z m 18.173828,5.783203 A 1.25,1.25 0 0 0 31.625,24.998047 c 0.06096,0.156968 0.129427,0.302751 0.201172,0.4375 l 0.0059,0.0098 0.06055,0.111329 0.07031,0.117187 0.07617,0.115234 0.07813,0.111329 0.08398,0.111328 0.08789,0.107422 0.08398,0.0957 0.0039,0.0059 c 0.237267,0.263543 0.417582,0.403801 0.482422,0.472656 l 0.01758,0.01953 0.326172,0.316406 0.304687,0.300781 a 1.25,1.25 0 0 0 1.767579,-0.01172 1.25,1.25 0 0 0 -0.01172,-1.767578 l -0.3125,-0.30664 -0.310547,-0.302735 0.03711,0.03906 c -0.224125,-0.23804 -0.374163,-0.360793 -0.429718,-0.419989 l -0.002,-0.002 c -0.0013,-0.0013 -0.0086,-0.0085 -0.0098,-0.0098 l -0.03711,-0.04297 -0.03125,-0.03906 -0.0293,-0.03906 -0.0293,-0.04102 -0.02734,-0.04102 -0.02539,-0.04297 -0.02344,-0.04297 c -0.03253,-0.06109 -0.05874,-0.116113 -0.07813,-0.166016 A 1.25,1.25 0 0 0 32.335846,23.38077 Z m -14.482421,3.458985 a 1.25,1.25 0 0 0 -1.765625,0.09961 1.25,1.25 0 0 0 0.09961,1.763672 l 0.03906,0.03711 0.25,0.212891 0.242188,0.197266 0.232422,0.18164 0.222656,0.167969 0.205078,0.148437 0.0039,0.002 c 0.175702,0.124802 0.357024,0.247244 0.541016,0.365234 l 0.0059,0.0039 0.259766,0.16211 0.179688,0.105468 0.06445,0.03711 a 1.25,1.25 0 0 0 1.701172,-0.482422 1.25,1.25 0 0 0 -0.480469,-1.701172 l -0.04297,-0.02344 -0.126953,-0.07422 -0.226563,-0.140625 c -0.140264,-0.0903 -0.279657,-0.185127 -0.417968,-0.283203 l -0.0078,-0.0059 -0.173828,-0.125 -0.185547,-0.140625 -0.193359,-0.15039 -0.201172,-0.164063 -0.207031,-0.175781 z m 23.042968,2.349609 a 1.25,1.25 0 0 0 -1.515625,0.910156 1.25,1.25 0 0 0 0.910157,1.515625 l 0.195312,0.04883 0.451172,0.103516 0.476562,0.09961 0.503907,0.09961 0.53125,0.09766 0.380859,0.06641 a 1.25,1.25 0 0 0 1.443359,-1.019531 1.25,1.25 0 0 0 -1.017578,-1.443359 l -0.367187,-0.06445 -0.503906,-0.0918 -0.46875,-0.09375 -0.439454,-0.0918 -0.40625,-0.09375 z" /><g
       id="g1191"
       transform="translate(3.7041668)"><path
         style="fill:#ffcc00;fill-opacity:1;stroke:none;stroke-width:0.499999;stroke-linecap:round;stroke-linejoin:round;stroke-dasharray:none;paint-order:normal"
         d="m 18.337866,1.7550994 -1.576043,-4e-7 v 29.174997 h 1.576043 z"
         id="path22996"
         inkscape:export-filename="stop.svg"
         inkscape:export-xdpi="96"
         inkscape:export-ydpi="96" /><path
         style="fill:none;stroke:#1a1a1a;stroke-width:0.5;stroke-linecap:round;stroke-linejoin:round;stroke-dasharray:none;paint-order:normal"
         d="m 16.761823,1.755099 1.576043,4e-7 V 22.436257 m 0,2.39558 v 6.098258 H 16.761823 V 6.7561455"
         id="path20826"
         sodipodi:nodetypes="ccccccc" /><path
         style="fill:#ffcc00;fill-opacity:1;stroke:#1a1a1a;stroke-width:0.476775;stroke-linecap:round;stroke-linejoin:round;stroke-dasharray:none;paint-order:normal"
         d="M 20.413529,11.936018 H 14.68616 v 10.561408 h 5.727369 z"
         id="path21266"
         sodipodi:nodetypes="ccccc" /><path
         style="fill:#000000;fill-opacity:1;stroke:#1a1a1a;stroke-width:0.5;stroke-linecap:round;stroke-linejoin:round;stroke-dasharray:none;paint-order:normal"
         d="m 16.761826,5.3743173 h -3.955772 c -2.037992,0 -2.037992,-3.647229 0.01746,-3.647229 l 3.938311,0.028011 z"
         id="path21994"
         sodipodi:nodetypes="ccccc" /><rect
         style="fill:#800000;fill-opacity:1;stroke:none;stroke-width:0.356053;stroke-linecap:round;stroke-linejoin:round;stroke-dasharray:none;paint-order:normal"
         id="rect22882"
         width="1.9504328"
         height="0.82337338"
         x="11.884446"
         y="2.0632818"
         ry="0.41168669" /><rect
         style="fill:#800000;fill-opacity:1;stroke:none;stroke-width:0.356053;stroke-linecap:round;stroke-linejoin:round;stroke-dasharray:none;paint-order:normal"
         id="rect22936"
         width="1.9504328"
         height="0.82337338"
         x="14.03118"
         y="2.0632818"
         ry="0.41168669" /><rect
         style="fill:#800000;fill-opacity:1;stroke:none;stroke-width:0.356053;stroke-linecap:round;stroke-linejoin:round;stroke-dasharray:none;paint-order:normal"
         id="rect22938"
         width="1.9504328"
         height="0.82337338"
         x="11.884446"
         y="3.0640488"
         ry="0.41168669" /><rect
         style="fill:#0044aa;fill-opacity:1;stroke:none;stroke-width:0.356053;stroke-linecap:round;stroke-linejoin:round;stroke-dasharray:none;paint-order:normal"
         id="rect22940"
         width="1.9504328"
         height="0.82337338"
         x="14.03118"
         y="3.0640488"
         ry="0.41168669" /><rect
         style="opacity:1;fill:#ffffff;fill-opacity:1;stroke:none;stroke-width:0.499999;stroke-linecap:round;stroke-linejoin:round;stroke-dasharray:none;paint-order:normal"
         id="rect35046"
         width="4.4203029"
         height="6.7967844"
         x="15.339693"
         y="12.944205"
         ry="0.63916832" /></g></g><style
     type="text/css"
     id="style3760">
	.st0{fill-rule:evenodd;clip-rule:evenodd;fill:#388344;}
	.st1{fill-rule:evenodd;clip-rule:evenodd;fill:#1F1D21;}
</style></svg>
