<?xml version="1.0" encoding="UTF-8" standalone="no"?>
<!-- Created with Inkscape (http://www.inkscape.org/) -->

<svg
   width="8.2374973mm"
   height="8.2374973mm"
   viewBox="0 0 8.2374973 8.2374973"
   version="1.1"
   id="svg20731"
   xml:space="preserve"
   inkscape:version="1.2.2 (b0a8486541, 2022-12-01)"
   sodipodi:docname="stop attrs.svg"
   xmlns:inkscape="http://www.inkscape.org/namespaces/inkscape"
   xmlns:sodipodi="http://sodipodi.sourceforge.net/DTD/sodipodi-0.dtd"
   xmlns="http://www.w3.org/2000/svg"
   xmlns:svg="http://www.w3.org/2000/svg"><sodipodi:namedview
     id="namedview20733"
     pagecolor="#ffffff"
     bordercolor="#000000"
     borderopacity="0.25"
     inkscape:showpageshadow="2"
     inkscape:pageopacity="0.0"
     inkscape:pagecheckerboard="0"
     inkscape:deskcolor="#d1d1d1"
     inkscape:document-units="mm"
     showgrid="true"
     inkscape:zoom="4"
     inkscape:cx="138.5"
     inkscape:cy="89.5"
     inkscape:window-width="1920"
     inkscape:window-height="1043"
     inkscape:window-x="1920"
     inkscape:window-y="0"
     inkscape:window-maximized="1"
     inkscape:current-layer="layer1"><inkscape:grid
       type="xygrid"
       id="grid600"
       originx="141.8044"
       originy="9.5604158" /></sodipodi:namedview><defs
     id="defs20728" /><g
     inkscape:label="Layer 1"
     inkscape:groupmode="layer"
     id="layer1"
     transform="translate(109.37121,-11.890628)"><rect
       style="fill:#999999;fill-opacity:1;stroke:#000000;stroke-width:0.299999;stroke-linecap:round;stroke-linejoin:round;stroke-dasharray:none;paint-order:markers fill stroke"
       id="rect74561"
       width="7.9375"
       height="7.9375"
       x="-109.22121"
       y="12.040627"
       ry="0.90640503"
       rx="0.7937544" /><g
       id="g24328"
       transform="matrix(0.09549164,0,0,0.09549164,-107.87432,14.592398)"><g
         id="color-7"><path
           fill="#ea5a47"
           stroke="none"
           d="m 64.8,44 -1.1,-0.6 c -0.4,-0.2 -0.6,-0.6 -0.5,-1 0.3,-1.9 0.5,-8.5 -9.7,-11.5 -0.2,-0.1 -0.4,-0.1 -0.6,-0.1 l -19.6,0.1 c -0.4,0 -0.8,0.1 -1.1,0.3 l -10.3,6.9 c -0.2,0.1 -0.4,0.2 -0.6,0.2 -1.9,-0.1 -3.7,0.1 -5.6,0.4 -5.4,1.1 -7.6,4 -8.4,5.5 -0.2,0.3 -0.2,0.7 -0.2,1 0.1,2.4 -1.5,5.1 0.9,7.3 l 19.4,-0.1 20.4,-0.5 16.1,-0.2 c 0.9,-0.1001 2.4,-1.4 2.8,-2.2001 C 68.4,46.8 65,44.1 64.8,44 Z"
           id="path24280"
           style="fill:#2ca02c" /><path
           fill="#9b9b9a"
           stroke="none"
           d="m 17.3,46.4 c -2.2,0 -4,1.8 -4,4 0,2.2 1.8,4 4,4 2.2,0 4,-1.8 4,-4 0,-2.2 -1.8,-4 -4,-4 z"
           id="path24282" /><path
           fill="#9b9b9a"
           stroke="none"
           d="m 57.1,46.4 c -2.2,0 -4,1.8 -4,4 0,2.2 1.8,4 4,4 2.2,0 4,-1.8 4,-4 0,-2.2 -1.8,-4 -4,-4 z"
           id="path24284" /><path
           fill="#92d3f5"
           stroke="none"
           d="M 56.1,39.3 V 35 c 0,-0.9 -0.8,-1.7 -1.7,-1.7 v 0 H 33.2 c -0.1,0 -0.2,0 -0.2,0.1 l -8,5.7 c -0.2,0.1 -0.2,0.4 -0.1,0.6 0.1,0.1 0.2,0.2 0.3,0.2 5.6,0 27.2,-0.2 30.4,-0.1 0.3,0 0.5,-0.2 0.5,-0.5 0,0.1 0,0.1 0,0 z"
           id="path24286" /><polygon
           fill="#fcea2b"
           stroke="none"
           points="10.8,45 5.8,45.1 8.9,40.5 12.9,42.1 "
           id="polygon24288" /></g><g
         id="hair-6" /><g
         id="skin-5" /><g
         id="skin-shadow-6" /><g
         id="line-9"><line
           x1="47.599998"
           x2="27"
           y1="51"
           y2="51.400002"
           fill="none"
           stroke="#000000"
           stroke-linecap="round"
           stroke-linejoin="round"
           stroke-width="2"
           id="line24294" /><path
           fill="none"
           stroke="#000000"
           stroke-linecap="round"
           stroke-linejoin="round"
           stroke-width="2"
           d="M 8.1,51.4 C 7.2,51.2 6.4,50.9 6.3,50.4 6.2,49.4 6,46.6 6,45.3 6,44.8 6.1,44.2 6.4,43.8 7.5,41.8 11.2,37 21.3,37.4 L 31.6,30.5 C 32.1,30.2 32.7,30 33.2,30 l 19.6,-0.1 c 0.3,0 0.6,0 0.9,0.1 2.2,0.6 11.7,4 10.4,12.6 l 1.1,0.6 c 0.5,0.2 0.9,0.7 1,1.2 0.4,1.4 0.3,2.9 -0.2,4.3"
           id="path24296" /><polyline
           fill="none"
           stroke="#000000"
           stroke-linecap="round"
           stroke-linejoin="round"
           stroke-width="2"
           points="24.9,39.9 55.1,39.7 55.1,35.2"
           id="polyline24298" /><circle
           cx="17.299999"
           cy="50.400002"
           r="5"
           fill="none"
           stroke="#000000"
           stroke-linecap="round"
           stroke-linejoin="round"
           stroke-width="2"
           id="circle24300" /><circle
           cx="57.099998"
           cy="50.400002"
           r="5"
           fill="none"
           stroke="#000000"
           stroke-linecap="round"
           stroke-linejoin="round"
           stroke-width="2"
           id="circle24302" /><polyline
           fill="none"
           stroke="#000000"
           stroke-linecap="round"
           stroke-linejoin="round"
           stroke-width="2"
           points="12.3,42.9 10.5,45.1 6.8,45"
           id="polyline24304" /></g></g><g
       id="g24811"
       transform="matrix(0.26722886,0,0,0.26722886,-76.01379,1.3937827)"><path
         style="fill:#ffcc00;fill-opacity:1;stroke:none;stroke-width:0.499999;stroke-linecap:round;stroke-linejoin:round;stroke-dasharray:none;paint-order:normal"
         d="m -107.33921,40.119682 h -1.57605 v 29.174997 h 1.57605 z"
         id="path22996-3"
         inkscape:export-filename="stop.svg"
         inkscape:export-xdpi="96"
         inkscape:export-ydpi="96" /><path
         style="fill:none;stroke:#1a1a1a;stroke-width:0.5;stroke-linecap:round;stroke-linejoin:round;stroke-dasharray:none;paint-order:normal"
         d="m -108.91526,40.119682 h 1.57605 V 60.80084 m 0,2.39558 v 6.098258 h -1.57605 V 45.120729"
         id="path20826-74"
         sodipodi:nodetypes="ccccccc" /><path
         style="fill:#ffcc00;fill-opacity:1;stroke:#1a1a1a;stroke-width:0.476775;stroke-linecap:round;stroke-linejoin:round;stroke-dasharray:none;paint-order:normal"
         d="m -105.26355,50.300601 h -5.72737 v 10.561408 h 5.72737 z"
         id="path21266-5"
         sodipodi:nodetypes="ccccc" /><path
         style="fill:#000000;fill-opacity:1;stroke:#1a1a1a;stroke-width:0.5;stroke-linecap:round;stroke-linejoin:round;stroke-dasharray:none;paint-order:normal"
         d="m -108.91525,43.7389 h -3.95578 c -2.03799,0 -2.03799,-3.647229 0.0175,-3.647229 l 3.93831,0.02801 z"
         id="path21994-2"
         sodipodi:nodetypes="ccccc" /><rect
         style="fill:#800000;fill-opacity:1;stroke:none;stroke-width:0.356053;stroke-linecap:round;stroke-linejoin:round;stroke-dasharray:none;paint-order:normal"
         id="rect22882-5"
         width="1.9504328"
         height="0.82337338"
         x="-113.79263"
         y="40.427864"
         ry="0.41168669" /><rect
         style="fill:#800000;fill-opacity:1;stroke:none;stroke-width:0.356053;stroke-linecap:round;stroke-linejoin:round;stroke-dasharray:none;paint-order:normal"
         id="rect22936-4"
         width="1.9504328"
         height="0.82337338"
         x="-111.6459"
         y="40.427864"
         ry="0.41168669" /><rect
         style="fill:#800000;fill-opacity:1;stroke:none;stroke-width:0.356053;stroke-linecap:round;stroke-linejoin:round;stroke-dasharray:none;paint-order:normal"
         id="rect22938-74"
         width="1.9504328"
         height="0.82337338"
         x="-113.79263"
         y="41.428631"
         ry="0.41168669" /><rect
         style="fill:#0044aa;fill-opacity:1;stroke:none;stroke-width:0.356053;stroke-linecap:round;stroke-linejoin:round;stroke-dasharray:none;paint-order:normal"
         id="rect22940-4"
         width="1.9504328"
         height="0.82337338"
         x="-111.6459"
         y="41.428631"
         ry="0.41168669" /></g><g
       id="g24725"
       transform="matrix(-0.09549164,0,0,0.09549164,-102.26365,14.592398)"><g
         id="g24703"><path
           fill="#ea5a47"
           stroke="none"
           d="m 64.8,44 -1.1,-0.6 c -0.4,-0.2 -0.6,-0.6 -0.5,-1 0.3,-1.9 0.5,-8.5 -9.7,-11.5 -0.2,-0.1 -0.4,-0.1 -0.6,-0.1 l -19.6,0.1 c -0.4,0 -0.8,0.1 -1.1,0.3 l -10.3,6.9 c -0.2,0.1 -0.4,0.2 -0.6,0.2 -1.9,-0.1 -3.7,0.1 -5.6,0.4 -5.4,1.1 -7.6,4 -8.4,5.5 -0.2,0.3 -0.2,0.7 -0.2,1 0.1,2.4 -1.5,5.1 0.9,7.3 l 19.4,-0.1 20.4,-0.5 16.1,-0.2 c 0.9,-0.1001 2.4,-1.4 2.8,-2.2001 C 68.4,46.8 65,44.1 64.8,44 Z"
           id="path24693" /><path
           fill="#9b9b9a"
           stroke="none"
           d="m 17.3,46.4 c -2.2,0 -4,1.8 -4,4 0,2.2 1.8,4 4,4 2.2,0 4,-1.8 4,-4 0,-2.2 -1.8,-4 -4,-4 z"
           id="path24695" /><path
           fill="#9b9b9a"
           stroke="none"
           d="m 57.1,46.4 c -2.2,0 -4,1.8 -4,4 0,2.2 1.8,4 4,4 2.2,0 4,-1.8 4,-4 0,-2.2 -1.8,-4 -4,-4 z"
           id="path24697" /><path
           fill="#92d3f5"
           stroke="none"
           d="M 56.1,39.3 V 35 c 0,-0.9 -0.8,-1.7 -1.7,-1.7 v 0 H 33.2 c -0.1,0 -0.2,0 -0.2,0.1 l -8,5.7 c -0.2,0.1 -0.2,0.4 -0.1,0.6 0.1,0.1 0.2,0.2 0.3,0.2 5.6,0 27.2,-0.2 30.4,-0.1 0.3,0 0.5,-0.2 0.5,-0.5 0,0.1 0,0.1 0,0 z"
           id="path24699" /><polygon
           fill="#fcea2b"
           stroke="none"
           points="8.9,40.5 12.9,42.1 10.8,45 5.8,45.1 "
           id="polygon24701" /></g><g
         id="g24705" /><g
         id="g24707" /><g
         id="g24709" /><g
         id="g24723"><line
           x1="47.599998"
           x2="27"
           y1="51"
           y2="51.400002"
           fill="none"
           stroke="#000000"
           stroke-linecap="round"
           stroke-linejoin="round"
           stroke-width="2"
           id="line24711" /><path
           fill="none"
           stroke="#000000"
           stroke-linecap="round"
           stroke-linejoin="round"
           stroke-width="2"
           d="M 8.1,51.4 C 7.2,51.2 6.4,50.9 6.3,50.4 6.2,49.4 6,46.6 6,45.3 6,44.8 6.1,44.2 6.4,43.8 7.5,41.8 11.2,37 21.3,37.4 L 31.6,30.5 C 32.1,30.2 32.7,30 33.2,30 l 19.6,-0.1 c 0.3,0 0.6,0 0.9,0.1 2.2,0.6 11.7,4 10.4,12.6 l 1.1,0.6 c 0.5,0.2 0.9,0.7 1,1.2 0.4,1.4 0.3,2.9 -0.2,4.3"
           id="path24713" /><polyline
           fill="none"
           stroke="#000000"
           stroke-linecap="round"
           stroke-linejoin="round"
           stroke-width="2"
           points="24.9,39.9 55.1,39.7 55.1,35.2"
           id="polyline24715" /><circle
           cx="17.299999"
           cy="50.400002"
           r="5"
           fill="none"
           stroke="#000000"
           stroke-linecap="round"
           stroke-linejoin="round"
           stroke-width="2"
           id="circle24717" /><circle
           cx="57.099998"
           cy="50.400002"
           r="5"
           fill="none"
           stroke="#000000"
           stroke-linecap="round"
           stroke-linejoin="round"
           stroke-width="2"
           id="circle24719" /><polyline
           fill="none"
           stroke="#000000"
           stroke-linecap="round"
           stroke-linejoin="round"
           stroke-width="2"
           points="12.3,42.9 10.5,45.1 6.8,45"
           id="polyline24721" /></g></g></g><style
     type="text/css"
     id="style3760">
	.st0{fill-rule:evenodd;clip-rule:evenodd;fill:#388344;}
	.st1{fill-rule:evenodd;clip-rule:evenodd;fill:#1F1D21;}
</style></svg>
