<?xml version="1.0" encoding="UTF-8" standalone="no"?>
<!-- Created with Inkscape (http://www.inkscape.org/) -->

<svg
   width="8.437499mm"
   height="8.4374981mm"
   viewBox="0 0 8.437499 8.4374981"
   version="1.1"
   id="svg20731"
   xml:space="preserve"
   inkscape:version="1.2.2 (b0a8486541, 2022-12-01)"
   sodipodi:docname="stop attrs.svg"
   xmlns:inkscape="http://www.inkscape.org/namespaces/inkscape"
   xmlns:sodipodi="http://sodipodi.sourceforge.net/DTD/sodipodi-0.dtd"
   xmlns="http://www.w3.org/2000/svg"
   xmlns:svg="http://www.w3.org/2000/svg"><sodipodi:namedview
     id="namedview20733"
     pagecolor="#ffffff"
     bordercolor="#000000"
     borderopacity="0.25"
     inkscape:showpageshadow="2"
     inkscape:pageopacity="0.0"
     inkscape:pagecheckerboard="0"
     inkscape:deskcolor="#d1d1d1"
     inkscape:document-units="mm"
     showgrid="true"
     inkscape:zoom="4"
     inkscape:cx="138.5"
     inkscape:cy="89.5"
     inkscape:window-width="1920"
     inkscape:window-height="1043"
     inkscape:window-x="1920"
     inkscape:window-y="0"
     inkscape:window-maximized="1"
     inkscape:current-layer="layer1"><inkscape:grid
       type="xygrid"
       id="grid600"
       originx="141.8044"
       originy="9.5604158" /></sodipodi:namedview><defs
     id="defs20728" /><g
     inkscape:label="Layer 1"
     inkscape:groupmode="layer"
     id="layer1"
     transform="translate(120.13003,-21.051043)"><g
       id="g71013"
       stroke-miterlimit="10"
       transform="matrix(0.15264423,0,0,0.15264423,-121.40648,19.774601)"><path
         fill="#61b2e4"
         stroke-linecap="round"
         stroke-linejoin="round"
         stroke-width="2"
         d="M 60,61 H 12 c -0.5523,0 -1,-0.4477 -1,-1 V 12 c 0,-0.5523 0.4477,-1 1,-1 h 48 c 0.5523,0 1,0.4477 1,1 v 48 c 0,0.5523 -0.4477,1 -1,1 z"
         id="path71005" /><path
         fill="#ffffff"
         d="m 39.01,36.8 5.888,0.9834 c 0.9375,0.1566 2.057,0.5144 2.8,1.107 0.589,0.4701 1.112,1.099 1.112,1.848 0,1.567 -0.7362,11.44 -1.112,12 -1.116,1.661 -2.582,0.6676 -2.839,-0.2416 -0.3292,-1.165 0.144,-10.27 0.144,-10.27 l -10.27,0.5681 c 0,0 -1.633,-0.0018 -1.712,-1.712 -0.07931,-1.707 -2.534,-10.12 2.28,-14.55 2.568,-4.28 5.992,-0.856 4.28,2.568 -1.712,3.424 -0.5682,7.704 -0.5682,7.704 z"
         id="path71007" /><circle
         cx="41.689999"
         cy="19.51"
         r="3"
         fill="#ffffff"
         id="circle71009" /><path
         fill="none"
         stroke="#ffffff"
         stroke-linecap="round"
         stroke-linejoin="round"
         stroke-miterlimit="10"
         stroke-width="2"
         d="m 35.62,27.41 c -8.597,1.765 -5.715,-0.8486 -7.291,8.242"
         id="path71011" /></g><g
       id="g30917"
       transform="matrix(0.15264423,0,0,0.15264423,-121.40648,19.774601)"
       style="fill:none;fill-opacity:1"><g
         id="g30905"
         stroke-miterlimit="10"
         style="fill:none;fill-opacity:1"><path
           fill="#61b2e4"
           stroke-linecap="round"
           stroke-linejoin="round"
           stroke-width="2"
           d="M 60,61 H 12 c -0.5523,0 -1,-0.4477 -1,-1 V 12 c 0,-0.5523 0.4477,-1 1,-1 h 48 c 0.5523,0 1,0.4477 1,1 v 48 c 0,0.5523 -0.4477,1 -1,1 z"
           id="path30897"
           style="fill:none;fill-opacity:1" /><path
           fill="#ffffff"
           d="m 39.01,36.8 5.888,0.9834 c 0.9375,0.1566 2.057,0.5144 2.8,1.107 0.589,0.4701 1.112,1.099 1.112,1.848 0,1.567 -0.7362,11.44 -1.112,12 -1.116,1.661 -2.582,0.6676 -2.839,-0.2416 -0.3292,-1.165 0.144,-10.27 0.144,-10.27 l -10.27,0.5681 c 0,0 -1.633,-0.0018 -1.712,-1.712 -0.07931,-1.707 -2.534,-10.12 2.28,-14.55 2.568,-4.28 5.992,-0.856 4.28,2.568 -1.712,3.424 -0.5682,7.704 -0.5682,7.704 z"
           id="path30899"
           style="fill:none;fill-opacity:1" /><circle
           cx="41.689999"
           cy="19.51"
           r="3"
           fill="#ffffff"
           id="circle30901"
           style="fill:none;fill-opacity:1" /><path
           fill="none"
           stroke="#ffffff"
           stroke-linecap="round"
           stroke-linejoin="round"
           stroke-miterlimit="10"
           stroke-width="2"
           d="m 35.62,27.41 c -8.597,1.765 -5.715,-0.8486 -7.291,8.242"
           id="path30903"
           style="fill:none;fill-opacity:1" /></g><g
         id="g30915"
         stroke-miterlimit="10"
         style="fill:none;fill-opacity:1"><circle
           cx="41.689999"
           cy="19.51"
           r="3"
           fill="none"
           stroke="#000000"
           stroke-linecap="round"
           stroke-linejoin="round"
           stroke-miterlimit="10"
           stroke-width="2"
           id="circle30909"
           style="fill:none;fill-opacity:1" /><path
           fill="none"
           stroke="#000000"
           stroke-linecap="round"
           stroke-linejoin="round"
           stroke-miterlimit="10"
           stroke-width="2"
           d="m 42.19,45.49 c 0,5.617 -4.631,10.15 -10.28,9.996 -5.218,-0.1446 -9.568,-4.495 -9.712,-9.713 -0.09441,-3.416 1.525,-6.46 4.063,-8.333"
           id="path30911"
           style="fill:none;fill-opacity:1" /><path
           fill="none"
           stroke="#000000"
           stroke-linecap="round"
           stroke-linejoin="round"
           stroke-miterlimit="10"
           stroke-width="2"
           d="m 28.33,35.65 -0.8567,-7.322 c -0.1012,-0.4138 0.0709,-0.8463 0.4288,-1.078 l 8.204,-1.978 c 3.123,-1.161 4.688,0.9946 3.47,3.821 -1.712,3.424 -0.5682,7.704 -0.5682,7.704 l 5.888,0.9834 c 0.9375,0.1566 2.057,0.5144 2.8,1.107 0.589,0.4701 1.112,1.099 1.112,1.848 0,1.567 -0.7362,11.44 -1.112,12 -1.116,1.661 -2.582,0.6676 -2.839,-0.2416 -0.3292,-1.165 0.144,-10.27 0.144,-10.27 -3.056,0.3001 -11.3,3.138 -11.98,-2.011 -0.01906,-1.266 -0.554,-6.648 1.117,-10.78"
           id="path30913"
           style="fill:none;fill-opacity:1" /></g></g><rect
       style="fill:none;fill-opacity:1;stroke:#000000;stroke-width:0.299999;stroke-linecap:round;stroke-linejoin:round;stroke-dasharray:none;paint-order:markers fill stroke"
       id="rect38218-5-4"
       width="7.9375"
       height="7.9375"
       x="-119.88004"
       y="21.301044"
       ry="0.90640503"
       rx="0.7937544" /><path
       style="fill:none;stroke:#ff0000;stroke-width:0.5;stroke-linecap:round;stroke-linejoin:miter;stroke-dasharray:none;stroke-opacity:1"
       d="m -119.88003,21.301043 7.9375,7.9375"
       id="path24985-0-8"
       sodipodi:nodetypes="cc" /></g><style
     type="text/css"
     id="style3760">
	.st0{fill-rule:evenodd;clip-rule:evenodd;fill:#388344;}
	.st1{fill-rule:evenodd;clip-rule:evenodd;fill:#1F1D21;}
</style></svg>
