<?xml version="1.0" encoding="UTF-8" standalone="no"?>
<!-- Created with Inkscape (http://www.inkscape.org/) -->

<svg
   width="8.2375031mm"
   height="8.2375011mm"
   viewBox="0 0 8.237503 8.2375012"
   version="1.1"
   id="svg20731"
   xml:space="preserve"
   inkscape:version="1.2.2 (b0a8486541, 2022-12-01)"
   sodipodi:docname="stop attrs.svg"
   xmlns:inkscape="http://www.inkscape.org/namespaces/inkscape"
   xmlns:sodipodi="http://sodipodi.sourceforge.net/DTD/sodipodi-0.dtd"
   xmlns="http://www.w3.org/2000/svg"
   xmlns:svg="http://www.w3.org/2000/svg"><sodipodi:namedview
     id="namedview20733"
     pagecolor="#ffffff"
     bordercolor="#000000"
     borderopacity="0.25"
     inkscape:showpageshadow="2"
     inkscape:pageopacity="0.0"
     inkscape:pagecheckerboard="0"
     inkscape:deskcolor="#d1d1d1"
     inkscape:document-units="mm"
     showgrid="true"
     inkscape:zoom="4"
     inkscape:cx="138.5"
     inkscape:cy="89.5"
     inkscape:window-width="1920"
     inkscape:window-height="1043"
     inkscape:window-x="1920"
     inkscape:window-y="0"
     inkscape:window-maximized="1"
     inkscape:current-layer="layer1"><inkscape:grid
       type="xygrid"
       id="grid600"
       originx="141.8044"
       originy="9.5604158" /></sodipodi:namedview><defs
     id="defs20728" /><g
     inkscape:label="Layer 1"
     inkscape:groupmode="layer"
     id="layer1"
     transform="translate(77.899224,-11.910422)"><g
       id="g17942"
       transform="matrix(0.01317209,0,0,0.01317209,-77.749222,12.070831)"><g
         id="layer2"
         inkscape:label="Dessin"
         transform="translate(1112.0211,315.14507)"><g
           id="g3501"
           transform="matrix(1.25,0,0,-1.25,-212.4009,47.565979)"
           style="stroke:none" /><g
           id="g3505"
           transform="matrix(1.25,0,0,-1.25,-199.2509,25.588479)"
           style="stroke:none" /><g
           id="g3509"
           transform="matrix(1.25,0,0,-1.25,-217.4834,33.662229)"
           style="stroke:none" /><path
           style="fill:#61b2e4;fill-opacity:1;fill-rule:evenodd;stroke:none;stroke-width:1.06174"
           d="m -552.45451,-315.14507 c 23.77183,0 43.03337,19.26155 43.03337,43.03337 v 516.53323 c 0,23.77182 -19.26154,43.03337 -43.03337,43.03337 h -516.53309 c -23.772,0 -43.0335,-19.26155 -43.0335,-43.03337 V -272.1117 c 0,-23.77182 19.2615,-43.03337 43.0335,-43.03337 z"
           id="path36"
           inkscape:connector-curvature="0"
           sodipodi:nodetypes="sssssssss" /><path
           inkscape:connector-curvature="0"
           style="fill:#ffffff;fill-rule:evenodd;stroke:none;stroke-width:1.29983"
           id="path3014"
           d="m -810.72113,-274.77922 -301.29997,521.86828 h 602.59997 z"
           clip-rule="evenodd"
           sodipodi:nodetypes="cccc" /><path
           style="fill:#000000;fill-rule:evenodd;stroke:none;stroke-width:1.53818"
           inkscape:connector-curvature="0"
           clip-rule="evenodd"
           d="m -735.29826,223.21016 -0.94028,-5.94655 c 12.82244,0.18672 23.36742,-10.0564 23.55271,-22.87881 0.0564,-3.8723 -0.85656,-7.69663 -2.65618,-11.12562 l -35.89597,-68.69675 h 53.62039 l 33.39079,108.64773 z m 115.97919,0 h 65.92116 l -58.65128,-108.64773 h -50.89686 z m -265.61139,-7.66513 -1.21353,7.66513 h -71.07149 l 33.3908,-108.64773 h 37.75212 l -11.99334,76.38116 c -1.60465,10.21283 3.75569,20.25134 13.13544,24.60144 z m -117.19274,7.66513 h -65.9211 l 58.6512,-108.64773 h 50.89688 z m 215.76327,-75.87722 4.61235,75.87588 h -57.94569 l 6.60404,-108.64772 h 33.18491 l 2.72632,11.96304 z m -58.53859,-36.33392 35.37854,-66.51004 18.20471,79.88415 40.31061,77.52727 c 4.33765,8.34192 14.61514,11.58687 22.95703,7.25056 8.34195,-4.33631 11.58695,-14.61516 7.25056,-22.95706 -0.0138,-0.0207 -0.0207,-0.0411 -0.0317,-0.0608 l -38.45747,-73.60137 -16.50401,-71.754993 V 6.2424471 h -67.75496 V 36.215244 l -33.98248,63.886656 -14.41464,91.80205 c -1.45377,9.25467 4.87164,17.93563 14.12634,19.3893 9.25466,1.45365 17.9357,-4.87163 19.38939,-14.12644 l 13.52794,-86.16827 v 0 z M -775.79279,-2.2267007 V -72.712075 l 33.54733,30.498664 v 39.7121785 c 0,7.0158876 5.68713,12.7043665 12.70422,12.7043665 7.01599,0 12.70438,-5.6884789 12.70438,-12.7043665 V -51.225159 c 0,-3.212032 -1.24772,-6.299286 -3.47972,-8.609551 l -48.00325,-49.68755 c -19.50055,-20.18425 -51.66978,-20.73872 -71.8539,-1.23959 -1.91758,1.85316 -3.68713,3.85327 -5.29036,5.98371 l -77.69616,103.2076067 c -4.67806,5.6130482 -3.91906,13.9548503 1.69398,18.6329693 5.61282,4.67815 13.95485,3.919049 18.63302,-1.693784 0.19069,-0.227987 0.3733,-0.46268 0.54767,-0.704234 l 58.73772,-75.520379 v 58.6279234 h 67.75507 v 0 z M -787.65027,-164.18028 c 0,-18.70999 -15.16683,-33.8768 -33.8768,-33.8768 -18.70977,0 -33.87679,15.16681 -33.87679,33.8768 0,18.70975 15.16702,33.87681 33.87679,33.87681 18.70997,0 33.8768,-15.16706 33.8768,-33.87681 z"
           id="path24" /></g><g
         inkscape:label="Calque 1"
         id="layer1-4"
         transform="translate(1113.3068,305.71823)" /></g><rect
       style="fill:none;fill-opacity:1;stroke:#000000;stroke-width:0.299999;stroke-linecap:round;stroke-linejoin:round;stroke-dasharray:none;paint-order:markers fill stroke"
       id="rect72386"
       width="7.9375"
       height="7.9375"
       x="-77.749222"
       y="12.060422"
       ry="0.90640503"
       rx="0.7937544" /></g><style
     type="text/css"
     id="style3760">
	.st0{fill-rule:evenodd;clip-rule:evenodd;fill:#388344;}
	.st1{fill-rule:evenodd;clip-rule:evenodd;fill:#1F1D21;}
</style></svg>
