<?xml version="1.0" encoding="UTF-8" standalone="no"?>
<!-- Created with Inkscape (http://www.inkscape.org/) -->

<svg
   width="8.2374992mm"
   height="8.2374973mm"
   viewBox="0 0 8.2374992 8.2374973"
   version="1.1"
   id="svg20731"
   xml:space="preserve"
   inkscape:version="1.2.2 (b0a8486541, 2022-12-01)"
   sodipodi:docname="stop attrs.svg"
   xmlns:inkscape="http://www.inkscape.org/namespaces/inkscape"
   xmlns:sodipodi="http://sodipodi.sourceforge.net/DTD/sodipodi-0.dtd"
   xmlns="http://www.w3.org/2000/svg"
   xmlns:svg="http://www.w3.org/2000/svg"><sodipodi:namedview
     id="namedview20733"
     pagecolor="#ffffff"
     bordercolor="#000000"
     borderopacity="0.25"
     inkscape:showpageshadow="2"
     inkscape:pageopacity="0.0"
     inkscape:pagecheckerboard="0"
     inkscape:deskcolor="#d1d1d1"
     inkscape:document-units="mm"
     showgrid="true"
     inkscape:zoom="4"
     inkscape:cx="138.5"
     inkscape:cy="89.5"
     inkscape:window-width="1920"
     inkscape:window-height="1043"
     inkscape:window-x="1920"
     inkscape:window-y="0"
     inkscape:window-maximized="1"
     inkscape:current-layer="layer1"><inkscape:grid
       type="xygrid"
       id="grid600"
       originx="141.8044"
       originy="9.5604158" /></sodipodi:namedview><defs
     id="defs20728" /><g
     inkscape:label="Layer 1"
     inkscape:groupmode="layer"
     id="layer1"
     transform="translate(88.339016,-21.148101)"><rect
       style="fill:#bec8b7;fill-opacity:1;stroke:#000000;stroke-width:0.299999;stroke-linecap:round;stroke-linejoin:round;stroke-dasharray:none;paint-order:markers fill stroke"
       id="rect73198"
       width="7.9375"
       height="7.9375"
       x="-88.189018"
       y="21.2981"
       ry="0.90640503"
       rx="0.7937544" /><g
       id="g21619"
       transform="matrix(0.11534949,0,0,-0.11534949,-88.37285,29.397592)"><g
         id="color"><path
           fill="#d0cfce"
           d="m 35.71,64.65 c 4.779,0 7.509,-2.244 8.156,-5.151 h -16.31 c 0.647,2.907 3.376,5.151 8.155,5.151 z"
           id="path21574" /><path
           fill="#fcea2b"
           d="m 45.5,10.41 c -4e-4,0 -12.23,-3.457 -18.2,1.269 -5.969,4.726 -7.651,15.6 -7.651,15.6 0.5848,2.213 4.226,8.493 4.226,8.493 0.54,0.9111 2.253,7.981 3.249,11.86 h 17.17 c 0.8662,-2.845 4.35,-13.65 4.805,-14.71 0.584,-1.363 1.58,-4.016 2.083,-5.017 1.21,-2.409 0.5378,-4.455 0.5378,-7.027 0,-5.487 -1.902,-7.726 -6.221,-10.47 z"
           id="path21576" /><path
           fill="#ffffff"
           d="m 35.71,7.202 c -8.532,0 -16.5,6.752 -16.5,15.28 0,1.079 -0.2641,4.491 1.217,4.491 0,0 2.393,-7.825 8.362,-12.55 5.969,-4.725 15.52,-3.725 15.52,-3.725 -0.6645,-2.045 -5.55,-3.499 -8.596,-3.499 z"
           id="path21578" /></g><g
         id="hair" /><g
         id="skin" /><g
         id="skin-shadow" /><g
         id="line"><path
           fill="none"
           stroke="#000000"
           stroke-linecap="round"
           stroke-linejoin="round"
           stroke-miterlimit="10"
           stroke-width="2"
           d="m 52.55,23.75 c 0,3.985 -1.785,5.908 -3.754,10.5 -0.5028,1.172 -4.211,13.38 -4.211,13.38 h -17.17 c 0,0 -2.981,-11.67 -3.546,-12.62 C 21.499,31.012 19.45,28.1 19.45,23.75 19.45,14.609 26.86,7.2 36,7.2 c 9.141,0 16.55,7.41 16.55,16.55 z"
           id="path21584"
           style="stroke-width:2.16733;stroke-dasharray:none" /><line
           x1="36"
           x2="36"
           y1="47.220001"
           y2="35.279999"
           stroke="#000000"
           stroke-linecap="round"
           stroke-linejoin="round"
           stroke-miterlimit="10"
           stroke-width="2"
           id="line21586" /><line
           x1="41.970001"
           x2="30.030001"
           y1="35.279999"
           y2="35.279999"
           stroke="#000000"
           stroke-linecap="round"
           stroke-linejoin="round"
           stroke-miterlimit="10"
           stroke-width="2"
           id="line21588" /><path
           fill="none"
           stroke="#000000"
           stroke-linecap="round"
           stroke-linejoin="round"
           stroke-miterlimit="10"
           stroke-width="1.696"
           d="m 44.16,58.79 c 0,3.24 -3.651,5.867 -8.155,5.867 -4.504,0 -8.155,-2.627 -8.155,-5.867 z"
           id="path21590" /><line
           x1="27.99"
           x2="44.009998"
           y1="54.98"
           y2="51.509998"
           stroke="#000000"
           stroke-linecap="round"
           stroke-linejoin="round"
           stroke-miterlimit="10"
           stroke-width="1.965"
           id="line21592" /><line
           x1="38.200001"
           x2="43.98"
           y1="56.07"
           y2="54.889999"
           stroke="#000000"
           stroke-linecap="round"
           stroke-linejoin="round"
           stroke-miterlimit="10"
           stroke-width="2"
           id="line21594" /><line
           x1="28.02"
           x2="33.799999"
           y1="51.599998"
           y2="50.419998"
           stroke="#000000"
           stroke-linecap="round"
           stroke-linejoin="round"
           stroke-miterlimit="10"
           stroke-width="2"
           id="line21596" /></g></g></g><style
     type="text/css"
     id="style3760">
	.st0{fill-rule:evenodd;clip-rule:evenodd;fill:#388344;}
	.st1{fill-rule:evenodd;clip-rule:evenodd;fill:#1F1D21;}
</style></svg>
