<?xml version="1.0" encoding="UTF-8" standalone="no"?>
<!-- Created with Inkscape (http://www.inkscape.org/) -->

<svg
   width="8.4061384mm"
   height="8.324008mm"
   viewBox="0 0 8.4061384 8.324008"
   version="1.1"
   id="svg20731"
   xml:space="preserve"
   inkscape:version="1.2.2 (b0a8486541, 2022-12-01)"
   sodipodi:docname="stop attrs.svg"
   xmlns:inkscape="http://www.inkscape.org/namespaces/inkscape"
   xmlns:sodipodi="http://sodipodi.sourceforge.net/DTD/sodipodi-0.dtd"
   xmlns="http://www.w3.org/2000/svg"
   xmlns:svg="http://www.w3.org/2000/svg"><sodipodi:namedview
     id="namedview20733"
     pagecolor="#ffffff"
     bordercolor="#000000"
     borderopacity="0.25"
     inkscape:showpageshadow="2"
     inkscape:pageopacity="0.0"
     inkscape:pagecheckerboard="0"
     inkscape:deskcolor="#d1d1d1"
     inkscape:document-units="mm"
     showgrid="true"
     inkscape:zoom="4"
     inkscape:cx="138.5"
     inkscape:cy="89.5"
     inkscape:window-width="1920"
     inkscape:window-height="1043"
     inkscape:window-x="1920"
     inkscape:window-y="0"
     inkscape:window-maximized="1"
     inkscape:current-layer="layer1"><inkscape:grid
       type="xygrid"
       id="grid600"
       originx="141.8044"
       originy="9.5604158" /></sodipodi:namedview><defs
     id="defs20728" /><g
     inkscape:label="Layer 1"
     inkscape:groupmode="layer"
     id="layer1"
     transform="translate(130.77467,-1.3248997)"><g
       id="g25025"
       transform="matrix(0.71552228,0,0,0.71552228,-108.50256,0.68478288)"><g
         id="g25015"
         transform="translate(-1.064062)"><path
           style="fill:#ccae33;fill-opacity:1;stroke:none;stroke-width:0.499999;stroke-linecap:round;stroke-linejoin:round;stroke-dasharray:none;paint-order:normal"
           d="m -26.006203,1.4770883 h 1.576043 V 12.200606 h -1.576043 z"
           id="path24989"
           inkscape:export-filename="stop.svg"
           inkscape:export-xdpi="96"
           inkscape:export-ydpi="96"
           sodipodi:nodetypes="ccccc" /><path
           style="fill:none;stroke:#1a1a1a;stroke-width:0.53;stroke-linecap:butt;stroke-linejoin:round;stroke-dasharray:none;paint-order:normal"
           d="m -24.43016,1.4770883 h -1.576043 V 12.200606"
           id="path24991"
           sodipodi:nodetypes="ccc" /><path
           style="fill:#000000;fill-opacity:1;stroke:#1a1a1a;stroke-width:0.53;stroke-linecap:round;stroke-linejoin:round;stroke-dasharray:none;paint-order:normal"
           d="m -24.430163,5.0963063 h 3.955772 c 2.037992,0 2.037992,-3.647229 -0.01746,-3.647229 l -3.938311,0.02801 z"
           id="path24993"
           sodipodi:nodetypes="ccccc" /><rect
           style="fill:#800000;fill-opacity:1;stroke:none;stroke-width:0.356053;stroke-linecap:round;stroke-linejoin:round;stroke-dasharray:none;paint-order:normal"
           id="rect24995"
           width="1.9504328"
           height="0.82337338"
           x="19.552782"
           y="1.7852714"
           ry="0.41168669"
           transform="scale(-1,1)" /><rect
           style="fill:#800000;fill-opacity:1;stroke:none;stroke-width:0.356053;stroke-linecap:round;stroke-linejoin:round;stroke-dasharray:none;paint-order:normal"
           id="rect24997"
           width="1.9504328"
           height="0.82337338"
           x="21.699516"
           y="1.7852714"
           ry="0.41168669"
           transform="scale(-1,1)" /><rect
           style="fill:#800000;fill-opacity:1;stroke:none;stroke-width:0.356053;stroke-linecap:round;stroke-linejoin:round;stroke-dasharray:none;paint-order:normal"
           id="rect24999"
           width="1.9504328"
           height="0.82337338"
           x="19.552782"
           y="2.7860382"
           ry="0.41168669"
           transform="scale(-1,1)" /><rect
           style="fill:#0044aa;fill-opacity:1;stroke:none;stroke-width:0.356053;stroke-linecap:round;stroke-linejoin:round;stroke-dasharray:none;paint-order:normal"
           id="rect25001"
           width="1.9504328"
           height="0.82337338"
           x="21.699516"
           y="2.7860382"
           ry="0.41168669"
           transform="scale(-1,1)" /><g
           id="g25013"
           transform="translate(0,0.60070165)"><rect
             style="opacity:1;fill:#ffffff;fill-opacity:1;stroke:#cccccc;stroke-width:0.139758;stroke-linecap:round;stroke-dasharray:none;paint-order:markers fill stroke"
             id="rect25003"
             width="5.291666"
             height="3.5663362"
             x="19.391621"
             y="5.4458385"
             ry="0"
             transform="scale(-1,1)" /><path
             id="path25005"
             style="opacity:1;fill:#40bf40;fill-opacity:1;stroke-linecap:round;paint-order:markers fill stroke"
             d="m 23.889536,5.4458383 v 0.2645833 h 0.79375 V 5.975005 H 19.39162 V 5.7104216 h 3.704166 V 5.4458383 Z"
             transform="scale(-1,1)" /><g
             aria-label="12"
             id="g25011"
             style="font-size:3.52778px;line-height:1.25;font-family:'Noto Sans';-inkscape-font-specification:'Noto Sans';stroke-width:0.264583"><path
               d="m -22.3889,8.7937012 h -0.532695 V 7.336728 q 0,-0.091722 0.0035,-0.239889 0.0071,-0.1481668 0.01058,-0.2610558 -0.01764,0.021167 -0.07761,0.077611 -0.05644,0.052917 -0.105833,0.09525 l -0.289278,0.2328334 -0.257528,-0.3210279 0.81139,-0.6455838 h 0.437444 z"
               style="font-weight:bold;-inkscape-font-specification:'Noto Sans Bold';fill:#40bf40;fill-opacity:1"
               id="path25007" /><path
               d="m -19.926514,8.7937012 h -1.760362 V 8.4232843 l 0.631472,-0.6385282 q 0.1905,-0.1975557 0.306917,-0.3280836 0.116417,-0.1340556 0.169333,-0.239889 0.05292,-0.1093612 0.05292,-0.2328335 0,-0.1516945 -0.08467,-0.2257779 -0.08114,-0.074083 -0.22225,-0.074083 -0.144639,0 -0.282222,0.067028 -0.137584,0.067028 -0.289278,0.1905001 L -21.693932,6.599422 q 0.109361,-0.09525 0.229306,-0.176389 0.123472,-0.081139 0.282222,-0.1305279 0.162278,-0.052917 0.388056,-0.052917 0.246944,0 0.423333,0.091722 0.179917,0.088194 0.275167,0.2434168 0.09878,0.1516946 0.09878,0.3457225 0,0.208139 -0.08467,0.3810002 -0.08114,0.1728612 -0.239889,0.3421947 -0.155222,0.1693334 -0.377472,0.3739447 l -0.324556,0.303389 v 0.024695 h 1.09714 z"
               style="font-weight:bold;-inkscape-font-specification:'Noto Sans Bold';fill:#40bf40;fill-opacity:1"
               id="path25009" /></g></g></g><g
         transform="matrix(0.0092326,0,0,0.0092326,-28.616869,-4.9453251)"
         id="g25021"><path
           d="M 138.85806,695.62349 V 1182.8012 H -233.68961 V 812.4355 c 0,0 76.13565,-112.70919 372.54767,-116.81201"
           id="path25017"
           style="fill:#c2474c;fill-opacity:1;fill-rule:nonzero;stroke:none"
           sodipodi:nodetypes="ccccc" /><path
           d="M 138.85806,938.36534 2.4056249,1026.0318 -121.58702,959.46254 v 195.53906 h -99.62793 l 0.35311,-348.15056 c 0,0 163.961518,70.1515 223.6373906,109.5319 -1.1297765,-1.7243 136.0825094,-88.6639 136.0825094,-88.6639"
           id="path25019"
           style="fill:#ffffff;fill-opacity:1;fill-rule:nonzero;stroke:none"
           sodipodi:nodetypes="cccccccc" /></g><path
         id="path25023"
         style="opacity:1;fill:#cccccc;stroke-width:0.507436;stroke-linecap:round;paint-order:markers fill stroke"
         d="m -30.774431,5.9750047 h 3.439583 v 6.2256013 h -2.910417 c -0.264583,0 -0.529167,-0.264583 -0.529167,-0.529167 z"
         sodipodi:nodetypes="cccccc" /></g><path
       style="fill:none;stroke:#ff0000;stroke-width:0.468638;stroke-linecap:round;stroke-linejoin:miter;stroke-dasharray:none;stroke-opacity:1"
       d="m -130.54035,1.5592179 7.9375,7.85537"
       id="path24985-0"
       sodipodi:nodetypes="cc" /></g><style
     type="text/css"
     id="style3760">
	.st0{fill-rule:evenodd;clip-rule:evenodd;fill:#388344;}
	.st1{fill-rule:evenodd;clip-rule:evenodd;fill:#1F1D21;}
</style></svg>
