<?xml version="1.0" encoding="UTF-8" standalone="no"?>
<!-- Created with Inkscape (http://www.inkscape.org/) -->

<svg
   width="8.2374992mm"
   height="8.2375011mm"
   viewBox="0 0 8.2374992 8.2375012"
   version="1.1"
   id="svg20731"
   xml:space="preserve"
   inkscape:version="1.2.2 (b0a8486541, 2022-12-01)"
   sodipodi:docname="stop attrs.svg"
   xmlns:inkscape="http://www.inkscape.org/namespaces/inkscape"
   xmlns:sodipodi="http://sodipodi.sourceforge.net/DTD/sodipodi-0.dtd"
   xmlns="http://www.w3.org/2000/svg"
   xmlns:svg="http://www.w3.org/2000/svg"><sodipodi:namedview
     id="namedview20733"
     pagecolor="#ffffff"
     bordercolor="#000000"
     borderopacity="0.25"
     inkscape:showpageshadow="2"
     inkscape:pageopacity="0.0"
     inkscape:pagecheckerboard="0"
     inkscape:deskcolor="#d1d1d1"
     inkscape:document-units="mm"
     showgrid="true"
     inkscape:zoom="4"
     inkscape:cx="138.5"
     inkscape:cy="89.5"
     inkscape:window-width="1920"
     inkscape:window-height="1043"
     inkscape:window-x="1920"
     inkscape:window-y="0"
     inkscape:window-maximized="1"
     inkscape:current-layer="layer1"><inkscape:grid
       type="xygrid"
       id="grid600"
       originx="141.8044"
       originy="9.5604158" /></sodipodi:namedview><defs
     id="defs20728" /><g
     inkscape:label="Layer 1"
     inkscape:groupmode="layer"
     id="layer1"
     transform="translate(88.339016,-11.910422)"><rect
       style="fill:#e3e2db;fill-opacity:1;stroke:#000000;stroke-width:0.299999;stroke-linecap:round;stroke-linejoin:round;stroke-dasharray:none;paint-order:markers fill stroke"
       id="rect38218-5-7"
       width="7.9375"
       height="7.9375"
       x="-88.189018"
       y="12.060422"
       ry="0.90640503"
       rx="0.7937544" /><g
       id="g70589"
       transform="translate(1.0084623,0.81648811)"><path
         fill="#d0cfce"
         d="m -84.942353,12.376773 c 0.551256,0 0.86616,0.258845 0.940791,0.594166 h -1.88135 c 0.07463,-0.335321 0.389419,-0.594166 0.940675,-0.594166 z"
         id="path22710"
         style="stroke-width:0.115349" /><path
         id="path22712"
         style="fill:#fcea2b;fill-opacity:1;stroke-width:0.115349"
         d="m -85.932822,14.339869 c -0.114889,0.447441 -0.312364,1.26278 -0.374654,1.367875 0,0 -0.419849,0.724518 -0.487309,0.979785 0,0 0.13517,0.873067 0.57981,1.47898 l 2.557983,-2.899048 c -0.119716,-0.36849 -0.245018,-0.763197 -0.295072,-0.927592 z" /><path
         id="path22714"
         style="fill:#ffffff;stroke-width:0.115349"
         d="m -86.705385,16.722669 c -0.170839,0 -0.140043,0.393853 -0.140043,0.518315 0,0.429861 0.17552,0.820235 0.45527,1.123962 l 0.387056,-0.438733 c -0.496852,-0.534015 -0.702283,-1.203544 -0.702283,-1.203544 z" /><g
         id="g22738"
         transform="matrix(0.11534949,0,0,-0.11534949,-89.061483,19.61639)"><path
           id="path22724"
           d="m 47.005506,39.764465 c -1.153575,3.701122 -2.419194,7.866859 -2.419194,7.866859 H 27.414518 c 0,0 -2.978671,-11.670127 -3.54367,-12.620126 C 21.50085,31.013202 19.4491,28.098504 19.4491,23.748508 c 0,-4.097103 1.490026,-7.844019 3.955829,-10.734051"
           style="fill:none;stroke:#000000;stroke-width:2.16733;stroke-linecap:round;stroke-linejoin:round;stroke-dasharray:none"
           sodipodi:nodetypes="ccccsc" /><line
           x1="36"
           x2="36"
           y1="47.220001"
           y2="35.279999"
           stroke="#000000"
           stroke-linecap="round"
           stroke-linejoin="round"
           stroke-miterlimit="10"
           stroke-width="2"
           id="line22726" /><line
           x1="41.970001"
           x2="30.030001"
           y1="35.279999"
           y2="35.279999"
           stroke="#000000"
           stroke-linecap="round"
           stroke-linejoin="round"
           stroke-miterlimit="10"
           stroke-width="2"
           id="line22728" /><path
           fill="none"
           stroke="#000000"
           stroke-linecap="round"
           stroke-linejoin="round"
           stroke-miterlimit="10"
           stroke-width="1.696"
           d="m 44.16,58.79 c 0,3.24 -3.651,5.867 -8.155,5.867 -4.504,0 -8.155,-2.627 -8.155,-5.867 z"
           id="path22730" /><line
           x1="27.99"
           x2="44.009998"
           y1="54.98"
           y2="51.509998"
           stroke="#000000"
           stroke-linecap="round"
           stroke-linejoin="round"
           stroke-miterlimit="10"
           stroke-width="1.965"
           id="line22732" /><line
           x1="38.200001"
           x2="43.98"
           y1="56.07"
           y2="54.889999"
           stroke="#000000"
           stroke-linecap="round"
           stroke-linejoin="round"
           stroke-miterlimit="10"
           stroke-width="2"
           id="line22734" /><line
           x1="28.02"
           x2="33.799999"
           y1="51.599998"
           y2="50.419998"
           stroke="#000000"
           stroke-linecap="round"
           stroke-linejoin="round"
           stroke-miterlimit="10"
           stroke-width="2"
           id="line22736" /></g></g></g><style
     type="text/css"
     id="style3760">
	.st0{fill-rule:evenodd;clip-rule:evenodd;fill:#388344;}
	.st1{fill-rule:evenodd;clip-rule:evenodd;fill:#1F1D21;}
</style></svg>
