<?xml version="1.0" encoding="UTF-8" standalone="no"?>
<!-- Created with Inkscape (http://www.inkscape.org/) -->

<svg
   width="8.459631mm"
   height="8.4375019mm"
   viewBox="0 0 8.4596309 8.4375019"
   version="1.1"
   id="svg20731"
   xml:space="preserve"
   inkscape:version="1.2.2 (b0a8486541, 2022-12-01)"
   sodipodi:docname="stop attrs.svg"
   xmlns:inkscape="http://www.inkscape.org/namespaces/inkscape"
   xmlns:sodipodi="http://sodipodi.sourceforge.net/DTD/sodipodi-0.dtd"
   xmlns="http://www.w3.org/2000/svg"
   xmlns:svg="http://www.w3.org/2000/svg"><sodipodi:namedview
     id="namedview20733"
     pagecolor="#ffffff"
     bordercolor="#000000"
     borderopacity="0.25"
     inkscape:showpageshadow="2"
     inkscape:pageopacity="0.0"
     inkscape:pagecheckerboard="0"
     inkscape:deskcolor="#d1d1d1"
     inkscape:document-units="mm"
     showgrid="true"
     inkscape:zoom="4"
     inkscape:cx="138.5"
     inkscape:cy="89.5"
     inkscape:window-width="1920"
     inkscape:window-height="1043"
     inkscape:window-x="1920"
     inkscape:window-y="0"
     inkscape:window-maximized="1"
     inkscape:current-layer="layer1"><inkscape:grid
       type="xygrid"
       id="grid600"
       originx="141.8044"
       originy="9.5604158" /></sodipodi:namedview><defs
     id="defs20728" /><g
     inkscape:label="Layer 1"
     inkscape:groupmode="layer"
     id="layer1"
     transform="translate(130.6855,-20.901042)"><g
       id="g38865"
       transform="translate(-2.4368581,-10.753128)"><rect
         style="opacity:1;fill:#999999;fill-opacity:1;stroke:none;stroke-width:0.3;stroke-linecap:round;stroke-linejoin:round;stroke-dasharray:none;paint-order:markers fill stroke"
         id="rect38805"
         width="7.9375"
         height="7.9375"
         x="-127.87651"
         y="31.904171"
         ry="0.90640503"
         rx="0.7937544" /><path
         style="fill:#ffffff;stroke:none;stroke-width:0.264583px;stroke-linecap:butt;stroke-linejoin:miter;stroke-opacity:1"
         d="m -127.87651,37.989588 h 3.96875 v 1.852083 h -3.175 l -0.52917,-0.264583 -0.26458,-0.529167 z"
         id="path38807" /><path
         style="fill:#4d4d4d;stroke:none;stroke-width:0.264583px;stroke-linecap:butt;stroke-linejoin:miter;stroke-opacity:1"
         d="m -123.90776,38.518754 v 1.322917 h 3.43958 l 0.52917,-0.79375 v -0.529167 z"
         id="path38809" /><rect
         style="opacity:1;fill:none;fill-opacity:1;stroke:#000000;stroke-width:0.3;stroke-linecap:round;stroke-linejoin:round;stroke-dasharray:none;paint-order:markers fill stroke"
         id="rect38811"
         width="7.9375"
         height="7.9375"
         x="-127.87651"
         y="31.904171"
         ry="0.90640503"
         rx="0.7937544" /><g
         id="g38835"><path
           id="path38813"
           d="m -119.93902,32.704123 -1.57458,0.0036 -0.88883,0.462504 -0.78238,2.06189 -0.19069,0.09974 v 2.491837 l 3.43648,-0.03514 z"
           style="fill:#9e9493;fill-opacity:1;stroke-width:0.184854" /><path
           id="path38815"
           d="m -121.72444,33.317522 -0.57722,1.720825 2.36264,-0.0016 V 33.31752 Z"
           style="fill:#b2cad5;fill-opacity:1;stroke-width:0.184854" /><rect
           x="-122.89587"
           y="35.75325"
           width="0.92427146"
           height="0.64883858"
           fill="#fcea2b"
           id="rect38817"
           style="fill:#c6be61;fill-opacity:1;stroke-width:0.184854" /><path
           id="path38819"
           style="fill:#333333;stroke-width:0.184854"
           d="m -122.93625,36.957093 c -0.21691,0 -0.39171,0.174795 -0.39171,0.391708 0,0.216912 0.1748,0.391707 0.39171,0.391707 h 2.99724 v -0.783415 z" /><path
           id="path38821"
           style="color:#000000;fill:#000000;stroke-linecap:round;stroke-linejoin:round;-inkscape-stroke:none"
           d="m 45.817315,27.854605 a 1,1 0 0 1 0.259984,0.01677 1,1 0 0 1 0.7492,0.662539 l 2.879388,8.590641 A 1.0001,1.0001 0 0 1 48.75541,38.444044 H 36.877234 V 36.44245 h 10.488801 l -2.437696,-7.271154 a 1,1 0 0 1 0.631788,-1.266371 1,1 0 0 1 0.257188,-0.05032 z"
           transform="matrix(-0.18485429,0,0,0.18485429,-113.1221,28.113185)" /><path
           id="path38825"
           style="color:#000000;fill:#000000;stroke-linecap:round;stroke-miterlimit:10;-inkscape-stroke:none"
           d="m -120.67385,36.271347 a 0.122831,0.122831 0 0 0 -0.12299,0.12144 0.122831,0.122831 0 0 0 0.12299,0.122989 h 0.73432 a 0.122831,0.122831 0 0 0 5.2e-4,0 v -0.244429 a 0.122831,0.122831 0 0 0 -5.2e-4,0 z" /><polyline
           fill="none"
           stroke="#000000"
           stroke-linecap="round"
           stroke-linejoin="round"
           stroke-width="2"
           points="21 44.793 25 44.793 25 42.161"
           id="polyline38827"
           transform="matrix(0.18485429,0,0,0.18485429,-126.58891,28.113185)" /><rect
           x="-123.26154"
           y="37.816189"
           rx="0.32441929"
           ry="0.32441929"
           width="1.1091257"
           height="0.64883858"
           id="rect38829"
           style="stroke-width:0.184854" /><rect
           x="-123.90777"
           y="34.709858"
           rx="0.30256951"
           ry="0.30256951"
           width="0.91781998"
           height="0.60513902"
           id="rect38831"
           style="stroke-width:0.184854" /><path
           id="path38833"
           style="color:#000000;fill:#000000;stroke-linecap:round;stroke-linejoin:round;-inkscape-stroke:none"
           d="m -121.07021,32.441607 c -0.73947,0 -1.46182,0.632945 -1.69344,1.419551 l -0.34985,1.189075 c -0.17691,0.04914 -0.30333,0.198094 -0.38085,0.348299 -0.0947,0.183467 -0.1385,0.390148 -0.1385,0.572058 v 1.300696 c -2.3e-4,0.399003 0.32551,0.728123 0.72451,0.730705 h 2.96933 v -0.371037 h -2.96727 c -0.19997,-0.0013 -0.35771,-0.159697 -0.3576,-0.359668 V 35.97059 c 0,-0.11321 0.036,-0.282611 0.0977,-0.402043 0.0616,-0.119429 0.12494,-0.166398 0.17777,-0.166398 a 0.18485451,0.18485451 0 0 0 0.12867,-0.05168 0.18485451,0.18485451 0 0 0 0.005,-0.0047 0.18485451,0.18485451 0 0 0 0.003,-0.0026 0.18485451,0.18485451 0 0 0 0.063,-0.09147 l 0.37879,-1.286743 c 0.18532,-0.629375 0.82882,-1.154452 1.33997,-1.154452 h 1.1312 v -0.368969 z" /></g><g
         id="g38861"
         transform="matrix(0.10582345,0,0,0.10582345,-130.38547,31.197049)"><g
           id="g38837" /><g
           id="g38845"><g
             id="g38843"><path
               fill="#fcea2b"
               d="m 42.533,22.2881 a 4.3,4.3 0 0 0 -4.209,-4.1314 h -6 a 4.3,4.3 0 0 0 -4.209,4.1314 l -0.792,19.4393 a 1.0173,1.0173 0 0 1 -0.1209,0.4369 L 30.1357,40.07 29.4221,62.2033 a 1.2322,1.2322 0 0 0 0.25,0.8789 0.2412,0.2412 0 0 0 0.152,0.09 c 0.214,0 0.656,-0.4266 0.735,-1.1254 l 2.8986,-22.5033 a 4.9252,4.9252 0 0 1 0.4028,-1.1922 l 0.7246,-0.8052 H 36.21 l 0.984,0.6231 a 4.9259,4.9259 0 0 1 0.352,1.3413 l 2.542,22.5343 c 0.079,0.6978 0.522,1.1254 0.736,1.1254 a 0.242,0.242 0 0 0 0.152,-0.09 c 0.1922,-0.2483 0.4894,-0.585 0.4568,-0.9 L 40.5006,40.0702 44,42.5"
               id="path38839"
               style="fill:#ffffff" /><circle
               cx="35.4039"
               cy="10.6511"
               r="2.9690001"
               fill="#fcea2b"
               id="circle38841"
               style="fill:#ffffff" /></g></g><g
           id="g38859"><g
             id="g38857"><g
               id="g38853"><circle
                 cx="35.4039"
                 cy="10.6511"
                 r="2.9690001"
                 fill="none"
                 stroke="#000000"
                 stroke-miterlimit="10"
                 stroke-width="2"
                 id="circle38847" /><path
                 fill="none"
                 stroke="#000000"
                 stroke-linecap="round"
                 stroke-linejoin="round"
                 stroke-width="2"
                 d="m 40.37,23.5891 1.9,38 c 0.055,1.1 -0.575,2 -1.4,2 a 2.076,2.076 0 0 1 -1.729,-1.987 l -2.542,-22.031 c -0.129,-1.093 -0.679,-1.987 -1.229,-1.987 -0.55,0 -1.103,0.894 -1.229,1.987 l -2.539,22.031 a 2.076,2.076 0 0 1 -1.729,1.987 c -0.825,0 -1.455,-0.9 -1.4,-2 l 1.9,-38"
                 id="path38849" /><path
                 fill="none"
                 stroke="#000000"
                 stroke-linecap="round"
                 stroke-linejoin="round"
                 stroke-width="2"
                 d="m 26.3729,41.5891 0.792,-19 a 5.274,5.274 0 0 1 5.208,-5 h 6"
                 id="path38851" /></g><path
               fill="none"
               stroke="#000000"
               stroke-linecap="round"
               stroke-linejoin="round"
               stroke-width="2"
               d="m 38.3,17.589 a 5.274,5.274 0 0 1 5.208,5 l 0.792,19"
               id="path38855" /></g></g></g><path
         style="fill:none;stroke:#000000;stroke-width:0.264583px;stroke-linecap:butt;stroke-linejoin:miter;stroke-opacity:1"
         d="m -127.87651,37.989588 h 3.96875 v 0.529167 h 3.96875"
         id="path38863"
         sodipodi:nodetypes="cccc" /></g><path
       style="fill:none;stroke:#ff0000;stroke-width:0.5;stroke-linecap:round;stroke-linejoin:miter;stroke-dasharray:none;stroke-opacity:1"
       d="m -130.4355,21.151044 7.9375,7.9375"
       id="path24985-0-8-9"
       sodipodi:nodetypes="cc" /></g><style
     type="text/css"
     id="style3760">
	.st0{fill-rule:evenodd;clip-rule:evenodd;fill:#388344;}
	.st1{fill-rule:evenodd;clip-rule:evenodd;fill:#1F1D21;}
</style></svg>
