<?xml version="1.0" encoding="UTF-8" standalone="no"?>
<!-- Created with Inkscape (http://www.inkscape.org/) -->

<svg
   width="48.129627mm"
   height="54.050766mm"
   viewBox="0 0 48.129627 54.050766"
   version="1.1"
   id="svg1"
   inkscape:version="1.3.2 (091e20ef0f, 2023-11-25)"
   sodipodi:docname="bragaciclavel.svg"
   xmlns:inkscape="http://www.inkscape.org/namespaces/inkscape"
   xmlns:sodipodi="http://sodipodi.sourceforge.net/DTD/sodipodi-0.dtd"
   xmlns="http://www.w3.org/2000/svg"
   xmlns:svg="http://www.w3.org/2000/svg">
  <sodipodi:namedview
     id="namedview1"
     pagecolor="#ffffff"
     bordercolor="#999999"
     borderopacity="1"
     inkscape:showpageshadow="0"
     inkscape:pageopacity="0"
     inkscape:pagecheckerboard="0"
     inkscape:deskcolor="#d1d1d1"
     inkscape:document-units="mm"
     inkscape:zoom="4.7572176"
     inkscape:cx="29.21876"
     inkscape:cy="120.97408"
     inkscape:window-width="3840"
     inkscape:window-height="2075"
     inkscape:window-x="1920"
     inkscape:window-y="48"
     inkscape:window-maximized="1"
     inkscape:current-layer="layer1" />
  <defs
     id="defs1" />
  <g
     inkscape:label="Layer 1"
     inkscape:groupmode="layer"
     id="layer1">
    <path
       id="path1"
       d="M 0.38060739,41.059312 H 4.7007564 c 2.319238,0 3.518132,-1.285709 3.518132,-3.282487 0,-1.343587 -0.54157,-2.116666 -1.256771,-2.571419 0.611849,-0.467155 0.917773,-1.355989 0.917773,-2.248958 0,-1.794206 -1.062467,-2.844271 -3.311426,-2.844271 H 0.38060739 c -0.248047,0 -0.38033900392,0.132292 -0.38033900392,0.392741 v 10.161653 c 0,0.26045 0.13229200392,0.392741 0.38033900392,0.392741 z M 2.9313554,34.287633 v -1.86862 h 1.124479 c 0.686263,0 0.979785,0.450619 0.979785,0.93431 0,0.467155 -0.293522,0.93431 -0.979785,0.93431 z m 0,4.464843 v -2.277897 h 1.169955 c 0.830956,0 1.211295,0.467155 1.211295,1.141016 0,0.686263 -0.363802,1.136881 -1.211295,1.136881 z m 6.951513,2.306836 h 2.1580076 c 0.264584,0 0.392741,-0.132291 0.392741,-0.392741 v -3.7083 h 0.979785 l 1.736328,3.869531 c 0.08682,0.186035 0.264584,0.276985 0.454753,0.276985 h 2.45153 c 0.173633,0 0.351399,-0.132291 0.23151,-0.380338 l -2.042252,-4.32015 c 1.050065,-0.425813 1.736328,-1.360123 1.736328,-2.790527 0,-2.10013 -1.562696,-3.489192 -4.113444,-3.489192 H 9.8828684 c -0.248047,0 -0.380338,0.132291 -0.380338,0.380338 v 10.161653 c 0,0.26045 0.132291,0.392741 0.380338,0.392741 z m 2.5507486,-6.263183 v -2.377116 h 1.360124 c 0.905371,0 1.285709,0.496094 1.285709,1.194759 0,0.7028 -0.380338,1.182357 -1.285709,1.182357 z m 6.820255,6.263183 h 2.116667 c 0.260449,0 0.409277,-0.132291 0.479557,-0.392741 l 0.541569,-1.897558 h 2.889746 l 0.553971,1.897558 c 0.07441,0.26045 0.219105,0.392741 0.483695,0.392741 h 2.11666 c 0.26045,0 0.34727,-0.132291 0.26045,-0.392741 L 25.281411,30.504918 c -0.08682,-0.260449 -0.248047,-0.392741 -0.51263,-0.392741 h -1.852083 c -0.264584,0 -0.42168,0.132292 -0.51263,0.392741 l -3.427181,10.161653 c -0.09095,0.26045 0,0.392741 0.276985,0.392741 z m 3.749642,-4.539257 0.830957,-2.790527 0.847494,2.790527 z m 11.006043,4.729426 c 2.60036,0 4.192,-1.372526 4.192,-2.323372 l -0.0331,-3.633886 c 0,-0.248047 -0.12816,-0.380339 -0.39274,-0.380339 h -3.43132 c -0.26045,0 -0.39274,0.132292 -0.39274,0.380339 v 1.475879 c 0,0.260449 0.13229,0.39274 0.39274,0.39274 h 1.57924 v 1.008724 c 0,0.289388 -0.61599,0.789616 -1.63711,0.789616 -1.59164,0 -2.50941,-1.256771 -2.50941,-3.373437 0,-2.162142 0.94671,-3.373438 2.497,-3.373438 0.64079,0 1.26918,0.19017 1.86862,0.628386 0.1447,0.103353 0.28939,0.132291 0.40928,0 l 1.05007,-1.211296 c 0.13229,-0.144694 0.0992,-0.293522 0,-0.409277 -0.7152,-0.698665 -1.85622,-1.298112 -3.59255,-1.298112 -3.16673,0 -5.271,2.087728 -5.271,5.6472 0,3.576009 2.10427,5.680273 5.271,5.680273 z m 4.64365,-0.190169 h 2.11666 c 0.26045,0 0.40928,-0.132291 0.47956,-0.392741 l 0.54157,-1.897558 h 2.88975 l 0.55397,1.897558 c 0.0744,0.26045 0.21911,0.392741 0.48369,0.392741 h 2.11667 c 0.26044,0 0.34726,-0.132291 0.26044,-0.392741 l -3.41477,-10.161653 c -0.0868,-0.260449 -0.24805,-0.392741 -0.51263,-0.392741 h -1.85209 c -0.26458,0 -0.42168,0.132292 -0.51263,0.392741 l -3.42718,10.161653 c -0.0909,0.26045 0,0.392741 0.27699,0.392741 z m 3.74964,-4.539257 0.83096,-2.790527 0.84749,2.790527 z m 0,0"
       style="fill:#004f6d;fill-opacity:1;fill-rule:nonzero;stroke:none;stroke-width:0.352778"
       aria-label="BRAGA" />
    <path
       id="path2"
       d="m 3.5059984,54.028028 c 1.058333,0 1.868619,-0.314193 2.352311,-0.719336 0.157096,-0.115756 0.132291,-0.248047 0.05374,-0.380339 l -0.615983,-1.09554 c -0.09095,-0.173633 -0.235644,-0.157097 -0.392741,-0.07855 -0.223242,0.115755 -0.562239,0.376204 -1.112077,0.351399 -0.797884,-0.03721 -1.281575,-0.640787 -1.281575,-1.649511 0,-1.016992 0.483691,-1.620573 1.281575,-1.645378 0.549838,-0.02894 0.888835,0.219108 1.112077,0.3514 0.157097,0.07855 0.301791,0.07855 0.392741,-0.07855 l 0.615983,-1.112077 c 0.07855,-0.128158 0.103353,-0.260449 -0.05374,-0.380339 -0.483692,-0.388606 -1.293978,-0.719335 -2.352311,-0.719335 -2.174545,0 -3.50572901392,1.322916 -3.50572901392,3.584277 0,2.253092 1.33118401392,3.571875 3.50572901392,3.571875 z m 4.651912,-7.900293 c 0.81442,0 1.492415,-0.65319 1.492415,-1.463477 0,-0.810286 -0.677995,-1.492415 -1.492415,-1.492415 -0.810287,0 -1.463477,0.682129 -1.463477,1.492415 0,0.810287 0.65319,1.463477 1.463477,1.463477 z m -0.876432,7.730794 h 1.81901 c 0.248047,0 0.355534,-0.103353 0.355534,-0.3514 v -6.110221 c 0,-0.235645 -0.107487,-0.3514 -0.355534,-0.3514 h -1.81901 c -0.235645,0 -0.338998,0.115755 -0.338998,0.3514 v 6.110221 c 0,0.248047 0.103353,0.3514 0.338998,0.3514 z m 6.7262036,0.169499 c 1.058333,0 1.868619,-0.314193 2.352311,-0.719336 0.157096,-0.115756 0.132291,-0.248047 0.05374,-0.380339 l -0.615983,-1.09554 c -0.09095,-0.173633 -0.235644,-0.157097 -0.392741,-0.07855 -0.223242,0.115755 -0.562239,0.376204 -1.112076,0.351399 -0.797885,-0.03721 -1.281576,-0.640787 -1.281576,-1.649511 0,-1.016992 0.483691,-1.620573 1.281576,-1.645378 0.549837,-0.02894 0.888834,0.219108 1.112076,0.3514 0.157097,0.07855 0.301791,0.07855 0.392741,-0.07855 l 0.615983,-1.112077 c 0.07855,-0.128158 0.103353,-0.260449 -0.05374,-0.380339 -0.483692,-0.388606 -1.293978,-0.719335 -2.352311,-0.719335 -2.174544,0 -3.505729,1.322916 -3.505729,3.584277 0,2.253092 1.331185,3.571875 3.505729,3.571875 z m 6.422346,-0.169499 h 0.545703 c 0.252181,0 0.355534,-0.103353 0.355534,-0.3514 v -1.231966 c 0,-0.235644 -0.09095,-0.3514 -0.326595,-0.3514 h -0.05374 c -0.756543,0 -1.178223,-0.60358 -1.178223,-1.322916 v -6.201172 c 0,-0.248047 -0.103353,-0.351399 -0.3514,-0.351399 h -1.80661 c -0.248047,0 -0.3514,0.103352 -0.3514,0.351399 v 6.267318 c 0,2.013313 1.178222,3.191536 3.166731,3.191536 z m 4.79764,-6.986653 c -0.835091,0 -1.81901,0.173632 -2.484603,0.458886 -0.248047,0.09095 -0.235644,0.248047 -0.169498,0.483692 l 0.314192,1.099674 c 0.06615,0.248047 0.301791,0.21084 0.454753,0.169499 0.392741,-0.132292 0.876432,-0.260449 1.389062,-0.272852 0.835091,0 1.161687,0.376205 1.161687,0.926042 v 0.186035 c 0,0 -0.599447,-0.248047 -1.409733,-0.248047 -1.546159,0 -2.550749,0.859896 -2.550749,2.22002 0,1.269173 0.913639,2.133203 2.116666,2.133203 1.12448,0 1.843816,-0.77308 1.843816,-0.77308 v 0.252181 c 0,0.219108 0.132296,0.3514 0.355536,0.3514 h 1.81901 c 0.21911,0 0.3514,-0.132292 0.3514,-0.3514 v -3.286621 c 0,-2.236556 -0.96739,-3.348632 -3.191539,-3.348632 z m -0.157096,5.535579 c -0.392741,-0.0124 -0.706934,-0.260449 -0.706934,-0.682129 0,-0.392741 0.289388,-0.65319 0.785482,-0.665593 0.405143,-0.0124 0.744141,0.157097 0.744141,0.157097 v 0.851627 c 0,0 -0.3514,0.3514 -0.822689,0.338998 z m 6.568075,1.473811 h 1.95957 c 0.1695,0 0.30179,-0.07855 0.39274,-0.326595 l 2.36885,-6.147428 c 0.0786,-0.223242 -0.091,-0.338997 -0.28939,-0.338997 h -1.81488 c -0.17363,0 -0.31419,0.07855 -0.36793,0.272852 l -1.26918,4.146516 -1.26917,-4.146516 c -0.0537,-0.194304 -0.1943,-0.272852 -0.3638,-0.272852 h -1.81901 c -0.19844,0 -0.38034,0.115755 -0.28939,0.338997 l 2.36885,6.147428 c 0.091,0.248047 0.22324,0.326595 0.39274,0.326595 z m 8.45943,0.169499 c 1.06247,0 2.05466,-0.314193 2.55075,-0.719336 0.1571,-0.115755 0.14469,-0.223242 0.0537,-0.380338 l -0.60358,-1.070736 c -0.091,-0.181901 -0.23151,-0.223242 -0.42995,-0.132292 -0.38033,0.198438 -0.75654,0.380339 -1.26917,0.380339 -0.85163,0 -1.30638,-0.525033 -1.30638,-1.178223 h 3.68763 c 0.26045,0 0.3266,-0.103352 0.3514,-0.520898 0.1447,-2.174544 -1.21543,-3.534668 -3.175,-3.534668 -1.89756,0 -3.42718,1.335319 -3.42718,3.584277 0,2.265495 1.43867,3.571875 3.56774,3.571875 z m -1.00459,-4.274674 c 0,-0.537435 0.40514,-0.971517 0.96738,-0.971517 0.5085,0 0.90124,0.380338 0.90124,0.954981 z m 8.1349,4.105175 h 0.54571 c 0.25218,0 0.35553,-0.103352 0.35553,-0.351399 v -1.231966 c 0,-0.235645 -0.0909,-0.3514 -0.32659,-0.3514 h -0.0537 c -0.75654,0 -1.17822,-0.603581 -1.17822,-1.322917 v -6.201171 c 0,-0.248047 -0.10335,-0.3514 -0.3514,-0.3514 h -1.80661 c -0.24804,0 -0.3514,0.103353 -0.3514,0.3514 v 6.267317 c 0,2.013314 1.17822,3.191536 3.16673,3.191536 z m 0,0"
       style="fill:#29b944;fill-opacity:1;fill-rule:nonzero;stroke:none;stroke-width:0.352778"
       aria-label="cicla&#10;vel" />
    <path
       id="path3"
       d="m 26.904607,46.050076 0.89464,-1.995311 c 0,0 0.23954,-0.308681 0.66958,0 0.43144,0.310092 1.24036,0.963436 1.24036,0.963436 0,0 0.22296,0.240947 -0.0166,0.447675 -0.2413,0.206728 -1.84256,1.084439 -1.84256,1.084439 0,0 -0.11994,0.06491 -0.23142,0.0127 -0.11324,-0.05115 -0.71931,-0.423333 -0.71931,-0.423333 0,0 -0.0388,-0.02328 0.004,-0.08678 z"
       style="fill:#29b944;fill-opacity:1;fill-rule:nonzero;stroke:none;stroke-width:0.352778" />
    <path
       id="path4"
       d="m 30.052087,0.01010873 c -0.97966,-0.077258 -1.91135,0.29880276 -2.75449,0.77011386 -1.688037,0.93980001 -3.07022,2.37595821 -3.07022,2.37595821 -0.291042,0.2878666 -0.291042,0.7549444 0,1.0417527 0.290688,0.2850444 0.756355,0.2797528 1.040341,-0.00988 0,0 1.320099,-1.3229166 2.746379,-2.1166665 0.71225,-0.3982861 1.43051,-0.6364111 1.91946,-0.5965472 0.4893,0.037042 0.82021,0.2010834 1.14935,1.0403416 1.59032,4.0403637 6.60929,18.0329406 6.60929,18.0329406 0.14041,0.379237 0.56198,0.573264 0.94227,0.432859 0.37924,-0.136525 0.5775,-0.551392 0.44662,-0.931686 0,0 -4.99251,-13.9414249 -6.62023,-18.0770385 -0.47237,-1.20438331 -1.42875,-1.88665547 -2.40877,-1.96497217 z"
       style="fill:#004f6d;fill-opacity:1;fill-rule:nonzero;stroke:none;stroke-width:0.352778" />
    <path
       id="path5"
       d="m 32.190977,5.2837835 c 0,0 -1.50212,1.379361 -3.70981,2.6458332 -2.21156,1.2678834 -5.082113,2.3660803 -7.747349,1.9113504 l -0.250825,1.4414489 c 3.210984,0.549628 6.372224,-0.716844 8.734074,-2.0711579 2.36185,-1.3560775 3.97157,-2.8539719 3.97157,-2.8539719 z"
       style="fill:#004f6d;fill-opacity:1;fill-rule:nonzero;stroke:none;stroke-width:0.352778" />
    <path
       id="path6"
       d="m 33.600677,7.15915 c -0.19438,0 -0.3817,0.078669 -0.52105,0.219075 L 22.404221,17.856783 9.1888134,18.140769 c -0.40393,0.0095 -0.723547,0.344664 -0.716844,0.748242 0.0042,0.407811 0.341842,0.734483 0.749653,0.72778 L 22.729129,19.321869 c 0.187678,-0.0042 0.366536,-0.0829 0.500239,-0.216606 L 34.110447,8.4175083 c 0.28398,-0.282575 0.29069,-0.7401277 0.0123,-1.0294055 -0.13759,-0.1421694 -0.32527,-0.2247194 -0.5207,-0.2275417 z"
       style="fill:#004f6d;fill-opacity:1;fill-rule:nonzero;stroke:none;stroke-width:0.352778" />
    <path
       id="path7"
       d="m 18.833405,5.2728474 c -0.388409,0.1142999 -0.611717,0.5192888 -0.497417,0.9108721 l 3.67665,12.6075715 c 0.1143,0.38735 0.522464,0.610306 0.910872,0.500239 0.390172,-0.117122 0.614539,-0.522464 0.500239,-0.913694 L 19.744277,5.770264 c -0.1143,-0.3887611 -0.5207,-0.6120694 -0.910872,-0.4974166 z"
       style="fill:#004f6d;fill-opacity:1;fill-rule:nonzero;stroke:none;stroke-width:0.352778" />
    <path
       id="path8"
       d="m 14.528458,4.6180918 c 0,0 -1.03752,0.7150805 -0.322439,1.3313833 0.714022,0.6184194 0.19438,0.9754305 2.078213,0.9080499 1.883834,-0.064911 6.55955,-0.2261305 6.55955,-0.2261305 0,0 0.811389,-0.9094611 -0.453672,-1.4276916 -1.267531,-0.5207 -7.861652,-0.5856111 -7.861652,-0.5856111 z"
       style="fill:#004f6d;fill-opacity:1;fill-rule:nonzero;stroke:none;stroke-width:0.352778" />
    <path
       id="path9"
       d="m 9.4477524,11.184344 c -4.369858,0 -7.929385,3.560939 -7.929385,7.932208 0,4.370917 3.559527,7.930444 7.929385,7.930444 4.3712686,0 7.9318546,-3.559527 7.9318546,-7.930444 0,-4.371269 -3.560586,-7.932208 -7.9318546,-7.932208 z m 0,1.476023 c 3.5775196,0 6.4575966,2.880077 6.4575966,6.456185 0,3.574697 -2.880077,6.454775 -6.4575966,6.454775 -3.574697,0 -6.454774,-2.880078 -6.454774,-6.454775 0,-3.576108 2.880077,-6.456185 6.454774,-6.456185 z"
       style="fill:#004f6d;fill-opacity:1;fill-rule:evenodd;stroke:none;stroke-width:0.352778" />
    <path
       id="path10"
       d="m 38.015697,11.726211 c -4.3681,0 -7.93045,3.54965 -7.93045,7.92233 0,4.370917 3.56235,7.931855 7.93045,7.931855 4.37127,0 7.93221,-3.560938 7.93221,-7.931855 0,-4.37268 -3.56094,-7.92233 -7.93221,-7.92233 z m 0,1.464733 c 3.57611,0 6.45618,2.8829 6.45618,6.457597 0,3.574344 -2.88007,6.4643 -6.45618,6.4643 -3.57435,0 -6.45442,-2.889956 -6.45442,-6.4643 0,-3.574697 2.88007,-6.457597 6.45442,-6.457597 z"
       style="fill:#004f6d;fill-opacity:1;fill-rule:evenodd;stroke:none;stroke-width:0.352778" />
    <path
       id="path11"
       d="m 19.777438,8.7755777 c 0,0.00141 -0.107245,0.055386 -0.108656,0.055386 0,0.00247 -0.04022,0.021872 -0.05398,0.034219 -0.02611,0.017992 -0.04269,0.033161 -0.05362,0.044097 -0.02611,0.022225 -0.04974,0.039864 -0.06491,0.055033 -0.03281,0.034572 -0.06032,0.070556 -0.09772,0.1104195 -0.07585,0.077258 -0.172156,0.1806219 -0.2921,0.3129139 -0.244123,0.267053 -0.58032,0.6406439 -0.978606,1.0844389 -0.792339,0.892881 -1.829858,2.077861 -2.863497,3.254728 -2.068336,2.357966 -4.113389,4.699352 -4.113389,4.699352 l 1.108075,0.964495 c 0,0 2.047522,-2.343856 4.111978,-4.696178 1.032228,-1.176867 2.065514,-2.357966 2.852561,-3.244144 0.395464,-0.444853 0.73025,-0.815623 0.967316,-1.074914 0.115711,-0.12947 0.208139,-0.2286 0.270228,-0.2921 -0.01129,0.0042 -0.03316,0.01129 -0.03316,0.01129 0.0028,-0.0014 -0.110067,0.05644 -0.107597,0.05644 z"
       style="fill:#004f6d;fill-opacity:1;fill-rule:nonzero;stroke:none;stroke-width:0.352778" />
    <path
       id="path12"
       d="M 1.1493614,25.908935 C 0.51541939,25.912835 0.00142239,26.425402 1.1386077e-5,27.057932 -0.00278861,27.696107 0.51118639,28.214338 1.1493614,28.218571 H 46.980127 c 0.635,-0.0042 1.15041,-0.522464 1.149,-1.160639 -0.002,-0.63253 -0.51788,-1.145116 -1.149,-1.148997 z"
       style="fill:#004f6d;fill-opacity:1;fill-rule:nonzero;stroke:none;stroke-width:0.352778" />
    <path
       id="path13"
       d="m 44.742107,5.5649473 c -0.40781,0.00388 -0.73448,0.3390195 -0.72778,0.7482417 0.0222,1.5599832 -0.24518,2.5713971 -0.49742,3.1788801 -0.18732,0.448028 -0.25223,0.4826 -0.31538,0.5542139 -0.29633,0.01094 -1.276,0.04833 -2.63631,0.06456 -0.77434,0.0042 -1.57797,0 -2.21191,-0.02328 -0.31962,-0.01094 -0.5895,-0.03316 -0.79375,-0.05503 -0.20532,-0.02223 -0.37465,-0.06915 -0.2921,-0.03316 0.1337,0.05786 0.0829,0.05503 0.0236,-0.03457 -0.0635,-0.08678 -0.14217,-0.24518 -0.22895,-0.432505 -0.17639,-0.3778255 -0.36513,-0.8904115 -0.53305,-1.4001754 -0.3309,-1.0198805 -0.57326,-2.0062471 -0.57326,-2.0062471 -0.1009,-0.3929944 -0.49777,-0.6300611 -0.89182,-0.5319889 -0.38982,0.093486 -0.63112,0.4864805 -0.54152,0.8777111 0,0 0.25365,1.0336388 0.60643,2.1166665 0.17639,0.5401028 0.37747,1.0996088 0.59796,1.5737418 0.11042,0.234244 0.22189,0.453319 0.35842,0.649111 0.13652,0.19685 0.27411,0.392642 0.59513,0.531989 0.27023,0.118534 0.45756,0.125236 0.71685,0.151342 0.26176,0.02893 0.56197,0.04022 0.9024,0.05644 0.67663,0.02646 1.48837,0.02646 2.27648,0.02222 1.57656,-0.01658 3.0607,-0.07585 3.0607,-0.07585 l 0.28116,-0.01235 0.19721,-0.19297 c 0,0 0.42439,-0.43815 0.75917,-1.238955 0.33197,-0.801864 0.63253,-2.0228282 0.60784,-3.7648448 -0.006,-0.4035777 -0.33514,-0.7274277 -0.73872,-0.7260166 z"
       style="fill:#004f6d;fill-opacity:1;fill-rule:nonzero;stroke:none;stroke-width:0.352778" />
    <path
       id="path14"
       d="m 4.1328034,9.1325888 c -0.409575,0 -0.741539,0.3305533 -0.740128,0.7387163 0.0056,0.4035779 0.334786,0.7288389 0.740128,0.7288389 H 17.292824 c 0.399697,-0.0053 0.720725,-0.329141 0.726369,-0.7288389 0.0014,-0.40393 -0.322438,-0.7344829 -0.726369,-0.7387163 z"
       style="fill:#004f6d;fill-opacity:1;fill-rule:nonzero;stroke:none;stroke-width:0.352778" />
  </g>
</svg>
