<?xml version="1.0" encoding="UTF-8" standalone="no"?>
<!DOCTYPE svg PUBLIC "-//W3C//DTD SVG 1.1//EN" "http://www.w3.org/Graphics/SVG/1.1/DTD/svg11.dtd">
<svg width="100%" height="100%" viewBox="0 0 920 406" version="1.1" xmlns="http://www.w3.org/2000/svg" xmlns:xlink="http://www.w3.org/1999/xlink" xml:space="preserve" xmlns:serif="http://www.serif.com/" style="fill-rule:evenodd;clip-rule:evenodd;stroke-linejoin:round;stroke-miterlimit:2;">
    <g transform="matrix(1,0,0,1,-840.515,-1553.67)">
        <g transform="matrix(4.16667,0,0,4.16667,0,0)">
            <g transform="matrix(1,0,0,1,210.513,397.049)">
                <path d="M0,20.805C0.734,21.551 1.648,21.91 2.719,21.91C3.793,21.91 4.711,21.551 5.457,20.805C6.207,20.075 6.578,19.16 6.578,18.086L14.23,18.086C14.23,21.262 13.105,23.977 10.855,26.219C8.605,28.477 5.891,29.598 2.719,29.598C-0.453,29.598 -3.164,28.477 -5.414,26.219C-7.668,23.977 -8.789,21.262 -8.789,18.086L-8.789,2.715C-8.789,-0.461 -7.668,-3.164 -5.414,-5.414C-3.164,-7.668 -0.453,-8.793 2.719,-8.793C5.891,-8.793 8.605,-7.668 10.855,-5.414C13.105,-3.164 14.23,-0.461 14.23,2.715L6.578,2.715C6.578,1.641 6.207,0.731 5.457,-0.004C4.711,-0.738 3.793,-1.105 2.719,-1.105C1.648,-1.105 0.734,-0.738 0,-0.004C-0.734,0.731 -1.105,1.641 -1.105,2.715L-1.105,18.086C-1.105,19.16 -0.734,20.075 0,20.805" style="fill:rgb(9,51,69);fill-rule:nonzero;"/>
            </g>
        </g>
        <g transform="matrix(4.16667,0,0,4.16667,0,0)">
            <g transform="matrix(1,0,0,1,0,204.25)">
                <path d="M229.356,168.632L237.044,168.632L237.044,176.32L229.356,176.32L229.356,168.632ZM229.356,184.007L237.044,184.007L237.044,222.398L229.356,222.398L229.356,184.007Z" style="fill:rgb(9,51,69);fill-rule:nonzero;"/>
            </g>
        </g>
        <g transform="matrix(4.16667,0,0,4.16667,0,0)">
            <g transform="matrix(1,0,0,1,251.505,397.049)">
                <path d="M0,20.805C0.738,21.551 1.645,21.91 2.715,21.91C3.793,21.91 4.707,21.551 5.457,20.805C6.203,20.075 6.582,19.16 6.582,18.086L14.23,18.086C14.23,21.262 13.105,23.977 10.852,26.219C8.605,28.477 5.895,29.598 2.715,29.598C-0.453,29.598 -3.164,28.477 -5.414,26.219C-7.664,23.977 -8.793,21.262 -8.793,18.086L-8.793,2.715C-8.793,-0.461 -7.664,-3.164 -5.414,-5.414C-3.164,-7.668 -0.453,-8.793 2.715,-8.793C5.895,-8.793 8.605,-7.668 10.852,-5.414C13.105,-3.164 14.23,-0.461 14.23,2.715L6.582,2.715C6.582,1.641 6.203,0.731 5.457,-0.004C4.707,-0.738 3.793,-1.105 2.715,-1.105C1.645,-1.105 0.738,-0.738 0,-0.004C-0.734,0.731 -1.105,1.641 -1.105,2.715L-1.105,18.086C-1.105,19.16 -0.734,20.075 0,20.805" style="fill:rgb(9,51,69);fill-rule:nonzero;"/>
            </g>
        </g>
        <g transform="matrix(4.16667,0,0,4.16667,0,0)">
            <g transform="matrix(1,0,0,1,269.895,426.648)">
                <path d="M0,-53.766L7.688,-53.766L7.688,-11.43C7.738,-10.411 8.133,-9.524 8.867,-8.793C9.605,-8.047 10.512,-7.688 11.582,-7.688L11.582,0C8.414,0 5.699,-1.114 3.449,-3.34C1.203,-5.563 0.051,-8.258 0,-11.43L0,-53.766Z" style="fill:rgb(9,51,69);fill-rule:nonzero;"/>
            </g>
        </g>
        <g transform="matrix(4.16667,0,0,4.16667,0,0)">
            <g transform="matrix(1,0,0,1,287.704,423.269)">
                <path d="M0,-31.633C2.25,-33.887 4.961,-35.012 8.137,-35.012C11.313,-35.012 14.035,-33.887 16.293,-31.633C18.555,-29.383 19.688,-26.68 19.688,-23.504L19.688,3.379L11.918,3.379L11.961,-3.449C11.961,-3.172 11.797,-2.563 11.473,-1.602C11.199,-0.735 10.816,0.031 10.332,0.695C9.844,1.359 9.07,1.972 8.023,2.539C6.977,3.097 5.734,3.379 4.316,3.379C2.883,3.379 1.648,3.113 0.598,2.57C-0.449,2.035 -1.219,1.398 -1.703,0.66C-2.191,-0.074 -2.578,-0.82 -2.867,-1.567C-3.152,-2.317 -3.301,-2.965 -3.301,-3.52L-3.375,-4.309L-3.375,-8.133C-3.375,-11.305 -2.25,-14.02 0,-16.27C2.25,-18.512 4.961,-19.645 8.137,-19.645C9.215,-19.645 10.125,-20.012 10.875,-20.766C11.621,-21.52 12,-22.43 12,-23.504C12,-24.574 11.621,-25.488 10.875,-26.223C10.125,-26.961 9.215,-27.324 8.137,-27.324C7.063,-27.324 6.156,-26.961 5.418,-26.223C4.684,-25.488 4.316,-24.574 4.316,-23.504L-3.375,-23.504C-3.375,-26.68 -2.25,-29.383 0,-31.633M8.137,-4.309C9.262,-4.309 10.152,-4.621 10.801,-5.258C11.445,-5.899 11.824,-6.528 11.918,-7.156L12,-8.133L12,-12.668C10.77,-12.219 9.484,-11.988 8.137,-11.988C7.063,-11.988 6.156,-11.621 5.418,-10.867C4.684,-10.113 4.316,-9.199 4.316,-8.133C4.316,-8.031 4.328,-7.891 4.352,-7.715C4.375,-7.543 4.453,-7.235 4.57,-6.801C4.699,-6.363 4.883,-5.973 5.117,-5.637C5.355,-5.301 5.734,-4.996 6.262,-4.719C6.789,-4.442 7.41,-4.309 8.137,-4.309" style="fill:rgb(9,51,69);fill-rule:nonzero;"/>
            </g>
        </g>
        <g transform="matrix(4.16667,0,0,4.16667,0,0)">
            <g transform="matrix(1,0,0,1,306.282,470.171)">
                <path d="M0,-38.395L7.684,-38.395L11.508,-19.2L15.371,-38.395L23.02,-38.395L15.371,0L7.684,0L0,-38.395Z" style="fill:rgb(9,51,69);fill-rule:nonzero;"/>
            </g>
        </g>
        <g transform="matrix(4.16667,0,0,4.16667,0,0)">
            <g transform="matrix(1,0,0,1,335.149,466.796)">
                <path d="M0,-31.645C2.25,-33.891 4.969,-35.02 8.141,-35.02C11.313,-35.02 14.02,-33.891 16.273,-31.645C18.523,-29.395 19.648,-26.68 19.648,-23.504L19.648,-11.997L4.277,-11.997L4.277,-8.133C4.277,-7.063 4.648,-6.157 5.398,-5.415C6.148,-4.684 7.063,-4.309 8.141,-4.309C9.215,-4.309 10.117,-4.684 10.855,-5.415C11.59,-6.157 11.961,-7.063 11.961,-8.133L19.648,-8.133C19.648,-4.965 18.523,-2.25 16.273,-0.004C14.02,2.246 11.313,3.375 8.141,3.375C4.969,3.375 2.25,2.246 0,-0.004C-2.246,-2.25 -3.375,-4.965 -3.375,-8.133L-3.375,-23.504C-3.375,-26.68 -2.246,-29.395 0,-31.645M4.277,-19.645L11.961,-19.645L11.961,-23.504C11.961,-24.582 11.59,-25.493 10.855,-26.223C10.117,-26.961 9.215,-27.332 8.141,-27.332C7.063,-27.332 6.148,-26.961 5.398,-26.223C4.648,-25.493 4.277,-24.582 4.277,-23.504L4.277,-19.645Z" style="fill:rgb(9,51,69);fill-rule:nonzero;"/>
            </g>
        </g>
        <g transform="matrix(4.16667,0,0,4.16667,0,0)">
            <g transform="matrix(1,0,0,1,0,291.3)">
                <path d="M360.536,125.109L368.22,125.109L368.22,132.789L360.536,132.789L360.536,125.109ZM360.536,140.476L368.22,140.476L368.22,178.871L360.536,178.871L360.536,140.476Z" style="fill:rgb(9,51,69);fill-rule:nonzero;"/>
            </g>
        </g>
        <g transform="matrix(4.16667,0,0,4.16667,0,0)">
            <g transform="matrix(1,0,0,1,372.825,470.093)">
                <path d="M0,-38.391L7.691,-38.391L7.691,-30.703C7.691,-30.907 7.699,-31.184 7.73,-31.547C7.754,-31.914 7.902,-32.532 8.176,-33.403C8.453,-34.282 8.836,-35.047 9.32,-35.707C9.809,-36.368 10.574,-36.981 11.625,-37.551C12.676,-38.11 13.922,-38.391 15.359,-38.391C16.797,-38.391 18.035,-38.121 19.082,-37.582C20.137,-37.043 20.902,-36.411 21.395,-35.672C21.883,-34.938 22.258,-34.188 22.539,-33.438C22.809,-32.692 22.949,-32.043 22.949,-31.496L23.02,-30.703L23.02,-26.879L15.375,-26.879C15.375,-26.977 15.363,-27.121 15.336,-27.297C15.313,-27.473 15.23,-27.778 15.094,-28.211C14.957,-28.653 14.777,-29.036 14.551,-29.375C14.328,-29.711 13.941,-30.02 13.406,-30.293C12.871,-30.571 12.238,-30.703 11.512,-30.703C10.742,-30.703 10.07,-30.559 9.512,-30.258C8.949,-29.961 8.547,-29.571 8.324,-29.106C8.102,-28.653 7.941,-28.266 7.836,-27.946C7.742,-27.637 7.691,-27.328 7.691,-27.032L7.691,0L0,0L0,-38.391Z" style="fill:rgb(9,51,69);fill-rule:nonzero;"/>
            </g>
        </g>
        <g transform="matrix(4.16667,0,0,4.16667,0,0)">
            <g transform="matrix(1,0,0,1,410.739,470.241)">
                <path d="M0,-38.387C3.168,-38.387 5.879,-37.293 8.129,-35.09C10.379,-32.891 11.527,-30.199 11.578,-27.028L11.578,-11.578C11.578,-8.36 10.438,-5.621 8.168,-3.367C5.891,-1.117 3.168,0 0,0C-3.18,0 -5.883,-1.098 -8.105,-3.297C-10.328,-5.496 -11.488,-8.157 -11.59,-11.282L-11.59,-26.801C-11.59,-30.032 -10.465,-32.762 -8.215,-35.016C-5.973,-37.266 -3.23,-38.387 0,-38.387M2.715,-29.524C1.977,-30.258 1.066,-30.625 0,-30.625C-1.078,-30.625 -1.992,-30.258 -2.746,-29.524C-3.492,-28.785 -3.867,-27.903 -3.867,-26.887L-3.867,-11.578C-3.867,-10.508 -3.492,-9.602 -2.746,-8.86C-1.992,-8.129 -1.078,-7.754 0,-7.754C1.016,-7.754 1.914,-8.114 2.676,-8.821C3.438,-9.543 3.82,-10.41 3.82,-11.43L3.82,-26.801C3.82,-27.879 3.445,-28.785 2.715,-29.524" style="fill:rgb(9,51,69);fill-rule:nonzero;"/>
            </g>
        </g>
        <g transform="matrix(4.16667,0,0,4.16667,0,0)">
            <g transform="matrix(1,0,0,1,254.145,445.695)">
                <path d="M0,-7.352C-3.215,-10.563 -7.648,-12.555 -12.555,-12.555L-12.555,5.203L0,-7.352Z" style="fill:rgb(255,242,11);fill-rule:nonzero;"/>
            </g>
        </g>
        <g transform="matrix(4.16667,0,0,4.16667,0,0)">
            <g transform="matrix(1,0,0,1,241.587,450.897)">
                <path d="M0,-17.758C-4.539,-17.758 -9.086,-16.02 -12.551,-12.555L0,0L0,-17.758Z" style="fill:rgb(9,51,69);fill-rule:nonzero;"/>
            </g>
        </g>
        <g transform="matrix(4.16667,0,0,4.16667,0,0)">
            <g transform="matrix(1,0,0,1,229.036,450.898)">
                <path d="M0,-12.555C-3.215,-9.344 -5.203,-4.899 -5.203,0L12.555,0L0,-12.555Z" style="fill:rgb(170,203,185);fill-rule:nonzero;"/>
            </g>
        </g>
        <g transform="matrix(4.16667,0,0,4.16667,0,0)">
            <g transform="matrix(1,0,0,1,223.833,463.452)">
                <path d="M0,-12.555C0,-8.012 1.734,-3.473 5.203,0L17.754,-12.555L0,-12.555Z" style="fill:rgb(237,28,40);fill-rule:nonzero;"/>
            </g>
        </g>
        <g transform="matrix(4.16667,0,0,4.16667,0,0)">
            <g transform="matrix(1,0,0,1,229.036,456.092)">
                <path d="M0,7.36C3.211,10.571 7.645,12.555 12.555,12.555L12.555,-5.195L0,7.36Z" style="fill:rgb(255,242,11);fill-rule:nonzero;"/>
            </g>
        </g>
        <g transform="matrix(4.16667,0,0,4.16667,0,0)">
            <g transform="matrix(1,0,0,1,241.587,450.897)">
                <path d="M0,17.75C4.547,17.75 9.09,16.016 12.559,12.555L0,0L0,17.75Z" style="fill:rgb(9,51,69);fill-rule:nonzero;"/>
            </g>
        </g>
        <g transform="matrix(4.16667,0,0,4.16667,0,0)">
            <g transform="matrix(1,0,0,1,254.145,450.897)">
                <path d="M0,12.555C3.211,9.344 5.199,4.899 5.199,0L-12.555,0L0,12.555Z" style="fill:rgb(170,203,185);fill-rule:nonzero;"/>
            </g>
        </g>
        <g transform="matrix(4.16667,0,0,4.16667,0,0)">
            <g transform="matrix(1,0,0,1,259.345,438.342)">
                <path d="M0,12.555C0,8.008 -1.738,3.465 -5.199,0L-17.758,12.555L0,12.555Z" style="fill:rgb(237,28,40);fill-rule:nonzero;"/>
            </g>
        </g>
        <g transform="matrix(4.16667,0,0,4.16667,0,0)">
            <g transform="matrix(1,0,0,1,290.618,450.897)">
                <path d="M0,15.301C3.918,12.996 6.953,9.188 8.184,4.438L-9.012,0L0,15.301Z" style="fill:rgb(255,242,11);fill-rule:nonzero;"/>
            </g>
        </g>
        <g transform="matrix(4.16667,0,0,4.16667,0,0)">
            <g transform="matrix(1,0,0,1,298.794,441.882)">
                <path d="M0,13.453C1.141,9.058 0.598,4.226 -1.895,0L-17.188,9.015L0,13.453Z" style="fill:rgb(9,51,69);fill-rule:nonzero;"/>
            </g>
        </g>
        <g transform="matrix(4.16667,0,0,4.16667,0,0)">
            <g transform="matrix(1,0,0,1,296.899,442.722)">
                <path d="M0,-0.84C-2.305,-4.75 -6.113,-7.785 -10.852,-9.016L-15.293,8.176L0,-0.84Z" style="fill:rgb(170,203,185);fill-rule:nonzero;"/>
            </g>
        </g>
        <g transform="matrix(4.16667,0,0,4.16667,0,0)">
            <g transform="matrix(1,0,0,1,286.048,449.768)">
                <path d="M0,-16.062C-4.402,-17.191 -9.234,-16.652 -13.457,-14.164L-4.441,1.129L0,-16.062Z" style="fill:rgb(237,28,40);fill-rule:nonzero;"/>
            </g>
        </g>
        <g transform="matrix(4.16667,0,0,4.16667,0,0)">
            <g transform="matrix(1,0,0,1,272.591,450.897)">
                <path d="M0,-15.293C-3.914,-12.988 -6.945,-9.195 -8.176,-4.445L9.016,0L0,-15.293Z" style="fill:rgb(255,242,11);fill-rule:nonzero;"/>
            </g>
        </g>
        <g transform="matrix(4.16667,0,0,4.16667,0,0)">
            <g transform="matrix(1,0,0,1,264.415,459.917)">
                <path d="M0,-13.465C-1.141,-9.059 -0.598,-4.227 1.895,0L17.191,-9.02L0,-13.465Z" style="fill:rgb(9,51,69);fill-rule:nonzero;"/>
            </g>
        </g>
        <g transform="matrix(4.16667,0,0,4.16667,0,0)">
            <g transform="matrix(1,0,0,1,266.31,459.069)">
                <path d="M0,0.848C2.305,4.758 6.105,7.793 10.855,9.02L15.297,-8.172L0,0.848Z" style="fill:rgb(170,203,185);fill-rule:nonzero;"/>
            </g>
        </g>
        <g transform="matrix(4.16667,0,0,4.16667,0,0)">
            <g transform="matrix(1,0,0,1,277.165,452.031)">
                <path d="M0,16.058C4.398,17.191 9.234,16.656 13.453,14.167L4.441,-1.133L0,16.058Z" style="fill:rgb(237,28,40);fill-rule:nonzero;"/>
            </g>
        </g>
    </g>
</svg>