<svg version="1.1" viewBox="0 0 98.746 44.722" xmlns="http://www.w3.org/2000/svg"><defs><clipPath id="a"><path transform="translate(.111 .005)" d="M0,0H20.642V14.889H0Z" fill="none"/></clipPath><clipPath id="b"><path transform="translate(.018 .185)" d="M0,0H2.141V4.072H0Z" fill="none"/></clipPath><clipPath id="c"><path d="M0,44.722H98.746V0H0Z" fill="none"/></clipPath></defs><g transform="translate(0)"><path transform="translate(43.882 4.671)" d="M.106.022A.638.638,0,0,0,.093.171.265.265,0,0,1,.106.022" fill="#76b82a"/><g><path transform="translate(60.595 5.032)" d="M1.827,7.167c1.1,1.016,2.453.563,3.713.64.359.022.284-.29.3-.511.153-2.161.319-4.322.452-6.484.035-.569.05-1.035.825-.7a1.391,1.391,0,0,0,.5.011c1.845.02,1.964.1,1.649,1.972a36.569,36.569,0,0,0-.312,5c-.018.581.159.739.729.732,2.22-.029,4.442.02,6.661-.024.748-.015,1,.252,1.025.966.1,2.524.119,2.5-2.432,2.529-1.8.022-3.608.154-5.413.183-.923.015-1.053.671-1.032,1.284.054,1.547-.2,3.073-.2,4.612a2.371,2.371,0,0,0,2.3,2.608c1.965.216,3.712-.431,4.194-2.5.248-1.063,1.253-.478,1.891-.492.6-.013.355.592.292.947-.109.62-.254,1.236-.421,1.844a4.006,4.006,0,0,1-3.572,3.144,8.164,8.164,0,0,1-4.567-.412,4.644,4.644,0,0,1-2.923-4.682,26.522,26.522,0,0,1,.169-5.227C5.878,11.5,5.09,11.2,4.373,11.33c-1.865.338-2.847-.7-3.73-2.036C.551,9.155.457,9.017.364,8.878A1.414,1.414,0,0,1,.227,7.16,3,3,0,0,0,.45,6.318a.51.51,0,0,1,.173-.227c.363-.106.541.084.68.391.119.264.213.562.524.685"/><path transform="translate(0 13.951)" d="M10.955,26.789h0a12.63,12.63,0,0,1-7.641-2.433A8.278,8.278,0,0,1,.49,19.426c-.114-.462.076-.7.677-.859a2.488,2.488,0,0,1,.625-.091c.722,0,1.082.466,1.462,1.272a6.776,6.776,0,0,0,5.221,3.686,9.97,9.97,0,0,0,1.9.185,9.488,9.488,0,0,0,3.981-.88c2.209-1.012,2.952-3.081,3.352-4.77a20.158,20.158,0,0,0,.411-6.03,13.841,13.841,0,0,1-6.126,2.474,16.867,16.867,0,0,1-2.4.179,12.657,12.657,0,0,1-7.777-2.554A4.061,4.061,0,0,1,.051,9.4,5.863,5.863,0,0,1,.466,6.461,8.817,8.817,0,0,1,6.312.629,8.153,8.153,0,0,1,8.746.283a20.427,20.427,0,0,1,4.061.55,13.323,13.323,0,0,1,2.835.873l.321.144a6.343,6.343,0,0,1,2.223,1.4,6.528,6.528,0,0,0,.428-2.229,1.015,1.015,0,0,1,.222-.741A.706.706,0,0,1,19.36.1a1.536,1.536,0,0,1,.22.017,2.358,2.358,0,0,0,.338.028A1.008,1.008,0,0,0,20.28.086,1.125,1.125,0,0,1,20.664,0a.362.362,0,0,1,.273.1.9.9,0,0,1,.15.652c-.027,1.453-.046,2.931-.064,4.361-.044,3.508-.09,7.134-.265,10.694a14.142,14.142,0,0,1-2.344,7.807,6.6,6.6,0,0,1-4.224,2.865A18.037,18.037,0,0,1,10.955,26.789ZM9.528,2.982c-2.994,0-4.377.55-6.168,2.452-1.243,1.321-1.716,2.468-.24,4.1a7.579,7.579,0,0,0,3.747,1.951,10.6,10.6,0,0,0,3.062.408,25.722,25.722,0,0,0,2.954-.212,6.426,6.426,0,0,0,3.56-1.386A3.611,3.611,0,0,0,17.97,7.536,3.006,3.006,0,0,0,16.609,5.25,10.842,10.842,0,0,0,9.98,2.974c-.139,0-.28,0-.42.008Z"/><path transform="translate(21.34 13.25)" d="M7.983,15.081a9.888,9.888,0,0,1-3.272-.426C.706,13.261-.483,11.386.169,7.491A8.1,8.1,0,0,1,5.951.606a17.021,17.021,0,0,1,4.917-.6c.183,0,.377,0,.576,0C11.694,0,11.928,0,12.157,0a11.331,11.331,0,0,1,3.656.534,5.65,5.65,0,0,1,2.558,1.759A5.209,5.209,0,0,1,19.56,5.115c.195,2.046.195,2.046-1.54,2.223l-.482.05a24.693,24.693,0,0,1-2.7.134c-1.168,0-2.344-.061-3.481-.12s-2.305-.12-3.472-.12c-.506,0-.972.011-1.424.034-.483.024-.97.072-1.442.119-.505.05-1.027.1-1.544.123a.774.774,0,0,0-.634.37A1.751,1.751,0,0,0,2.8,9.476a4.723,4.723,0,0,0,4,2.723c.4,0,.813.041,1.211.078s.834.077,1.238.077c.155,0,.3-.006.433-.017.322-.027.651-.049.97-.071,2.525-.171,5.136-.349,6.775-2.915A2.049,2.049,0,0,1,18.871,8.9a1.188,1.188,0,0,1,.614.121c.262.178.2.389.136.614-.011.036-.021.071-.03.106a5.315,5.315,0,0,1-2.142,2.831,12.17,12.17,0,0,1-7.61,2.494H9.588c-.269,0-.539,0-.79.007C8.531,15.078,8.254,15.081,7.983,15.081Zm1.829-12a7.581,7.581,0,0,0-5.3,1.808H15.8A9.744,9.744,0,0,0,9.812,3.08Z"/><path transform="translate(41.851 12.451)" d="M10.5,16.693c-.148,0-.292-.006-.426-.018l-.255,0a10.206,10.206,0,0,1-7.177-2.485A7.936,7.936,0,0,1,.224,10.3a7.607,7.607,0,0,1,.44-4.928C1.816,2.629,4.106,1.507,6.195.77A16.608,16.608,0,0,1,10.17.048l.2-.02C10.559.01,10.75,0,10.942,0a12.06,12.06,0,0,1,3.776.831c.223.075.45.151.673.223,3.08,1,4.719,3.353,5.157,7.419a4.612,4.612,0,0,1-.917,3.207,15.4,15.4,0,0,1-2.83,2.956,8.751,8.751,0,0,1-3.726,1.712l-.009,0A14.066,14.066,0,0,1,10.5,16.693Zm3.613-4.7a.579.579,0,0,0-.445.3c-.513.708-1.016,1.413-1.548,2.16l0,0-.647.907a1.643,1.643,0,0,0,.485.093.63.63,0,0,0,.353-.1l.01-.007A8.015,8.015,0,0,0,14.888,13.1a1.5,1.5,0,0,1,.128-.163c.09-.1.175-.2.153-.3-.017-.074-.1-.141-.25-.2a1.507,1.507,0,0,1-.3-.2A.912.912,0,0,0,14.115,11.99Zm-3.455-.618c-.276,0-.453.175-.542.533a9.9,9.9,0,0,0-.155,3.49,3.728,3.728,0,0,0,1.883-1.548c.114-.148.231-.3.349-.443.486-.584.75-.974.661-1.244s-.544-.43-1.35-.626c-.159-.039-.322-.072-.48-.1l-.2-.041A.806.806,0,0,0,10.659,11.373ZM8.571,11.33a1.87,1.87,0,0,0-.843.247c-.223.117-.362.21-.269.428.1.236.188.486.273.727a4.268,4.268,0,0,0,1.526,2.36c0-.175-.01-.335-.019-.49a2.155,2.155,0,0,1,.044-.811,3.758,3.758,0,0,0,.146-1.234v-.052a1.328,1.328,0,0,0-.3-.959A.76.76,0,0,0,8.571,11.33ZM3.937,12.638a.582.582,0,0,0-.354.193,1.05,1.05,0,0,1-.174.134c-.1.057-.156.116-.164.18-.012.1.092.2.183.282.028.026.055.051.077.074a5.55,5.55,0,0,0,3.343,1.568L6.311,14.6,6.305,14.6c-.693-.606-1.41-1.233-2.118-1.846A.386.386,0,0,0,3.937,12.638Zm2.335-.865a.417.417,0,0,0-.172.04,1.565,1.565,0,0,1-.4.1c-.258.041-.524.083-.657.351s.071.376.246.481a1.033,1.033,0,0,1,.165.114c.347.324.727.624,1.093.915.146.116.3.235.445.356l.708.456.07-.1.017-.024-.331-.387-.019-.022-.161-.188c-.058-.163-.117-.325-.176-.488-.142-.392-.289-.8-.414-1.2C6.613,11.923,6.456,11.773,6.272,11.773Zm9.667,1.338c-.11,0-.2.114-.3.234-.138.169-.277.337-.424.514l0,0-.01.012-.29.352a1.084,1.084,0,0,0,.288.042A1.22,1.22,0,0,0,15.891,14a2.515,2.515,0,0,1,.236-.143.316.316,0,0,0,.186-.2c.024-.1-.019-.219-.139-.384C16.092,13.166,16.015,13.111,15.939,13.111Zm2.229-4.35c-.2,0-.308.133-.339.417a5.544,5.544,0,0,1-1.014,2.548.636.636,0,0,0,.143.895.481.481,0,0,0,.328.154.95.95,0,0,0,.5-.234l.037-.026a4.291,4.291,0,0,0,1.442-2.3c.069-.194.141-.394.218-.588.129-.328.145-.557.048-.7a.543.543,0,0,0-.482-.177,2.551,2.551,0,0,0-.466.052.1.1,0,0,1-.057.014.732.732,0,0,1-.141-.023l-.02,0A.915.915,0,0,0,18.168,8.761ZM1.428,8.33a.453.453,0,0,0-.366.142A.517.517,0,0,0,1,8.916a5.434,5.434,0,0,0,.923,2.819,1.547,1.547,0,0,1,.152.229c.114.2.232.4.445.4a.546.546,0,0,0,.281-.1c.5-.31.916-.691.508-1.374A1.538,1.538,0,0,1,2.99,9.762a1.112,1.112,0,0,0-.065-.886A1.626,1.626,0,0,0,1.8,8.383L1.625,8.35A1.045,1.045,0,0,0,1.428,8.33Zm14.612.423a1.764,1.764,0,0,0-1.358.458,1.652,1.652,0,0,0-.314,1.314c.057.579.527.721.981.857a3.2,3.2,0,0,1,.447.158.124.124,0,0,0,.054.012c.385,0,1.261-1.517,1.284-2.224a.688.688,0,0,0-.121-.5.332.332,0,0,0-.255-.091,1.562,1.562,0,0,0-.268.033h-.005a1.5,1.5,0,0,1-.255.032.287.287,0,0,1-.175-.046h-.014ZM4.654,8.542l-.205,0a.691.691,0,0,0-.528.184,1.016,1.016,0,0,0-.112.772l0,.03c.012.123.012.252.013.388,0,.567.006,1.154.816,1.226.057.005.114.008.17.008A1.544,1.544,0,0,0,6.428,9.665a1.008,1.008,0,0,0-.249-.76A2.131,2.131,0,0,0,4.654,8.542Zm6.637,1.791a.834.834,0,0,1,.13.009c.132.02.264.053.391.084s.248.062.369.08c.077.011.159.026.245.042a3.623,3.623,0,0,0,.626.078.611.611,0,0,0,.537-.214A1.668,1.668,0,0,0,13.843,9a.372.372,0,0,0-.391-.27,1.809,1.809,0,0,0-.239.022H13.2a1.805,1.805,0,0,1-.231.021.591.591,0,0,1-.093-.007,1.655,1.655,0,0,0-.262-.018c-.073,0-.148,0-.22.006s-.147.006-.22.006l-.064,0c-.053,0-.107,0-.159.007-.074,0-.15.009-.224.009a1.031,1.031,0,0,1-.253-.027,1.547,1.547,0,0,0-.369-.05c-.677,0-.827.607-.834,1.116a.59.59,0,0,0,.127.437.5.5,0,0,0,.373.118c.084,0,.173-.008.26-.016S11.21,10.334,11.291,10.334ZM7.751,8.722a.436.436,0,0,0-.448.272A1.418,1.418,0,0,0,7.34,10.15a.444.444,0,0,0,.4.236,1.575,1.575,0,0,0,.505-.126c.085-.031.173-.063.255-.086a1.076,1.076,0,0,1,.282-.033A2.073,2.073,0,0,1,9,10.153a1.063,1.063,0,0,0,.111.006c.35,0,.467-.212.542-.555A.863.863,0,0,0,9.607,8.9a.555.555,0,0,0-.451-.148c-.065,0-.133,0-.2.006H8.947c-.063,0-.129.005-.192.005a.971.971,0,0,1-.282-.033.684.684,0,0,1-.221.031,2.426,2.426,0,0,1-.248-.017A2.352,2.352,0,0,0,7.751,8.722ZM13.1,5.6a2.72,2.72,0,0,0-.828.19l-.026.009a5.271,5.271,0,0,1-1.029.276.758.758,0,0,0-.542.255,1.1,1.1,0,0,0-.071.823c.009.054.017.107.023.158a.453.453,0,0,0,.493.447,1.331,1.331,0,0,0,.475-.105A1.948,1.948,0,0,1,12.3,7.51a1.233,1.233,0,0,1,.439.072,1.466,1.466,0,0,0,.507.119.385.385,0,0,0,.291-.106,1.213,1.213,0,0,0,.148-.822C13.682,5.894,13.533,5.6,13.1,5.6ZM8.306,7.673a.322.322,0,0,1,.218.065,1.194,1.194,0,0,1,.293-.03c.072,0,.143,0,.213.007s.145.007.213.007a.651.651,0,0,0,.481-.147.906.906,0,0,0,.183-.655c0-.739-.368-.767-.791-.8a3.268,3.268,0,0,1-.329-.037,1.882,1.882,0,0,0-.33-.032.9.9,0,0,0-.664.242,1.413,1.413,0,0,0-.31,1.028c0,.362.172.408.322.408a1.591,1.591,0,0,0,.25-.029A1.629,1.629,0,0,1,8.306,7.673Zm-2.961-.14a.5.5,0,0,1,.357.1,2.116,2.116,0,0,0,.464.06.727.727,0,0,0,.543-.188,1.26,1.26,0,0,0,.2-.916c0-.072,0-.14,0-.2.018-.74-.47-.785-.986-.832a1.611,1.611,0,0,1-.765-.193.108.108,0,0,0-.063-.019c-.146,0-.407.23-.65.571a1.663,1.663,0,0,0-.4,1.2.651.651,0,0,0,.7.456c.106,0,.215-.01.311-.019h.013C5.163,7.542,5.257,7.533,5.346,7.533ZM15.878,4.489h0c-.488,0-1.648.768-1.655,1.1A2.625,2.625,0,0,0,14.7,7.429a.79.79,0,0,0,.582.249,1.048,1.048,0,0,0,.245-.031.9.9,0,0,1,.215-.022c.1,0,.2.009.309.018s.218.018.323.018c.269,0,.549-.052.594-.434.009-1.246-.623-2.694-1.057-2.735l-.035,0Zm1.583-1a.463.463,0,0,0-.243.084c-.353.22-.435.567-.249,1.06.063.167.133.338.2.5a6.082,6.082,0,0,1,.481,1.56c.069.6.246.832.631.832A1.3,1.3,0,0,0,18.5,7.5l.158,0,.151,0a.561.561,0,0,0,.45-.131.52.52,0,0,0,.028-.447,6.559,6.559,0,0,0-1.315-2.939,1.43,1.43,0,0,1-.127-.178C17.747,3.653,17.641,3.488,17.461,3.488ZM2.118,7.289c.147,0,.306.024.367.2a.463.463,0,0,0,.059,0c.619,0,1.391-1.2,1.425-2.212.019-.585-.435-.713-.835-.826a2.418,2.418,0,0,1-.379-.128A.257.257,0,0,0,2.643,4.3c-.529,0-1.3,1.366-1.38,2.437a.6.6,0,0,0,.1.461.44.44,0,0,0,.346.112c.067,0,.137-.005.2-.01S2.054,7.289,2.118,7.289ZM8.623,5.019a1.677,1.677,0,0,1,.453.094l.008,0a1.7,1.7,0,0,0,.467.1c.24,0,.393-.137.482-.431a7.906,7.906,0,0,0,.16-3.2,5.636,5.636,0,0,0-1.79,2.8c-.014.039-.032.082-.052.128-.068.159-.145.34-.079.439a.228.228,0,0,0,.2.076.828.828,0,0,0,.087-.005A.553.553,0,0,1,8.623,5.019Zm2.535-3a.17.17,0,0,0-.034,0c-.28.057-.263.322-.247.578a1.609,1.609,0,0,1,0,.288c-.048.372-.095.743-.129,1.016v.01l-.013.107c-.012.569-.013.847.094.956a.223.223,0,0,0,.17.058,2.185,2.185,0,0,0,.455-.084c.9-.222,1.353-.333,1.448-.582s-.166-.635-.688-1.406a1.917,1.917,0,0,0-.318-.387c-.064-.054-.13-.118-.2-.186C11.507,2.211,11.312,2.023,11.159,2.023Zm-2.647.254h0A4.572,4.572,0,0,0,6.139,3.786a1.3,1.3,0,0,1-.168.173c-.136.125-.276.254-.26.4.011.1.092.185.248.273a1.833,1.833,0,0,0,.842.307.652.652,0,0,0,.58-.357,14.716,14.716,0,0,0,.8-1.592c.107-.235.216-.476.329-.711ZM12.5,1.836l.287.5c.32.559.623,1.087.931,1.617.077.132.156.269.3.269a.364.364,0,0,0,.16-.043c.113-.056.237-.1.356-.15a1.8,1.8,0,0,0,.675-.375.192.192,0,0,0,.055-.157c-.021-.2-.311-.416-.4-.477-.132-.09-.264-.188-.392-.282a3.713,3.713,0,0,0-1.977-.9Zm-4.685-.8a1.068,1.068,0,0,1-.672.279.708.708,0,0,0-.543.248A14.037,14.037,0,0,0,4.329,2.6l-.073.039-.027.014c-.32.169-.683.361-.695.732-.009.323.306.451.584.563L4.243,4a.746.746,0,0,0,.3.067A.934.934,0,0,0,5.2,3.7c.449-.474.935-.928,1.405-1.367.2-.185.4-.377.6-.567C7.444,1.672,7.626,1.516,7.819,1.038Zm7.515,1.175.072.123c.265.452.424.725.768.725a.762.762,0,0,0,.116-.009.247.247,0,0,0,.2-.125.139.139,0,0,0-.012-.136.884.884,0,0,0-.535-.322A3.023,3.023,0,0,1,15.334,2.213Z"/></g><g transform="translate(77.993 12.209)"><path transform="translate(.111 .005)" d="M0,0H20.642V14.889H0Z" fill="none"/><g clip-path="url(#a)"><path transform="translate(.111 .005)" d="M19.918,14.889l-.086,0c-1.335-.056-1.6-.34-1.545-1.688,0-.124.016-.251.026-.374a2.629,2.629,0,0,0-.139-1.378,7.562,7.562,0,0,1-3.82,2.577,19.241,19.241,0,0,1-4.5.656l-.345.022c-.532.034-1.081.07-1.629.07-.349,0-.668-.014-.977-.043a8.211,8.211,0,0,1-5.725-3.48A6.133,6.133,0,0,1,.222,6.053,6.992,6.992,0,0,1,4.213,1.667,16.7,16.7,0,0,1,11.534,0c.513,0,1.037.023,1.557.067l.13.011a8.819,8.819,0,0,1,4.837,1.378l.048.038a.378.378,0,0,0,.2.109c.055,0,.1-.041.137-.127a.738.738,0,0,1,.714-.535,2.36,2.36,0,0,1,.488.072,2.326,2.326,0,0,0,.49.073.816.816,0,0,0,.17-.017A.452.452,0,0,1,20.4,1.06a.209.209,0,0,1,.156.058.659.659,0,0,1,.084.447c0,.03,0,.059,0,.087q0,2.444,0,4.889c0,2.489,0,5.063.005,7.6a.778.778,0,0,1-.175.572A.735.735,0,0,1,19.918,14.889ZM10.576,11.6h0c.185,0,.351,0,.512.007.139,0,.27.006.4.006.174,0,.316-.005.447-.017,2.873-.251,4.565-1.273,5.485-3.315a3.936,3.936,0,0,0-.029-3.056,3.241,3.241,0,0,0-1.872-1.835,10.656,10.656,0,0,0-3.645-.6A15.542,15.542,0,0,0,10,2.909C7.112,3.255,5.14,4.255,3.8,6.054c-1.024,1.371-.924,2.414.332,3.488a8.921,8.921,0,0,0,6.059,2.063C10.315,11.606,10.446,11.6,10.576,11.6Z"/></g></g><g fill="#030303"><path transform="translate(22.263 32.362)" d="M1.488.2a.563.563,0,0,0-.4-.2A.359.359,0,0,0,.814.133,1.562,1.562,0,0,0,.587.569V.091H0V3.981H.631V2.773c0-.6.014-1.018.041-1.242a1.041,1.041,0,0,1,.134-.46A.255.255,0,0,1,1.011.948a.389.389,0,0,1,.268.161l.021.024L1.493.212l0-.008Z"/><path transform="translate(23.965 32.453)" d="M1.453,0V1.644a7.9,7.9,0,0,1-.039,1.013.762.762,0,0,1-.163.37.348.348,0,0,1-.264.141.265.265,0,0,1-.213-.107.606.606,0,0,1-.117-.309C.639,2.614.631,2.29.631,1.789V0H0V2.46a3.391,3.391,0,0,0,.087.881,1.022,1.022,0,0,0,.266.473.589.589,0,0,0,.41.168A.656.656,0,0,0,1.2,3.8a1.211,1.211,0,0,0,.3-.424v.514h.589V0Z"/><path transform="translate(26.62 32.362)" d="M.631,5.45H0V.091H.586v.5A1.223,1.223,0,0,1,.859.181.6.6,0,0,1,1.273,0c.263,0,.491.177.679.526A3.169,3.169,0,0,1,2.234,2a3.367,3.367,0,0,1-.282,1.535c-.189.357-.418.538-.68.538a.55.55,0,0,1-.343-.125,1.339,1.339,0,0,1-.3-.391V5.449ZM1.112.839c-.138,0-.255.093-.347.277a1.984,1.984,0,0,0-.142.855,2.33,2.33,0,0,0,.149.959c.1.2.214.3.352.3s.24-.093.329-.277a2.281,2.281,0,0,0,.138-.928,2.18,2.18,0,0,0-.141-.9C1.356.934,1.242.839,1.112.839Z"/><path transform="translate(29.156 32.362)" d="M1.182,4.073a.985.985,0,0,1-.847-.547A2.955,2.955,0,0,1,0,1.982,3.184,3.184,0,0,1,.162.943,1.663,1.663,0,0,1,.586.238.87.87,0,0,1,1.179,0a.967.967,0,0,1,.869.608,3.031,3.031,0,0,1,.312,1.407A3.418,3.418,0,0,1,2.2,3.1a1.717,1.717,0,0,1-.429.729A.855.855,0,0,1,1.182,4.073Zm0-3.208c-.144,0-.269.1-.374.293a1.913,1.913,0,0,0-.16.878,1.9,1.9,0,0,0,.161.88c.106.194.234.293.381.293s.269-.1.373-.294a1.947,1.947,0,0,0,.158-.886,1.881,1.881,0,0,0-.161-.87C1.451.964,1.324.865,1.178.865Z"/><path transform="translate(33.028 30.985)" d="M.956,5.45C.7,5.45.473,5.268.283,4.91A3.322,3.322,0,0,1,0,3.391a3.24,3.24,0,0,1,.275-1.5.811.811,0,0,1,.69-.513.567.567,0,0,1,.363.139,1.22,1.22,0,0,1,.275.351V0h.63V5.359H1.647V4.852a1.275,1.275,0,0,1-.3.428A.6.6,0,0,1,.956,5.45Zm.167-3.259a.282.282,0,0,0-.082.014l-.025.01a.508.508,0,0,0-.229.254,2,2,0,0,0-.143.86,3.6,3.6,0,0,0,.062.779.878.878,0,0,0,.177.379.336.336,0,0,0,.253.124c.124,0,.234-.1.328-.29a2.152,2.152,0,0,0,.142-.893,2.394,2.394,0,0,0-.139-.954C1.376,2.286,1.26,2.191,1.123,2.191Z"/><path transform="translate(35.647 32.362)" d="M1.111,4.073a.869.869,0,0,1-.787-.478A3.053,3.053,0,0,1,0,2.057,3.2,3.2,0,0,1,.327.5.826.826,0,0,1,1.05,0a.855.855,0,0,1,.772.511,3.627,3.627,0,0,1,.319,1.7l0,.133H.644a1.477,1.477,0,0,0,.144.687.392.392,0,0,0,.328.244c.182,0,.306-.181.368-.539l0-.018.017,0,.608.175,0,.014a1.878,1.878,0,0,1-.374.87A.809.809,0,0,1,1.111,4.073ZM1.086.814a.359.359,0,0,0-.3.229,1.351,1.351,0,0,0-.128.647h.861a1.421,1.421,0,0,0-.135-.656A.354.354,0,0,0,1.086.814Z"/></g><g><path transform="translate(39.276 32.362)" d="M1.111,4.073a.869.869,0,0,1-.787-.478A3.053,3.053,0,0,1,0,2.057,3.2,3.2,0,0,1,.327.5.826.826,0,0,1,1.05,0a.855.855,0,0,1,.772.511,3.627,3.627,0,0,1,.319,1.7l0,.133H.644a1.477,1.477,0,0,0,.144.687.392.392,0,0,0,.328.244c.182,0,.306-.181.368-.539l0-.018.017,0,.608.175,0,.014a1.878,1.878,0,0,1-.374.87A.809.809,0,0,1,1.111,4.073ZM1.086.814a.359.359,0,0,0-.3.229,1.351,1.351,0,0,0-.128.647h.861a1.421,1.421,0,0,0-.135-.656A.354.354,0,0,0,1.086.814Z"/><path transform="translate(41.657 32.362)" d="M1.964,2.016a1.4,1.4,0,0,0-.687-.485,2.007,2.007,0,0,1-.525-.26.269.269,0,0,1-.081-.2A.29.29,0,0,1,.759.851a.437.437,0,0,1,.3-.084c.226,0,.36.147.409.451l0,.018.581-.184.013,0,0-.014A1.505,1.505,0,0,0,1.737.247.91.91,0,0,0,1.051,0a.85.85,0,0,0-.72.331A1.425,1.425,0,0,0,.085,1.2a1.339,1.339,0,0,0,.253.858,2.341,2.341,0,0,0,.941.527.382.382,0,0,1,.187.121A.347.347,0,0,1,1.51,2.9a.415.415,0,0,1-.1.291A.4.4,0,0,1,1.1,3.3C.835,3.3.683,3.109.632,2.71l0-.018-.617.161L0,2.857l0,.014a1.669,1.669,0,0,0,.369.893.943.943,0,0,0,.727.309A.913.913,0,0,0,1.866,3.7a1.515,1.515,0,0,0,.276-.932,1.406,1.406,0,0,0-.179-.754"/><path transform="translate(44.039 31.068)" d="M1.31,4.4l0-.027-.023.014a.5.5,0,0,1-.23.1c-.067,0-.11-.043-.132-.134a4.7,4.7,0,0,1-.017-.582V2.231h.407V1.385H.906V0L.28.623l-.005,0v.757H0v.846H.274V3.9a6.159,6.159,0,0,0,.037.861A.866.866,0,0,0,.5,5.208a.485.485,0,0,0,.377.159.79.79,0,0,0,.478-.156L1.362,5.2Z"/><path transform="translate(45.721 32.453)" d="M1.453,0V1.644a7.934,7.934,0,0,1-.039,1.013.761.761,0,0,1-.163.37.348.348,0,0,1-.264.141.265.265,0,0,1-.213-.107.608.608,0,0,1-.117-.309C.639,2.614.631,2.29.631,1.789V0H0V2.46a3.417,3.417,0,0,0,.087.881,1.022,1.022,0,0,0,.266.473.589.589,0,0,0,.41.168A.656.656,0,0,0,1.2,3.8a1.21,1.21,0,0,0,.3-.424v.514h.589V0Z"/><path transform="translate(48.259 30.985)" d="M.956,5.45C.7,5.45.473,5.268.283,4.91A3.322,3.322,0,0,1,0,3.391a3.24,3.24,0,0,1,.275-1.5.811.811,0,0,1,.69-.513.567.567,0,0,1,.363.139,1.22,1.22,0,0,1,.275.351V0h.63V5.359H1.647V4.852a1.275,1.275,0,0,1-.3.428A.6.6,0,0,1,.956,5.45Zm.167-3.259a.282.282,0,0,0-.082.014l-.025.01a.508.508,0,0,0-.229.254,2.008,2.008,0,0,0-.143.86,3.536,3.536,0,0,0,.063.779.867.867,0,0,0,.176.379.336.336,0,0,0,.253.124c.124,0,.234-.1.328-.29a2.152,2.152,0,0,0,.142-.893,2.394,2.394,0,0,0-.139-.954C1.376,2.286,1.26,2.191,1.123,2.191Z"/><path transform="translate(50.912 32.362)" d="M1.182,4.073a.987.987,0,0,1-.848-.547A2.964,2.964,0,0,1,0,1.982,3.184,3.184,0,0,1,.162.943,1.663,1.663,0,0,1,.586.238.87.87,0,0,1,1.179,0a.967.967,0,0,1,.869.608,3.031,3.031,0,0,1,.312,1.407A3.393,3.393,0,0,1,2.2,3.1a1.707,1.707,0,0,1-.428.729A.855.855,0,0,1,1.182,4.073Zm0-3.208c-.145,0-.27.1-.374.293a1.9,1.9,0,0,0-.16.878,1.9,1.9,0,0,0,.161.88c.106.194.234.293.381.293s.269-.1.373-.294a1.947,1.947,0,0,0,.158-.886,1.881,1.881,0,0,0-.161-.87C1.451.964,1.324.865,1.178.865Z"/><path transform="translate(53.497 32.362)" d="M1.964,2.016a1.4,1.4,0,0,0-.687-.485,2.007,2.007,0,0,1-.525-.26.269.269,0,0,1-.081-.2A.291.291,0,0,1,.759.851a.438.438,0,0,1,.3-.084c.226,0,.36.147.409.451l0,.018.581-.184.013,0,0-.014A1.507,1.507,0,0,0,1.737.247.91.91,0,0,0,1.051,0a.849.849,0,0,0-.72.331A1.424,1.424,0,0,0,.085,1.2a1.339,1.339,0,0,0,.253.858,2.343,2.343,0,0,0,.941.527.382.382,0,0,1,.187.121A.346.346,0,0,1,1.51,2.9a.416.416,0,0,1-.1.291A.4.4,0,0,1,1.1,3.3C.836,3.3.684,3.109.632,2.71l0-.018-.617.161L0,2.857l0,.014a1.669,1.669,0,0,0,.369.893.943.943,0,0,0,.727.309A.913.913,0,0,0,1.866,3.7a1.515,1.515,0,0,0,.276-.932,1.406,1.406,0,0,0-.179-.754"/><path transform="translate(57.204 30.985)" d="M.956,5.45C.7,5.45.473,5.268.283,4.91A3.322,3.322,0,0,1,0,3.391a3.24,3.24,0,0,1,.275-1.5.811.811,0,0,1,.69-.513.567.567,0,0,1,.363.139,1.22,1.22,0,0,1,.275.351V0h.63V5.359H1.647V4.852a1.275,1.275,0,0,1-.3.428A.6.6,0,0,1,.956,5.45Zm.167-3.259a.282.282,0,0,0-.082.014l-.025.01a.508.508,0,0,0-.229.254,2.008,2.008,0,0,0-.143.86,3.536,3.536,0,0,0,.063.779.867.867,0,0,0,.176.379.336.336,0,0,0,.253.124c.124,0,.234-.1.328-.29a2.152,2.152,0,0,0,.142-.893,2.382,2.382,0,0,0-.139-.954C1.376,2.286,1.26,2.191,1.123,2.191Z"/><path transform="translate(59.823 32.362)" d="M1.111,4.073a.869.869,0,0,1-.787-.478A3.053,3.053,0,0,1,0,2.057,3.2,3.2,0,0,1,.327.5.826.826,0,0,1,1.05,0a.855.855,0,0,1,.772.511,3.627,3.627,0,0,1,.319,1.7l0,.133H.644a1.477,1.477,0,0,0,.144.687.391.391,0,0,0,.328.244c.183,0,.307-.181.369-.539l0-.018.017,0,.608.175,0,.014a1.878,1.878,0,0,1-.374.87A.809.809,0,0,1,1.111,4.073ZM1.086.814a.357.357,0,0,0-.3.229,1.351,1.351,0,0,0-.128.647h.861a1.43,1.43,0,0,0-.135-.656A.354.354,0,0,0,1.086.814Z"/><path transform="translate(63.485 32.362)" d="M1.182,4.073a.987.987,0,0,1-.848-.547A2.964,2.964,0,0,1,0,1.982,3.184,3.184,0,0,1,.162.943,1.663,1.663,0,0,1,.586.238.87.87,0,0,1,1.179,0a.967.967,0,0,1,.869.608,3.031,3.031,0,0,1,.312,1.407A3.393,3.393,0,0,1,2.2,3.1a1.707,1.707,0,0,1-.428.729A.855.855,0,0,1,1.182,4.073Zm0-3.208c-.145,0-.27.1-.374.293a1.9,1.9,0,0,0-.16.878,1.9,1.9,0,0,0,.161.88c.106.194.234.293.381.293s.269-.1.373-.294a1.947,1.947,0,0,0,.158-.886,1.881,1.881,0,0,0-.161-.87C1.451.964,1.324.865,1.178.865Z"/><path transform="translate(66.257 32.362)" d="M1.488.2a.563.563,0,0,0-.4-.2A.359.359,0,0,0,.814.133,1.562,1.562,0,0,0,.587.569V.091H0V3.981H.631V2.773c0-.6.014-1.018.041-1.242a1.041,1.041,0,0,1,.134-.46A.255.255,0,0,1,1.011.948a.389.389,0,0,1,.268.161l.021.024L1.493.212l0-.008Z"/><path transform="translate(67.84 30.985)" d="M.956,5.45C.7,5.45.473,5.268.283,4.91A3.322,3.322,0,0,1,0,3.391a3.24,3.24,0,0,1,.275-1.5.811.811,0,0,1,.69-.513.567.567,0,0,1,.363.139,1.22,1.22,0,0,1,.275.351V0h.63V5.359H1.647V4.852a1.275,1.275,0,0,1-.3.428A.6.6,0,0,1,.956,5.45Zm.167-3.259a.282.282,0,0,0-.082.014l-.025.01a.508.508,0,0,0-.229.254,2.008,2.008,0,0,0-.143.86,3.536,3.536,0,0,0,.063.779.867.867,0,0,0,.176.379.336.336,0,0,0,.253.124c.124,0,.234-.1.328-.29a2.152,2.152,0,0,0,.142-.893,2.382,2.382,0,0,0-.139-.954C1.376,2.286,1.26,2.191,1.123,2.191Z"/><path transform="translate(70.458 32.362)" d="M1.111,4.073a.869.869,0,0,1-.787-.478A3.053,3.053,0,0,1,0,2.057,3.2,3.2,0,0,1,.327.5.826.826,0,0,1,1.05,0a.855.855,0,0,1,.772.511,3.627,3.627,0,0,1,.319,1.7l0,.133H.644a1.477,1.477,0,0,0,.144.687.391.391,0,0,0,.328.244c.183,0,.307-.181.369-.539l0-.018.017,0,.608.175,0,.014a1.878,1.878,0,0,1-.374.87A.809.809,0,0,1,1.111,4.073ZM1.086.814a.357.357,0,0,0-.3.229,1.351,1.351,0,0,0-.128.647h.861a1.43,1.43,0,0,0-.135-.656A.354.354,0,0,0,1.086.814Z"/><path transform="translate(73.046 32.362)" d="M2.02.694A1.061,1.061,0,0,0,1.768.2.6.6,0,0,0,1.314,0,.622.622,0,0,0,.893.168,1.351,1.351,0,0,0,.587.6V.091H0v3.89H.631V2.216a5.384,5.384,0,0,1,.049-.9A.785.785,0,0,1,.847.944a.342.342,0,0,1,.26-.131.254.254,0,0,1,.2.1.59.59,0,0,1,.122.294,5.914,5.914,0,0,1,.033.787V3.981h.63V1.565A4.134,4.134,0,0,0,2.02.694"/><path transform="translate(75.551 32.362)" d="M.765,4.073a.645.645,0,0,1-.552-.319A1.474,1.474,0,0,1,0,2.918a1.756,1.756,0,0,1,.086-.577.977.977,0,0,1,.246-.4,1.37,1.37,0,0,1,.5-.262A2.345,2.345,0,0,0,1.4,1.44a1.659,1.659,0,0,0-.031-.409A.306.306,0,0,0,1.256.875.388.388,0,0,0,1.022.814.312.312,0,0,0,.78.91a.84.84,0,0,0-.145.374l0,.017L.615,1.3.06,1.125l0-.014A1.725,1.725,0,0,1,.392.262.843.843,0,0,1,1.055,0a.967.967,0,0,1,.587.153.831.831,0,0,1,.291.413,3.419,3.419,0,0,1,.086.938l0,1.192a7.1,7.1,0,0,0,.028.746,3.34,3.34,0,0,0,.106.518l.005.021H1.529l0-.013-.07-.381a1.291,1.291,0,0,1-.31.352A.635.635,0,0,1,.765,4.073ZM1.4,2.139a2.518,2.518,0,0,1-.333.141.739.739,0,0,0-.355.22.54.54,0,0,0-.083.312.681.681,0,0,0,.092.365.262.262,0,0,0,.223.143.35.35,0,0,0,.24-.117.648.648,0,0,0,.168-.283,2.585,2.585,0,0,0,.047-.6Z"/><path transform="translate(78.082 32.362)" d="M3.263.608A1,1,0,0,0,3,.159.586.586,0,0,0,2.6,0a.566.566,0,0,0-.377.157A1.437,1.437,0,0,0,1.91.589,1.09,1.09,0,0,0,1.658.158.548.548,0,0,0,1.27,0,.587.587,0,0,0,.879.159a1.351,1.351,0,0,0-.3.407V.091H0V3.982H.631V2.089a4.583,4.583,0,0,1,.048-.8A.758.758,0,0,1,.836.932.312.312,0,0,1,1.068.814c.125,0,.205.074.246.228a4.035,4.035,0,0,1,.049.807V3.982h.631V2.111a2.941,2.941,0,0,1,.12-1.039c.08-.174.18-.258.307-.258a.237.237,0,0,1,.229.18,2.629,2.629,0,0,1,.071.764V3.982h.631V1.5A3.372,3.372,0,0,0,3.263.608"/><path transform="translate(81.822 32.362)" d="M1.111,4.073a.869.869,0,0,1-.787-.478A3.053,3.053,0,0,1,0,2.057,3.2,3.2,0,0,1,.327.5.826.826,0,0,1,1.05,0a.855.855,0,0,1,.772.511,3.627,3.627,0,0,1,.319,1.7l0,.133H.644a1.477,1.477,0,0,0,.144.687.392.392,0,0,0,.328.244c.182,0,.306-.181.368-.539l0-.018.017,0,.608.175,0,.014a1.878,1.878,0,0,1-.374.87A.809.809,0,0,1,1.111,4.073ZM1.086.814a.359.359,0,0,0-.3.229,1.351,1.351,0,0,0-.128.647h.861a1.421,1.421,0,0,0-.135-.656A.354.354,0,0,0,1.086.814Z"/><path transform="translate(84.41 32.362)" d="M2.02.694A1.061,1.061,0,0,0,1.768.2.6.6,0,0,0,1.314,0,.622.622,0,0,0,.893.168,1.351,1.351,0,0,0,.587.6V.091H0v3.89H.631V2.216a5.384,5.384,0,0,1,.049-.9A.785.785,0,0,1,.847.944a.341.341,0,0,1,.26-.131.254.254,0,0,1,.2.1.59.59,0,0,1,.122.294,5.949,5.949,0,0,1,.033.787V3.981h.63V1.565A4.134,4.134,0,0,0,2.02.694"/><path transform="translate(86.824 31.068)" d="M1.31,4.4l0-.027-.023.014a.5.5,0,0,1-.23.1c-.067,0-.11-.043-.132-.134a4.748,4.748,0,0,1-.017-.582V2.231h.407V1.385H.906V0L.279.623l-.005,0v.757H0v.846H.274V3.9a6.159,6.159,0,0,0,.037.861A.863.863,0,0,0,.5,5.208a.485.485,0,0,0,.377.159.791.791,0,0,0,.478-.156L1.361,5.2Z"/><path transform="translate(88.381 32.362)" d="M1.182,4.073a.985.985,0,0,1-.847-.547A2.955,2.955,0,0,1,0,1.982,3.184,3.184,0,0,1,.162.943,1.663,1.663,0,0,1,.586.238.87.87,0,0,1,1.179,0a.967.967,0,0,1,.869.608,3.031,3.031,0,0,1,.312,1.407A3.393,3.393,0,0,1,2.2,3.1a1.707,1.707,0,0,1-.428.729A.855.855,0,0,1,1.182,4.073Zm0-3.208c-.144,0-.269.1-.374.293a1.9,1.9,0,0,0-.16.878,1.9,1.9,0,0,0,.161.88c.106.194.234.293.381.293s.269-.1.373-.294a1.947,1.947,0,0,0,.158-.886,1.881,1.881,0,0,0-.161-.87C1.451.964,1.324.865,1.178.865Z"/><path transform="translate(92.254 30.985)" d="M.956,5.45C.7,5.45.473,5.268.283,4.91A3.322,3.322,0,0,1,0,3.391a3.24,3.24,0,0,1,.275-1.5.811.811,0,0,1,.69-.513.567.567,0,0,1,.363.139,1.22,1.22,0,0,1,.275.351V0h.63V5.359H1.647V4.852a1.275,1.275,0,0,1-.3.428A.6.6,0,0,1,.956,5.45Zm.167-3.259a.282.282,0,0,0-.082.014l-.025.01a.508.508,0,0,0-.229.254,2.008,2.008,0,0,0-.143.86,3.6,3.6,0,0,0,.062.779.878.878,0,0,0,.177.379.336.336,0,0,0,.253.124c.124,0,.234-.1.328-.29a2.152,2.152,0,0,0,.142-.893,2.394,2.394,0,0,0-.139-.954C1.376,2.286,1.26,2.191,1.123,2.191Z"/><path transform="translate(94.905 32.362)" d="M1.182,4.073a.985.985,0,0,1-.847-.547A2.963,2.963,0,0,1,0,1.982,3.184,3.184,0,0,1,.162.943,1.663,1.663,0,0,1,.586.238.87.87,0,0,1,1.179,0a.967.967,0,0,1,.869.608,3.031,3.031,0,0,1,.312,1.407A3.4,3.4,0,0,1,2.2,3.1a1.717,1.717,0,0,1-.429.729A.855.855,0,0,1,1.182,4.073Zm0-3.208c-.144,0-.269.1-.374.293a1.913,1.913,0,0,0-.16.878,1.9,1.9,0,0,0,.161.88c.106.194.234.293.381.293s.269-.1.373-.294a1.947,1.947,0,0,0,.158-.886,1.881,1.881,0,0,0-.161-.87C1.451.964,1.324.865,1.178.865Z"/><path transform="translate(55.393 39.356)" d="M1.31,4.4l0-.027-.023.014a.505.505,0,0,1-.23.1c-.067,0-.11-.043-.132-.134a4.678,4.678,0,0,1-.018-.582V2.231h.407V1.385H.906V0L.28.623l-.005,0v.757H0v.846H.274V3.9a6.163,6.163,0,0,0,.037.861A.864.864,0,0,0,.5,5.208a.484.484,0,0,0,.377.159.789.789,0,0,0,.478-.156L1.361,5.2Z"/></g><g transform="translate(56.898 40.464)"><path transform="translate(.018 .185)" d="M0,0H2.141V4.072H0Z" fill="none"/><g clip-path="url(#b)"><path transform="translate(.018 .185)" d="M1.111,4.073a.869.869,0,0,1-.787-.478A3.053,3.053,0,0,1,0,2.057,3.2,3.2,0,0,1,.327.5.826.826,0,0,1,1.05,0a.855.855,0,0,1,.772.511,3.627,3.627,0,0,1,.319,1.7l0,.133H.644a1.477,1.477,0,0,0,.144.687.39.39,0,0,0,.328.243c.183,0,.307-.181.369-.538l0-.018.017,0,.608.175,0,.014a1.878,1.878,0,0,1-.374.87A.809.809,0,0,1,1.111,4.073ZM1.086.814a.357.357,0,0,0-.3.229,1.351,1.351,0,0,0-.128.647h.861a1.43,1.43,0,0,0-.135-.656A.354.354,0,0,0,1.086.814Z"/></g></g><path transform="translate(59.483 40.65)" d="M1.489.2a.563.563,0,0,0-.4-.2A.359.359,0,0,0,.814.133,1.567,1.567,0,0,0,.587.569V.091H0V3.981H.631V2.773c0-.6.014-1.019.04-1.242a1.043,1.043,0,0,1,.134-.46A.255.255,0,0,1,1.011.948a.389.389,0,0,1,.268.162l.021.023L1.493.212l0-.008Z" fill="#010101"/><path transform="translate(61.175 40.65)" d="M1.488.2a.563.563,0,0,0-.4-.2A.359.359,0,0,0,.814.133,1.567,1.567,0,0,0,.587.569V.091H0V3.981H.631V2.773c0-.6.014-1.019.04-1.242A1.043,1.043,0,0,1,.8,1.07.255.255,0,0,1,1.011.948a.389.389,0,0,1,.268.162l.021.023L1.493.212l0-.008Z"/><path d="M0,44.722H98.746V0H0Z" fill="none"/><g clip-path="url(#c)"><g><path transform="translate(62.892 40.74)" d="M0,3.891H.631V0H0Z"/><path transform="translate(62.892 39.273)" d="M0,.977H.631V0H0Z"/><path transform="translate(63.853 39.356)" d="M1.31,4.4l0-.027-.023.014a.505.505,0,0,1-.23.1c-.067,0-.11-.043-.132-.134a4.7,4.7,0,0,1-.017-.582V2.231h.407V1.385H.906V0L.279.623l-.005,0v.757H0v.846H.274V3.9a6.163,6.163,0,0,0,.037.861A.866.866,0,0,0,.5,5.208a.485.485,0,0,0,.377.159.789.789,0,0,0,.478-.156L1.361,5.2Z"/><path transform="translate(65.41 40.65)" d="M1.182,4.073a.987.987,0,0,1-.848-.547A2.969,2.969,0,0,1,0,1.982,3.184,3.184,0,0,1,.162.943,1.663,1.663,0,0,1,.586.238.87.87,0,0,1,1.179,0a.967.967,0,0,1,.869.608,3.031,3.031,0,0,1,.312,1.407A3.393,3.393,0,0,1,2.2,3.1a1.707,1.707,0,0,1-.428.729A.855.855,0,0,1,1.182,4.073Zm0-3.209c-.144,0-.27.1-.374.294a1.9,1.9,0,0,0-.16.878,1.9,1.9,0,0,0,.161.88c.106.194.234.293.381.293s.269-.1.372-.294a1.944,1.944,0,0,0,.159-.886,1.881,1.881,0,0,0-.161-.87C1.451.963,1.324.864,1.178.864Z"/><path transform="translate(66.263 39.182)" d="M1,.024,1.014,0H.3l-.3,1.1L0,1.119H.409Z"/><path transform="translate(68.182 40.65)" d="M1.488.2a.563.563,0,0,0-.4-.2A.359.359,0,0,0,.814.133,1.562,1.562,0,0,0,.587.569V.091H0V3.981H.631V2.773c0-.6.014-1.019.04-1.242A1.046,1.046,0,0,1,.8,1.07.255.255,0,0,1,1.011.948a.389.389,0,0,1,.268.162l.021.023L1.493.212l0-.008Z"/><path transform="translate(69.899 40.74)" d="M0,3.891H.631V0H0Z"/><path transform="translate(69.899 39.273)" d="M0,.977H.631V0H0Z"/><path d="m71.867 44.723a0.987 0.987 0 0 1-0.848-0.547 2.969 2.969 0 0 1-0.334-1.544 3.184 3.184 0 0 1 0.162-1.039 1.663 1.663 0 0 1 0.424-0.705 0.87 0.87 0 0 1 0.593-0.238 0.967 0.967 0 0 1 0.869 0.608 3.031 3.031 0 0 1 0.312 1.407 3.393 3.393 0 0 1-0.16 1.085 1.707 1.707 0 0 1-0.428 0.729 0.855 0.855 0 0 1-0.59 0.244zm0-3.209c-0.144 0-0.27 0.1-0.374 0.294a1.9 1.9 0 0 0-0.16 0.878 1.9 1.9 0 0 0 0.161 0.88c0.106 0.194 0.234 0.293 0.381 0.293s0.269-0.1 0.373-0.294a1.947 1.947 0 0 0 0.158-0.886 1.881 1.881 0 0 0-0.161-0.87c-0.109-0.196-0.236-0.295-0.382-0.295z"/><path transform="translate(74.802 40.65)" d="M1.111,4.073a.869.869,0,0,1-.787-.478A3.053,3.053,0,0,1,0,2.057,3.2,3.2,0,0,1,.327.5.826.826,0,0,1,1.05,0a.855.855,0,0,1,.772.511,3.627,3.627,0,0,1,.319,1.7l0,.133H.644a1.477,1.477,0,0,0,.144.687.39.39,0,0,0,.328.243c.183,0,.307-.181.369-.538l0-.018.017,0,.608.175,0,.014a1.878,1.878,0,0,1-.374.87A.809.809,0,0,1,1.111,4.073ZM1.086.814a.357.357,0,0,0-.3.229,1.351,1.351,0,0,0-.128.647h.861a1.43,1.43,0,0,0-.135-.656A.354.354,0,0,0,1.086.814Z"/><path transform="translate(78.447 40.649)" d="M.765,4.073a.645.645,0,0,1-.552-.319A1.475,1.475,0,0,1,0,2.918a1.778,1.778,0,0,1,.086-.577.977.977,0,0,1,.246-.4,1.359,1.359,0,0,1,.5-.262A2.345,2.345,0,0,0,1.4,1.44a1.658,1.658,0,0,0-.031-.409A.305.305,0,0,0,1.256.875.388.388,0,0,0,1.022.814a.308.308,0,0,0-.24.1.843.843,0,0,0-.146.374l0,.017L.615,1.3.06,1.125l0-.014A1.725,1.725,0,0,1,.392.262.844.844,0,0,1,1.056,0a.971.971,0,0,1,.587.153.828.828,0,0,1,.29.413A3.4,3.4,0,0,1,2.02,1.5L2.014,2.7a7.39,7.39,0,0,0,.028.745,3.441,3.441,0,0,0,.106.519l.006.021H1.529l0-.014-.07-.38a1.28,1.28,0,0,1-.31.352A.635.635,0,0,1,.765,4.073ZM1.4,2.139a2.575,2.575,0,0,1-.333.141.739.739,0,0,0-.355.22.54.54,0,0,0-.083.312.681.681,0,0,0,.092.365.262.262,0,0,0,.223.143.354.354,0,0,0,.24-.117.648.648,0,0,0,.168-.283,2.585,2.585,0,0,0,.047-.6Z"/><path transform="translate(80.978 40.649)" d="M3.263.608A1,1,0,0,0,3,.159.586.586,0,0,0,2.6,0a.565.565,0,0,0-.377.157A1.442,1.442,0,0,0,1.91.589,1.086,1.086,0,0,0,1.658.158.547.547,0,0,0,1.27,0,.587.587,0,0,0,.879.159a1.353,1.353,0,0,0-.3.407V.091H0V3.982H.631V2.089a4.585,4.585,0,0,1,.048-.8A.759.759,0,0,1,.836.932.313.313,0,0,1,1.068.814c.125,0,.205.074.246.228a4.039,4.039,0,0,1,.049.807V3.982h.631V2.111a2.937,2.937,0,0,1,.12-1.039c.08-.174.18-.258.307-.258a.237.237,0,0,1,.229.18,2.62,2.62,0,0,1,.071.764V3.982h.631V1.5A3.38,3.38,0,0,0,3.263.608"/><path transform="translate(84.863 39.273)" d="M1.274,5.449A.594.594,0,0,1,.88,5.276a1.26,1.26,0,0,1-.293-.424v.507H0V0H.631V1.867a1.2,1.2,0,0,1,.275-.352.567.567,0,0,1,.363-.138.811.811,0,0,1,.688.515,3.223,3.223,0,0,1,.278,1.5A3.3,3.3,0,0,1,1.95,4.91C1.76,5.268,1.532,5.449,1.274,5.449ZM1.107,2.191c-.131,0-.245.093-.338.275a1.984,1.984,0,0,0-.143.863,3.294,3.294,0,0,0,.067.759.924.924,0,0,0,.188.391.341.341,0,0,0,.25.131c.123,0,.232-.094.322-.28a2.227,2.227,0,0,0,.138-.91,2.348,2.348,0,0,0-.139-.946C1.36,2.286,1.244,2.191,1.107,2.191Z"/><path transform="translate(87.549 39.273)" d="M0,.977H.631V0H0Z"/><path transform="translate(87.549 40.74)" d="M0,3.891H.631V0H0Z"/><path transform="translate(88.585 40.65)" d="M1.111,4.073a.869.869,0,0,1-.787-.478A3.053,3.053,0,0,1,0,2.057,3.2,3.2,0,0,1,.327.5.826.826,0,0,1,1.05,0a.855.855,0,0,1,.772.511,3.627,3.627,0,0,1,.319,1.7l0,.133H.644a1.477,1.477,0,0,0,.144.687.391.391,0,0,0,.328.243c.182,0,.306-.181.368-.538l0-.018.017,0,.608.175,0,.014a1.878,1.878,0,0,1-.374.87A.809.809,0,0,1,1.111,4.073ZM1.086.814a.359.359,0,0,0-.3.229,1.351,1.351,0,0,0-.128.647h.861a1.421,1.421,0,0,0-.135-.656A.354.354,0,0,0,1.086.814Z"/><path transform="translate(91.173 40.65)" d="M2.02.694A1.059,1.059,0,0,0,1.768.2.6.6,0,0,0,1.314,0,.623.623,0,0,0,.893.168,1.354,1.354,0,0,0,.587.6V.091H0V3.981H.631V2.216a5.388,5.388,0,0,1,.049-.9A.783.783,0,0,1,.847.944a.341.341,0,0,1,.26-.131.253.253,0,0,1,.2.1.592.592,0,0,1,.122.294,5.947,5.947,0,0,1,.033.787V3.981h.63V1.565A4.133,4.133,0,0,0,2.02.694"/><path transform="translate(93.587 39.356)" d="M1.31,4.4l0-.027-.023.014a.5.5,0,0,1-.23.1c-.067,0-.11-.043-.132-.134a4.743,4.743,0,0,1-.017-.582V2.231h.407V1.385H.906V0L.279.623l-.005,0v.757H0v.846H.274V3.9a6.174,6.174,0,0,0,.037.861A.864.864,0,0,0,.5,5.208a.484.484,0,0,0,.377.159.79.79,0,0,0,.478-.156L1.361,5.2Z"/><path transform="translate(95.11 40.65)" d="M1.111,4.073a.869.869,0,0,1-.787-.478A3.053,3.053,0,0,1,0,2.057,3.2,3.2,0,0,1,.327.5.826.826,0,0,1,1.05,0a.855.855,0,0,1,.772.511,3.627,3.627,0,0,1,.319,1.7l0,.133H.644a1.477,1.477,0,0,0,.144.687.39.39,0,0,0,.328.243c.183,0,.307-.181.369-.538l0-.018.017,0,.608.175,0,.014a1.878,1.878,0,0,1-.374.87A.809.809,0,0,1,1.111,4.073ZM1.086.814a.357.357,0,0,0-.3.229,1.351,1.351,0,0,0-.128.647h.861a1.43,1.43,0,0,0-.135-.656A.354.354,0,0,0,1.086.814Z"/></g><path transform="translate(46.853 .545)" d="M4.441,3.367c-.033-1.157-.068-1.152-1.175-.948-.559.1-1.1.335-1.626.4-.627.072-1,.7-1.639.586-.033-.726.672-.71,1.01-.759.43-.06.67-.333,1.01-.47.23-.586-.29-1.337.395-1.827a.949.949,0,0,1,1.465,0c.165.137.321.277.11.474A2.5,2.5,0,0,0,2.43.574c.114.312-.366.5-.166.832.66-.159,1.173.47,1.827.348.008-.033.015-.064.023-.1a.426.426,0,0,1,.29.259.209.209,0,0,0,.161.283c-.25.352.019.79-.124,1.167"/><path transform="translate(31.837)" d="M29.119,13.907A4.359,4.359,0,0,0,28,12.893a3.505,3.505,0,0,1-1.324-1.387.563.563,0,0,0-.372-.232.064.064,0,0,0-.034.008,1.494,1.494,0,0,1-.774.261c-.513,0-.856-.419-1.187-.824-.114-.139-.232-.283-.355-.409a.424.424,0,0,0-.178-.083c-.033-.01-.067-.02-.1-.033a2.061,2.061,0,0,0-.222-.077.983.983,0,0,1-.425-.209l.078-.067.006,0,.073-.062c-.035-.059-.068-.121-.1-.181-.135-.252-.262-.49-.509-.49a.89.89,0,0,0-.5.227.411.411,0,0,1-.118.066c-.093-.033-.185-.071-.281-.116a.5.5,0,0,1,.047-.406.423.423,0,0,0,.024-.382.122.122,0,0,0-.106-.061.308.308,0,0,0-.2.108.594.594,0,0,1-.421.2,1.041,1.041,0,0,1-.366-.091,1.042,1.042,0,0,0-.36-.091h-.032a3.691,3.691,0,0,0-1.3-.226,8.622,8.622,0,0,0-2.338.443c-.2.058-.415.119-.623.174l-.051,0c-.342,0-.465.223-.62.506l-.025.046a1.632,1.632,0,0,1-1.335.946.9.9,0,0,1-.482-.135.5.5,0,0,1-.142-.187c-.056-.1-.115-.208-.222-.208a.331.331,0,0,0-.186.078c-.211.155-.127.308-.038.469a.449.449,0,0,1,.087.332,4.3,4.3,0,0,0,1.257.3,6.98,6.98,0,0,1,.78.137,1.526,1.526,0,0,1-.68.155,3.548,3.548,0,0,1-1.124-.253l-.248-.083a2.425,2.425,0,0,1-.352.027,1.777,1.777,0,0,1-1.686-1.235c0-.038.008-.077.013-.115a1.7,1.7,0,0,0,.017-.185.619.619,0,0,1,.533-.675.463.463,0,0,1,.147.024c.143.048.22.1.233.16s-.065.15-.15.23-.183.172-.17.264a1.127,1.127,0,0,1,0,.227c-.01.139-.021.282.048.356a.185.185,0,0,0,.144.052l.046,0a.661.661,0,0,0,.475-.205.87.87,0,0,0,.058-.657c-.042-.295-.086-.6.143-.793a.145.145,0,0,0,.064-.15c-.03-.1-.207-.176-.359-.2a1.7,1.7,0,0,0-.236-.017,1.388,1.388,0,0,0-1.4,1.435.788.788,0,0,1-.412.2c-.17,0-.208-.2-.245-.389-.031-.158-.062-.321-.168-.373A1.677,1.677,0,0,1,8.3,9.9a1.359,1.359,0,0,1-.746-.222.91.91,0,0,0-.448-.2c-.143,0-.247.107-.361.37s-.266.41-.451.41a.958.958,0,0,1-.563-.29.605.605,0,0,0-.389-.128,1.8,1.8,0,0,0-.348.046,1.907,1.907,0,0,1-.361.046.741.741,0,0,1-.306-.061,1.023,1.023,0,0,0-.412-.065l-.142,0H3.763l-.148,0c-.343,0-.683-.051-.757-.667a.726.726,0,0,1-.312.076,1.091,1.091,0,0,1-.637-.3,1.134,1.134,0,0,0-.582-.289c-.06,0-.121-.013-.186-.023a1.794,1.794,0,0,0-.265-.027.444.444,0,0,0-.392.186c-.148.206-.041.37.072.543a.665.665,0,0,1,.158.44.745.745,0,0,1-.71-.9C.03,8.539.23,8.2.55,8.2a.478.478,0,0,1,.085.008,10.521,10.521,0,0,0,1.938.148c.309,0,.623-.007.926-.013.254-.005.515-.011.771-.013a5.051,5.051,0,0,1,.774-.822c.181-.165.368-.336.534-.521.077-.236.2-.344.4-.348a.571.571,0,0,1,.354.167c.027.155.161.234.291.311l.04.024a.632.632,0,0,1,.209.412A3.794,3.794,0,0,0,4.508,8.763a.247.247,0,0,1-.245.193.354.354,0,0,1-.057,0c-.069-.012-.121-.08-.171-.146s-.111-.145-.187-.145a.256.256,0,0,0-.17.1.544.544,0,0,0-.145.449A.259.259,0,0,0,3.8,9.4a1.158,1.158,0,0,0,.16-.016H3.97a1.143,1.143,0,0,1,.155-.015.379.379,0,0,1,.083.008.835.835,0,0,0,.178.019,1.387,1.387,0,0,0,.657-.223,1.832,1.832,0,0,1,.472-.2.831.831,0,0,0,.4.671c.057.048.115.1.169.149.149,0,.242-.034.285-.095.055-.078.018-.193-.018-.3a.673.673,0,0,1-.043-.18,1.258,1.258,0,0,1,.871-1.428.662.662,0,0,0,.51-.166.782.782,0,0,0,.066-.608A.933.933,0,0,1,7.8,6.426a.107.107,0,0,0,.012-.112c-.068-.12-.433-.136-.744-.136H6.941l-.189.169-.43.383c-.076-.064-.149-.125-.225-.187a.26.26,0,0,0-.014-.193.767.767,0,0,1,.811-.42h.032a.354.354,0,0,1,.337-.179c.046,0,.093,0,.139.008s.093.008.139.008a.414.414,0,0,0,.2-.042.652.652,0,0,1,.122-.012c.258,0,.383.186.5.366a1.371,1.371,0,0,0,.188.239l.392.04h.046a.648.648,0,0,1,.464.166L9.34,6.6c.269.366.052.624-.177.9-.064.076-.13.155-.187.237.05,0,.1.008.157.008a1.28,1.28,0,0,0,1.118-.762,2.961,2.961,0,0,1,.3-.4l-.5-.482-.03.022-.03.022a1.536,1.536,0,0,1-.044-.2.815.815,0,0,1,.212-.6h.046a1.363,1.363,0,0,0,1.566-1.3c.069-.345.25-.52.539-.52a2.243,2.243,0,0,1,.934.336l.062.034c.126.067.26.13.391.192a4.708,4.708,0,0,1,.784.433,2.806,2.806,0,0,1-1.437.545,1.583,1.583,0,0,1-.743-.191.358.358,0,0,0-.122.036c.027-.045.058-.09.089-.134.121-.174.247-.354.1-.593-.013-.021-.077-.029-.127-.029s-.129.011-.142.034c-.144.253-.258.518.052.735a.352.352,0,0,0-.089.08,1.086,1.086,0,0,1-1,.826c-.169.007-.28.061-.313.154s.031.241.185.375a1.11,1.11,0,0,1,.38.382c.144.2.28.386.493.386a.447.447,0,0,0,.16-.032,4.659,4.659,0,0,1,1.667-.333,3.953,3.953,0,0,1,1.96.528.437.437,0,0,0,.21.064c.143,0,.237-.1.336-.215l.038-.042a.7.7,0,0,0,.229-.732c-.047-.134-.1-.2-.18-.2a.415.415,0,0,0-.194.083.491.491,0,0,1-.18.083h-.007a1.174,1.174,0,0,1-.154.014c-.091,0-.214-.02-.221-.2a.579.579,0,0,1,.436-.6c.476-.163.845-.334.907-.91a.547.547,0,0,1,.61-.453,1.034,1.034,0,0,1,.157.012.528.528,0,0,1,.424.5.258.258,0,0,1-.058.19.2.2,0,0,1-.15.05.965.965,0,0,1-.157-.017l-.01,0A.9.9,0,0,0,17.5,4.9c-.056,0-.089.015-.105.048-.052.314.152.363.349.411.117.028.228.055.274.138a.285.285,0,0,1,0,.229.3.3,0,0,1-.3.25,1.239,1.239,0,0,1-.241-.035l-.012,0a1.381,1.381,0,0,0-.279-.037.538.538,0,0,0-.271.067c.076.058.144.119.211.179a.91.91,0,0,0,.6.318.808.808,0,0,0,.293-.061.95.95,0,0,1,.327-.059.41.41,0,0,1,.41.212.989.989,0,0,0,.874.7.642.642,0,0,0,.457-.183,1.256,1.256,0,0,1,.413-.208c.264-.1.563-.212.635-.451a.818.818,0,0,0-.22-.675c-.105-.145.058-.266.2-.372.037-.027.072-.053.1-.079.089-.076.212-.181.22-.305a.264.264,0,0,0-.079-.194,1.24,1.24,0,0,1-.188-1.3.239.239,0,0,0-.028-.222.558.558,0,0,0-.427-.167.523.523,0,0,0-.124-.273c-.1-.144-.2-.28-.019-.436a.21.21,0,0,1,.142-.062.447.447,0,0,1,.253.136.658.658,0,0,0,.211.134,2.725,2.725,0,0,1,.363.145,2.043,2.043,0,0,0,.47.17.459.459,0,0,1,.352.233.267.267,0,0,1-.02.253,1.834,1.834,0,0,0-.187,1.168c.008.123.016.249.017.38a4.475,4.475,0,0,0,1.61,3.255.385.385,0,0,0,.273.138.524.524,0,0,0,.248-.08,2.088,2.088,0,0,1,.878-.345c.338,0,.462.354.584,1.052a.609.609,0,0,0,.248.387,1.056,1.056,0,0,1,.138.135.12.12,0,0,0,.095.049.172.172,0,0,0,.116-.055.082.082,0,0,0,.028-.05,1.371,1.371,0,0,1,.128-.521c.125-.325.255-.661-.123-.979a9.633,9.633,0,0,1-.9-.906A6.527,6.527,0,0,0,24.064,5.75l-.072-.042c-.3-.173-.672-.388-.5-.885.161-.453.5-.464.865-.477.073,0,.148,0,.221-.011l.053,0a2.317,2.317,0,0,1,.316.032l.04.006a1.836,1.836,0,0,0,.22.025c.028,0,.045,0,.05-.012a.014.014,0,0,0,0-.014.677.677,0,0,1,.2-.708.7.7,0,0,0,.218-.535.575.575,0,0,0-.443-.526.79.79,0,0,0-.086,0c-.324,0-.451.226-.585.465a1.007,1.007,0,0,1-.431.484l.038-.086a5.469,5.469,0,0,1,.982-1.668,3.821,3.821,0,0,0,.353-.506A4.546,4.546,0,0,1,25.792.86a.585.585,0,0,0-.054-.418,1.216,1.216,0,0,0-.686-.2,1.739,1.739,0,0,0-.421.055,3.877,3.877,0,0,0-.643.39c-.106.074-.216.151-.327.22a.27.27,0,0,0-.173.1,1.413,1.413,0,0,1-.68.186,1.357,1.357,0,0,1-.375-.055c.108-.083.215-.176.318-.265A1.912,1.912,0,0,1,23.988.239a1.368,1.368,0,0,1,.233.021A1.159,1.159,0,0,1,24.972,0a2.81,2.81,0,0,1,.736.128c.332.295.341.616.029,1.011a.641.641,0,0,1-.335.6.389.389,0,0,0-.1.25.653.653,0,0,0,.133.33,1.357,1.357,0,0,1,.1.172.637.637,0,0,1,.377.59.458.458,0,0,1,0,.049,5.072,5.072,0,0,0,2.969,2.005,1.352,1.352,0,0,1,.534.238,1.706,1.706,0,0,0,.332.181c.191.147.147.325.1.5a.763.763,0,0,0-.034.274.221.221,0,0,0-.044.058,1.779,1.779,0,0,0-.007.192.626.626,0,0,1-.071.375c-.53.661-.253,1.131.325,1.632a.569.569,0,0,1,.129.222c.015.038.031.078.049.113l.034.078c.076.176.153.352.232.54l.078-.077a.914.914,0,0,0,.312-1.218,4.576,4.576,0,0,0-.278-.532,2.407,2.407,0,0,1-.413-1.094,1.536,1.536,0,0,1,.188-.012c.782,0,1.1.65,1.229,1.195a1.866,1.866,0,0,1-.084,1.468,1.307,1.307,0,0,1-.9.532.82.82,0,0,0,.067.655c.129.346.263.7-.3.953a.453.453,0,0,1-.128-.263.183.183,0,0,0-.023.136.191.191,0,0,1-.021.135,1.209,1.209,0,0,0,.345.719l.054.068h-.007c-.322,0-.454-.252-.581-.5s-.259-.5-.578-.5a.726.726,0,0,0-.115.01c-.119-.122-.255-.258-.4-.405.006-.106.015-.213.024-.317a4.852,4.852,0,0,0,.024-.765c-.009-.12-.06-.51-.362-.518h-.013a.845.845,0,0,0-.593.258.249.249,0,0,0-.065.186c.014.132.153.242.264.33l.045.036a1.248,1.248,0,0,1,.37,1.168.814.814,0,0,1-.16.15c-.1.076-.187.147-.187.24s.091.189.279.3a.744.744,0,0,0,.359.133c.186,0,.247-.176.305-.347a.694.694,0,0,1,.149-.289.984.984,0,0,0,.041.252.51.51,0,0,1-.1.566,1.4,1.4,0,0,0-.209,1.471c.018.08.037.162.054.242Zm-1.94-4.13h0c-.409.066-.389.423-.373.683.03.473.256.745.636.764h.027a.39.39,0,0,0,.325-.151.443.443,0,0,0,.053-.4c-.02-.065-.036-.133-.052-.2-.072-.317-.147-.645-.616-.7Zm-2.507.259c-.11,0-.154.122-.158.236a.467.467,0,0,0,.431.546.38.38,0,0,0,.05,0c.159,0,.267-.106.3-.3a.8.8,0,0,0-.557-.472A.2.2,0,0,0,24.672,10.037ZM13.7,7.978a4.2,4.2,0,0,1-.312.316c-.247.233-.5.474-.5.715,0,.3.261.384.539.469a1.028,1.028,0,0,1,.565.308,1.2,1.2,0,0,1,.338-.2c.256-.116.52-.236.489-.646-.046-.439-.362-.575-.667-.708A1.589,1.589,0,0,1,13.7,7.978ZM8.494,8.989a1.432,1.432,0,0,0-.765.274l.2.05a2.33,2.33,0,0,0,.539.1A.618.618,0,0,0,9,9.11,1.284,1.284,0,0,0,8.494,8.989ZM28.631,5.966c-.432,0-.485.349-.536.687-.049.32-.095.623-.435.656.114.364.408.453.719.547.091.028.186.056.276.092A2.144,2.144,0,0,1,28.914,6,1.236,1.236,0,0,0,28.631,5.966Zm-11.6,1.209c-.115,0-.228.1-.365.313a.761.761,0,0,0,.365.1.6.6,0,0,0,.3-.079s0,0,0-.007a.392.392,0,0,0-.071-.213A.337.337,0,0,0,17.034,7.175Zm9.4-2.83c-.037,0-.075,0-.111.006a.741.741,0,0,1-.177.659c-.162.254-.314.494-.066.778a4.754,4.754,0,0,1,.308.409,2.316,2.316,0,0,0,.727.759.818.818,0,0,0,.059-.712c-.007-.032-.014-.062-.02-.091a.271.271,0,0,0,.071.009.437.437,0,0,0,.1-.013.755.755,0,0,1,.212-.276c.147-.142.3-.288.177-.531a.3.3,0,0,0-.279-.2.9.9,0,0,0-.287.071,1.34,1.34,0,0,1-.2.062.533.533,0,0,1-.2-.333,2.111,2.111,0,0,1-.028-.228c0-.053-.009-.107-.017-.159C26.679,4.37,26.555,4.345,26.438,4.345Z"/><path transform="translate(47.901 9.251)" d="M2.626.606c-.341.641-.983.584-1.506.494A6.958,6.958,0,0,1,.079.946.846.846,0,0,0,0,0C.763.372,1.424,1.291,2.411.41a.523.523,0,0,0,.215.2"/><path transform="translate(51.455 .476)" d="M2.649.662a.66.66,0,0,1-.731.081C1.323.4.944.709.6,1.158a1.561,1.561,0,0,1-.509.588.57.57,0,0,0-.079.035A.086.086,0,0,1,0,1.715c.012-.052.025-.079.045-.079L.489,1.03C.549.759.195.455.526.217A.931.931,0,0,1,1.695.2a7.393,7.393,0,0,0,.954.466"/><path transform="translate(51.652 8.827)" d="M3.1,1.182c-.126.43-.431.466-.79.393A.253.253,0,0,1,2.3,1.63a.739.739,0,0,1-.84.172.6.6,0,0,0-.581-.294A.861.861,0,0,1,.25,1.335C.012,1.335.068,1.121,0,1,.356.761.327.319.524,0,.921.381.112.772.457,1.153c.354-.035.867-.656.964-.234.159.681.513.416.846.443.283-.041.524-.271.836-.18"/><g fill="#76b82a"><path transform="translate(42.584 .239)" d="M15.65,7.7a19.283,19.283,0,0,0-2.333-2.192c-.3-.18-.757-.389-.567-.926s.652-.451,1.086-.488c.246-.021.711.115.68.034-.211-.561.485-.773.414-1.243a.575.575,0,0,0-.444-.526c-.672-.074-.59.712-1.1.945a5.687,5.687,0,0,1,1.02-1.755c.249-.286.406-.636.639-.933A.574.574,0,0,0,14.991.2,1.334,1.334,0,0,0,13.885.056c-.719.315-1.257,1.1-2.2.836A.162.162,0,0,0,11.519.9a.657.657,0,0,1-.73.083C10.2.639,9.814.947,9.473,1.4a1.557,1.557,0,0,1-.507.588.524.524,0,0,0-.293.241.208.208,0,0,0,.16.282c-.25.353.019.789-.123,1.167-.033-1.159-.068-1.151-1.174-.948-.56.1-1.1.335-1.627.4-.627.073-1,.7-1.638.586l-.531.568a2.062,2.062,0,0,1-2.182.353.364.364,0,0,0-.121.036c.133-.226.372-.426.191-.727a.3.3,0,0,0-.27.005c-.143.252-.255.52.053.737a.354.354,0,0,0-.09.079c-.19.447-.417.8-1,.826C-.058,5.6-.1,5.853.2,6.114c.4.183.525.929,1.033.734a4.07,4.07,0,0,1,3.627.2c.3.165.426-.023.583-.194a.715.715,0,0,0,.229-.731c-.144-.41-.363-.055-.554-.031-.159.021-.371.054-.382-.182a.581.581,0,0,1,.435-.6c.45-.154.844-.317.907-.908.04-.374.417-.5.766-.443a.529.529,0,0,1,.426.5c0,.463-.529.082-.614.254-.1.618.806.212.62.777-.178.54-.676,0-1.108.242.367.283.572.643,1.108.436.241-.093.64-.1.735.153.274.73.977.873,1.331.522.312-.31,1.586-.282.828-1.335-.131-.181.154-.322.3-.45s.329-.289.143-.5a1.222,1.222,0,0,1-.188-1.3c.08-.261-.194-.382-.456-.389,0-.251-.427-.456-.144-.708.226-.2.4.146.607.208.284.083.545.263.832.316.32.06.45.29.333.485a2.6,2.6,0,0,0-.17,1.548,4.429,4.429,0,0,0,1.61,3.255.368.368,0,0,0,.52.057c1.038-.578,1.254-.485,1.462.707.051.3.253.356.387.522.1.119.239-.009.238-.056-.018-.5.583-1.014.006-1.5"/><path transform="translate(61.244 6.307)" d="M1.44,1.93A4.946,4.946,0,0,1,.751.3L.534.083C.48-.022.422-.03.359.075.338.267.385.514.283.642c-.555.693-.21,1.168.324,1.632a1.1,1.1,0,0,1,.179.335l.265.616c.371-.369.678-.593.39-1.294"/><path transform="translate(42.381 8.16)" d="M1.639.017A1.4,1.4,0,0,0,0,1.437l.4.247c.011-.1.03-.2.032-.3.008-.454.33-.766.68-.649.59.2-.125.41-.089.654s-.135.673.237.633c1.121-.122.134-1.2.675-1.658.2-.175-.084-.317-.292-.346"/><path transform="translate(59.751 9.209)" d="M.986,1.6A8.341,8.341,0,0,0,1.034.518C1.018.308.936.007.672,0A.842.842,0,0,0,.066.256C-.129.5.154.68.31.808A1.257,1.257,0,0,1,.68,1.978h0c-.153.214-.656.335-.069.691.7.427.577-.289.814-.5L1.39,2,.986,1.6"/><path transform="translate(44.651 8.33)" d="M9.266,1C8.98,1.22,8.711.968,8.914.544c.153-.321-.008-.606-.281-.336C8.179.657,7.84.2,7.456.227,5.974-.319,4.593.245,3.2.616c-.4-.025-.522.235-.7.551C2.041,2,1.229,2.319.681,1.977.5,1.865.488,1.4.133,1.66s.129.525.048.8A11.039,11.039,0,0,0,2.219,2.9c.556-.146.655-.782,1.11-1.036A.846.846,0,0,0,3.249.92c.762.373,1.426,1.292,2.412.412a.527.527,0,0,0,.214.195A2.16,2.16,0,0,1,7,1.494c.356-.236.327-.677.526-1,.4.381-.413.772-.068,1.153.354-.036.866-.656.964-.234.158.681.512.415.846.443.283-.04.525-.272.836-.182l.276-.235C10.125,1.016,9.985.45,9.266,1"/><path transform="translate(44.724 7.977)" d="M1.1,1.808c.283-.271.874-.24.828-.844C1.861.3,1.178.332.816,0,.526.344,0,.685,0,1.031c-.005.535.812.377,1.1.776"/><path transform="translate(35.359 6.18)" d="M4.275.245C4.431-.012,3.755,0,3.419,0L2.8.551c-.009.428.659.355.606.816A3.759,3.759,0,0,0,.987,2.584a.25.25,0,0,1-.3.187C.5,2.739.44,2.287.156,2.577a.544.544,0,0,0-.144.45c.126.34.443.121.674.172.524.114.862-.307,1.308-.4-.014.413.328.583.571.821.53-.011.229-.373.225-.578a1.27,1.27,0,0,1,.871-1.428c1.055-.018.347-.921.614-1.363"/><path transform="translate(57.792 4.346)" d="M.131,1.441c.342.39.558.9,1.036,1.167a.936.936,0,0,0,.038-.8.34.34,0,0,0,.17,0c.1-.289.582-.423.39-.809S1.26.878.994.926h0C.756.739.789.463.752.207.72-.015.541-.008.371.006c.2.532-.7.917-.241,1.435"/><path transform="translate(58.637 9.778)" d="M.379,0C-.014.064-.012.387.006.684c.024.4.2.741.636.763A.4.4,0,0,0,1.046.9C.938.548.955.062.379,0"/><path transform="translate(59.497 5.965)" d="M1,1.982A2.138,2.138,0,0,1,1.254.038C.02-.258.781,1.268,0,1.343c.147.471.605.482,1,.639"/><path transform="translate(40.815 6.1)" d="M1.077,0,.362.5C.705.97.262,1.256,0,1.637c.983.1,1.146-.7,1.575-1.156L1.077,0"/><path transform="translate(56.349 10.037)" d="M.228.014C.073-.045.007.09,0,.236A.466.466,0,0,0,.433.783C.607.8.746.711.785.486A.8.8,0,0,0,.228.014"/><path transform="translate(39.566 8.989)" d="M0,.274C.588.412.947.579,1.275.121A1.181,1.181,0,0,0,0,.274"/><path transform="translate(48.506 7.175)" d="M.592.118C.367-.1.2,0,0,.313A.645.645,0,0,0,.661.338.346.346,0,0,0,.592.118"/><path transform="translate(49.067 1.098)" d="M.049.852C.71.695,1.222,1.323,1.876,1.2L2.026.608,1.819.292a2.455,2.455,0,0,0-1.6-.27c.114.31-.366.5-.166.831"/></g></g></g></svg>
