<?xml version="1.0" encoding="UTF-8" standalone="no"?>
<svg
   width="848"
   height="718"
   viewBox="0 0 848 718"
   fill="none"
   version="1.1"
   id="svg5"
   sodipodi:docname="lpp.svg"
   inkscape:version="1.3.2 (091e20ef0f, 2023-11-25)"
   xmlns:inkscape="http://www.inkscape.org/namespaces/inkscape"
   xmlns:sodipodi="http://sodipodi.sourceforge.net/DTD/sodipodi-0.dtd"
   xmlns="http://www.w3.org/2000/svg"
   xmlns:svg="http://www.w3.org/2000/svg">
  <defs
     id="defs5" />
  <sodipodi:namedview
     id="namedview5"
     pagecolor="#ffffff"
     bordercolor="#999999"
     borderopacity="1"
     inkscape:showpageshadow="0"
     inkscape:pageopacity="0"
     inkscape:pagecheckerboard="0"
     inkscape:deskcolor="#d1d1d1"
     inkscape:zoom="0.80648148"
     inkscape:cx="423.44432"
     inkscape:cy="358.9667"
     inkscape:window-width="1920"
     inkscape:window-height="1163"
     inkscape:window-x="0"
     inkscape:window-y="960"
     inkscape:window-maximized="1"
     inkscape:current-layer="svg5" />
  <path
     d="M 424,718 C 622.27,718 783,557.27 783,359 783,160.73 622.27,0 424,0 225.73,0 65,160.73 65,359 65,557.27 225.73,718 424,718 Z"
     fill="#00ffac"
     id="path1" />
  <path
     d="m 232.535,339.703 -8.018,36.665 h 37.206 v 57.248 H 212.329 L 203.028,478 h -58.696 l 9.302,-44.384 H 104.561 L 95.259,478 H 36.885 l 9.301,-44.384 H 0 v -57.248 h 58.374 l 8.019,-36.665 H 21.169 V 282.454 H 78.581 L 87.562,240 h 58.374 l -8.981,42.454 h 49.073 L 195.009,240 h 58.695 l -8.98,42.454 h 38.167 v 57.249 z m -58.695,0 h -49.073 l -8.018,36.665 h 49.073 z"
     fill="#000000"
     id="path2" />
  <path
     d="m 370.756,429.757 h 70.242 V 478 H 307.891 V 251.257 h 62.865 z"
     fill="#000000"
     id="path3" />
  <path
     d="m 644.093,326.838 c 0,13.722 -3.207,26.266 -9.622,37.63 -6.201,11.149 -15.716,20.155 -28.546,27.016 -12.615,6.647 -28.118,9.97 -46.507,9.97 H 528.306 V 478 H 465.442 V 251.257 h 93.976 c 18.175,0 33.571,3.216 46.186,9.648 12.83,6.433 22.452,15.331 28.867,26.695 6.415,11.364 9.622,24.443 9.622,39.238 z m -90.769,24.443 c 17.748,0 26.621,-8.148 26.621,-24.443 0,-16.51 -8.873,-24.765 -26.621,-24.765 h -25.018 v 49.208 z"
     fill="#000000"
     id="path4" />
  <path
     d="m 848,326.838 c 0,13.722 -3.207,26.266 -9.622,37.63 -6.201,11.149 -15.716,20.155 -28.546,27.016 -12.615,6.647 -28.118,9.97 -46.507,9.97 H 732.213 V 478 H 669.349 V 251.257 h 93.976 c 18.175,0 33.571,3.216 46.186,9.648 12.83,6.433 22.452,15.331 28.867,26.695 6.415,11.364 9.622,24.443 9.622,39.238 z m -90.769,24.443 c 17.748,0 26.621,-8.148 26.621,-24.443 0,-16.51 -8.873,-24.765 -26.621,-24.765 h -25.018 v 49.208 z"
     fill="#000000"
     id="path5" />
</svg>
