<?xml version="1.0" encoding="UTF-8"?>
<svg width="266px" height="69px" viewBox="0 0 266 69" version="1.1" xmlns="http://www.w3.org/2000/svg" xmlns:xlink="http://www.w3.org/1999/xlink">
    <title>zero-azul</title>
    <g id="identidade" stroke="none" stroke-width="1" fill="none" fill-rule="evenodd">
        <g id="Group-5-Copy" transform="translate(-133.000000, -263.000000)" fill="#005AD2">
            <path d="M168.451853,276.652257 L133.11,319.57495 L133.11,329.809364 L187.310824,329.809364 L187.310824,318.328067 L161.083975,318.328067 C157.220332,318.328067 153.845884,318.447768 150.221846,318.447768 L185.943075,275.026322 L185.943075,265.300636 L135.366288,265.300636 L135.366288,276.652257 L157.71951,276.652257 C161.71294,276.652257 164.708012,276.771958 168.451853,276.652257 L168.451853,276.652257 Z M255.249047,310.717095 L240.892667,310.717095 C238.636379,317.081185 232.396645,319.944027 225.028768,319.944027 C214.78562,319.944027 207.547529,312.961484 206.419385,301.609863 L256.127601,301.609863 C256.247404,300.482681 256.247404,299.485175 256.247404,298.866721 C256.127601,280.522581 247.132401,263.555 225.028768,263.555 C206.299582,263.555 192.562184,277.779439 192.562184,297.360486 C192.562184,317.699638 205.670617,331.555 225.028768,331.555 C240.393488,331.555 251.505206,323.814352 255.249047,310.717095 L255.249047,310.717095 Z M206.549172,291.375449 C207.916921,281.390411 214.78562,274.776945 225.028768,274.776945 C235.771093,274.776945 241.142256,282.138541 242.010827,291.375449 L206.549172,291.375449 Z M282.474254,265.300636 L268.237677,265.300636 L268.237677,329.809364 L282.723843,329.809364 L282.723843,300.36298 C282.723843,283.6348 288.963577,280.273204 295.333097,279.026322 C297.329812,278.397893 301.083636,278.397893 301.832404,278.397893 L301.832404,264.672207 C292.587614,264.801883 285.848702,268.293155 282.474254,277.270711 L282.474254,265.300636 Z M340.78831,331.555 C359.777069,331.555 374.013645,317.829314 374.013645,297.609863 C374.013645,277.400387 359.777069,263.555 340.78831,263.555 C321.689733,263.555 307.453156,277.400387 307.453156,297.609863 C307.453156,317.829314 321.689733,331.555 340.78831,331.555 L340.78831,331.555 Z M321.559947,297.609863 C321.559947,285.260736 329.177414,275.275698 340.78831,275.275698 C352.279404,275.275698 359.896871,285.260736 359.896871,297.609863 C359.896871,309.839289 352.279404,319.824327 340.78831,319.824327 C329.177414,319.824327 321.559947,309.839289 321.559947,297.609863 L321.559947,297.609863 Z M382.499683,329.809364 L398.11,329.809364 L398.11,313.838292 L382.499683,313.838292 L382.499683,329.809364 Z" id="zero-azul"/>
        </g>
    </g>
</svg>