<svg width="135.47mm" height="134.96mm" version="1.1" viewBox="0 0 135.47 134.96" xmlns="http://www.w3.org/2000/svg"><path d="m135.47 67.733c0-37.412-30.321-67.733-67.733-67.733-37.412 0-67.733 30.321-67.733 67.733 0 31.75 21.881 58.42 51.382 65.749v-45.059h-13.97v-20.69h13.97v-8.9165c0-23.045 10.425-33.734 33.073-33.734 4.2862 0 11.695 0.84667 14.737 1.6933v18.732c-1.5875-0.15875-4.3656-0.26458-7.8317-0.26458-11.112 0-15.399 4.2069-15.399 15.134v7.3554h22.119l-3.81 20.69h-18.336v46.54c33.549-4.0481 59.531-32.597 59.531-67.231z" fill="#fff" stroke-width=".26458"/></svg>
