<svg width="118.6mm" height="118.57mm" version="1.1" viewBox="0 0 118.6 118.57" xmlns="http://www.w3.org/2000/svg"><path d="m59.313 28.886c-16.828 0-30.401 13.573-30.401 30.401s13.573 30.401 30.401 30.401c16.828 0 30.401-13.573 30.401-30.401s-13.573-30.401-30.401-30.401zm0 50.165c-10.874 0-19.764-8.8635-19.764-19.764s8.8635-19.764 19.764-19.764 19.764 8.8635 19.764 19.764-8.89 19.764-19.764 19.764zm38.735-51.409c0 3.9423-3.175 7.0908-7.0908 7.0908-3.9423 0-7.0908-3.175-7.0908-7.0908 0-3.9158 3.175-7.0908 7.0908-7.0908 3.9158 0 7.0908 3.175 7.0908 7.0908zm20.135 7.1967c-0.4498-9.4985-2.6194-17.912-9.5779-24.844-6.9321-6.9321-15.346-9.1017-24.844-9.5779-9.7896-0.55562-39.132-0.55562-48.921 0-9.4721 0.44979-17.886 2.6194-24.844 9.5515-6.9585 6.9321-9.1017 15.346-9.5779 24.844-0.55562 9.7896-0.55562 39.132 0 48.921 0.44979 9.4985 2.6194 17.912 9.5779 24.844 6.9585 6.9321 15.346 9.1017 24.844 9.5779 9.7896 0.55562 39.132 0.55562 48.921 0 9.4985-0.4498 17.912-2.6194 24.844-9.5779 6.9321-6.9321 9.1017-15.346 9.5779-24.844 0.55562-9.7896 0.55562-39.105 0-48.895zm-12.647 59.399c-2.0638 5.1858-6.059 9.181-11.271 11.271-7.8052 3.0956-26.326 2.3812-34.951 2.3812s-27.173 0.68792-34.951-2.3812c-5.1858-2.0638-9.181-6.059-11.271-11.271-3.0956-7.8052-2.3812-26.326-2.3812-34.951s-0.68792-27.173 2.3812-34.951c2.0638-5.1858 6.059-9.181 11.271-11.271 7.8052-3.0956 26.326-2.3812 34.951-2.3812s27.173-0.68792 34.951 2.3812c5.1858 2.0638 9.181 6.059 11.271 11.271 3.0956 7.8052 2.3812 26.326 2.3812 34.951s0.71438 27.173-2.3812 34.951z" fill="#fff" stroke-width=".26458"/></svg>
