<svg fill="none" version="1.1" viewBox="0 0 709 199" xmlns="http://www.w3.org/2000/svg"><g fill="#fff"><path d="m194.42 83.365-6.704 30.657h31.107v47.867h-41.297l-7.777 37.111h-49.074l7.777-37.111h-41.029l-7.7768 37.111h-48.806l7.7768-37.111h-38.616v-47.867h48.806l6.7041-30.657h-37.811v-47.868h48.001l7.5087-35.497h48.806l-7.509 35.497h41.029l7.509-35.497h49.074l-7.508 35.497h31.911v47.868h-42.102zm-49.074 0h-41.029l-6.7041 30.657h41.029l6.704-30.657z"/><path d="m309.98 158.66h58.728v40.338h-111.29v-189.59h52.561v149.25z"/><path d="m538.52 72.608c0 11.474-2.681 21.962-8.044 31.464-5.185 9.322-13.141 16.852-23.867 22.589-10.548 5.557-23.509 8.336-38.884 8.336h-26.012v64.003h-52.56v-189.59h78.572c15.196 0 28.068 2.6892 38.616 8.0676 10.726 5.3784 18.771 12.818 24.135 22.32 5.363 9.5018 8.044 20.438 8.044 32.808zm-75.89 20.438c14.838 0 22.258-6.8126 22.258-20.438 0-13.804-7.42-20.707-22.258-20.707h-20.917v41.145h20.917z"/><path d="m709 72.608c0 11.474-2.682 21.962-8.045 31.464-5.184 9.322-13.14 16.852-23.866 22.589-10.548 5.557-23.51 8.336-38.884 8.336h-26.012v64.003h-52.561v-189.59h78.573c15.196 0 28.067 2.6892 38.615 8.0676 10.727 5.3784 18.772 12.818 24.135 22.32s8.045 20.438 8.045 32.808zm-75.891 20.438c14.839 0 22.258-6.8126 22.258-20.438 0-13.804-7.419-20.707-22.258-20.707h-20.916v41.145h20.916z"/></g></svg>
