<svg width="1244.5mm" height="1133.7mm" version="1.1" viewBox="0 0 1244.5 1133.7" xml:space="preserve" xmlns="http://www.w3.org/2000/svg"><g transform="translate(421.91 -295.13)"><g transform="matrix(6.2564 0 0 6.2564 1275.5 1132.8)"><g transform="translate(4.0599)" fill="#fff"><path d="m-193.08-124.46s-2.5286 2.7234-17.118 6.2249c-14.59 3.5016-21.398 4.4746-21.398 4.4746s-14.396-7.0039-24.511-8.9492c-10.116-1.9453-18.675-1.5562-19.258-1.3617 0 0 5.836 10.116 9.1431 21.593 3.307 11.477 4.8632 19.843 4.8632 19.843s-4.2799 9.9208-6.4197 19.258c-2.1398 9.3374-4.4746 17.897-4.4746 17.897s4.4746 12.45 7.198 23.343c2.7234 10.894 2.9181 18.87 2.9181 18.87s-3.1128 7.9759-5.8363 18.87c-2.7234 10.894-3.8902 23.928-3.8902 23.928s1.9098-0.4078 5.7794-0.46508c-1.3514-2.9446-1.0194-6.3878 0.86957-9.0201-0.0777-2.3791 0.78836-4.6924 2.4092-6.4356l49.474-49.478c1.83-1.8183 4.3512-2.7659 6.9258-2.6031 1.4447-0.804 3.0825-1.1954 4.7346-1.1315l3.5156-3.5156c-7.2632-11.158-11.678-24.362-11.678-38.593 0-20.512 8.8074-39.075 22.82-52.102-3.5494-0.45401-6.0665-0.64589-6.0665-0.64589zm15.165 111.8-3.4382 3.4382c0.0673 1.8445-0.43309 3.6653-1.4334 5.2165-0.061 2.2855-0.9878 4.4625-2.5929 6.0907l-42.436 42.436c1.8857 0.37817 3.222 0.65334 3.222 0.65334s9.921-2.1399 18.675-4.8633c8.7538-2.7234 12.644-5.0581 12.644-5.0581s4.2799 0.38908 17.508 4.8633c13.228 4.4742 22.76 6.6136 22.76 6.6136s10.116-2.1393 20.231-4.4737c10.116-2.3344 20.621-6.2249 20.621-6.2249s-0.58379-3.8911 3.3068-19.064c3.8906-15.173 6.8084-21.787 6.8084-21.787s-0.21421-1.6156-0.90779-5.3572c-10.511 6.1388-22.709 9.6669-35.688 9.6669-14.53 0-27.981-4.6048-39.28-12.15zm-31.499 1.6907c-0.0245-0.01443 0.43516 0.38472 1.8668 0.47904l0.1239-0.04563c-0.67783-0.0688-1.3457-0.21419-1.9908-0.43338zm7.6966 0.31036c-0.68932 0.38988-1.427 0.68726-2.194 0.88448l-42.081 42.081c-0.0737 0.68782-0.22633 1.3649-0.45482 2.0178 0.28679 0.30482 0.5676 0.61038 0.85653 0.91617 0.43745 0.05274 0.87044 0.13747 1.2955 0.25351l42.786-42.785c0.2082-0.91377 0.55755-1.7895 1.0355-2.5957-0.0464-0.12823-0.09-0.2575-0.13058-0.38771-0.37891-0.10363-0.75065-0.2319-1.1128-0.384z" stroke-width=".77812"/><path d="m-138.64-133.89c-34.235 0-62.18 27.945-62.18 62.18 0 15.045 5.3986 28.874 14.355 39.652l-13.216 13.216c-0.94877-0.80453-1.8704-1.5415-2.7168-2.1688l-2.3366 2.3366c-0.76383-0.46438-1.512-0.76868-2.2229-0.81552l-49.476 49.477c0.46099 0.61994 0.95524 1.2476 1.4716 1.879l-3.3171 3.0067c3.7358 4.1913 7.7752 8.3512 11.64 12.45l3.7104-3.5118c-2e-3 -0.0018-4e-3 -0.0036-5e-3 -0.0054 0.57534 0.47935 1.1428 0.94263 1.6944 1.3794l49.478-49.477c-0.19015-0.7606-0.4993-1.473-0.88635-2.1548l2.4065-2.4065c-0.52579-0.77492-1.145-1.5851-1.8296-2.4093l13.152-13.152c10.866 9.2724 24.94 14.885 40.279 14.885 34.235 0 62.18-27.945 62.18-62.18s-27.945-62.18-62.18-62.18zm-9.4e-4 8.9529a53.228 53.228 0 0 1 53.228 53.228 53.228 53.228 0 0 1-53.228 53.228 53.228 53.228 0 0 1-53.228-53.228 53.228 53.228 0 0 1 53.228-53.228z" color="#000000" stroke-linecap="round" stroke-linejoin="round" stroke-width="18.036" style="-inkscape-stroke:none;paint-order:markers stroke fill"/></g></g></g></svg>
