<?xml version="1.0" encoding="UTF-8" standalone="no"?>
<svg
   width="612.77423"
   height="516.68109"
   viewBox="0 0 612.77424 516.68109"
   version="1.1"
   xml:space="preserve"
   style="clip-rule:evenodd;fill-rule:evenodd;stroke-linejoin:round;stroke-miterlimit:1.41421"
   id="svg13"
   sodipodi:docname="blender.svg"
   inkscape:version="1.3.2 (091e20ef0f, 2023-11-25, custom)"
   xmlns:inkscape="http://www.inkscape.org/namespaces/inkscape"
   xmlns:sodipodi="http://sodipodi.sourceforge.net/DTD/sodipodi-0.dtd"
   xmlns="http://www.w3.org/2000/svg"
   xmlns:svg="http://www.w3.org/2000/svg"><defs
   id="defs13">
        
    
                
                
                
                
                
                
                
                
                
                
                
            </defs><sodipodi:namedview
   id="namedview13"
   pagecolor="#ffffff"
   bordercolor="#000000"
   borderopacity="0.25"
   inkscape:showpageshadow="2"
   inkscape:pageopacity="0.0"
   inkscape:pagecheckerboard="0"
   inkscape:deskcolor="#d1d1d1"
   inkscape:zoom="0.42888001"
   inkscape:cx="768.28015"
   inkscape:cy="849.88806"
   inkscape:window-width="2880"
   inkscape:window-height="1715"
   inkscape:window-x="0"
   inkscape:window-y="0"
   inkscape:window-maximized="1"
   inkscape:current-layer="blender_logo_socket" />
    <g
   id="blender_logo_socket"
   transform="matrix(0.968745,0,0,1.01331,-79.863378,-666.59183)">
            
            
        <g
   transform="matrix(9.3753293,0,0,8.9629942,-1865.4065,3926.378)"
   id="g2"
   style="clip-rule:evenodd;fill-rule:evenodd;stroke-linejoin:round;stroke-miterlimit:1.41421">
                    <path
   d="m 266.868,-348.729 c -0.074,-0.057 -0.141,-0.126 -0.212,-0.181 -0.018,-0.017 -17.749,-13.638 -18.282,-14.05 -0.031,-0.023 -0.061,-0.046 -0.061,-0.046 -2.841,-2.175 -7.061,-2.221 -10.052,-0.125 -1.871,1.309 -2.995,3.289 -3.079,5.431 -0.002,0.085 -0.007,0.171 -0.007,0.258 0,1.111 0.295,2.184 0.828,3.148 -5.49,0.005 -11.012,0.011 -11.012,0.011 -4.118,0.003 -7.842,2.781 -8.692,6.462 -0.121,0.528 -0.182,1.06 -0.182,1.588 0,1.54 0.512,3.033 1.481,4.259 1.091,1.371 2.665,2.294 4.461,2.654 -5.187,3.983 -10.37,7.96 -10.375,7.965 -0.037,0.027 -0.067,0.052 -0.093,0.069 -2.08,1.598 -3.45,3.912 -3.76,6.348 -0.046,0.357 -0.068,0.711 -0.068,1.062 0,1.754 0.56,3.422 1.622,4.785 1.293,1.654 3.201,2.704 5.374,2.951 2.49,0.288 5.11,-0.51 7.183,-2.186 0.013,-0.01 2.58,-2.115 5.287,-4.329 0.993,2.397 2.386,4.619 4.186,6.606 2.316,2.559 5.131,4.581 8.362,6.011 3.396,1.505 7.035,2.265 10.817,2.256 3.785,-0.007 7.422,-0.776 10.813,-2.29 3.238,-1.449 6.047,-3.478 8.354,-6.033 0.339,-0.378 0.651,-0.776 0.963,-1.176 6.19736,-7.38704 6.96801,-24.01405 -3.856,-31.448 z"
   style="fill:#ffffff;fill-rule:nonzero"
   id="path1"
   sodipodi:nodetypes="ccccccscccscccccsccccccccccc" />
                </g><g
   transform="matrix(9.3753293,0,0,8.9629942,-1865.4065,3926.378)"
   id="g3"
   style="clip-rule:evenodd;fill-rule:evenodd;stroke-linejoin:round;stroke-miterlimit:1.41421">
                    <path
   d="m 243.13,-333.715 c 0.106,-1.891 1.032,-3.557 2.429,-4.738 1.37,-1.16 3.214,-1.869 5.226,-1.869 2.01,0 3.854,0.709 5.225,1.869 1.396,1.181 2.322,2.847 2.429,4.736 0.106,1.943 -0.675,3.748 -2.045,5.086 -1.397,1.361 -3.384,2.215 -5.609,2.215 -2.225,0 -4.216,-0.854 -5.612,-2.215 -1.371,-1.338 -2.15,-3.143 -2.043,-5.084 z"
   style="fill:#265787;fill-rule:nonzero"
   id="path2" />
                </g><g
   transform="matrix(9.3753293,0,0,8.9629942,-1865.4065,3926.378)"
   id="g4"
   style="clip-rule:evenodd;fill-rule:evenodd;stroke-linejoin:round;stroke-miterlimit:1.41421">
                    <path
   d="m 230.94,-329.894 c 0.013,0.74 0.249,2.178 0.603,3.301 0.744,2.377 2.006,4.576 3.762,6.514 1.802,1.992 4.021,3.592 6.584,4.728 2.694,1.193 5.613,1.801 8.645,1.796 3.027,-0.004 5.946,-0.624 8.64,-1.826 2.563,-1.147 4.78,-2.754 6.579,-4.747 1.755,-1.946 3.015,-4.149 3.761,-6.526 0.375,-1.201 0.612,-2.42 0.707,-3.643 0.093,-1.205 0.054,-2.412 -0.117,-3.618 -0.334,-2.35 -1.147,-4.555 -2.399,-6.565 -1.145,-1.847 -2.621,-3.464 -4.376,-4.825 l 0.004,-0.003 -17.711,-13.599 c -0.016,-0.012 -0.029,-0.025 -0.046,-0.036 -1.162,-0.892 -3.116,-0.889 -4.394,0.005 -1.292,0.904 -1.44,2.399 -0.29,3.342 l -0.005,0.005 7.387,6.007 -22.515,0.024 c -0.011,0 -0.022,0 -0.03,0 -1.861,0.002 -3.65,1.223 -4.004,2.766 -0.364,1.572 0.9,2.876 2.835,2.883 l -0.003,0.007 11.412,-0.022 -20.364,15.631 c -0.026,0.019 -0.054,0.039 -0.078,0.058 -1.921,1.471 -2.542,3.917 -1.332,5.465 1.228,1.574 3.839,1.577 5.78,0.009 l 11.114,-9.096 c 0,0 -0.162,1.228 -0.149,1.965 z m 28.559,4.112 c -2.29,2.333 -5.496,3.656 -8.965,3.663 -3.474,0.006 -6.68,-1.305 -8.97,-3.634 -1.119,-1.135 -1.941,-2.441 -2.448,-3.832 -0.497,-1.367 -0.69,-2.818 -0.562,-4.282 0.121,-1.431 0.547,-2.796 1.227,-4.031 0.668,-1.214 1.588,-2.311 2.724,-3.239 2.226,-1.814 5.06,-2.796 8.024,-2.8 2.967,-0.004 5.799,0.969 8.027,2.777 1.134,0.924 2.053,2.017 2.721,3.229 0.683,1.234 1.106,2.594 1.232,4.029 0.126,1.462 -0.067,2.911 -0.564,4.279 -0.508,1.395 -1.327,2.701 -2.446,3.841 z"
   style="fill:#e87d0d;fill-rule:nonzero"
   id="path3" />
                </g></g>
</svg>
