<svg xmlns="http://www.w3.org/2000/svg" xmlns:xlink="http://www.w3.org/1999/xlink" viewBox="0 0 85 85"><style><![CDATA[.B{mask:url(#B)}.C{fill:#fefefe}]]></style><defs><path id="A" d="M0 84.192h84.165V0H0z"/></defs><g fill-rule="evenodd"><path d="M9.347 31.712c1.584-2.78 3.82-5.023 6.646-6.667s5.855-2.478 9-2.478c3.209 0 6.291.835 9.162 2.482s5.118 3.862 6.689 6.591 2.372 5.836 2.372 9.23c0 3.419-.8 6.565-2.377 9.35a17.34 17.34 0 0 1-6.602 6.596c-2.818 1.606-5.928 2.42-9.244 2.42-5.022 0-9.193-1.719-12.751-5.255S6.955 46.229 6.955 41.09c0-3.438.805-6.593 2.392-9.378m15.817 34.812c7.111 0 13.223-2.513 18.169-7.467s7.452-11.067 7.452-18.172c0-2.184-.236-4.27-.701-6.256h11.827v35.122c2.238-3.051 4.254-6.361 6.106-9.782.379.458.861.86 1.401 1.223V34.629h14.731V27.31H47.035c-1.032-1.645-2.269-3.192-3.723-4.633-4.956-4.908-11.189-7.397-18.524-7.397-4.538 0-8.817 1.144-12.718 3.403s-7.028 5.425-9.286 9.41C1.476 30.402.553 32.85 0 35.405v11.428c1.018 4.618 3.308 8.727 6.858 12.26 4.955 4.931 11.114 7.431 18.306 7.431" class="C"/><mask id="B" fill="#fff"><use xlink:href="#A"/></mask><path d="M.001 84.15h84.148V12.231H.001z" class="B C"/><g fill="#275e31" class="B"><path d="M84.149 67.107v-.151.151zM55.119 84.15h-3.386c.222.062 1.978.015 3.386 0m29.03-22.11h0v.077z"/><path d="M81.008 66.179c-2.665 2.389-7.435 5.495-12.991 8.47v.182h-.338c-5.204 2.765-11.066 5.388-16.541 7.203-3.426 1.373-5.895 2.175-6.52 2.116h7.115 3.385H56.3c7.524.151 27.499-7.188 27.849-17.042v-.152-4.839-.077c-.219.397-.514.808-.842 1.224-.421.933-1.159 1.893-2.299 2.915"/><path d="M68.017 74.831v-.183l-.338.183h.338z"/></g><g fill="#579c3b" class="B"><path d="M55.119 84.15h1.182c-.317-.007-.732-.005-1.182 0M34.237 56.816a17.34 17.34 0 0 0 6.603-6.595c1.577-2.785 2.376-5.931 2.376-9.35 0-3.395-.797-6.5-2.372-9.231s-3.822-4.945-6.689-6.591-5.952-2.482-9.162-2.482c-3.145 0-6.173.834-8.999 2.478s-5.063 3.887-6.647 6.667-2.391 5.94-2.391 9.378c0 5.139 1.728 9.356 5.286 12.891s7.729 5.255 12.751 5.255c3.316 0 6.427-.814 9.244-2.42"/><path d="M55.119 84.15h29.03V67.108C80.64 78.685 61.014 84.764 55.119 84.15m27.78-21.045l-.142.126c-.479.273-1.564 1.014-3.359 1.084-1.571.041-6.634-.413-9.979-2.551a8.42 8.42 0 0 1-1.296-1.006c-2.036 3.697-4.094 6.935-6.211 9.767-4.241 5.671-8.722 9.685-13.713 12.32-.017.01-.094.05-.195.101-.549.279-2.209 1.068-3.727 1.203h.342c.625.06 3.093-.743 6.519-2.115 5.476-1.815 11.337-4.439 16.541-7.203.115-.06.224-.122.338-.183 5.557-2.974 10.326-6.081 12.991-8.469 1.14-1.022 1.878-1.982 2.299-2.915.328-.416.623-.827.842-1.224v-1.252l-.005.358c-.099.328-.143 1.006-1.245 1.959"/><path d="M42.075 84.149c1.78-.014 3.867-.636 5.907-1.714 5.525-2.916 10.061-7.411 13.93-12.684V34.629H50.085c.465 1.986.701 4.072.701 6.256 0 7.105-2.507 13.22-7.452 18.172s-11.059 7.467-18.169 7.467c-7.193 0-13.352-2.5-18.307-7.431-3.55-3.533-5.84-7.642-6.857-12.26v37.316h44.265c.212-.048-.003 0-2.191 0m27.343-22.957c3.087 2.076 8.29 2.677 9.92 2.655 1.05-.031 4.611-.843 4.81-3.947V34.629h-14.73v26.563zm14.731 5.764v-4.839 4.839M77.207 8.131h-5.81a2.17 2.17 0 0 1-2.162-2.163 2.17 2.17 0 0 1 2.162-2.163h5.81a2.17 2.17 0 0 1 2.163 2.163 2.17 2.17 0 0 1-2.163 2.163zm-35.132 1.25c-1.885 0-3.413-1.528-3.413-3.413s1.528-3.413 3.413-3.413 3.413 1.529 3.413 3.413-1.528 3.413-3.413 3.413zm-28.703-1.25h-5.81a2.17 2.17 0 0 1-2.163-2.163 2.17 2.17 0 0 1 2.163-2.163h5.81a2.17 2.17 0 0 1 2.162 2.163 2.17 2.17 0 0 1-2.162 2.163zM.001.001v35.404c.553-2.554 1.476-5.002 2.783-7.312 2.259-3.984 5.383-7.151 9.286-9.41s8.181-3.403 12.719-3.403c7.335 0 13.567 2.489 18.523 7.398a25.79 25.79 0 0 1 3.724 4.633h37.113V.001H.001z"/></g><g class="C B"><path d="M44.25 84.153c.009 0 .018-.003.026-.003h-.01m39.9-24.424c-.001.061-.013.115-.017.174v.888l.017-1.062z"/><path d="M48.199 82.845c4.991-2.635 9.473-6.649 13.713-12.32v-.775c-3.869 5.274-8.405 9.768-13.93 12.685-2.04 1.077-4.127 1.7-5.907 1.714 2.188 0 2.403-.049 2.191 0h.011c1.519-.136 3.178-.924 3.728-1.203l.194-.101m31.139-18.998c-1.63.022-6.833-.579-9.92-2.655v.553c3.477 2.159 9.089 2.626 10.384 2.433.952-.194 2.125-.464 3.097-1.073 1.101-.952 1.145-1.631 1.245-1.959l.005-.358V59.9c-.2 3.104-3.761 3.916-4.811 3.947"/><path d="M68.017 59.969c-1.852 3.421-3.868 6.73-6.105 9.781v.775c2.117-2.832 4.175-6.07 6.206-9.771.384.367.823.694 1.3.99v-.552c-.54-.363-1.022-.765-1.401-1.223"/><path d="M61.912 70.525c-4.24 5.671-8.722 9.685-13.713 12.32l-.194.101.194-.101c4.991-2.635 9.473-6.649 13.713-12.32m17.486-6.209c1.795-.07 2.88-.812 3.359-1.084l.142-.126c-.972.608-2.145.878-3.097 1.072-1.295.194-6.907-.274-10.383-2.433v.02c3.345 2.137 8.408 2.592 9.979 2.551"/><path d="M69.418 61.764v-.02c-.478-.296-.916-.623-1.296-.986.388.371.825.705 1.296 1.006m-1.3-1.009c-2.03 3.701-4.089 6.938-6.206 9.771 2.117-2.833 4.176-6.07 6.206-9.771"/></g></g></svg>
